G04*
G04 #@! TF.GenerationSoftware,Altium Limited,Altium Designer,22.6.1 (34)*
G04*
G04 Layer_Color=32896*
%FSLAX25Y25*%
%MOIN*%
G70*
G04*
G04 #@! TF.SameCoordinates,7D94B0EB-34EF-48B3-BABB-182D4114F96C*
G04*
G04*
G04 #@! TF.FilePolarity,Positive*
G04*
G01*
G75*
%ADD10C,0.00984*%
%ADD11C,0.00787*%
%ADD14C,0.00500*%
%ADD16C,0.01000*%
%ADD17C,0.00236*%
G36*
X370570Y594738D02*
X371579D01*
Y594570D01*
X372589D01*
Y594402D01*
X373598D01*
Y594234D01*
X373766D01*
Y593561D01*
X372252D01*
Y593393D01*
X372084D01*
Y593224D01*
X371748D01*
Y593056D01*
X371579D01*
Y592888D01*
X371411D01*
Y592720D01*
X371243D01*
Y592551D01*
X371075D01*
Y592215D01*
X370906D01*
Y592047D01*
X370738D01*
Y591879D01*
X370570D01*
Y591710D01*
X370402D01*
Y591374D01*
X370234D01*
Y591206D01*
X370065D01*
Y590869D01*
X369897D01*
Y590701D01*
X369729D01*
Y590365D01*
X369561D01*
Y590196D01*
X369392D01*
Y589860D01*
X369224D01*
Y589692D01*
X369056D01*
Y589355D01*
X368888D01*
Y589019D01*
X368720D01*
Y588850D01*
X368551D01*
Y588514D01*
X368383D01*
Y588178D01*
X368215D01*
Y588009D01*
X368047D01*
Y587673D01*
X367879D01*
Y587336D01*
X367710D01*
Y587168D01*
X367542D01*
Y586832D01*
X367374D01*
Y586495D01*
X367206D01*
Y586327D01*
X367037D01*
Y585991D01*
X366869D01*
Y585486D01*
X367037D01*
Y585149D01*
X367206D01*
Y584981D01*
X367374D01*
Y584813D01*
X367542D01*
Y584477D01*
X367710D01*
Y584308D01*
X367879D01*
Y584140D01*
X368047D01*
Y583804D01*
X368215D01*
Y583636D01*
X368383D01*
Y583299D01*
X368551D01*
Y583131D01*
X368720D01*
Y582963D01*
X368888D01*
Y582626D01*
X369056D01*
Y582458D01*
X369224D01*
Y582122D01*
X369392D01*
Y581953D01*
X369561D01*
Y581785D01*
X369729D01*
Y581449D01*
X369897D01*
Y581280D01*
X370065D01*
Y580944D01*
X370234D01*
Y580776D01*
X370402D01*
Y580608D01*
X370570D01*
Y580271D01*
X370738D01*
Y580103D01*
X370906D01*
Y579935D01*
X371075D01*
Y579598D01*
X371243D01*
Y579430D01*
X371411D01*
Y579262D01*
X371579D01*
Y578925D01*
X371748D01*
Y578757D01*
X371916D01*
Y578589D01*
X372084D01*
Y578252D01*
X372252D01*
Y578084D01*
X372421D01*
Y577916D01*
X372589D01*
Y577748D01*
X372757D01*
Y577579D01*
X373094D01*
Y577411D01*
X373935D01*
Y576738D01*
X371243D01*
Y576906D01*
X371075D01*
Y577243D01*
X370906D01*
Y577411D01*
X370738D01*
Y577748D01*
X370570D01*
Y578084D01*
X370402D01*
Y578252D01*
X370234D01*
Y578589D01*
X370065D01*
Y578757D01*
X369897D01*
Y579094D01*
X369729D01*
Y579430D01*
X369561D01*
Y579598D01*
X369392D01*
Y579935D01*
X369224D01*
Y580103D01*
X369056D01*
Y580439D01*
X368888D01*
Y580776D01*
X368720D01*
Y580944D01*
X368551D01*
Y581280D01*
X368383D01*
Y581449D01*
X368215D01*
Y581785D01*
X368047D01*
Y581953D01*
X367879D01*
Y582290D01*
X367710D01*
Y582458D01*
X367542D01*
Y582794D01*
X367374D01*
Y582963D01*
X367206D01*
Y583299D01*
X367037D01*
Y583467D01*
X366869D01*
Y583636D01*
X366701D01*
Y583972D01*
X366533D01*
Y584140D01*
X366365D01*
Y584477D01*
X366196D01*
Y584645D01*
X366028D01*
Y584477D01*
X365860D01*
Y584140D01*
X365692D01*
Y583804D01*
X365523D01*
Y583636D01*
X365355D01*
Y583299D01*
X365187D01*
Y582963D01*
X365019D01*
Y582794D01*
X364850D01*
Y582458D01*
X364682D01*
Y582122D01*
X364514D01*
Y581785D01*
X364346D01*
Y581617D01*
X364178D01*
Y581280D01*
X364009D01*
Y580944D01*
X363841D01*
Y580776D01*
X363673D01*
Y580439D01*
X363505D01*
Y580103D01*
X363336D01*
Y579935D01*
X363168D01*
Y579598D01*
X363000D01*
Y579262D01*
X362832D01*
Y579094D01*
X362664D01*
Y578757D01*
X362495D01*
Y578421D01*
X362327D01*
Y578252D01*
X362159D01*
Y577916D01*
X361991D01*
Y577579D01*
X361822D01*
Y577411D01*
X361654D01*
Y577075D01*
X361486D01*
Y576738D01*
X357449D01*
Y577411D01*
X358458D01*
Y577579D01*
X358794D01*
Y577748D01*
X358963D01*
Y577916D01*
X359131D01*
Y578084D01*
X359299D01*
Y578421D01*
X359467D01*
Y578589D01*
X359635D01*
Y578925D01*
X359804D01*
Y579262D01*
X359972D01*
Y579430D01*
X360140D01*
Y579766D01*
X360308D01*
Y579935D01*
X360477D01*
Y580271D01*
X360645D01*
Y580439D01*
X360813D01*
Y580776D01*
X360981D01*
Y581112D01*
X361150D01*
Y581280D01*
X361318D01*
Y581617D01*
X361486D01*
Y581785D01*
X361654D01*
Y582122D01*
X361822D01*
Y582458D01*
X361991D01*
Y582626D01*
X362159D01*
Y582963D01*
X362327D01*
Y583131D01*
X362495D01*
Y583467D01*
X362664D01*
Y583804D01*
X362832D01*
Y583972D01*
X363000D01*
Y584308D01*
X363168D01*
Y584477D01*
X363336D01*
Y584813D01*
X363505D01*
Y585149D01*
X363673D01*
Y585318D01*
X363841D01*
Y585654D01*
X364009D01*
Y585991D01*
X364178D01*
Y586159D01*
X364346D01*
Y586495D01*
X364514D01*
Y587000D01*
X364346D01*
Y587168D01*
X364178D01*
Y587505D01*
X364009D01*
Y587673D01*
X363841D01*
Y587841D01*
X363673D01*
Y588178D01*
X363505D01*
Y588346D01*
X363336D01*
Y588514D01*
X363168D01*
Y588850D01*
X363000D01*
Y589019D01*
X362832D01*
Y589187D01*
X362664D01*
Y589523D01*
X362495D01*
Y589692D01*
X362327D01*
Y589860D01*
X362159D01*
Y590196D01*
X361991D01*
Y590365D01*
X361822D01*
Y590533D01*
X361654D01*
Y590869D01*
X361486D01*
Y591037D01*
X361318D01*
Y591206D01*
X361150D01*
Y591374D01*
X360981D01*
Y591710D01*
X360813D01*
Y591879D01*
X360645D01*
Y592047D01*
X360477D01*
Y592383D01*
X360308D01*
Y592551D01*
X360140D01*
Y592720D01*
X359972D01*
Y592888D01*
X359804D01*
Y593056D01*
X359635D01*
Y593393D01*
X359467D01*
Y593561D01*
X359299D01*
Y593729D01*
X358963D01*
Y593897D01*
X357785D01*
Y594738D01*
X360477D01*
Y594570D01*
X360645D01*
Y594234D01*
X360813D01*
Y594065D01*
X360981D01*
Y593729D01*
X361150D01*
Y593561D01*
X361318D01*
Y593393D01*
X361486D01*
Y593056D01*
X361654D01*
Y592888D01*
X361822D01*
Y592551D01*
X361991D01*
Y592383D01*
X362159D01*
Y592047D01*
X362327D01*
Y591879D01*
X362495D01*
Y591542D01*
X362664D01*
Y591374D01*
X362832D01*
Y591206D01*
X363000D01*
Y590869D01*
X363168D01*
Y590701D01*
X363336D01*
Y590365D01*
X363505D01*
Y590196D01*
X363673D01*
Y589860D01*
X363841D01*
Y589692D01*
X364009D01*
Y589355D01*
X364178D01*
Y589187D01*
X364346D01*
Y588850D01*
X364514D01*
Y588682D01*
X364682D01*
Y588514D01*
X364850D01*
Y588178D01*
X365019D01*
Y588009D01*
X365187D01*
Y587841D01*
X365355D01*
Y588178D01*
X365523D01*
Y588346D01*
X365692D01*
Y588682D01*
X365860D01*
Y589019D01*
X366028D01*
Y589187D01*
X366196D01*
Y589523D01*
X366365D01*
Y589860D01*
X366533D01*
Y590196D01*
X366701D01*
Y590365D01*
X366869D01*
Y590701D01*
X367037D01*
Y591037D01*
X367206D01*
Y591206D01*
X367374D01*
Y591542D01*
X367542D01*
Y591879D01*
X367710D01*
Y592047D01*
X367879D01*
Y592383D01*
X368047D01*
Y592720D01*
X368215D01*
Y592888D01*
X368383D01*
Y593224D01*
X368551D01*
Y593393D01*
X368720D01*
Y593729D01*
X368888D01*
Y593897D01*
X369056D01*
Y594065D01*
X369224D01*
Y594234D01*
X369392D01*
Y594402D01*
X369561D01*
Y594570D01*
X369729D01*
Y594738D01*
X369897D01*
Y594907D01*
X370570D01*
Y594738D01*
D02*
G37*
G36*
X356271Y589523D02*
X355094D01*
Y589355D01*
X354757D01*
Y589187D01*
X354589D01*
Y588514D01*
X354421D01*
Y582794D01*
Y582626D01*
Y577916D01*
X354589D01*
Y577579D01*
X354757D01*
Y577411D01*
X355094D01*
Y577243D01*
X356103D01*
Y576570D01*
X354925D01*
Y576738D01*
X354421D01*
Y576570D01*
X353579D01*
Y576738D01*
X351056D01*
Y576570D01*
X346009D01*
Y576738D01*
X345841D01*
Y578084D01*
X345673D01*
Y579766D01*
X345505D01*
Y579935D01*
X346346D01*
Y579094D01*
X346514D01*
Y578252D01*
X346682D01*
Y577916D01*
X346850D01*
Y577748D01*
X347355D01*
Y577579D01*
X352402D01*
Y583131D01*
X348533D01*
Y582963D01*
X348196D01*
Y582794D01*
X348028D01*
Y581280D01*
X347355D01*
Y585822D01*
X348028D01*
Y584308D01*
X348196D01*
Y584140D01*
X348869D01*
Y583972D01*
X351393D01*
Y584140D01*
X352402D01*
Y589187D01*
X351729D01*
Y589355D01*
X348701D01*
Y589187D01*
X347692D01*
Y589019D01*
X347019D01*
Y588178D01*
X346850D01*
Y587168D01*
X346178D01*
Y588346D01*
X346009D01*
Y589692D01*
X345841D01*
Y590196D01*
X356271D01*
Y589523D01*
D02*
G37*
G36*
X360645Y584140D02*
X360813D01*
Y583636D01*
X360981D01*
Y583299D01*
X361150D01*
Y582794D01*
X355935D01*
Y582963D01*
X355766D01*
Y583636D01*
X355598D01*
Y583972D01*
X355430D01*
Y584308D01*
X360645D01*
Y584140D01*
D02*
G37*
G36*
X340963Y590196D02*
X341635D01*
Y590028D01*
X342140D01*
Y589860D01*
X342477D01*
Y589692D01*
X342813D01*
Y589523D01*
X343149D01*
Y589355D01*
X343318D01*
Y589187D01*
X343486D01*
Y589019D01*
X343654D01*
Y588850D01*
X343822D01*
Y588682D01*
X343991D01*
Y588346D01*
X344159D01*
Y588009D01*
X344327D01*
Y587673D01*
X344495D01*
Y587000D01*
X344664D01*
Y585318D01*
X344495D01*
Y584813D01*
X344327D01*
Y584308D01*
X344159D01*
Y584140D01*
X343991D01*
Y583804D01*
X343822D01*
Y583636D01*
X343654D01*
Y583467D01*
X343318D01*
Y583299D01*
X342981D01*
Y583131D01*
X342477D01*
Y582963D01*
X341635D01*
Y582794D01*
X340290D01*
Y582626D01*
X338776D01*
Y582458D01*
X338103D01*
Y582290D01*
X337766D01*
Y582122D01*
X337430D01*
Y581953D01*
X337262D01*
Y581785D01*
X337093D01*
Y581617D01*
X336925D01*
Y581449D01*
X336757D01*
Y581280D01*
Y581112D01*
Y580944D01*
X336589D01*
Y579766D01*
X336757D01*
Y579094D01*
X336925D01*
Y578757D01*
X337093D01*
Y578589D01*
X337262D01*
Y578421D01*
X337430D01*
Y578252D01*
X337598D01*
Y578084D01*
X337766D01*
Y577916D01*
X338103D01*
Y577748D01*
X338439D01*
Y577579D01*
X338776D01*
Y577411D01*
X339617D01*
Y577243D01*
X341131D01*
Y577411D01*
X341972D01*
Y577579D01*
X342308D01*
Y577748D01*
X342645D01*
Y577916D01*
X342981D01*
Y578084D01*
X343318D01*
Y578252D01*
X343486D01*
Y578421D01*
X343654D01*
Y580103D01*
X344327D01*
Y578421D01*
X344495D01*
Y577075D01*
X343991D01*
Y576906D01*
X343486D01*
Y576738D01*
X342813D01*
Y576570D01*
X341804D01*
Y576402D01*
X339785D01*
Y576570D01*
X338776D01*
Y576738D01*
X338271D01*
Y576906D01*
X337766D01*
Y577075D01*
X337430D01*
Y577243D01*
X337093D01*
Y577411D01*
X336925D01*
Y577579D01*
X336589D01*
Y577748D01*
X336421D01*
Y577916D01*
X336252D01*
Y578084D01*
X336084D01*
Y578252D01*
X335916D01*
Y578421D01*
X335748D01*
Y578757D01*
X335579D01*
Y578925D01*
X335411D01*
Y579262D01*
X335243D01*
Y579598D01*
X335075D01*
Y580103D01*
X334907D01*
Y582122D01*
X335075D01*
Y582626D01*
X335243D01*
Y582963D01*
X335411D01*
Y583131D01*
X335579D01*
Y583299D01*
X335748D01*
Y583467D01*
X335916D01*
Y583636D01*
X336252D01*
Y583804D01*
X336589D01*
Y583972D01*
X337262D01*
Y584140D01*
X338271D01*
Y584308D01*
X339785D01*
Y584477D01*
X340963D01*
Y584645D01*
X341635D01*
Y584813D01*
X341972D01*
Y584981D01*
X342140D01*
Y585149D01*
X342308D01*
Y585318D01*
X342477D01*
Y585486D01*
X342645D01*
Y585822D01*
X342813D01*
Y586327D01*
X342981D01*
Y587336D01*
X342813D01*
Y587841D01*
X342645D01*
Y588178D01*
X342477D01*
Y588514D01*
X342308D01*
Y588682D01*
X342140D01*
Y588850D01*
X341972D01*
Y589019D01*
X341635D01*
Y589187D01*
X341299D01*
Y589355D01*
X340794D01*
Y589523D01*
X338608D01*
Y589355D01*
X337935D01*
Y589187D01*
X337598D01*
Y589019D01*
X337262D01*
Y588850D01*
X337093D01*
Y588682D01*
X336925D01*
Y588514D01*
X336757D01*
Y587000D01*
X335916D01*
Y589019D01*
X335748D01*
Y589692D01*
X336252D01*
Y589860D01*
X336589D01*
Y590028D01*
X337262D01*
Y590196D01*
X338103D01*
Y590365D01*
X340963D01*
Y590196D01*
D02*
G37*
G36*
X461879Y577073D02*
X462863D01*
Y576909D01*
X463191D01*
Y576745D01*
X463683D01*
Y576581D01*
X464011D01*
Y576417D01*
X464339D01*
Y576253D01*
X464503D01*
Y576089D01*
X464831D01*
Y575925D01*
X464995D01*
Y575761D01*
X465160D01*
Y575597D01*
X465323D01*
Y575433D01*
X465487D01*
Y575269D01*
X465160D01*
Y575433D01*
X464831D01*
Y575597D01*
X464503D01*
Y575761D01*
X464011D01*
Y575925D01*
X462371D01*
Y575761D01*
X461879D01*
Y575597D01*
X461551D01*
Y575433D01*
X461387D01*
Y575269D01*
X461223D01*
Y575105D01*
X461059D01*
Y574777D01*
X460895D01*
Y573465D01*
X461059D01*
Y573137D01*
X461223D01*
Y572809D01*
X461387D01*
Y572645D01*
X461551D01*
Y572481D01*
X461715D01*
Y572317D01*
X461879D01*
Y572153D01*
X462043D01*
Y571989D01*
X462207D01*
Y571825D01*
X462535D01*
Y571661D01*
X463027D01*
Y571497D01*
X463519D01*
Y571333D01*
X465160D01*
Y571497D01*
X465487D01*
Y571661D01*
X465815D01*
Y571333D01*
X465652D01*
Y571169D01*
X465487D01*
Y571005D01*
X465160D01*
Y570841D01*
X464995D01*
Y570677D01*
X464667D01*
Y570512D01*
X464175D01*
Y570349D01*
X463191D01*
Y570185D01*
X462535D01*
Y570349D01*
X461551D01*
Y570512D01*
X461059D01*
Y570677D01*
X460731D01*
Y570841D01*
X460403D01*
Y571005D01*
X460075D01*
Y571169D01*
X459747D01*
Y571333D01*
X459583D01*
Y571497D01*
X459255D01*
Y571661D01*
X459091D01*
Y571989D01*
X458927D01*
Y572153D01*
X458763D01*
Y572317D01*
X458599D01*
Y572481D01*
X458435D01*
Y572809D01*
X458271D01*
Y573137D01*
X458107D01*
Y573465D01*
X457943D01*
Y575105D01*
X458107D01*
Y575433D01*
X458271D01*
Y575761D01*
X458435D01*
Y575925D01*
X458599D01*
Y576089D01*
X458763D01*
Y576253D01*
X458927D01*
Y576417D01*
X459091D01*
Y576581D01*
X459419D01*
Y576745D01*
X459747D01*
Y576909D01*
X460075D01*
Y577073D01*
X461059D01*
Y577237D01*
X461879D01*
Y577073D01*
D02*
G37*
G36*
X437442Y576253D02*
X437606D01*
Y576089D01*
X437770D01*
Y575925D01*
X437934D01*
Y575761D01*
X438098D01*
Y575597D01*
X438262D01*
Y575433D01*
X438426D01*
Y575269D01*
X438590D01*
Y575105D01*
X438754D01*
Y574941D01*
X438918D01*
Y574777D01*
X439082D01*
Y574613D01*
X439246D01*
Y574449D01*
X439410D01*
Y573793D01*
X439246D01*
Y573629D01*
X438754D01*
Y573793D01*
X438590D01*
Y573957D01*
X438426D01*
Y574121D01*
X438262D01*
Y574285D01*
X438098D01*
Y574449D01*
X437934D01*
Y574613D01*
X437770D01*
Y574777D01*
X437606D01*
Y574941D01*
X437442D01*
Y575105D01*
X437278D01*
Y575269D01*
X437114D01*
Y575433D01*
X436950D01*
Y575597D01*
X436786D01*
Y575761D01*
X436622D01*
Y576253D01*
X436786D01*
Y576417D01*
X437442D01*
Y576253D01*
D02*
G37*
G36*
X358121Y573037D02*
X358290D01*
Y572701D01*
X358121D01*
Y572533D01*
X357953D01*
Y572701D01*
X357785D01*
Y572869D01*
Y573037D01*
X357953D01*
Y573206D01*
X358121D01*
Y573037D01*
D02*
G37*
G36*
X349374D02*
X349542D01*
Y572701D01*
X349374D01*
Y572533D01*
X349206D01*
Y572701D01*
X349037D01*
Y573037D01*
X349206D01*
Y573206D01*
X349374D01*
Y573037D01*
D02*
G37*
G36*
X334065D02*
X334234D01*
Y572701D01*
X334065D01*
Y572533D01*
X333897D01*
Y572701D01*
X333729D01*
Y573037D01*
X333897D01*
Y573206D01*
X334065D01*
Y573037D01*
D02*
G37*
G36*
X370738Y572196D02*
X371243D01*
Y572028D01*
X371075D01*
Y570682D01*
X371243D01*
Y570346D01*
X370570D01*
Y571860D01*
X370402D01*
Y572028D01*
X370065D01*
Y571860D01*
X369897D01*
Y570682D01*
X370065D01*
Y570346D01*
X369224D01*
Y570514D01*
X369392D01*
Y572028D01*
X368888D01*
Y571860D01*
X368720D01*
Y570682D01*
X368888D01*
Y570346D01*
X368047D01*
Y570514D01*
X368215D01*
Y570682D01*
X368383D01*
Y572196D01*
X368720D01*
Y572365D01*
X369056D01*
Y572196D01*
X369392D01*
Y572028D01*
X369561D01*
Y572196D01*
X369729D01*
Y572365D01*
X370234D01*
Y572196D01*
X370402D01*
Y572028D01*
X370570D01*
Y572365D01*
X370738D01*
Y572196D01*
D02*
G37*
G36*
X362327D02*
X362832D01*
Y572028D01*
X362664D01*
Y570682D01*
X362832D01*
Y570346D01*
X361991D01*
Y570514D01*
X362159D01*
Y571860D01*
X361991D01*
Y572028D01*
X361654D01*
Y571860D01*
X361486D01*
Y570514D01*
X361654D01*
Y570346D01*
X360813D01*
Y570514D01*
X360981D01*
Y572028D01*
X361150D01*
Y572196D01*
X361318D01*
Y572365D01*
X361822D01*
Y572196D01*
X361991D01*
Y572028D01*
X362159D01*
Y572365D01*
X362327D01*
Y572196D01*
D02*
G37*
G36*
X356776D02*
X357280D01*
Y572028D01*
X357112D01*
Y570514D01*
X357280D01*
Y570346D01*
X356439D01*
Y570514D01*
X356608D01*
Y571860D01*
X356439D01*
Y572028D01*
X356103D01*
Y571860D01*
X355935D01*
Y570514D01*
X356103D01*
Y570346D01*
X355262D01*
Y570514D01*
X355430D01*
Y570682D01*
Y570851D01*
Y572028D01*
X355598D01*
Y572196D01*
X355766D01*
Y572365D01*
X356271D01*
Y572196D01*
X356439D01*
Y572028D01*
X356608D01*
Y572365D01*
X356776D01*
Y572196D01*
D02*
G37*
G36*
X350888D02*
X351393D01*
Y572028D01*
X351224D01*
Y570514D01*
X351393D01*
Y570346D01*
X350383D01*
Y570514D01*
X350551D01*
Y570682D01*
X350720D01*
Y571692D01*
X350551D01*
Y571860D01*
X350047D01*
Y572028D01*
X349879D01*
Y572196D01*
X350047D01*
Y572365D01*
X350383D01*
Y572196D01*
X350551D01*
Y572028D01*
X350720D01*
Y572365D01*
X350888D01*
Y572196D01*
D02*
G37*
G36*
X348028D02*
X348533D01*
Y572028D01*
X348364D01*
Y570514D01*
X348533D01*
Y570346D01*
X347692D01*
Y570682D01*
X347860D01*
Y570851D01*
Y571019D01*
Y571860D01*
X347692D01*
Y572028D01*
X347355D01*
Y571860D01*
X347187D01*
Y570514D01*
X347355D01*
Y570346D01*
X346514D01*
Y570514D01*
X346682D01*
Y572028D01*
X346850D01*
Y572196D01*
X347019D01*
Y572365D01*
X347355D01*
Y572196D01*
X347692D01*
Y572028D01*
X347860D01*
Y572365D01*
X348028D01*
Y572196D01*
D02*
G37*
G36*
X330533D02*
X331037D01*
Y572028D01*
X330869D01*
Y571860D01*
X330701D01*
Y570682D01*
X330869D01*
Y570514D01*
X331037D01*
Y570346D01*
X330196D01*
Y570682D01*
X330364D01*
Y571860D01*
X330196D01*
Y572028D01*
X329692D01*
Y570514D01*
X329860D01*
Y570346D01*
X329019D01*
Y570682D01*
X329187D01*
Y571692D01*
Y571860D01*
Y572028D01*
X329355D01*
Y572196D01*
X329523D01*
Y572365D01*
X329860D01*
Y572196D01*
X330196D01*
Y572028D01*
X330364D01*
Y572365D01*
X330533D01*
Y572196D01*
D02*
G37*
G36*
X380327Y572869D02*
X380159D01*
Y572701D01*
X379991D01*
Y570851D01*
X380159D01*
Y570682D01*
X380327D01*
Y570514D01*
X380495D01*
Y570346D01*
X378477D01*
Y570514D01*
X378308D01*
Y571019D01*
X378477D01*
Y570851D01*
X378645D01*
Y570682D01*
X379654D01*
Y571692D01*
X378981D01*
Y571523D01*
X378813D01*
Y571355D01*
X378645D01*
Y572196D01*
X378813D01*
Y572028D01*
X378981D01*
Y571860D01*
X379654D01*
Y572869D01*
X379486D01*
Y573037D01*
X379150D01*
Y572869D01*
X378645D01*
Y572533D01*
X378477D01*
Y573206D01*
X380327D01*
Y572869D01*
D02*
G37*
G36*
X365187Y573037D02*
X365019D01*
Y572869D01*
X364850D01*
Y570682D01*
X365019D01*
Y570514D01*
X365187D01*
Y570346D01*
X363168D01*
Y570682D01*
X363000D01*
Y571187D01*
X363168D01*
Y571019D01*
X363336D01*
Y570682D01*
X364346D01*
Y571692D01*
X363673D01*
Y571355D01*
X363505D01*
Y572196D01*
X363673D01*
Y572028D01*
X363841D01*
Y571860D01*
X364346D01*
Y572869D01*
X364178D01*
Y573037D01*
X363841D01*
Y572869D01*
X363505D01*
Y572533D01*
X363168D01*
Y572869D01*
X363336D01*
Y573206D01*
X365187D01*
Y573037D01*
D02*
G37*
G36*
X378140Y572028D02*
X377804D01*
Y571860D01*
X377636D01*
Y571523D01*
X377467D01*
Y571019D01*
X377636D01*
Y570851D01*
X377804D01*
Y570682D01*
X377972D01*
Y570514D01*
X378140D01*
Y570346D01*
X377467D01*
Y571019D01*
X377131D01*
Y570346D01*
X376290D01*
Y570682D01*
X376626D01*
Y571019D01*
X376794D01*
Y571187D01*
X376963D01*
Y571692D01*
X376794D01*
Y571860D01*
X376626D01*
Y572028D01*
X376290D01*
Y572196D01*
X376963D01*
Y572028D01*
Y571692D01*
X377299D01*
Y571860D01*
Y572028D01*
Y572196D01*
X378140D01*
Y572028D01*
D02*
G37*
G36*
X372421Y572196D02*
X372757D01*
Y572028D01*
X372925D01*
Y571692D01*
X373094D01*
Y570851D01*
X372925D01*
Y570514D01*
X372589D01*
Y570346D01*
X371916D01*
Y570514D01*
X371748D01*
Y570682D01*
X371579D01*
Y570851D01*
X371748D01*
Y570682D01*
X372252D01*
Y570851D01*
X372589D01*
Y571355D01*
X372421D01*
Y571523D01*
X371579D01*
Y572028D01*
X371748D01*
Y572196D01*
X371916D01*
Y572365D01*
X372421D01*
Y572196D01*
D02*
G37*
G36*
X367037D02*
X367374D01*
Y572028D01*
X367542D01*
Y571860D01*
X367710D01*
Y571355D01*
X367879D01*
Y571187D01*
X367710D01*
Y570682D01*
X367542D01*
Y570514D01*
X367206D01*
Y570346D01*
X366701D01*
Y570514D01*
X366365D01*
Y570682D01*
X366196D01*
Y570851D01*
X366533D01*
Y570682D01*
X367037D01*
Y570851D01*
X367206D01*
Y571019D01*
X367374D01*
Y571355D01*
X367037D01*
Y571523D01*
X366196D01*
Y572028D01*
X366365D01*
Y572196D01*
X366701D01*
Y572365D01*
X367037D01*
Y572196D01*
D02*
G37*
G36*
X354252D02*
X354589D01*
Y572028D01*
X354757D01*
Y571860D01*
X354925D01*
Y571355D01*
X355094D01*
Y571187D01*
X354925D01*
Y570682D01*
X354757D01*
Y570514D01*
X354421D01*
Y570346D01*
X353916D01*
Y570514D01*
X353579D01*
Y570682D01*
X353411D01*
Y570851D01*
X353748D01*
Y570682D01*
X354252D01*
Y570851D01*
X354421D01*
Y571019D01*
X354589D01*
Y571355D01*
X354252D01*
Y571523D01*
X353411D01*
Y572028D01*
X353579D01*
Y572196D01*
X353916D01*
Y572365D01*
X354252D01*
Y572196D01*
D02*
G37*
G36*
X352570D02*
X352906D01*
Y572028D01*
X353075D01*
Y571692D01*
X353243D01*
Y570851D01*
X353075D01*
Y570682D01*
X352906D01*
Y570514D01*
X352738D01*
Y570346D01*
X352065D01*
Y570514D01*
X351897D01*
Y570682D01*
X351729D01*
Y570851D01*
X351897D01*
Y570682D01*
X352402D01*
Y570851D01*
X352570D01*
Y571019D01*
X352738D01*
Y571355D01*
X352570D01*
Y571523D01*
X351561D01*
Y571860D01*
X351729D01*
Y572028D01*
X351897D01*
Y572196D01*
X352065D01*
Y572365D01*
X352570D01*
Y572196D01*
D02*
G37*
G36*
X338103Y572028D02*
X337935D01*
Y570682D01*
X337766D01*
Y570514D01*
X337598D01*
Y570346D01*
X337093D01*
Y570514D01*
X336757D01*
Y570346D01*
X336421D01*
Y570514D01*
X336084D01*
Y570682D01*
X336252D01*
Y572196D01*
X336925D01*
Y572028D01*
X336757D01*
Y570682D01*
X337262D01*
Y570851D01*
X337430D01*
Y571355D01*
Y571523D01*
Y572196D01*
X338103D01*
Y572028D01*
D02*
G37*
G36*
X375617Y572701D02*
X375785D01*
Y572365D01*
X375953D01*
Y572196D01*
X376121D01*
Y572028D01*
X375785D01*
Y570514D01*
X375617D01*
Y570346D01*
X375112D01*
Y570514D01*
X374944D01*
Y570682D01*
X375280D01*
Y570851D01*
X375449D01*
Y572028D01*
X374944D01*
Y572196D01*
X375280D01*
Y572365D01*
X375449D01*
Y572533D01*
Y572701D01*
Y572869D01*
X375617D01*
Y572701D01*
D02*
G37*
G36*
X373598Y572196D02*
X373766D01*
Y572028D01*
X373935D01*
Y572196D01*
X374607D01*
Y572028D01*
X374439D01*
Y570682D01*
X374607D01*
Y570346D01*
X373598D01*
Y570514D01*
X373766D01*
Y570682D01*
X373935D01*
Y571860D01*
X373262D01*
Y572365D01*
X373598D01*
Y572196D01*
D02*
G37*
G36*
X357953D02*
X358458D01*
Y572028D01*
X358290D01*
Y570682D01*
X358458D01*
Y570346D01*
X357617D01*
Y570682D01*
X357785D01*
Y572365D01*
X357953D01*
Y572196D01*
D02*
G37*
G36*
X349206D02*
X349710D01*
Y572028D01*
X349542D01*
Y570514D01*
X349710D01*
Y570346D01*
X348869D01*
Y570682D01*
X349037D01*
Y570851D01*
Y571019D01*
Y572365D01*
X349206D01*
Y572196D01*
D02*
G37*
G36*
X342813Y573037D02*
X343149D01*
Y572701D01*
X343318D01*
Y572028D01*
X343149D01*
Y571860D01*
X342981D01*
Y571692D01*
X342645D01*
Y571523D01*
X342308D01*
Y571355D01*
X342140D01*
Y570682D01*
X342308D01*
Y570514D01*
X342813D01*
Y570682D01*
X342981D01*
Y570851D01*
X343149D01*
Y571187D01*
X343318D01*
Y570682D01*
Y570514D01*
X343149D01*
Y570346D01*
X342140D01*
Y570514D01*
X341972D01*
Y570682D01*
X341804D01*
Y570851D01*
X341635D01*
Y571523D01*
X341804D01*
Y571692D01*
X341972D01*
Y571860D01*
X342140D01*
Y572028D01*
X342477D01*
Y572196D01*
X342813D01*
Y572533D01*
X342981D01*
Y572701D01*
X342813D01*
Y572869D01*
X342645D01*
Y573037D01*
X342308D01*
Y572869D01*
X342140D01*
Y572701D01*
X341972D01*
Y572533D01*
X341804D01*
Y573037D01*
X341972D01*
Y573206D01*
X342813D01*
Y573037D01*
D02*
G37*
G36*
X340626Y572196D02*
X340963D01*
Y572028D01*
X341131D01*
Y571860D01*
X341299D01*
Y571523D01*
X341467D01*
Y571019D01*
X341299D01*
Y570682D01*
X341131D01*
Y570514D01*
X340794D01*
Y570346D01*
X340122D01*
Y570514D01*
X339785D01*
Y570682D01*
X339617D01*
Y571019D01*
X339449D01*
Y571692D01*
X339617D01*
Y572028D01*
X339785D01*
Y572196D01*
X340122D01*
Y572365D01*
X340626D01*
Y572196D01*
D02*
G37*
G36*
X338776Y573206D02*
X339280D01*
Y573037D01*
X338944D01*
Y570682D01*
X339112D01*
Y570514D01*
X339280D01*
Y570346D01*
X338271D01*
Y570514D01*
X338439D01*
Y570682D01*
X338608D01*
Y572196D01*
Y572365D01*
Y573374D01*
X338776D01*
Y573206D01*
D02*
G37*
G36*
X335411Y572701D02*
X335579D01*
Y572533D01*
Y572365D01*
X335748D01*
Y572196D01*
X335916D01*
Y572028D01*
X335579D01*
Y570514D01*
X335411D01*
Y570346D01*
X334907D01*
Y570514D01*
X334738D01*
Y570682D01*
X335075D01*
Y570851D01*
X335243D01*
Y572028D01*
X334738D01*
Y572196D01*
X335075D01*
Y572365D01*
X335243D01*
Y572869D01*
X335411D01*
Y572701D01*
D02*
G37*
G36*
X333897Y572196D02*
X334402D01*
Y572028D01*
X334234D01*
Y570514D01*
X334402D01*
Y570346D01*
X333561D01*
Y570682D01*
X333729D01*
Y572365D01*
X333897D01*
Y572196D01*
D02*
G37*
G36*
X332551D02*
X332888D01*
Y572028D01*
X333056D01*
Y571692D01*
X333224D01*
Y570851D01*
X333056D01*
Y570682D01*
X332888D01*
Y570514D01*
X332551D01*
Y570346D01*
X331878D01*
Y570514D01*
X331710D01*
Y570682D01*
X331542D01*
Y570851D01*
X331374D01*
Y571860D01*
X331542D01*
Y572028D01*
X331710D01*
Y572196D01*
X332047D01*
Y572365D01*
X332551D01*
Y572196D01*
D02*
G37*
G36*
X328178D02*
X328514D01*
Y572028D01*
X328682D01*
Y571523D01*
X328514D01*
Y571355D01*
X328346D01*
Y571187D01*
X328009D01*
Y571019D01*
X327841D01*
Y570514D01*
X328178D01*
Y570682D01*
X328346D01*
Y570851D01*
X328514D01*
Y571019D01*
X328682D01*
Y570514D01*
X328514D01*
Y570346D01*
X327841D01*
Y570514D01*
X327505D01*
Y570682D01*
X327337D01*
Y571187D01*
X327505D01*
Y571355D01*
X327673D01*
Y571523D01*
X328009D01*
Y571692D01*
X328178D01*
Y571860D01*
X328346D01*
Y572028D01*
X328178D01*
Y572196D01*
X327841D01*
Y572028D01*
X327673D01*
Y571692D01*
X327505D01*
Y572196D01*
X327673D01*
Y572365D01*
X328178D01*
Y572196D01*
D02*
G37*
G36*
X442854Y576253D02*
X443018D01*
Y575761D01*
X442854D01*
Y575597D01*
X442690D01*
Y575433D01*
X442526D01*
Y575269D01*
X442362D01*
Y575105D01*
X442198D01*
Y574941D01*
X442034D01*
Y574777D01*
X441870D01*
Y574613D01*
X441706D01*
Y574449D01*
X441542D01*
Y574285D01*
X441378D01*
Y574121D01*
X441214D01*
Y573957D01*
X441050D01*
Y573793D01*
X440886D01*
Y573629D01*
X440722D01*
Y573465D01*
X440558D01*
Y573137D01*
X440722D01*
Y572973D01*
X440886D01*
Y572809D01*
X441050D01*
Y572645D01*
X441214D01*
Y572481D01*
X441378D01*
Y572317D01*
X441542D01*
Y572153D01*
X441706D01*
Y571989D01*
X441870D01*
Y571825D01*
X442034D01*
Y571661D01*
X442198D01*
Y571497D01*
X442362D01*
Y571333D01*
X442526D01*
Y571169D01*
X442690D01*
Y571005D01*
X442854D01*
Y570841D01*
X443018D01*
Y570349D01*
X442854D01*
Y570185D01*
X442198D01*
Y570349D01*
X442034D01*
Y570512D01*
X441870D01*
Y570677D01*
X441706D01*
Y570841D01*
X441542D01*
Y571005D01*
X441378D01*
Y571169D01*
X441214D01*
Y571333D01*
X441050D01*
Y571497D01*
X440886D01*
Y571661D01*
X440722D01*
Y571825D01*
X440558D01*
Y571989D01*
X440394D01*
Y572153D01*
X440230D01*
Y572317D01*
X440066D01*
Y572481D01*
X439902D01*
Y572645D01*
X439738D01*
Y572481D01*
X439574D01*
Y572317D01*
X439410D01*
Y572153D01*
X439246D01*
Y571989D01*
X439082D01*
Y571825D01*
X438918D01*
Y571661D01*
X438754D01*
Y571497D01*
X438590D01*
Y571333D01*
X438426D01*
Y571169D01*
X438262D01*
Y571005D01*
X438098D01*
Y570841D01*
X437934D01*
Y570677D01*
X437770D01*
Y570512D01*
X437606D01*
Y570349D01*
X437442D01*
Y570185D01*
X436622D01*
Y570841D01*
X436786D01*
Y571005D01*
X436950D01*
Y571169D01*
X437114D01*
Y571333D01*
X437278D01*
Y571497D01*
X437442D01*
Y571661D01*
X437606D01*
Y571825D01*
X437770D01*
Y571989D01*
X437934D01*
Y572153D01*
X438098D01*
Y572317D01*
X438262D01*
Y572481D01*
X438426D01*
Y572645D01*
X438590D01*
Y572809D01*
X438754D01*
Y572973D01*
X438918D01*
Y573137D01*
X439082D01*
Y573301D01*
X439246D01*
Y573465D01*
X439410D01*
Y573629D01*
X439574D01*
Y573793D01*
X439738D01*
Y573957D01*
X439902D01*
Y574121D01*
X440066D01*
Y574285D01*
X440230D01*
Y574449D01*
X440394D01*
Y574613D01*
X440558D01*
Y574777D01*
X440722D01*
Y574941D01*
X440886D01*
Y575105D01*
X441050D01*
Y575269D01*
X441214D01*
Y575433D01*
X441378D01*
Y575597D01*
X441542D01*
Y575761D01*
X441706D01*
Y575925D01*
X441870D01*
Y576089D01*
X442034D01*
Y576253D01*
X442198D01*
Y576417D01*
X442854D01*
Y576253D01*
D02*
G37*
G36*
X450071Y576417D02*
X450563D01*
Y576253D01*
X450891D01*
Y576089D01*
X451055D01*
Y575925D01*
X451219D01*
Y575761D01*
X451383D01*
Y575433D01*
X451547D01*
Y575105D01*
X451711D01*
Y571497D01*
X451547D01*
Y571169D01*
X451383D01*
Y570841D01*
X451219D01*
Y570677D01*
X451055D01*
Y570512D01*
X450891D01*
Y570349D01*
X450563D01*
Y570185D01*
X450235D01*
Y570020D01*
X444330D01*
Y570185D01*
X444166D01*
Y570841D01*
X444494D01*
Y571005D01*
X450235D01*
Y571169D01*
X450399D01*
Y571333D01*
X450563D01*
Y571661D01*
X450727D01*
Y572645D01*
X444166D01*
Y572809D01*
X444002D01*
Y572973D01*
X443838D01*
Y574941D01*
X444002D01*
Y575433D01*
X444166D01*
Y575761D01*
X444330D01*
Y575925D01*
X444494D01*
Y576089D01*
X444658D01*
Y576253D01*
X444986D01*
Y576417D01*
X445478D01*
Y576581D01*
X450071D01*
Y576417D01*
D02*
G37*
G36*
X435638D02*
X435802D01*
Y575761D01*
X435474D01*
Y575597D01*
X429569D01*
Y575433D01*
X429405D01*
Y575269D01*
X429242D01*
Y575105D01*
X429077D01*
Y574613D01*
X428913D01*
Y573957D01*
X434654D01*
Y573793D01*
X434982D01*
Y573629D01*
X435146D01*
Y573465D01*
X435310D01*
Y573301D01*
X435474D01*
Y573137D01*
X435638D01*
Y572809D01*
X435802D01*
Y571169D01*
X435638D01*
Y571005D01*
X435474D01*
Y570841D01*
X435310D01*
Y570512D01*
X435146D01*
Y570349D01*
X434818D01*
Y570185D01*
X434490D01*
Y570020D01*
X429569D01*
Y570185D01*
X429077D01*
Y570349D01*
X428913D01*
Y570512D01*
X428749D01*
Y570677D01*
X428585D01*
Y570841D01*
X428421D01*
Y571005D01*
X428257D01*
Y571333D01*
X428093D01*
Y575269D01*
X428257D01*
Y575597D01*
X428421D01*
Y575761D01*
X428585D01*
Y575925D01*
X428749D01*
Y576089D01*
X428913D01*
Y576253D01*
X429077D01*
Y576417D01*
X429569D01*
Y576581D01*
X435638D01*
Y576417D01*
D02*
G37*
G36*
X425633D02*
X426125D01*
Y576253D01*
X426453D01*
Y576089D01*
X426617D01*
Y575925D01*
X426781D01*
Y575761D01*
X426945D01*
Y575433D01*
X427109D01*
Y575105D01*
X427273D01*
Y571497D01*
X427109D01*
Y571169D01*
X426945D01*
Y570841D01*
X426781D01*
Y570677D01*
X426617D01*
Y570512D01*
X426453D01*
Y570349D01*
X426125D01*
Y570185D01*
X425797D01*
Y570020D01*
X419729D01*
Y570185D01*
X419565D01*
Y570841D01*
X419893D01*
Y571005D01*
X425797D01*
Y571169D01*
X425961D01*
Y571333D01*
X426125D01*
Y571661D01*
X426289D01*
Y574941D01*
X426125D01*
Y575269D01*
X425961D01*
Y575433D01*
X425633D01*
Y575597D01*
X419729D01*
Y575761D01*
X419565D01*
Y576417D01*
X419729D01*
Y576581D01*
X425633D01*
Y576417D01*
D02*
G37*
G36*
X418909Y571333D02*
X418745D01*
Y571005D01*
X418581D01*
Y570677D01*
X418417D01*
Y570512D01*
X418253D01*
Y570349D01*
X417925D01*
Y570185D01*
X417433D01*
Y570020D01*
X415465D01*
Y570185D01*
X415301D01*
Y570349D01*
X415137D01*
Y570677D01*
X415301D01*
Y570841D01*
X415465D01*
Y571005D01*
X417433D01*
Y571169D01*
X417761D01*
Y571497D01*
X417925D01*
Y571661D01*
X418089D01*
Y575597D01*
X415465D01*
Y575761D01*
X415301D01*
Y575925D01*
X415137D01*
Y576253D01*
X415301D01*
Y576417D01*
X415465D01*
Y576581D01*
X418089D01*
Y579861D01*
X418909D01*
Y571333D01*
D02*
G37*
G36*
X359972Y572196D02*
X360308D01*
Y572028D01*
X360477D01*
Y571355D01*
X360308D01*
Y571187D01*
X360140D01*
Y571019D01*
X360308D01*
Y570851D01*
X360477D01*
Y570514D01*
X360308D01*
Y570178D01*
X360477D01*
Y570009D01*
X360645D01*
Y569841D01*
X360477D01*
Y569505D01*
X359972D01*
Y569336D01*
X359635D01*
Y569505D01*
X359131D01*
Y569673D01*
X358963D01*
Y569841D01*
X358794D01*
Y570178D01*
X358626D01*
Y570346D01*
X358794D01*
Y570682D01*
X359972D01*
Y571019D01*
X359299D01*
Y571187D01*
X359131D01*
Y571355D01*
X358963D01*
Y572028D01*
X358626D01*
Y572196D01*
X359467D01*
Y572365D01*
X359972D01*
Y572196D01*
D02*
G37*
G36*
X345673D02*
X345841D01*
Y572028D01*
X346009D01*
Y571860D01*
X346178D01*
Y571355D01*
X346009D01*
Y571187D01*
X345841D01*
Y570851D01*
X346178D01*
Y570682D01*
X346009D01*
Y570514D01*
X345841D01*
Y570346D01*
X346009D01*
Y570178D01*
X346178D01*
Y569673D01*
X346009D01*
Y569505D01*
X345673D01*
Y569336D01*
X345337D01*
Y569505D01*
X344832D01*
Y569673D01*
X344495D01*
Y570009D01*
X344327D01*
Y570514D01*
X344495D01*
Y570682D01*
X345505D01*
Y570851D01*
X345673D01*
Y571019D01*
X345000D01*
Y571187D01*
X344664D01*
Y572028D01*
X344327D01*
Y572196D01*
X345000D01*
Y572365D01*
X345673D01*
Y572196D01*
D02*
G37*
G36*
X437606Y568544D02*
X437770D01*
Y567724D01*
X437606D01*
Y567560D01*
X437114D01*
Y567724D01*
X436950D01*
Y568380D01*
X437114D01*
Y568544D01*
X437278D01*
Y568708D01*
X437606D01*
Y568544D01*
D02*
G37*
G36*
X458435Y576581D02*
X458271D01*
Y576417D01*
X458107D01*
Y576253D01*
X457943D01*
Y576089D01*
X457779D01*
Y575925D01*
X457615D01*
Y575597D01*
X457451D01*
Y575105D01*
X457287D01*
Y573301D01*
X457451D01*
Y572973D01*
X457615D01*
Y572481D01*
X457779D01*
Y572317D01*
X457943D01*
Y571989D01*
X458107D01*
Y571825D01*
X458271D01*
Y571661D01*
X458435D01*
Y571497D01*
X458599D01*
Y571333D01*
X458763D01*
Y571169D01*
X458927D01*
Y571005D01*
X459255D01*
Y570841D01*
X459419D01*
Y570677D01*
X459747D01*
Y570512D01*
X459911D01*
Y570349D01*
X460403D01*
Y570185D01*
X460731D01*
Y570020D01*
X461059D01*
Y569857D01*
X461879D01*
Y569693D01*
X464011D01*
Y569857D01*
X464667D01*
Y570020D01*
X465160D01*
Y570185D01*
X465323D01*
Y570349D01*
X465652D01*
Y570512D01*
X465815D01*
Y570677D01*
X465979D01*
Y570841D01*
X466307D01*
Y571169D01*
X466471D01*
Y571333D01*
X466636D01*
Y571661D01*
X466799D01*
Y572153D01*
X466964D01*
Y573465D01*
X466799D01*
Y574121D01*
X466636D01*
Y574449D01*
X466471D01*
Y574777D01*
X466307D01*
Y575105D01*
X466144D01*
Y575269D01*
X465979D01*
Y575433D01*
X465815D01*
Y575597D01*
X466144D01*
Y575433D01*
X466307D01*
Y575269D01*
X466636D01*
Y575105D01*
X466799D01*
Y574941D01*
X466964D01*
Y574777D01*
X467128D01*
Y574613D01*
X467292D01*
Y574449D01*
X467456D01*
Y574121D01*
X467620D01*
Y573957D01*
X467784D01*
Y573793D01*
X467948D01*
Y573629D01*
X468112D01*
Y573301D01*
X468276D01*
Y572973D01*
X468440D01*
Y572645D01*
X468604D01*
Y572153D01*
X468768D01*
Y571661D01*
X468932D01*
Y569365D01*
X468768D01*
Y568872D01*
X468604D01*
Y568544D01*
X468440D01*
Y568216D01*
X468276D01*
Y567888D01*
X468112D01*
Y567724D01*
X467948D01*
Y567396D01*
X467784D01*
Y567232D01*
X467620D01*
Y567068D01*
X467456D01*
Y566904D01*
X467292D01*
Y566740D01*
X466964D01*
Y566576D01*
X466799D01*
Y566412D01*
X466471D01*
Y566248D01*
X466307D01*
Y566084D01*
X465979D01*
Y565920D01*
X465652D01*
Y565756D01*
X465160D01*
Y565592D01*
X464503D01*
Y565428D01*
X461059D01*
Y565592D01*
X460403D01*
Y565756D01*
X459911D01*
Y565920D01*
X459419D01*
Y566084D01*
X459091D01*
Y566248D01*
X458763D01*
Y566412D01*
X458435D01*
Y566576D01*
X458107D01*
Y566740D01*
X457943D01*
Y566904D01*
X457615D01*
Y567068D01*
X457451D01*
Y567232D01*
X457287D01*
Y567396D01*
X457123D01*
Y567560D01*
X456959D01*
Y567724D01*
X456795D01*
Y567888D01*
X456467D01*
Y568052D01*
X456303D01*
Y568380D01*
X456139D01*
Y568544D01*
X455975D01*
Y568708D01*
X455811D01*
Y569036D01*
X455647D01*
Y569201D01*
X455483D01*
Y569528D01*
X455319D01*
Y569857D01*
X455155D01*
Y570185D01*
X454991D01*
Y570841D01*
X454827D01*
Y571989D01*
X454663D01*
Y572153D01*
X454827D01*
Y573301D01*
X454991D01*
Y573793D01*
X455155D01*
Y574285D01*
X455319D01*
Y574449D01*
X455483D01*
Y574777D01*
X455647D01*
Y574941D01*
X455811D01*
Y575105D01*
X455975D01*
Y575269D01*
X456139D01*
Y575433D01*
X456303D01*
Y575597D01*
X456467D01*
Y575761D01*
X456631D01*
Y575925D01*
X456795D01*
Y576089D01*
X456959D01*
Y576253D01*
X457287D01*
Y576417D01*
X457615D01*
Y576581D01*
X457943D01*
Y576745D01*
X458435D01*
Y576581D01*
D02*
G37*
G36*
X464667Y579041D02*
X465487D01*
Y578877D01*
X466144D01*
Y578713D01*
X466636D01*
Y578549D01*
X467292D01*
Y578385D01*
X467620D01*
Y578221D01*
X468112D01*
Y578057D01*
X468440D01*
Y577893D01*
X468604D01*
Y577729D01*
X468932D01*
Y577565D01*
X469260D01*
Y577401D01*
X469588D01*
Y577237D01*
X469916D01*
Y577073D01*
X470080D01*
Y576909D01*
X470244D01*
Y576745D01*
X470572D01*
Y576581D01*
X470736D01*
Y576417D01*
X470900D01*
Y576253D01*
X471228D01*
Y576089D01*
X471392D01*
Y575925D01*
X471556D01*
Y575761D01*
X471720D01*
Y575597D01*
X471884D01*
Y575433D01*
X472048D01*
Y575269D01*
X472212D01*
Y575105D01*
X472376D01*
Y574941D01*
X472540D01*
Y574777D01*
X472704D01*
Y574449D01*
X472868D01*
Y574285D01*
X473032D01*
Y574121D01*
X473196D01*
Y573957D01*
X473360D01*
Y573629D01*
X473524D01*
Y573301D01*
X473688D01*
Y573137D01*
X473852D01*
Y572809D01*
X474016D01*
Y572481D01*
X474180D01*
Y572153D01*
X474344D01*
Y571825D01*
X474508D01*
Y571333D01*
X474672D01*
Y570841D01*
X474836D01*
Y570185D01*
X475000D01*
Y566904D01*
X474836D01*
Y566248D01*
X474672D01*
Y565756D01*
X474508D01*
Y565428D01*
X474344D01*
Y565100D01*
X474180D01*
Y564772D01*
X474016D01*
Y564444D01*
X473852D01*
Y564280D01*
X473688D01*
Y563952D01*
X473524D01*
Y563788D01*
X473360D01*
Y563624D01*
X473196D01*
Y563460D01*
X473032D01*
Y563296D01*
X472868D01*
Y563132D01*
X472704D01*
Y562968D01*
X472540D01*
Y562804D01*
X472376D01*
Y562640D01*
X472048D01*
Y562476D01*
X471884D01*
Y562312D01*
X471556D01*
Y562148D01*
X471228D01*
Y561984D01*
X470900D01*
Y561820D01*
X470572D01*
Y561656D01*
X470244D01*
Y561492D01*
X469916D01*
Y561328D01*
X469260D01*
Y561164D01*
X468440D01*
Y561000D01*
X464667D01*
Y561164D01*
X463683D01*
Y561328D01*
X463027D01*
Y561492D01*
X462535D01*
Y561656D01*
X462207D01*
Y561820D01*
X461715D01*
Y561984D01*
X461387D01*
Y562148D01*
X461059D01*
Y562312D01*
X460731D01*
Y562476D01*
X460403D01*
Y562640D01*
X460075D01*
Y562804D01*
X459911D01*
Y562968D01*
X459583D01*
Y563132D01*
X459419D01*
Y563296D01*
X459091D01*
Y563460D01*
X458927D01*
Y563624D01*
X458763D01*
Y563788D01*
X458435D01*
Y563952D01*
X458271D01*
Y564116D01*
X458107D01*
Y564280D01*
X457943D01*
Y564444D01*
X457779D01*
Y564608D01*
X457615D01*
Y564772D01*
X457451D01*
Y564936D01*
X457287D01*
Y565100D01*
X457123D01*
Y565264D01*
X456959D01*
Y565428D01*
X456795D01*
Y565592D01*
X456631D01*
Y565920D01*
X456959D01*
Y565756D01*
X457123D01*
Y565592D01*
X457287D01*
Y565428D01*
X457615D01*
Y565264D01*
X457943D01*
Y565100D01*
X458435D01*
Y564936D01*
X458763D01*
Y564772D01*
X459255D01*
Y564608D01*
X459583D01*
Y564444D01*
X460239D01*
Y564280D01*
X461387D01*
Y564116D01*
X463683D01*
Y564280D01*
X464667D01*
Y564444D01*
X465160D01*
Y564608D01*
X465652D01*
Y564772D01*
X465979D01*
Y564936D01*
X466307D01*
Y565100D01*
X466636D01*
Y565264D01*
X466964D01*
Y565428D01*
X467292D01*
Y565592D01*
X467456D01*
Y565756D01*
X467620D01*
Y565920D01*
X467784D01*
Y566084D01*
X467948D01*
Y566248D01*
X468112D01*
Y566412D01*
X468276D01*
Y566576D01*
X468440D01*
Y566740D01*
X468604D01*
Y566904D01*
X468768D01*
Y567232D01*
X468932D01*
Y567560D01*
X469096D01*
Y567888D01*
X469260D01*
Y568216D01*
X469424D01*
Y568708D01*
X469588D01*
Y569693D01*
X469752D01*
Y570512D01*
X469588D01*
Y571497D01*
X469424D01*
Y572153D01*
X469260D01*
Y572481D01*
X469096D01*
Y572809D01*
X468932D01*
Y573137D01*
X468768D01*
Y573465D01*
X468604D01*
Y573629D01*
X468440D01*
Y573957D01*
X468276D01*
Y574121D01*
X468112D01*
Y574285D01*
X467948D01*
Y574613D01*
X467784D01*
Y574777D01*
X467620D01*
Y574941D01*
X467456D01*
Y575105D01*
X467292D01*
Y575269D01*
X467128D01*
Y575433D01*
X466799D01*
Y575597D01*
X466636D01*
Y575761D01*
X466471D01*
Y575925D01*
X466144D01*
Y576089D01*
X465979D01*
Y576253D01*
X465815D01*
Y576417D01*
X465487D01*
Y576581D01*
X465160D01*
Y576745D01*
X464831D01*
Y576909D01*
X464503D01*
Y577073D01*
X464011D01*
Y577237D01*
X463519D01*
Y577401D01*
X463191D01*
Y577565D01*
X462371D01*
Y577729D01*
X461059D01*
Y577893D01*
X459583D01*
Y577729D01*
X458435D01*
Y577565D01*
X457779D01*
Y577401D01*
X457287D01*
Y577565D01*
X457615D01*
Y577729D01*
X457779D01*
Y577893D01*
X458107D01*
Y578057D01*
X458271D01*
Y578221D01*
X458599D01*
Y578385D01*
X458927D01*
Y578549D01*
X459419D01*
Y578713D01*
X459911D01*
Y578877D01*
X460567D01*
Y579041D01*
X461223D01*
Y579205D01*
X464667D01*
Y579041D01*
D02*
G37*
G36*
X450235Y567232D02*
X450563D01*
Y567068D01*
X450891D01*
Y566904D01*
X451055D01*
Y566740D01*
X451219D01*
Y566412D01*
X451383D01*
Y565428D01*
X451219D01*
Y565100D01*
X451055D01*
Y564936D01*
X450891D01*
Y564772D01*
X450727D01*
Y564608D01*
X450399D01*
Y564444D01*
X449743D01*
Y564280D01*
X446134D01*
Y564116D01*
X445970D01*
Y563952D01*
X445806D01*
Y563296D01*
X445970D01*
Y563132D01*
X446134D01*
Y562968D01*
X446462D01*
Y562804D01*
X451219D01*
Y562640D01*
X451383D01*
Y562312D01*
X451219D01*
Y562148D01*
X445970D01*
Y562312D01*
X445642D01*
Y562476D01*
X445478D01*
Y562640D01*
X445314D01*
Y562804D01*
X445150D01*
Y563132D01*
X444986D01*
Y564116D01*
X445150D01*
Y564444D01*
X445314D01*
Y564608D01*
X445478D01*
Y564772D01*
X445642D01*
Y564936D01*
X445970D01*
Y565100D01*
X449907D01*
Y565264D01*
X450399D01*
Y565428D01*
X450563D01*
Y566248D01*
X450399D01*
Y566412D01*
X450235D01*
Y566576D01*
X445314D01*
Y566740D01*
X445150D01*
Y567396D01*
X450235D01*
Y567232D01*
D02*
G37*
G36*
X443346D02*
X443674D01*
Y567068D01*
X444002D01*
Y566904D01*
X444166D01*
Y566576D01*
X444330D01*
Y566248D01*
X444494D01*
Y563132D01*
X444330D01*
Y562804D01*
X444166D01*
Y562640D01*
X444002D01*
Y562476D01*
X443838D01*
Y562312D01*
X443510D01*
Y562148D01*
X438426D01*
Y562312D01*
X438262D01*
Y562640D01*
X438426D01*
Y562804D01*
X443018D01*
Y562968D01*
X443346D01*
Y563132D01*
X443510D01*
Y563296D01*
X443674D01*
Y566248D01*
X443510D01*
Y566412D01*
X443346D01*
Y566576D01*
X438426D01*
Y566740D01*
X438262D01*
Y567232D01*
X438426D01*
Y567396D01*
X443346D01*
Y567232D01*
D02*
G37*
G36*
X437606D02*
X437770D01*
Y562148D01*
X437114D01*
Y562312D01*
X436950D01*
Y563624D01*
Y563788D01*
Y567068D01*
X437114D01*
Y567396D01*
X437606D01*
Y567232D01*
D02*
G37*
G36*
X435146D02*
X435474D01*
Y567068D01*
X435638D01*
Y566904D01*
X435802D01*
Y566740D01*
X435966D01*
Y566576D01*
X436130D01*
Y566084D01*
X436294D01*
Y563296D01*
X436130D01*
Y562968D01*
X435966D01*
Y562640D01*
X435802D01*
Y562476D01*
X435638D01*
Y562312D01*
X435310D01*
Y562148D01*
X430226D01*
Y562312D01*
X430061D01*
Y562640D01*
X430226D01*
Y562804D01*
X434818D01*
Y562968D01*
X435146D01*
Y563132D01*
X435310D01*
Y563296D01*
X435474D01*
Y564280D01*
X430061D01*
Y564444D01*
X429897D01*
Y566248D01*
X430061D01*
Y566576D01*
X430226D01*
Y566904D01*
X430389D01*
Y567068D01*
X430718D01*
Y567232D01*
X431046D01*
Y567396D01*
X435146D01*
Y567232D01*
D02*
G37*
G36*
X429242D02*
X429405D01*
Y562312D01*
X429242D01*
Y562148D01*
X428585D01*
Y566576D01*
X424649D01*
Y566412D01*
X424485D01*
Y566248D01*
X424321D01*
Y562312D01*
X424157D01*
Y562148D01*
X423501D01*
Y566412D01*
X423665D01*
Y566740D01*
X423829D01*
Y566904D01*
X423993D01*
Y567068D01*
X424157D01*
Y567232D01*
X424485D01*
Y567396D01*
X429242D01*
Y567232D01*
D02*
G37*
G36*
X421697D02*
X422025D01*
Y567068D01*
X422353D01*
Y566904D01*
X422517D01*
Y566576D01*
X422681D01*
Y566412D01*
X422845D01*
Y563132D01*
X422681D01*
Y562804D01*
X422517D01*
Y562640D01*
X422353D01*
Y562476D01*
X422189D01*
Y562312D01*
X421861D01*
Y562148D01*
X416777D01*
Y562312D01*
X416613D01*
Y562640D01*
X416777D01*
Y562804D01*
X421369D01*
Y562968D01*
X421697D01*
Y563132D01*
X421861D01*
Y563296D01*
X422025D01*
Y563788D01*
X422189D01*
Y565756D01*
X422025D01*
Y566248D01*
X421861D01*
Y566412D01*
X421697D01*
Y566576D01*
X416777D01*
Y566740D01*
X416613D01*
Y567232D01*
X416777D01*
Y567396D01*
X421697D01*
Y567232D01*
D02*
G37*
G36*
X415137D02*
X415465D01*
Y567068D01*
X415629D01*
Y566904D01*
X415793D01*
Y566740D01*
X415957D01*
Y566412D01*
X416121D01*
Y565920D01*
X416285D01*
Y563460D01*
X416121D01*
Y563132D01*
X415957D01*
Y562804D01*
X415793D01*
Y562476D01*
X415465D01*
Y562312D01*
X415301D01*
Y562148D01*
X410052D01*
Y562804D01*
X414645D01*
Y562968D01*
X415137D01*
Y563132D01*
X415301D01*
Y564116D01*
X415465D01*
Y564280D01*
X409888D01*
Y564608D01*
X409724D01*
Y565756D01*
X409888D01*
Y566412D01*
X410052D01*
Y566740D01*
X410216D01*
Y566904D01*
X410380D01*
Y567068D01*
X410544D01*
Y567232D01*
X410872D01*
Y567396D01*
X415137D01*
Y567232D01*
D02*
G37*
G36*
X408248D02*
X408576D01*
Y567068D01*
X408740D01*
Y566904D01*
X408904D01*
Y566740D01*
X409068D01*
Y566412D01*
X409232D01*
Y565264D01*
X409068D01*
Y564936D01*
X408904D01*
Y564772D01*
X408740D01*
Y564608D01*
X408412D01*
Y564444D01*
X407756D01*
Y564280D01*
X403984D01*
Y564116D01*
X403820D01*
Y563788D01*
X403656D01*
Y563296D01*
X403820D01*
Y563132D01*
X403984D01*
Y562968D01*
X404476D01*
Y562804D01*
X409232D01*
Y562148D01*
X403820D01*
Y562312D01*
X403492D01*
Y562476D01*
X403328D01*
Y562640D01*
X403164D01*
Y562804D01*
X403000D01*
Y564280D01*
X403164D01*
Y564608D01*
X403328D01*
Y564772D01*
X403492D01*
Y564936D01*
X403820D01*
Y565100D01*
X407920D01*
Y565264D01*
X408248D01*
Y565428D01*
X408412D01*
Y565756D01*
X408576D01*
Y565920D01*
X408412D01*
Y566248D01*
X408248D01*
Y566412D01*
X408084D01*
Y566576D01*
X403164D01*
Y566740D01*
X403000D01*
Y567232D01*
X403164D01*
Y567396D01*
X408248D01*
Y567232D01*
D02*
G37*
G36*
X388254Y544232D02*
X321608D01*
Y557915D01*
X388254D01*
Y544232D01*
D02*
G37*
%LPC*%
G36*
X372421Y572196D02*
X372084D01*
Y572028D01*
X371916D01*
Y571692D01*
X372589D01*
Y572028D01*
X372421D01*
Y572196D01*
D02*
G37*
G36*
X367037D02*
X366869D01*
Y572028D01*
X366701D01*
Y571692D01*
X367374D01*
Y571860D01*
X367206D01*
Y572028D01*
X367037D01*
Y572196D01*
D02*
G37*
G36*
X354252D02*
X354084D01*
Y572028D01*
X353916D01*
Y571692D01*
X354589D01*
Y571860D01*
X354421D01*
Y572028D01*
X354252D01*
Y572196D01*
D02*
G37*
G36*
X352570D02*
X352234D01*
Y572028D01*
X352065D01*
Y571692D01*
X352738D01*
Y572028D01*
X352570D01*
Y572196D01*
D02*
G37*
G36*
X340626D02*
X340290D01*
Y572028D01*
X340122D01*
Y571692D01*
X339953D01*
Y570851D01*
X340122D01*
Y570682D01*
X340290D01*
Y570514D01*
X340626D01*
Y570682D01*
X340794D01*
Y571187D01*
X340963D01*
Y571692D01*
X340794D01*
Y572028D01*
X340626D01*
Y572196D01*
D02*
G37*
G36*
X332383D02*
X332215D01*
Y572028D01*
X332047D01*
Y571860D01*
X331878D01*
Y570682D01*
X332047D01*
Y570514D01*
X332383D01*
Y570682D01*
X332551D01*
Y570851D01*
X332720D01*
Y571860D01*
X332551D01*
Y572028D01*
X332383D01*
Y572196D01*
D02*
G37*
G36*
X450235Y575597D02*
X445314D01*
Y575433D01*
X445150D01*
Y575269D01*
X444986D01*
Y575105D01*
X444822D01*
Y573629D01*
X450727D01*
Y574777D01*
Y574941D01*
X450563D01*
Y575269D01*
X450399D01*
Y575433D01*
X450235D01*
Y575597D01*
D02*
G37*
G36*
X434162Y573137D02*
X428913D01*
Y571989D01*
X429077D01*
Y571497D01*
X429242D01*
Y571333D01*
X429405D01*
Y571169D01*
X429569D01*
Y571005D01*
X434326D01*
Y571169D01*
X434654D01*
Y571497D01*
X434818D01*
Y571825D01*
X434982D01*
Y572153D01*
X434818D01*
Y572645D01*
X434654D01*
Y572809D01*
X434490D01*
Y572973D01*
X434162D01*
Y573137D01*
D02*
G37*
G36*
X359804Y572196D02*
X359635D01*
Y572028D01*
X359467D01*
Y571860D01*
X359299D01*
Y571523D01*
X359467D01*
Y571187D01*
X359804D01*
Y571355D01*
X359972D01*
Y571523D01*
Y572028D01*
X359804D01*
Y572196D01*
D02*
G37*
G36*
X359972Y570346D02*
X359131D01*
Y569841D01*
X359299D01*
Y569673D01*
X359972D01*
Y569841D01*
X360140D01*
Y570178D01*
X359972D01*
Y570346D01*
D02*
G37*
G36*
X345505Y572196D02*
X345168D01*
Y571860D01*
X345000D01*
Y571355D01*
X345168D01*
Y571187D01*
X345505D01*
Y571355D01*
X345673D01*
Y572028D01*
X345505D01*
Y572196D01*
D02*
G37*
G36*
X345673Y570346D02*
X344832D01*
Y570178D01*
X344664D01*
Y569841D01*
X344832D01*
Y569673D01*
X345673D01*
Y569841D01*
X345841D01*
Y570178D01*
X345673D01*
Y570346D01*
D02*
G37*
G36*
X435146Y566576D02*
X431046D01*
Y566412D01*
X430882D01*
Y566248D01*
X430718D01*
Y564936D01*
X430882D01*
Y565100D01*
X435310D01*
Y564936D01*
X435474D01*
Y566084D01*
X435310D01*
Y566412D01*
X435146D01*
Y566576D01*
D02*
G37*
G36*
X414973D02*
X411036D01*
Y566412D01*
X410872D01*
Y566248D01*
X410708D01*
Y565920D01*
X410544D01*
Y565100D01*
X415301D01*
Y566248D01*
X415137D01*
Y566412D01*
X414973D01*
Y566576D01*
D02*
G37*
G36*
X362066Y552324D02*
X357947D01*
Y552177D01*
X357652D01*
Y552030D01*
X357505D01*
Y551883D01*
X357358D01*
Y551588D01*
X357211D01*
Y551000D01*
X357358D01*
Y550559D01*
X357505D01*
Y550412D01*
X357652D01*
Y550264D01*
X357800D01*
Y550117D01*
X362066D01*
Y550264D01*
X362213D01*
Y550412D01*
X362360D01*
Y550559D01*
X362508D01*
Y550853D01*
X362655D01*
Y551588D01*
X362508D01*
Y551883D01*
X362360D01*
Y552030D01*
X362213D01*
Y552177D01*
X362066D01*
Y552324D01*
D02*
G37*
G36*
X372659Y556002D02*
X371776D01*
Y555855D01*
X371482D01*
Y555708D01*
X371335D01*
Y555561D01*
X371188D01*
Y555414D01*
X371041D01*
Y548793D01*
X370893D01*
Y548646D01*
X370746D01*
Y548499D01*
X365744D01*
Y548352D01*
X365450D01*
Y553942D01*
X365303D01*
Y554384D01*
X365156D01*
Y554531D01*
X365008D01*
Y554825D01*
X364861D01*
Y554972D01*
X364714D01*
Y555119D01*
X364567D01*
Y555267D01*
X364273D01*
Y555414D01*
X364126D01*
Y555561D01*
X363832D01*
Y555708D01*
X363390D01*
Y555855D01*
X358241D01*
Y555708D01*
X357947D01*
Y555561D01*
X357652D01*
Y555414D01*
X357505D01*
Y555119D01*
X357358D01*
Y554237D01*
X357505D01*
Y553942D01*
X357652D01*
Y553795D01*
X357947D01*
Y553648D01*
X359124D01*
Y553501D01*
X360448D01*
Y553648D01*
X362655D01*
Y553501D01*
X362949D01*
Y553354D01*
X363096D01*
Y550117D01*
X362949D01*
Y548646D01*
X362655D01*
Y548499D01*
X359271D01*
Y548646D01*
X355151D01*
Y548793D01*
X355004D01*
Y548940D01*
X354710D01*
Y549087D01*
X354563D01*
Y549235D01*
X354416D01*
Y549382D01*
X354269D01*
Y549529D01*
X354121D01*
Y549676D01*
X353974D01*
Y549823D01*
X353827D01*
Y549970D01*
X353680D01*
Y550117D01*
X353533D01*
Y550264D01*
X353239D01*
Y550412D01*
X353092D01*
Y550559D01*
X352945D01*
Y550706D01*
X352797D01*
Y550853D01*
X352650D01*
Y551147D01*
X352797D01*
Y551294D01*
X352945D01*
Y551441D01*
X353092D01*
Y551588D01*
X353239D01*
Y551736D01*
X353386D01*
Y551883D01*
X353533D01*
Y552030D01*
X353680D01*
Y552177D01*
X353827D01*
Y552324D01*
X353974D01*
Y552471D01*
X354121D01*
Y552618D01*
X354269D01*
Y552766D01*
X354416D01*
Y552913D01*
X354563D01*
Y553060D01*
X354710D01*
Y553207D01*
X354857D01*
Y553354D01*
X355004D01*
Y553501D01*
X355887D01*
Y553648D01*
X356475D01*
Y553795D01*
X356770D01*
Y554090D01*
X356917D01*
Y554384D01*
X357064D01*
Y554972D01*
X356917D01*
Y555267D01*
X356770D01*
Y555414D01*
X356623D01*
Y555561D01*
X356475D01*
Y555708D01*
X355887D01*
Y555855D01*
X354857D01*
Y555708D01*
X354121D01*
Y555561D01*
X353827D01*
Y555414D01*
X353533D01*
Y555267D01*
X353386D01*
Y555119D01*
X353239D01*
Y554972D01*
X353092D01*
Y554825D01*
X352945D01*
Y554678D01*
X352797D01*
Y554531D01*
X352650D01*
Y554384D01*
X352503D01*
Y554237D01*
X352356D01*
Y554090D01*
X352209D01*
Y553942D01*
X352062D01*
Y553795D01*
X351915D01*
Y553648D01*
X351768D01*
Y553501D01*
X351621D01*
Y553354D01*
X351473D01*
Y553207D01*
X351326D01*
Y553060D01*
X351179D01*
Y552913D01*
X351032D01*
Y552766D01*
X350885D01*
Y552618D01*
X350738D01*
Y552766D01*
X350591D01*
Y552913D01*
X350444D01*
Y553060D01*
X350149D01*
Y553207D01*
X350002D01*
Y553354D01*
X349855D01*
Y553501D01*
X349708D01*
Y553648D01*
X349561D01*
Y553795D01*
X349414D01*
Y553942D01*
X349267D01*
Y554090D01*
X349119D01*
Y554237D01*
X348825D01*
Y554384D01*
X348678D01*
Y554531D01*
X348531D01*
Y554678D01*
X348384D01*
Y554825D01*
X348237D01*
Y554972D01*
X348090D01*
Y555119D01*
X347942D01*
Y555267D01*
X347795D01*
Y555414D01*
X347501D01*
Y555561D01*
X347207D01*
Y555708D01*
X346618D01*
Y555855D01*
X346030D01*
Y555708D01*
X345147D01*
Y555855D01*
X344117D01*
Y555708D01*
X343382D01*
Y555561D01*
X343087D01*
Y555414D01*
X342940D01*
Y555267D01*
X342793D01*
Y554972D01*
X342646D01*
Y549087D01*
X342499D01*
Y548646D01*
X342352D01*
Y548499D01*
X338232D01*
Y548646D01*
X338085D01*
Y553501D01*
X337938D01*
Y555267D01*
X337791D01*
Y555561D01*
X337497D01*
Y555708D01*
X337350D01*
Y555855D01*
X336467D01*
Y555708D01*
X336173D01*
Y555561D01*
X336026D01*
Y555414D01*
X335878D01*
Y555267D01*
X335731D01*
Y554237D01*
X335584D01*
Y548646D01*
X335731D01*
Y548058D01*
X335584D01*
Y548205D01*
X335437D01*
Y548352D01*
X335290D01*
Y548499D01*
X329699D01*
Y548646D01*
X329552D01*
Y548793D01*
X329699D01*
Y548940D01*
X329994D01*
Y549087D01*
X330141D01*
Y549235D01*
X330288D01*
Y549382D01*
X330435D01*
Y549529D01*
X330582D01*
Y549676D01*
X330729D01*
Y549823D01*
X331024D01*
Y549970D01*
X331171D01*
Y550117D01*
X331318D01*
Y550264D01*
X331465D01*
Y550412D01*
X331612D01*
Y550559D01*
X331759D01*
Y550706D01*
X332053D01*
Y550853D01*
X332200D01*
Y551000D01*
X332348D01*
Y551147D01*
X332495D01*
Y551294D01*
X332642D01*
Y551441D01*
X332789D01*
Y551588D01*
X332936D01*
Y551736D01*
X333230D01*
Y551883D01*
X333377D01*
Y552030D01*
X333524D01*
Y552177D01*
X333672D01*
Y552324D01*
X333819D01*
Y552471D01*
X333966D01*
Y552618D01*
X334260D01*
Y552766D01*
X334407D01*
Y552913D01*
X334554D01*
Y553060D01*
X334701D01*
Y553207D01*
X334849D01*
Y553354D01*
X334996D01*
Y553795D01*
X335143D01*
Y554531D01*
X334996D01*
Y554972D01*
X334849D01*
Y555119D01*
X334701D01*
Y555267D01*
X334554D01*
Y555414D01*
X334407D01*
Y555561D01*
X334113D01*
Y555708D01*
X333524D01*
Y555855D01*
X327051D01*
Y555708D01*
X326757D01*
Y555561D01*
X326463D01*
Y555414D01*
X326316D01*
Y554972D01*
X326168D01*
Y554531D01*
X326316D01*
Y554090D01*
X326463D01*
Y553942D01*
X326610D01*
Y553795D01*
X326904D01*
Y553648D01*
X331612D01*
Y553501D01*
X331465D01*
Y553354D01*
X331318D01*
Y553207D01*
X331171D01*
Y553060D01*
X331024D01*
Y552913D01*
X330876D01*
Y552766D01*
X330729D01*
Y552618D01*
X330582D01*
Y552471D01*
X330288D01*
Y552324D01*
X330141D01*
Y552177D01*
X329994D01*
Y552030D01*
X329847D01*
Y551883D01*
X329699D01*
Y551736D01*
X329552D01*
Y551588D01*
X329258D01*
Y551441D01*
X329111D01*
Y551294D01*
X328964D01*
Y551147D01*
X328817D01*
Y551000D01*
X328670D01*
Y550853D01*
X328375D01*
Y550706D01*
X328228D01*
Y550559D01*
X328081D01*
Y550412D01*
X327934D01*
Y550264D01*
X327787D01*
Y550117D01*
X327640D01*
Y549970D01*
X327345D01*
Y549823D01*
X327198D01*
Y549676D01*
X327051D01*
Y549529D01*
X326904D01*
Y549382D01*
X326757D01*
Y549235D01*
X326610D01*
Y549087D01*
X326316D01*
Y548793D01*
X326168D01*
Y548499D01*
X326021D01*
Y547469D01*
X326168D01*
Y547175D01*
X326316D01*
Y546881D01*
X326463D01*
Y546734D01*
X326610D01*
Y546586D01*
X326904D01*
Y546439D01*
X327345D01*
Y546292D01*
X335290D01*
Y546439D01*
X335437D01*
Y546586D01*
X335584D01*
Y546734D01*
X335731D01*
Y547028D01*
X335878D01*
Y547616D01*
X336026D01*
Y547469D01*
X336173D01*
Y547322D01*
X336320D01*
Y547175D01*
X336467D01*
Y547028D01*
X336614D01*
Y546881D01*
X336761D01*
Y546734D01*
X337055D01*
Y546586D01*
X337203D01*
Y546439D01*
X337791D01*
Y546292D01*
X342940D01*
Y546439D01*
X343382D01*
Y546586D01*
X343676D01*
Y546734D01*
X343823D01*
Y546881D01*
X344117D01*
Y547028D01*
X344264D01*
Y547175D01*
X344411D01*
Y547322D01*
X344559D01*
Y547616D01*
X344706D01*
Y547028D01*
X344853D01*
Y546734D01*
X345000D01*
Y546586D01*
X345147D01*
Y546439D01*
X345441D01*
Y546292D01*
X347648D01*
Y546439D01*
X348090D01*
Y546586D01*
X348237D01*
Y546734D01*
X348384D01*
Y546881D01*
X348531D01*
Y547028D01*
X348678D01*
Y547175D01*
X348825D01*
Y547322D01*
X348972D01*
Y547469D01*
X349119D01*
Y547616D01*
X349267D01*
Y547763D01*
X349414D01*
Y547910D01*
X349561D01*
Y548058D01*
X349708D01*
Y548205D01*
X349855D01*
Y548352D01*
X350002D01*
Y548499D01*
X350149D01*
Y548646D01*
X350296D01*
Y548793D01*
X350444D01*
Y548940D01*
X350591D01*
Y549087D01*
X350738D01*
Y549235D01*
X350885D01*
Y549382D01*
X351179D01*
Y549235D01*
X351326D01*
Y549087D01*
X351473D01*
Y548940D01*
X351621D01*
Y548793D01*
X351768D01*
Y548646D01*
X351915D01*
Y548499D01*
X352062D01*
Y548352D01*
X352209D01*
Y548205D01*
X352356D01*
Y548058D01*
X352503D01*
Y547910D01*
X352797D01*
Y547763D01*
X352945D01*
Y547616D01*
X353092D01*
Y547469D01*
X353239D01*
Y547322D01*
X353386D01*
Y547175D01*
X353533D01*
Y547028D01*
X353680D01*
Y546881D01*
X353827D01*
Y546734D01*
X353974D01*
Y546586D01*
X354269D01*
Y546439D01*
X354710D01*
Y546292D01*
X363390D01*
Y546439D01*
X363832D01*
Y546586D01*
X364126D01*
Y546734D01*
X364420D01*
Y546881D01*
X364567D01*
Y547028D01*
X364714D01*
Y547175D01*
X364861D01*
Y547322D01*
X365008D01*
Y547469D01*
X365156D01*
Y546881D01*
X365303D01*
Y546734D01*
X365450D01*
Y546439D01*
X365744D01*
Y546292D01*
X371482D01*
Y546439D01*
X371923D01*
Y546586D01*
X372217D01*
Y546734D01*
X372365D01*
Y546881D01*
X372512D01*
Y547028D01*
X372659D01*
Y547175D01*
X372806D01*
Y547322D01*
X372953D01*
Y547469D01*
X373100D01*
Y547763D01*
X373247D01*
Y548058D01*
X373394D01*
Y555267D01*
X373247D01*
Y555561D01*
X373100D01*
Y555708D01*
X372953D01*
Y555855D01*
X372659D01*
Y556002D01*
D02*
G37*
G36*
X382369Y555855D02*
X377661D01*
Y555708D01*
X375748D01*
Y555561D01*
X375454D01*
Y555414D01*
X375160D01*
Y555267D01*
X374866D01*
Y555119D01*
X374719D01*
Y554972D01*
X374571D01*
Y554825D01*
X374424D01*
Y554678D01*
X374277D01*
Y554531D01*
X374130D01*
Y554237D01*
X373983D01*
Y554090D01*
X373836D01*
Y553648D01*
X373689D01*
Y553060D01*
X373542D01*
Y551883D01*
X373689D01*
Y551294D01*
X373836D01*
Y550853D01*
X373983D01*
Y550559D01*
X374130D01*
Y550412D01*
X374277D01*
Y550264D01*
X374424D01*
Y549970D01*
X374719D01*
Y549823D01*
X374866D01*
Y549676D01*
X375013D01*
Y549529D01*
X375307D01*
Y549382D01*
X375601D01*
Y549235D01*
X376043D01*
Y549087D01*
X380309D01*
Y549235D01*
X380456D01*
Y549382D01*
X380603D01*
Y549529D01*
X380750D01*
Y549676D01*
X380898D01*
Y550853D01*
X380750D01*
Y551000D01*
X380603D01*
Y551147D01*
X380309D01*
Y551294D01*
X379868D01*
Y551441D01*
X376484D01*
Y551588D01*
X376190D01*
Y551736D01*
X376043D01*
Y552030D01*
X375896D01*
Y552913D01*
X376043D01*
Y553207D01*
X376190D01*
Y553354D01*
X376484D01*
Y553501D01*
X378250D01*
Y553648D01*
X381045D01*
Y553501D01*
X381339D01*
Y546881D01*
X381486D01*
Y546586D01*
X381633D01*
Y546292D01*
X381927D01*
Y546145D01*
X382075D01*
Y545998D01*
X383104D01*
Y546145D01*
X383399D01*
Y546292D01*
X383546D01*
Y546586D01*
X383693D01*
Y547028D01*
X383840D01*
Y552913D01*
X383693D01*
Y554972D01*
X383546D01*
Y555119D01*
X383399D01*
Y555414D01*
X383104D01*
Y555561D01*
X382957D01*
Y555708D01*
X382369D01*
Y555855D01*
D02*
G37*
%LPD*%
G36*
X345883Y553501D02*
X346471D01*
Y553354D01*
X346765D01*
Y553207D01*
X346913D01*
Y553060D01*
X347060D01*
Y552913D01*
X347207D01*
Y552766D01*
X347354D01*
Y552618D01*
X347501D01*
Y552471D01*
X347648D01*
Y552324D01*
X347942D01*
Y552177D01*
X348090D01*
Y552030D01*
X348237D01*
Y551883D01*
X348384D01*
Y551736D01*
X348531D01*
Y551588D01*
X348678D01*
Y551441D01*
X348825D01*
Y551294D01*
X348972D01*
Y551147D01*
X349119D01*
Y551000D01*
Y550706D01*
X348972D01*
Y550559D01*
X348825D01*
Y550412D01*
X348678D01*
Y550264D01*
X348531D01*
Y550117D01*
X348384D01*
Y549970D01*
X348237D01*
Y549823D01*
X348090D01*
Y549676D01*
X347942D01*
Y549529D01*
X347795D01*
Y549382D01*
X347648D01*
Y549235D01*
X347501D01*
Y549087D01*
X347354D01*
Y548940D01*
X347207D01*
Y548793D01*
X347060D01*
Y548646D01*
X346618D01*
Y548499D01*
X345294D01*
Y548352D01*
X345147D01*
Y548205D01*
X345000D01*
Y548058D01*
X344853D01*
Y548499D01*
X345000D01*
Y553501D01*
X345294D01*
Y553648D01*
X345883D01*
Y553501D01*
D02*
G37*
G36*
X344853Y547763D02*
X344706D01*
Y547910D01*
X344853D01*
Y547763D01*
D02*
G37*
G36*
X335878D02*
X335731D01*
Y547910D01*
X335878D01*
Y547763D01*
D02*
G37*
G36*
X366045Y547452D02*
X365901D01*
Y547595D01*
X366045D01*
Y547452D01*
D02*
G37*
D10*
X181831Y478334D02*
G03*
X181831Y478334I-492J0D01*
G01*
X163794Y492598D02*
G03*
X163794Y492598I-492J0D01*
G01*
X346919Y484469D02*
G03*
X346919Y484469I-492J0D01*
G01*
X399264Y202153D02*
G03*
X399264Y202153I-492J0D01*
G01*
X399764Y131653D02*
G03*
X399764Y131653I-492J0D01*
G01*
D11*
X183209Y487295D02*
Y487705D01*
X171791Y487295D02*
X183209D01*
X171791D02*
Y487705D01*
X183209D01*
X153930Y494468D02*
X154341D01*
Y483051D02*
Y494468D01*
X153930Y483051D02*
X154341D01*
X153930D02*
Y494468D01*
X186539Y525606D02*
Y526394D01*
X191461Y525606D02*
Y526394D01*
X168035Y525169D02*
Y525957D01*
X163114Y525169D02*
Y525957D01*
X178035Y525169D02*
Y525957D01*
X173114Y525169D02*
Y525957D01*
X183035Y540169D02*
Y540957D01*
X178114Y540169D02*
Y540957D01*
X221606Y499539D02*
X222394D01*
X221606Y504461D02*
X222394D01*
X220606Y489539D02*
X221394D01*
X220606Y494461D02*
X221394D01*
X220606Y481461D02*
X221394D01*
X220606Y476539D02*
X221394D01*
X218606Y469461D02*
X219394D01*
X218606Y464539D02*
X219394D01*
X222681Y459461D02*
X223468D01*
X222681Y454539D02*
X223468D01*
X240181Y482039D02*
X240968D01*
X240181Y486961D02*
X240968D01*
X240181Y492039D02*
X240968D01*
X240181Y496961D02*
X240968D01*
X239606Y512461D02*
X240394D01*
X239606Y507539D02*
X240394D01*
X240181Y466961D02*
X240968D01*
X240181Y462039D02*
X240968D01*
X240181Y451961D02*
X240968D01*
X240181Y447039D02*
X240968D01*
X115252Y434232D02*
X124748D01*
X115252Y425768D02*
X124748D01*
X134606Y427539D02*
X135394D01*
X134606Y432461D02*
X135394D01*
X158035Y409106D02*
Y409894D01*
X153114Y409106D02*
Y409894D01*
X163035Y425169D02*
Y425957D01*
X158114Y425169D02*
Y425957D01*
X181590Y409295D02*
Y410082D01*
X176669Y409295D02*
Y410082D01*
X190614Y409106D02*
Y409894D01*
X195535Y409106D02*
Y409894D01*
X153035Y425169D02*
Y425957D01*
X148114Y425169D02*
Y425957D01*
X157736Y568150D02*
Y568937D01*
X162264Y568150D02*
Y568937D01*
X183114Y424106D02*
Y424894D01*
X188035Y424106D02*
Y424894D01*
X240181Y472039D02*
X240968D01*
X240181Y476961D02*
X240968D01*
X155236Y469606D02*
Y470394D01*
X159764Y469606D02*
Y470394D01*
X175535Y424106D02*
Y424894D01*
X170614Y424106D02*
Y424894D01*
X170535Y409106D02*
Y409894D01*
X165614Y409106D02*
Y409894D01*
X168114Y540169D02*
Y540957D01*
X173035Y540169D02*
Y540957D01*
X344262Y475315D02*
Y487716D01*
X329892Y475315D02*
X344262D01*
X329892D02*
Y487716D01*
X344262D01*
X338563Y470354D02*
X339154D01*
X338563Y464646D02*
X339154D01*
X403201Y203157D02*
X415799D01*
X403201Y222843D02*
X415799D01*
X395768Y192567D02*
Y202433D01*
X404232Y192567D02*
Y202433D01*
X395768Y122566D02*
Y132433D01*
X404232Y122566D02*
Y132433D01*
X403701Y152342D02*
X416299D01*
X403701Y132658D02*
X416299D01*
D14*
X423700Y228399D02*
Y226733D01*
X423367Y226400D01*
X422700D01*
X422367Y226733D01*
Y228399D01*
X420368Y226400D02*
X421701D01*
X420368Y227733D01*
Y228066D01*
X420701Y228399D01*
X421367D01*
X421701Y228066D01*
X424200Y157899D02*
Y156233D01*
X423867Y155900D01*
X423200D01*
X422867Y156233D01*
Y157899D01*
X422201Y155900D02*
X421534D01*
X421867D01*
Y157899D01*
X422201Y157566D01*
X165499Y498000D02*
Y496334D01*
X165166Y496000D01*
X164499D01*
X164166Y496334D01*
Y498000D01*
X163500Y496000D02*
X162833D01*
X163167D01*
Y498000D01*
X163500Y497667D01*
X160501Y496000D02*
X161834D01*
X160501Y497333D01*
Y497667D01*
X160834Y498000D01*
X161501D01*
X161834Y497667D01*
X181166Y505000D02*
Y503334D01*
X180833Y503000D01*
X180166D01*
X179833Y503334D01*
Y505000D01*
X179167Y503000D02*
X178500D01*
X178833D01*
Y505000D01*
X179167Y504667D01*
X177500Y503000D02*
X176834D01*
X177167D01*
Y505000D01*
X177500Y504667D01*
X346900Y493499D02*
Y491833D01*
X346567Y491500D01*
X345900D01*
X345567Y491833D01*
Y493499D01*
X344901Y491500D02*
X344234D01*
X344567D01*
Y493499D01*
X344901Y493166D01*
X343234D02*
X342901Y493499D01*
X342235D01*
X341902Y493166D01*
Y491833D01*
X342235Y491500D01*
X342901D01*
X343234Y491833D01*
Y493166D01*
X141666Y541000D02*
Y543000D01*
X140666D01*
X140333Y542666D01*
Y542000D01*
X140666Y541667D01*
X141666D01*
X140999D02*
X140333Y541000D01*
X138333Y543000D02*
X139000Y542666D01*
X139666Y542000D01*
Y541334D01*
X139333Y541000D01*
X138667D01*
X138333Y541334D01*
Y541667D01*
X138667Y542000D01*
X139666D01*
X137667Y542666D02*
X137334Y543000D01*
X136667D01*
X136334Y542666D01*
Y542333D01*
X136667Y542000D01*
X136334Y541667D01*
Y541334D01*
X136667Y541000D01*
X137334D01*
X137667Y541334D01*
Y541667D01*
X137334Y542000D01*
X137667Y542333D01*
Y542666D01*
X137334Y542000D02*
X136667D01*
X210666Y470000D02*
Y472000D01*
X209666D01*
X209333Y471666D01*
Y471000D01*
X209666Y470667D01*
X210666D01*
X209999D02*
X209333Y470000D01*
X207334Y472000D02*
X208666D01*
Y471000D01*
X208000Y471333D01*
X207667D01*
X207334Y471000D01*
Y470334D01*
X207667Y470000D01*
X208333D01*
X208666Y470334D01*
X205334Y472000D02*
X206001Y471666D01*
X206667Y471000D01*
Y470334D01*
X206334Y470000D01*
X205667D01*
X205334Y470334D01*
Y470667D01*
X205667Y471000D01*
X206667D01*
X245666Y458000D02*
Y460000D01*
X244666D01*
X244333Y459666D01*
Y459000D01*
X244666Y458667D01*
X245666D01*
X244999D02*
X244333Y458000D01*
X242334Y460000D02*
X243666D01*
Y459000D01*
X243000Y459333D01*
X242667D01*
X242334Y459000D01*
Y458334D01*
X242667Y458000D01*
X243333D01*
X243666Y458334D01*
X240334Y460000D02*
X241667D01*
Y459000D01*
X241001Y459333D01*
X240667D01*
X240334Y459000D01*
Y458334D01*
X240667Y458000D01*
X241334D01*
X241667Y458334D01*
X243666Y442000D02*
Y444000D01*
X242666D01*
X242333Y443667D01*
Y443000D01*
X242666Y442667D01*
X243666D01*
X242999D02*
X242333Y442000D01*
X240334Y444000D02*
X241666D01*
Y443000D01*
X241000Y443333D01*
X240667D01*
X240334Y443000D01*
Y442334D01*
X240667Y442000D01*
X241333D01*
X241666Y442334D01*
X238667Y442000D02*
Y444000D01*
X239667Y443000D01*
X238334D01*
X216587Y482922D02*
Y484921D01*
X215587D01*
X215254Y484588D01*
Y483921D01*
X215587Y483588D01*
X216587D01*
X215921D02*
X215254Y482922D01*
X213255Y484921D02*
X214588D01*
Y483921D01*
X213921Y484255D01*
X213588D01*
X213255Y483921D01*
Y483255D01*
X213588Y482922D01*
X214254D01*
X214588Y483255D01*
X212588Y484588D02*
X212255Y484921D01*
X211589D01*
X211256Y484588D01*
Y484255D01*
X211589Y483921D01*
X211922D01*
X211589D01*
X211256Y483588D01*
Y483255D01*
X211589Y482922D01*
X212255D01*
X212588Y483255D01*
X225666Y450000D02*
Y452000D01*
X224666D01*
X224333Y451666D01*
Y451000D01*
X224666Y450667D01*
X225666D01*
X224999D02*
X224333Y450000D01*
X222334Y452000D02*
X223666D01*
Y451000D01*
X223000Y451333D01*
X222667D01*
X222334Y451000D01*
Y450334D01*
X222667Y450000D01*
X223333D01*
X223666Y450334D01*
X220334Y450000D02*
X221667D01*
X220334Y451333D01*
Y451666D01*
X220667Y452000D01*
X221334D01*
X221667Y451666D01*
X181333Y399000D02*
Y401000D01*
X180333D01*
X180000Y400667D01*
Y400000D01*
X180333Y399667D01*
X181333D01*
X180666D02*
X180000Y399000D01*
X178000Y401000D02*
X179333D01*
Y400000D01*
X178667Y400333D01*
X178333D01*
X178000Y400000D01*
Y399334D01*
X178333Y399000D01*
X179000D01*
X179333Y399334D01*
X177334Y399000D02*
X176667D01*
X177001D01*
Y401000D01*
X177334Y400667D01*
X174051Y507316D02*
X176050Y507353D01*
X176031Y508353D01*
X175691Y508680D01*
X175025Y508667D01*
X174698Y508328D01*
X174717Y507328D01*
X174705Y507995D02*
X174026Y508648D01*
X175987Y510685D02*
X176012Y509352D01*
X175013Y509334D01*
X175333Y510006D01*
X175327Y510339D01*
X174987Y510666D01*
X174321Y510654D01*
X173994Y510314D01*
X174007Y509648D01*
X174346Y509321D01*
X175641Y511345D02*
X175968Y511685D01*
X175955Y512351D01*
X175616Y512678D01*
X174283Y512653D01*
X173957Y512313D01*
X173969Y511647D01*
X174309Y511320D01*
X175641Y511345D01*
X189653Y432967D02*
X189678Y434967D01*
X188678Y434979D01*
X188341Y434650D01*
X188333Y433983D01*
X188662Y433646D01*
X189661Y433634D01*
X188995Y433642D02*
X188320Y432984D01*
X186654Y433005D02*
X186679Y435004D01*
X187666Y433992D01*
X186334Y434008D01*
X185659Y433350D02*
X185322Y433021D01*
X184655Y433029D01*
X184326Y433367D01*
X184343Y434699D01*
X184680Y435029D01*
X185346Y435020D01*
X185676Y434683D01*
X185671Y434350D01*
X185334Y434021D01*
X184334Y434033D01*
X163987Y507516D02*
X165986Y507553D01*
X165967Y508553D01*
X165627Y508880D01*
X164961Y508867D01*
X164634Y508528D01*
X164653Y507528D01*
X164640Y508195D02*
X163961Y508848D01*
X163930Y510514D02*
X165929Y510552D01*
X164948Y509534D01*
X164923Y510866D01*
X165577Y511545D02*
X165904Y511885D01*
X165891Y512551D01*
X165552Y512878D01*
X165219Y512872D01*
X164892Y512532D01*
X164552Y512859D01*
X164219Y512853D01*
X163892Y512513D01*
X163905Y511847D01*
X164244Y511520D01*
X164577Y511526D01*
X164904Y511866D01*
X165244Y511539D01*
X165577Y511545D01*
X164904Y511866D02*
X164892Y512532D01*
X257666Y474000D02*
Y476000D01*
X256666D01*
X256333Y475667D01*
Y475000D01*
X256666Y474667D01*
X257666D01*
X256999D02*
X256333Y474000D01*
X254667D02*
Y476000D01*
X255666Y475000D01*
X254334D01*
X253667Y476000D02*
X252334D01*
Y475667D01*
X253667Y474334D01*
Y474000D01*
X185100Y551400D02*
Y553399D01*
X184100D01*
X183767Y553066D01*
Y552400D01*
X184100Y552066D01*
X185100D01*
X184433D02*
X183767Y551400D01*
X182101D02*
Y553399D01*
X183101Y552400D01*
X181768D01*
X179768Y553399D02*
X180435Y553066D01*
X181101Y552400D01*
Y551733D01*
X180768Y551400D01*
X180102D01*
X179768Y551733D01*
Y552066D01*
X180102Y552400D01*
X181101D01*
X164698Y434091D02*
X164631Y436089D01*
X163631Y436055D01*
X163310Y435711D01*
X163332Y435045D01*
X163676Y434723D01*
X164675Y434757D01*
X164009Y434734D02*
X163366Y434046D01*
X161701Y433990D02*
X161633Y435988D01*
X162666Y435022D01*
X161334Y434978D01*
X159302Y435909D02*
X160634Y435954D01*
X160668Y434955D01*
X159991Y435266D01*
X159658Y435254D01*
X159336Y434910D01*
X159358Y434244D01*
X159702Y433922D01*
X160369Y433945D01*
X160690Y434289D01*
X152666Y435000D02*
Y437000D01*
X151666D01*
X151333Y436666D01*
Y436000D01*
X151666Y435667D01*
X152666D01*
X151999D02*
X151333Y435000D01*
X149667D02*
Y437000D01*
X150666Y436000D01*
X149334D01*
X147667Y435000D02*
Y437000D01*
X148667Y436000D01*
X147334D01*
X187476Y512753D02*
X189475Y512790D01*
X189456Y513790D01*
X189117Y514117D01*
X188450Y514104D01*
X188124Y513765D01*
X188142Y512765D01*
X188130Y513432D02*
X187451Y514085D01*
X187419Y515751D02*
X189418Y515789D01*
X188438Y514771D01*
X188413Y516103D01*
X189066Y516782D02*
X189393Y517122D01*
X189381Y517788D01*
X189041Y518115D01*
X188708Y518109D01*
X188381Y517769D01*
X188388Y517436D01*
X188381Y517769D01*
X188042Y518096D01*
X187708Y518090D01*
X187382Y517750D01*
X187394Y517084D01*
X187734Y516757D01*
X157666Y395000D02*
Y397000D01*
X156666D01*
X156333Y396667D01*
Y396000D01*
X156666Y395667D01*
X157666D01*
X156999D02*
X156333Y395000D01*
X154667D02*
Y397000D01*
X155666Y396000D01*
X154333D01*
X152334Y395000D02*
X153667D01*
X152334Y396333D01*
Y396667D01*
X152667Y397000D01*
X153334D01*
X153667Y396667D01*
X196333Y399000D02*
Y401000D01*
X195333D01*
X195000Y400667D01*
Y400000D01*
X195333Y399667D01*
X196333D01*
X195666D02*
X195000Y399000D01*
X193333D02*
Y401000D01*
X194333Y400000D01*
X193000D01*
X192334Y399000D02*
X191667D01*
X192001D01*
Y401000D01*
X192334Y400667D01*
X160800Y479100D02*
Y481099D01*
X159800D01*
X159467Y480766D01*
Y480100D01*
X159800Y479766D01*
X160800D01*
X160134D02*
X159467Y479100D01*
X158801Y480766D02*
X158467Y481099D01*
X157801D01*
X157468Y480766D01*
Y480433D01*
X157801Y480100D01*
X158134D01*
X157801D01*
X157468Y479766D01*
Y479433D01*
X157801Y479100D01*
X158467D01*
X158801Y479433D01*
X156801D02*
X156468Y479100D01*
X155802D01*
X155468Y479433D01*
Y480766D01*
X155802Y481099D01*
X156468D01*
X156801Y480766D01*
Y480433D01*
X156468Y480100D01*
X155468D01*
X175676Y434027D02*
X175655Y436027D01*
X174656Y436017D01*
X174326Y435680D01*
X174333Y435013D01*
X174669Y434684D01*
X175669Y434694D01*
X175003Y434687D02*
X174343Y434014D01*
X173660Y435673D02*
X173323Y436003D01*
X172657Y435996D01*
X172327Y435660D01*
X172330Y435326D01*
X172667Y434997D01*
X173000Y435000D01*
X172667Y434997D01*
X172337Y434660D01*
X172340Y434327D01*
X172677Y433997D01*
X173343Y434004D01*
X173673Y434340D01*
X171660Y435653D02*
X171324Y435983D01*
X170657Y435976D01*
X170328Y435639D01*
X170331Y435306D01*
X170668Y434976D01*
X170338Y434640D01*
X170341Y434307D01*
X170678Y433977D01*
X171344Y433984D01*
X171674Y434320D01*
X171670Y434653D01*
X171334Y434983D01*
X171664Y435320D01*
X171660Y435653D01*
X171334Y434983D02*
X170668Y434976D01*
X170637Y394927D02*
X170692Y396926D01*
X169693Y396953D01*
X169351Y396629D01*
X169332Y395963D01*
X169656Y395621D01*
X170656Y395593D01*
X169989Y395612D02*
X169305Y394964D01*
X168685Y396648D02*
X168361Y396990D01*
X167694Y397008D01*
X167352Y396685D01*
X167343Y396352D01*
X167667Y396009D01*
X168000Y396000D01*
X167667Y396009D01*
X167325Y395685D01*
X167315Y395352D01*
X167639Y395010D01*
X168306Y394991D01*
X168648Y395315D01*
X166695Y397036D02*
X165363Y397073D01*
X165354Y396740D01*
X166649Y395371D01*
X166640Y395038D01*
X175100Y551400D02*
Y553399D01*
X174100D01*
X173767Y553066D01*
Y552400D01*
X174100Y552066D01*
X175100D01*
X174434D02*
X173767Y551400D01*
X173101Y553066D02*
X172767Y553399D01*
X172101D01*
X171768Y553066D01*
Y552733D01*
X172101Y552400D01*
X172434D01*
X172101D01*
X171768Y552066D01*
Y551733D01*
X172101Y551400D01*
X172767D01*
X173101Y551733D01*
X169768Y553399D02*
X170435Y553066D01*
X171101Y552400D01*
Y551733D01*
X170768Y551400D01*
X170102D01*
X169768Y551733D01*
Y552066D01*
X170102Y552400D01*
X171101D01*
X255666Y497000D02*
Y499000D01*
X254666D01*
X254333Y498666D01*
Y498000D01*
X254666Y497667D01*
X255666D01*
X254999D02*
X254333Y497000D01*
X253666Y498666D02*
X253333Y499000D01*
X252667D01*
X252334Y498666D01*
Y498333D01*
X252667Y498000D01*
X253000D01*
X252667D01*
X252334Y497667D01*
Y497334D01*
X252667Y497000D01*
X253333D01*
X253666Y497334D01*
X250334Y499000D02*
X251667D01*
Y498000D01*
X251001Y498333D01*
X250667D01*
X250334Y498000D01*
Y497334D01*
X250667Y497000D01*
X251334D01*
X251667Y497334D01*
X216591Y507000D02*
Y509000D01*
X215591D01*
X215258Y508667D01*
Y508000D01*
X215591Y507667D01*
X216591D01*
X215925D02*
X215258Y507000D01*
X214592Y508667D02*
X214258Y509000D01*
X213592D01*
X213259Y508667D01*
Y508333D01*
X213592Y508000D01*
X213925D01*
X213592D01*
X213259Y507667D01*
Y507334D01*
X213592Y507000D01*
X214258D01*
X214592Y507334D01*
X211593Y507000D02*
Y509000D01*
X212592Y508000D01*
X211259D01*
X141666Y435000D02*
Y437000D01*
X140666D01*
X140333Y436666D01*
Y436000D01*
X140666Y435667D01*
X141666D01*
X140999D02*
X140333Y435000D01*
X139666Y436666D02*
X139333Y437000D01*
X138667D01*
X138333Y436666D01*
Y436333D01*
X138667Y436000D01*
X139000D01*
X138667D01*
X138333Y435667D01*
Y435334D01*
X138667Y435000D01*
X139333D01*
X139666Y435334D01*
X137667Y436666D02*
X137334Y437000D01*
X136667D01*
X136334Y436666D01*
Y436333D01*
X136667Y436000D01*
X137001D01*
X136667D01*
X136334Y435667D01*
Y435334D01*
X136667Y435000D01*
X137334D01*
X137667Y435334D01*
X257666Y509000D02*
Y511000D01*
X256666D01*
X256333Y510667D01*
Y510000D01*
X256666Y509667D01*
X257666D01*
X256999D02*
X256333Y509000D01*
X255666Y510667D02*
X255333Y511000D01*
X254667D01*
X254334Y510667D01*
Y510333D01*
X254667Y510000D01*
X255000D01*
X254667D01*
X254334Y509667D01*
Y509334D01*
X254667Y509000D01*
X255333D01*
X255666Y509334D01*
X252334Y509000D02*
X253667D01*
X252334Y510333D01*
Y510667D01*
X252667Y511000D01*
X253334D01*
X253667Y510667D01*
X213333Y495000D02*
Y497000D01*
X212333D01*
X212000Y496666D01*
Y496000D01*
X212333Y495667D01*
X213333D01*
X212666D02*
X212000Y495000D01*
X211333Y496666D02*
X211000Y497000D01*
X210333D01*
X210000Y496666D01*
Y496333D01*
X210333Y496000D01*
X210667D01*
X210333D01*
X210000Y495667D01*
Y495334D01*
X210333Y495000D01*
X211000D01*
X211333Y495334D01*
X209334Y495000D02*
X208667D01*
X209001D01*
Y497000D01*
X209334Y496666D01*
X258666Y483000D02*
Y485000D01*
X257666D01*
X257333Y484666D01*
Y484000D01*
X257666Y483667D01*
X258666D01*
X257999D02*
X257333Y483000D01*
X256666Y484666D02*
X256333Y485000D01*
X255667D01*
X255334Y484666D01*
Y484333D01*
X255667Y484000D01*
X256000D01*
X255667D01*
X255334Y483667D01*
Y483334D01*
X255667Y483000D01*
X256333D01*
X256666Y483334D01*
X254667Y484666D02*
X254334Y485000D01*
X253667D01*
X253334Y484666D01*
Y483334D01*
X253667Y483000D01*
X254334D01*
X254667Y483334D01*
Y484666D01*
X163300Y577600D02*
Y579599D01*
X162300D01*
X161967Y579266D01*
Y578600D01*
X162300Y578266D01*
X163300D01*
X162634D02*
X161967Y577600D01*
X159968D02*
X161301D01*
X159968Y578933D01*
Y579266D01*
X160301Y579599D01*
X160967D01*
X161301Y579266D01*
X159301D02*
X158968Y579599D01*
X158302D01*
X157968Y579266D01*
Y578933D01*
X158302Y578600D01*
X157968Y578266D01*
Y577933D01*
X158302Y577600D01*
X158968D01*
X159301Y577933D01*
Y578266D01*
X158968Y578600D01*
X159301Y578933D01*
Y579266D01*
X158968Y578600D02*
X158302D01*
X112666Y429000D02*
Y431000D01*
X111666D01*
X111333Y430666D01*
Y430000D01*
X111666Y429667D01*
X112666D01*
X111999D02*
X111333Y429000D01*
X109334D02*
X110667D01*
X109334Y430333D01*
Y430666D01*
X109667Y431000D01*
X110333D01*
X110667Y430666D01*
X108667Y431000D02*
X107334D01*
Y430666D01*
X108667Y429334D01*
Y429000D01*
X353820Y458191D02*
X354147Y458531D01*
X354813Y458543D01*
X355153Y458217D01*
X355178Y456884D01*
X354851Y456544D01*
X354185Y456532D01*
X353845Y456859D01*
X353154Y458179D02*
X352814Y458506D01*
X352148Y458493D01*
X351821Y458154D01*
X351827Y457821D01*
X352167Y457494D01*
X352500Y457500D01*
X352167Y457494D01*
X351840Y457154D01*
X351846Y456821D01*
X352186Y456494D01*
X352852Y456507D01*
X353179Y456846D01*
X351155Y458141D02*
X350815Y458468D01*
X350149Y458456D01*
X349822Y458116D01*
X349828Y457783D01*
X350168Y457456D01*
X350501Y457462D01*
X350168Y457456D01*
X349841Y457117D01*
X349847Y456783D01*
X350187Y456457D01*
X350853Y456469D01*
X351180Y456809D01*
X353993Y468269D02*
X354299Y468628D01*
X354963Y468680D01*
X355322Y468375D01*
X355427Y467046D01*
X355121Y466687D01*
X354456Y466635D01*
X354098Y466941D01*
X352131Y466451D02*
X353460Y466556D01*
X352026Y467780D01*
X352000Y468112D01*
X352306Y468470D01*
X352970Y468523D01*
X353328Y468217D01*
X350470Y466320D02*
X350312Y468313D01*
X351388Y467395D01*
X350059Y467290D01*
X391666Y199000D02*
Y201000D01*
X390666D01*
X390333Y200666D01*
Y200000D01*
X390666Y199667D01*
X391666D01*
X391000D02*
X390333Y199000D01*
X389667Y200666D02*
X389334Y201000D01*
X388667D01*
X388334Y200666D01*
Y200333D01*
X388667Y200000D01*
X389000D01*
X388667D01*
X388334Y199667D01*
Y199334D01*
X388667Y199000D01*
X389334D01*
X389667Y199334D01*
X391333Y131500D02*
Y133500D01*
X390333D01*
X390000Y133167D01*
Y132500D01*
X390333Y132167D01*
X391333D01*
X390666D02*
X390000Y131500D01*
X389334D02*
X388667D01*
X389000D01*
Y133500D01*
X389334Y133167D01*
D16*
X100000Y100000D02*
Y700000D01*
X500000D01*
Y100000D02*
Y700000D01*
X100000Y100000D02*
X500000D01*
D17*
X169883Y329614D02*
X172382D01*
X172882Y330114D01*
Y331114D01*
X172382Y331613D01*
X169883D01*
Y332613D02*
Y334613D01*
X170383D01*
X172382Y332613D01*
X172882D01*
X277383Y204614D02*
X279882D01*
X280382Y205114D01*
Y206114D01*
X279882Y206613D01*
X277383D01*
Y209613D02*
X277883Y208613D01*
X278882Y207613D01*
X279882D01*
X280382Y208113D01*
Y209113D01*
X279882Y209613D01*
X279382D01*
X278882Y209113D01*
Y207613D01*
X443720Y656100D02*
X441221D01*
X440722Y655601D01*
Y654601D01*
X441221Y654101D01*
X443720D01*
X440722Y653101D02*
Y652102D01*
Y652601D01*
X443720D01*
X443221Y653101D01*
X440722Y649103D02*
X443720D01*
X442221Y650602D01*
Y648603D01*
M02*
