G04*
G04 #@! TF.GenerationSoftware,Altium Limited,Altium Designer,22.6.1 (34)*
G04*
G04 Layer_Color=65535*
%FSLAX25Y25*%
%MOIN*%
G70*
G04*
G04 #@! TF.SameCoordinates,7D94B0EB-34EF-48B3-BABB-182D4114F96C*
G04*
G04*
G04 #@! TF.FilePolarity,Positive*
G04*
G01*
G75*
%ADD10C,0.00984*%
%ADD11C,0.00787*%
%ADD12C,0.01500*%
%ADD13C,0.01575*%
%ADD14C,0.00500*%
%ADD15C,0.00600*%
%ADD16C,0.01000*%
%ADD17C,0.00236*%
D10*
X138551Y511748D02*
G03*
X138551Y511748I-492J0D01*
G01*
X424252Y298602D02*
G03*
X424252Y298602I-492J0D01*
G01*
Y318602D02*
G03*
X424252Y318602I-492J0D01*
G01*
Y363602D02*
G03*
X424252Y363602I-492J0D01*
G01*
X430984Y490500D02*
G03*
X430984Y490500I-492J0D01*
G01*
X424252Y386102D02*
G03*
X424252Y386102I-492J0D01*
G01*
Y408602D02*
G03*
X424252Y408602I-492J0D01*
G01*
X122461Y343701D02*
G03*
X122461Y343701I-492J0D01*
G01*
X165689Y326496D02*
G03*
X165689Y326496I-492J0D01*
G01*
X194961Y306201D02*
G03*
X194961Y306201I-492J0D01*
G01*
X247874Y279784D02*
G03*
X247874Y279784I-492J0D01*
G01*
X159626Y245000D02*
G03*
X159626Y245000I-492J0D01*
G01*
X172126Y133622D02*
G03*
X172126Y133622I-492J0D01*
G01*
X222461Y218327D02*
G03*
X222461Y218327I-492J0D01*
G01*
X190374Y162165D02*
G03*
X190374Y162165I-492J0D01*
G01*
X424252Y278602D02*
G03*
X424252Y278602I-492J0D01*
G01*
Y341102D02*
G03*
X424252Y341102I-492J0D01*
G01*
X273189Y201496D02*
G03*
X273189Y201496I-492J0D01*
G01*
X145492Y595709D02*
G03*
X145492Y595709I-492J0D01*
G01*
X387776Y469291D02*
G03*
X387776Y469291I-492J0D01*
G01*
X180492Y680079D02*
G03*
X180492Y680079I-492J0D01*
G01*
X449202Y658620D02*
G03*
X449202Y658620I-492J0D01*
G01*
X463819Y338858D02*
G03*
X463819Y338858I-492J0D01*
G01*
Y275485D02*
G03*
X463819Y275485I-492J0D01*
G01*
X464402Y362156D02*
G03*
X464402Y362156I-492J0D01*
G01*
X463556Y296713D02*
G03*
X463556Y296713I-492J0D01*
G01*
X463819Y384376D02*
G03*
X463819Y384376I-492J0D01*
G01*
X463819Y317891D02*
G03*
X463819Y317891I-492J0D01*
G01*
X463819Y406358D02*
G03*
X463819Y406358I-492J0D01*
G01*
D11*
X99684Y228268D02*
G03*
X100669Y227284I984J0D01*
G01*
Y262717D02*
G03*
X99684Y261732I0J-984D01*
G01*
X186819Y453087D02*
X191720D01*
Y508461D02*
Y508795D01*
Y453087D02*
Y453421D01*
X186819Y508795D02*
X191720D01*
X430158Y288169D02*
Y289547D01*
X427008Y288169D02*
X430158D01*
Y295453D02*
Y296831D01*
X427008D02*
X430158D01*
Y308169D02*
Y309547D01*
X427008Y308169D02*
X430158D01*
Y315453D02*
Y316831D01*
X427008D02*
X430158D01*
Y353169D02*
Y354547D01*
X427008Y353169D02*
X430158D01*
Y360453D02*
Y361831D01*
X427008D02*
X430158D01*
X422402Y491595D02*
Y503406D01*
X422598Y491595D02*
Y503406D01*
X422402Y491595D02*
X422598D01*
X422402Y503406D02*
X422598D01*
X152705Y644410D02*
X163295D01*
Y665590D01*
X152705D02*
X163295D01*
X152705Y644410D02*
Y665590D01*
X349705Y245590D02*
X360295D01*
X349705Y224410D02*
Y245590D01*
Y224410D02*
X360295D01*
Y245590D01*
X380756Y226669D02*
Y227654D01*
X375244Y226669D02*
Y227654D01*
X175583Y258496D02*
Y263811D01*
X184441Y272669D02*
X216921D01*
Y258496D02*
Y272669D01*
Y231331D02*
Y245504D01*
X184441Y231331D02*
X216921D01*
X175583Y240189D02*
X184441Y231331D01*
X175583Y240189D02*
Y245504D01*
Y263811D02*
X184441Y272669D01*
X430158Y375669D02*
Y377047D01*
X427008Y375669D02*
X430158D01*
Y382953D02*
Y384331D01*
X427008D02*
X430158D01*
Y398169D02*
Y399547D01*
X427008Y398169D02*
X430158D01*
Y405453D02*
Y406831D01*
X427008D02*
X430158D01*
X325759Y501698D02*
Y512289D01*
Y501698D02*
X346940D01*
Y512289D01*
X325759D02*
X346940D01*
X262681Y494736D02*
X263469D01*
X262681Y499264D02*
X263469D01*
X262681Y504736D02*
X263469D01*
X262681Y509264D02*
X263469D01*
X145622Y527118D02*
X158221D01*
X145622Y516882D02*
X158221D01*
X211429Y528835D02*
Y529425D01*
X205720Y528835D02*
Y529425D01*
X109318Y335052D02*
Y338177D01*
X115445Y335052D02*
Y338177D01*
X113714Y316539D02*
X114286D01*
X113714Y321461D02*
X114286D01*
X134114Y316208D02*
Y325705D01*
X125650Y316208D02*
Y325705D01*
X125413Y342717D02*
X129350D01*
X125413Y330512D02*
X129350D01*
X125413D02*
Y342717D01*
X129350Y330512D02*
Y342717D01*
X137087Y351969D02*
X137677D01*
X137087Y346260D02*
X137677D01*
X166476Y330433D02*
Y334370D01*
X169528D01*
X178287Y330433D02*
Y334370D01*
X175236D02*
X178287D01*
X187945Y297552D02*
Y300677D01*
X181818Y297552D02*
Y300677D01*
X208228Y308760D02*
X208819D01*
X208228Y314469D02*
X208819D01*
X201850Y293012D02*
Y305217D01*
X197913Y293012D02*
Y305217D01*
Y293012D02*
X201850D01*
X197913Y305217D02*
X201850D01*
X250039Y286083D02*
X252205D01*
X257028Y287657D02*
Y292776D01*
X245216D02*
X248465D01*
X253780D02*
X257028D01*
X245216Y287657D02*
Y292776D01*
X111713Y298110D02*
Y303425D01*
X120571Y312283D02*
X153051D01*
Y298110D02*
Y312283D01*
Y270945D02*
Y285118D01*
X120571Y270945D02*
X153051D01*
X111713Y279803D02*
X120571Y270945D01*
X111713Y279803D02*
Y285118D01*
Y303425D02*
X120571Y312283D01*
X156772Y254449D02*
Y262717D01*
X150276Y227284D02*
X156693D01*
X100669D02*
X133346D01*
X156693D02*
Y235551D01*
X99685Y228268D02*
Y261732D01*
X100669Y262717D02*
X156693D01*
X160709Y132835D02*
X164055D01*
X160709Y144646D02*
X164055D01*
X237087Y229095D02*
X237677D01*
X237087Y223386D02*
X237677D01*
X229350Y205138D02*
Y217342D01*
X225413Y205138D02*
Y217342D01*
Y205138D02*
X229350D01*
X225413Y217342D02*
X229350D01*
X209318Y210052D02*
Y213177D01*
X215445Y210052D02*
Y213177D01*
X176890Y163740D02*
Y213740D01*
X196870D02*
X202874D01*
X176890D02*
X182894D01*
X202874Y163740D02*
Y213740D01*
X196870Y163740D02*
X202874D01*
X176890D02*
X182894D01*
X462508Y239244D02*
X463492D01*
X462508Y244756D02*
X463492D01*
X434410Y227205D02*
Y237795D01*
Y227205D02*
X455590D01*
Y237795D01*
X434410D02*
X455590D01*
X435236Y294606D02*
Y295394D01*
X439764Y294606D02*
Y295394D01*
X435236Y314606D02*
Y315394D01*
X439764Y314606D02*
Y315394D01*
X435236Y359606D02*
Y360394D01*
X439764Y359606D02*
Y360394D01*
X435236Y382106D02*
Y382894D01*
X439764Y382106D02*
Y382894D01*
X435236Y274606D02*
Y275394D01*
X439764Y274606D02*
Y275394D01*
X430158Y268169D02*
Y269547D01*
X427008Y268169D02*
X430158D01*
Y275453D02*
Y276831D01*
X427008D02*
X430158D01*
X435236Y337106D02*
Y337894D01*
X439764Y337106D02*
Y337894D01*
X430158Y330669D02*
Y332047D01*
X427008Y330669D02*
X430158D01*
Y337953D02*
Y339331D01*
X427008D02*
X430158D01*
X435236Y405650D02*
Y406437D01*
X439764Y405650D02*
Y406437D01*
X436909Y432205D02*
Y442795D01*
Y432205D02*
X458090D01*
Y442795D01*
X436909D02*
X458090D01*
X465256Y432008D02*
Y432992D01*
X459744Y432008D02*
Y432992D01*
X453102Y681698D02*
Y692288D01*
X431920D02*
X453102D01*
X431920Y681698D02*
Y692288D01*
Y681698D02*
X453102D01*
X273976Y205433D02*
Y209370D01*
X277028D01*
X285787Y205433D02*
Y209370D01*
X282736D02*
X285787D01*
X241890Y271358D02*
X242874D01*
X241890Y276870D02*
X242874D01*
X169390Y319370D02*
X170374D01*
X169390Y313858D02*
X170374D01*
X271890Y194370D02*
X272874D01*
X271890Y188858D02*
X272874D01*
X209114Y279366D02*
Y288862D01*
X200650Y279366D02*
Y288862D01*
X144508Y340354D02*
X145492D01*
X144508Y334646D02*
X145492D01*
X213248Y303701D02*
Y305984D01*
Y289016D02*
Y291299D01*
Y289016D02*
X231752D01*
Y303701D02*
Y305984D01*
Y289016D02*
Y291299D01*
X213248Y305984D02*
X231752D01*
X248622Y204626D02*
X251378D01*
X248622Y220374D02*
X251378D01*
X163150Y186417D02*
Y188543D01*
X166339Y181496D02*
X169449D01*
Y190157D02*
Y193465D01*
Y181496D02*
Y184803D01*
X166339Y193465D02*
X169449D01*
X224579Y171311D02*
X233437Y180169D01*
X224579Y147689D02*
Y153004D01*
Y147689D02*
X233437Y138831D01*
X265917D01*
Y153004D01*
Y165996D02*
Y180169D01*
X233437D02*
X265917D01*
X224579Y165996D02*
Y171311D01*
X139161Y323555D02*
X150603D01*
X139161Y314673D02*
X150603D01*
X139161Y333556D02*
X150603D01*
X139161Y324673D02*
X150603D01*
X221028Y265559D02*
X232470D01*
X221028Y274441D02*
X232470D01*
X221028Y275559D02*
X232470D01*
X221028Y284441D02*
X232470D01*
X239161Y190682D02*
X250603D01*
X239161Y181799D02*
X250603D01*
X239161Y200681D02*
X250603D01*
X239161Y191799D02*
X250603D01*
X229921Y195846D02*
Y196634D01*
X234842Y195846D02*
Y196634D01*
X421811Y104331D02*
X430669Y113189D01*
Y131496D02*
Y136811D01*
X421811Y145669D02*
X430669Y136811D01*
X389331Y145669D02*
X421811D01*
X389331Y131496D02*
Y145669D01*
Y104331D02*
Y118504D01*
Y104331D02*
X421811D01*
X430669Y113189D02*
Y118504D01*
X131697Y589587D02*
X140587D01*
X131811Y566004D02*
X140587D01*
X147933Y569527D02*
Y586079D01*
X124350Y569527D02*
Y586079D01*
X216698Y533259D02*
X227289D01*
Y584440D01*
X216698D02*
X227289D01*
X216698Y533259D02*
Y584440D01*
X337008Y487244D02*
X337992D01*
X337008Y492756D02*
X337992D01*
X421732Y480252D02*
Y489748D01*
X413268Y480252D02*
Y489748D01*
X389606Y505236D02*
X390394D01*
X389606Y509764D02*
X390394D01*
X391697Y475413D02*
X400587D01*
X391697Y498996D02*
X400472D01*
X384350Y478921D02*
Y495472D01*
X407933Y478921D02*
Y495472D01*
X225984Y657500D02*
Y677500D01*
X174016Y657500D02*
X225984D01*
X174016D02*
Y677500D01*
X225984D01*
X169508Y629744D02*
X170492D01*
X169508Y635256D02*
X170492D01*
X269519Y683847D02*
X329519D01*
X269519Y673847D02*
X329519D01*
Y683847D01*
X269519Y673847D02*
Y683847D01*
X447824Y651632D02*
Y655569D01*
X435619Y651632D02*
Y655569D01*
X447824D01*
X435619Y651632D02*
X447824D01*
X467008Y660256D02*
X467992D01*
X467008Y654744D02*
X467992D01*
X431756Y666779D02*
Y678221D01*
X423244Y666779D02*
Y678221D01*
X458395Y630792D02*
X479576D01*
X458395D02*
Y641383D01*
X479576D01*
Y630792D02*
Y641383D01*
X443307Y672205D02*
Y672795D01*
X449016Y672205D02*
Y672795D01*
X430669Y188189D02*
Y193504D01*
X389331Y179331D02*
X421811D01*
X389331D02*
Y193504D01*
Y206496D02*
Y220669D01*
X421811D01*
X430669Y211811D01*
Y206496D02*
Y211811D01*
X421811Y179331D02*
X430669Y188189D01*
X473172Y170744D02*
X474157D01*
X473172Y176256D02*
X474157D01*
X434410Y157736D02*
Y168327D01*
Y157736D02*
X455590D01*
Y168327D01*
X434410D02*
X455590D01*
X364705Y175591D02*
X375295D01*
X364705Y154409D02*
Y175591D01*
Y154409D02*
X375295D01*
Y175591D01*
X353508Y150756D02*
X354492D01*
X353508Y145244D02*
X354492D01*
X461487Y147316D02*
X493376D01*
X461486Y107316D02*
X493376D01*
Y147316D01*
X461487Y107317D02*
Y147316D01*
X408299Y457456D02*
Y466953D01*
X399834Y457456D02*
Y466953D01*
X81260Y681260D02*
X103799D01*
X81260Y678740D02*
X103799D01*
X80472Y680000D02*
X81260Y681260D01*
X80472Y680000D02*
X81260Y678740D01*
X80472Y670000D02*
X81260Y668740D01*
X80472Y670000D02*
X81260Y671260D01*
Y668740D02*
X103799D01*
X81260Y671260D02*
X103799D01*
X80472Y650000D02*
X81260Y648740D01*
X80472Y650000D02*
X81260Y651260D01*
Y648740D02*
X103799D01*
X81260Y651260D02*
X103799D01*
Y624409D02*
X114390D01*
X103799D02*
Y685591D01*
X114390D01*
Y624409D02*
Y685591D01*
X81260Y631260D02*
X103799D01*
X81260Y628740D02*
X103799D01*
X80472Y630000D02*
X81260Y631260D01*
X80472Y630000D02*
X81260Y628740D01*
Y641260D02*
X103799D01*
X81260Y638740D02*
X103799D01*
X80472Y640000D02*
X81260Y641260D01*
X80472Y640000D02*
X81260Y638740D01*
Y661260D02*
X103799D01*
X81260Y658740D02*
X103799D01*
X80472Y660000D02*
X81260Y661260D01*
X80472Y660000D02*
X81260Y658740D01*
X465098Y343287D02*
X489508D01*
Y334626D02*
Y343287D01*
X465098Y334626D02*
X489508D01*
X465098D02*
Y343287D01*
Y279914D02*
X489508D01*
Y271253D02*
Y279914D01*
X465098Y271253D02*
X489508D01*
X465098D02*
Y279914D01*
X465682Y366585D02*
X490091D01*
Y357924D02*
Y366585D01*
X465682Y357924D02*
X490091D01*
X465682D02*
Y366585D01*
X464836Y301142D02*
X489246D01*
Y292480D02*
Y301142D01*
X464836Y292480D02*
X489246D01*
X464836D02*
Y301142D01*
X465098Y388805D02*
X489508D01*
Y380144D02*
Y388805D01*
X465098Y380144D02*
X489508D01*
X465098D02*
Y388805D01*
X465098Y322320D02*
X489508D01*
Y313658D02*
Y322320D01*
X465098Y313658D02*
X489508D01*
X465098D02*
Y322320D01*
X465098Y410787D02*
X489508D01*
Y402126D02*
Y410787D01*
X465098Y402126D02*
X489508D01*
X465098D02*
Y410787D01*
X461556Y180000D02*
Y220000D01*
X493445Y180000D02*
Y220000D01*
X461556Y180000D02*
X493445D01*
X461556Y220000D02*
X493445D01*
X402205Y234646D02*
X402795D01*
X402205Y240354D02*
X402795D01*
X417205D02*
X417795D01*
X417205Y234646D02*
X417795D01*
X402205Y164646D02*
X402795D01*
X402205Y170354D02*
X402795D01*
X417205D02*
X417795D01*
X417205Y164646D02*
X417795D01*
D12*
X116634Y185472D02*
X148130D01*
X129429Y122480D02*
X135335D01*
X148130Y134291D02*
Y185472D01*
X116634Y134291D02*
Y185472D01*
Y134228D02*
X129429Y122417D01*
X135335D02*
X148130Y134228D01*
D13*
X381598Y237539D02*
Y242461D01*
X466331Y170539D02*
Y175461D01*
X452598Y240039D02*
Y244961D01*
X455965Y425039D02*
Y429961D01*
X389331Y456539D02*
Y461461D01*
X267598Y271539D02*
Y276461D01*
X196331Y314539D02*
Y319461D01*
X296598Y189539D02*
Y194461D01*
X345965Y495039D02*
Y499961D01*
X178465Y637539D02*
Y642461D01*
X476465Y644539D02*
Y649461D01*
X361465Y155539D02*
Y160461D01*
D14*
X437500Y179833D02*
Y181833D01*
X438166Y181166D01*
X438833Y181833D01*
Y179833D01*
X439499D02*
X440166D01*
X439833D01*
Y181833D01*
X439499Y181499D01*
X441165Y179500D02*
X442498D01*
X443165Y179833D02*
Y181833D01*
X444165D01*
X444498Y181499D01*
Y180833D01*
X444165Y180500D01*
X443165D01*
X446164Y181833D02*
X445497D01*
X445164Y181499D01*
Y180166D01*
X445497Y179833D01*
X446164D01*
X446497Y180166D01*
Y181499D01*
X446164Y181833D01*
X447163D02*
Y179833D01*
X447830Y180500D01*
X448496Y179833D01*
Y181833D01*
X349500Y175833D02*
Y177833D01*
X350166Y177166D01*
X350833Y177833D01*
Y175833D01*
X351499D02*
X352166D01*
X351833D01*
Y177833D01*
X351499Y177499D01*
X353166Y175500D02*
X354498D01*
X355165Y177833D02*
Y175833D01*
X356498D01*
X358164Y177833D02*
X357497D01*
X357164Y177499D01*
Y176166D01*
X357497Y175833D01*
X358164D01*
X358497Y176166D01*
Y177499D01*
X358164Y177833D01*
X360496Y177499D02*
X360163Y177833D01*
X359497D01*
X359163Y177499D01*
Y176166D01*
X359497Y175833D01*
X360163D01*
X360496Y176166D01*
Y176833D01*
X359830D01*
X385500Y252833D02*
Y254833D01*
X386166Y254166D01*
X386833Y254833D01*
Y252833D01*
X388832D02*
X387499D01*
X388832Y254166D01*
Y254499D01*
X388499Y254833D01*
X387833D01*
X387499Y254499D01*
X389499Y252500D02*
X390832D01*
X391498Y254833D02*
Y252833D01*
X392831D01*
X394497Y254833D02*
X393831D01*
X393497Y254499D01*
Y253167D01*
X393831Y252833D01*
X394497D01*
X394830Y253167D01*
Y254499D01*
X394497Y254833D01*
X396830Y254499D02*
X396496Y254833D01*
X395830D01*
X395497Y254499D01*
Y253167D01*
X395830Y252833D01*
X396496D01*
X396830Y253167D01*
Y253833D01*
X396163D01*
X419500Y252833D02*
Y254833D01*
X420166Y254166D01*
X420833Y254833D01*
Y252833D01*
X422832D02*
X421499D01*
X422832Y254166D01*
Y254499D01*
X422499Y254833D01*
X421833D01*
X421499Y254499D01*
X423499Y252500D02*
X424832D01*
X425498Y252833D02*
Y254833D01*
X426498D01*
X426831Y254499D01*
Y253833D01*
X426498Y253500D01*
X425498D01*
X428497Y254833D02*
X427831D01*
X427497Y254499D01*
Y253167D01*
X427831Y252833D01*
X428497D01*
X428830Y253167D01*
Y254499D01*
X428497Y254833D01*
X429497D02*
Y252833D01*
X430163Y253500D01*
X430830Y252833D01*
Y254833D01*
X403833Y438833D02*
X403166Y438499D01*
X402500Y437833D01*
Y437167D01*
X402833Y436833D01*
X403500D01*
X403833Y437167D01*
Y437500D01*
X403500Y437833D01*
X402500D01*
X404499Y438833D02*
Y437500D01*
X405166Y436833D01*
X405832Y437500D01*
Y438833D01*
X406499Y436500D02*
X407832D01*
X409831Y438499D02*
X409498Y438833D01*
X408831D01*
X408498Y438499D01*
Y438166D01*
X408831Y437833D01*
X409498D01*
X409831Y437500D01*
Y437167D01*
X409498Y436833D01*
X408831D01*
X408498Y437167D01*
X411830Y438833D02*
X410497D01*
Y436833D01*
X411830D01*
X410497Y437833D02*
X411164D01*
X412497Y436833D02*
Y438833D01*
X413496D01*
X413830Y438499D01*
Y437833D01*
X413496Y437500D01*
X412497D01*
X413163D02*
X413830Y436833D01*
X414496Y438833D02*
Y437500D01*
X415163Y436833D01*
X415829Y437500D01*
Y438833D01*
X417495D02*
X416829D01*
X416495Y438499D01*
Y437167D01*
X416829Y436833D01*
X417495D01*
X417828Y437167D01*
Y438499D01*
X417495Y438833D01*
X173500Y222833D02*
X174167D01*
X173833D01*
Y224833D01*
X173500Y224499D01*
X176499Y224833D02*
X175166D01*
Y223833D01*
X175833Y224166D01*
X176166D01*
X176499Y223833D01*
Y223166D01*
X176166Y222833D01*
X175499D01*
X175166Y223166D01*
X177165Y224833D02*
Y223500D01*
X177832Y222833D01*
X178498Y223500D01*
Y224833D01*
X179165Y222500D02*
X180498D01*
X181164Y224833D02*
Y222833D01*
X182164D01*
X182497Y223166D01*
Y223500D01*
X182164Y223833D01*
X181164D01*
X182164D01*
X182497Y224166D01*
Y224499D01*
X182164Y224833D01*
X181164D01*
X183163Y222833D02*
Y224166D01*
X183830Y224833D01*
X184496Y224166D01*
Y222833D01*
Y223833D01*
X183163D01*
X185163Y224833D02*
X186496D01*
X185829D01*
Y222833D01*
X138833Y212166D02*
X138500Y212499D01*
X137833D01*
X137500Y212166D01*
Y210833D01*
X137833Y210500D01*
X138500D01*
X138833Y210833D01*
Y211500D01*
X138166D01*
X139499Y210500D02*
Y212499D01*
X140832Y210500D01*
Y212499D01*
X141499D02*
Y210500D01*
X142498D01*
X142832Y210833D01*
Y212166D01*
X142498Y212499D01*
X141499D01*
X156500Y276833D02*
Y278166D01*
X157167Y278833D01*
X157833Y278166D01*
Y276833D01*
Y277833D01*
X156500D01*
X158499Y278833D02*
Y277167D01*
X158833Y276833D01*
X159499D01*
X159832Y277167D01*
Y278833D01*
X160499D02*
X161832Y276833D01*
Y278833D02*
X160499Y276833D01*
X162498Y276500D02*
X163831D01*
X164497Y276833D02*
Y278833D01*
X165497D01*
X165830Y278499D01*
Y277833D01*
X165497Y277500D01*
X164497D01*
X167496Y278833D02*
X166830D01*
X166497Y278499D01*
Y277167D01*
X166830Y276833D01*
X167496D01*
X167830Y277167D01*
Y278499D01*
X167496Y278833D01*
X168496D02*
Y276833D01*
X169163Y277500D01*
X169829Y276833D01*
Y278833D01*
X171828D02*
X170495D01*
Y276833D01*
X171828D01*
X170495Y277833D02*
X171162D01*
X172495Y276833D02*
Y278833D01*
X173495D01*
X173828Y278499D01*
Y277833D01*
X173495Y277500D01*
X172495D01*
X173161D02*
X173828Y276833D01*
X305833Y204833D02*
X305166Y204499D01*
X304500Y203833D01*
Y203167D01*
X304833Y202833D01*
X305500D01*
X305833Y203167D01*
Y203500D01*
X305500Y203833D01*
X304500D01*
X306499Y204833D02*
Y203500D01*
X307166Y202833D01*
X307832Y203500D01*
Y204833D01*
X308499Y202500D02*
X309832D01*
X310498Y204833D02*
Y202833D01*
X311831D01*
X313830Y204833D02*
X312497D01*
Y202833D01*
X313830D01*
X312497Y203833D02*
X313164D01*
X314497Y204833D02*
Y202833D01*
X315496D01*
X315830Y203167D01*
Y204499D01*
X315496Y204833D01*
X314497D01*
X268500Y288499D02*
X268833Y288833D01*
X269500D01*
X269833Y288499D01*
Y288166D01*
X269500Y287833D01*
X269166D01*
X269500D01*
X269833Y287500D01*
Y287167D01*
X269500Y286833D01*
X268833D01*
X268500Y287167D01*
X270499Y286833D02*
Y287167D01*
X270833D01*
Y286833D01*
X270499D01*
X272165Y288499D02*
X272499Y288833D01*
X273165D01*
X273498Y288499D01*
Y288166D01*
X273165Y287833D01*
X272832D01*
X273165D01*
X273498Y287500D01*
Y287167D01*
X273165Y286833D01*
X272499D01*
X272165Y287167D01*
X274165Y288833D02*
Y287500D01*
X274831Y286833D01*
X275498Y287500D01*
Y288833D01*
X276164Y286500D02*
X277497D01*
X278164Y288833D02*
Y286833D01*
X279496D01*
X281496Y288833D02*
X280163D01*
Y286833D01*
X281496D01*
X280163Y287833D02*
X280829D01*
X282162Y288833D02*
Y286833D01*
X283162D01*
X283495Y287167D01*
Y288499D01*
X283162Y288833D01*
X282162D01*
X187833Y344833D02*
X186500D01*
Y343833D01*
X187167Y344166D01*
X187500D01*
X187833Y343833D01*
Y343166D01*
X187500Y342833D01*
X186833D01*
X186500Y343166D01*
X188499Y344833D02*
Y343500D01*
X189166Y342833D01*
X189832Y343500D01*
Y344833D01*
X190499Y342500D02*
X191832D01*
X192498Y344833D02*
Y342833D01*
X193831D01*
X195830Y344833D02*
X194497D01*
Y342833D01*
X195830D01*
X194497Y343833D02*
X195164D01*
X196497Y344833D02*
Y342833D01*
X197496D01*
X197830Y343166D01*
Y344499D01*
X197496Y344833D01*
X196497D01*
X246500Y322166D02*
X246833Y322499D01*
X247500D01*
X247833Y322166D01*
Y321833D01*
X247500Y321500D01*
X247166D01*
X247500D01*
X247833Y321166D01*
Y320833D01*
X247500Y320500D01*
X246833D01*
X246500Y320833D01*
X248499Y320500D02*
Y320833D01*
X248833D01*
Y320500D01*
X248499D01*
X250166Y322166D02*
X250499Y322499D01*
X251165D01*
X251498Y322166D01*
Y321833D01*
X251165Y321500D01*
X250832D01*
X251165D01*
X251498Y321166D01*
Y320833D01*
X251165Y320500D01*
X250499D01*
X250166Y320833D01*
X252165Y322499D02*
Y321166D01*
X252831Y320500D01*
X253498Y321166D01*
Y322499D01*
X109500Y194833D02*
Y192833D01*
X110500D01*
X110833Y193166D01*
Y193500D01*
X110500Y193833D01*
X109500D01*
X110500D01*
X110833Y194166D01*
Y194499D01*
X110500Y194833D01*
X109500D01*
X111499Y192833D02*
Y194166D01*
X112166Y194833D01*
X112832Y194166D01*
Y192833D01*
Y193833D01*
X111499D01*
X113499Y194833D02*
X114832D01*
X114165D01*
Y192833D01*
X115498Y192500D02*
X116831D01*
X117497Y192833D02*
Y194833D01*
X118497D01*
X118830Y194499D01*
Y193833D01*
X118497Y193500D01*
X117497D01*
X120496Y194833D02*
X119830D01*
X119497Y194499D01*
Y193166D01*
X119830Y192833D01*
X120496D01*
X120830Y193166D01*
Y194499D01*
X120496Y194833D01*
X122829Y194499D02*
X122496Y194833D01*
X121829D01*
X121496Y194499D01*
Y194166D01*
X121829Y193833D01*
X122496D01*
X122829Y193500D01*
Y193166D01*
X122496Y192833D01*
X121829D01*
X121496Y193166D01*
X109500Y116833D02*
Y114833D01*
X110500D01*
X110833Y115166D01*
Y115500D01*
X110500Y115833D01*
X109500D01*
X110500D01*
X110833Y116166D01*
Y116499D01*
X110500Y116833D01*
X109500D01*
X111499Y114833D02*
Y116166D01*
X112166Y116833D01*
X112832Y116166D01*
Y114833D01*
Y115833D01*
X111499D01*
X113499Y116833D02*
X114832D01*
X114165D01*
Y114833D01*
X115498Y114500D02*
X116831D01*
X117497Y114833D02*
Y116833D01*
X118830Y114833D01*
Y116833D01*
X120830D02*
X119497D01*
Y114833D01*
X120830D01*
X119497Y115833D02*
X120163D01*
X122829Y116499D02*
X122496Y116833D01*
X121829D01*
X121496Y116499D01*
Y115166D01*
X121829Y114833D01*
X122496D01*
X122829Y115166D01*
Y115833D01*
X122163D01*
X171833Y364499D02*
X170500D01*
Y363500D01*
X171167Y363833D01*
X171500D01*
X171833Y363500D01*
Y362833D01*
X171500Y362500D01*
X170833D01*
X170500Y362833D01*
X172499Y364499D02*
Y363166D01*
X173166Y362500D01*
X173832Y363166D01*
Y364499D01*
X279833Y240499D02*
X279166Y240166D01*
X278500Y239500D01*
Y238833D01*
X278833Y238500D01*
X279500D01*
X279833Y238833D01*
Y239166D01*
X279500Y239500D01*
X278500D01*
X280499Y240499D02*
Y239166D01*
X281166Y238500D01*
X281832Y239166D01*
Y240499D01*
X304500Y522833D02*
X305166D01*
X304833D01*
Y520833D01*
X304500D01*
X305166D01*
X306166D02*
Y522833D01*
X306833Y522166D01*
X307499Y522833D01*
Y520833D01*
X308166Y522833D02*
Y521167D01*
X308499Y520833D01*
X309165D01*
X309498Y521167D01*
Y522833D01*
X310165Y520500D02*
X311498D01*
X312164Y520833D02*
Y522833D01*
X313164D01*
X313497Y522499D01*
Y521833D01*
X313164Y521500D01*
X312164D01*
X315163Y522833D02*
X314497D01*
X314163Y522499D01*
Y521167D01*
X314497Y520833D01*
X315163D01*
X315496Y521167D01*
Y522499D01*
X315163Y522833D01*
X316163D02*
Y520833D01*
X316829Y521500D01*
X317496Y520833D01*
Y522833D01*
X319495D02*
X318162D01*
Y520833D01*
X319495D01*
X318162Y521833D02*
X318829D01*
X320162Y520833D02*
Y522833D01*
X321161D01*
X321495Y522499D01*
Y521833D01*
X321161Y521500D01*
X320162D01*
X320828D02*
X321495Y520833D01*
X322161Y520500D02*
X323494D01*
X324160Y522833D02*
Y520833D01*
X325493D01*
X327492Y522833D02*
X326160D01*
Y520833D01*
X327492D01*
X326160Y521833D02*
X326826D01*
X328159Y522833D02*
Y520833D01*
X329159D01*
X329492Y521167D01*
Y522499D01*
X329159Y522833D01*
X328159D01*
X298500Y497833D02*
X299166D01*
X298833D01*
Y495833D01*
X298500D01*
X299166D01*
X301499D02*
X300166D01*
X301499Y497166D01*
Y497499D01*
X301166Y497833D01*
X300499D01*
X300166Y497499D01*
X303498D02*
X303165Y497833D01*
X302499D01*
X302166Y497499D01*
Y496167D01*
X302499Y495833D01*
X303165D01*
X303498Y496167D01*
X304165Y495500D02*
X305498D01*
X307497Y497499D02*
X307164Y497833D01*
X306497D01*
X306164Y497499D01*
Y497166D01*
X306497Y496833D01*
X307164D01*
X307497Y496500D01*
Y496167D01*
X307164Y495833D01*
X306497D01*
X306164Y496167D01*
X308163Y497833D02*
Y495833D01*
X309163D01*
X309496Y496167D01*
Y497499D01*
X309163Y497833D01*
X308163D01*
X310163Y495833D02*
Y497166D01*
X310829Y497833D01*
X311496Y497166D01*
Y495833D01*
Y496833D01*
X310163D01*
X320833Y497166D02*
X320500Y497499D01*
X319833D01*
X319500Y497166D01*
Y495833D01*
X319833Y495500D01*
X320500D01*
X320833Y495833D01*
Y496500D01*
X320166D01*
X321499Y495500D02*
Y497499D01*
X322832Y495500D01*
Y497499D01*
X323499D02*
Y495500D01*
X324498D01*
X324832Y495833D01*
Y497166D01*
X324498Y497499D01*
X323499D01*
X311500Y453833D02*
X312166D01*
X311833D01*
Y451833D01*
X311500D01*
X312166D01*
X313166D02*
Y453833D01*
X313833Y453166D01*
X314499Y453833D01*
Y451833D01*
X315165Y453833D02*
Y452167D01*
X315499Y451833D01*
X316165D01*
X316498Y452167D01*
Y453833D01*
X317165Y451500D02*
X318498D01*
X319164Y453833D02*
X319831D01*
X319497D01*
Y451833D01*
X319164D01*
X319831D01*
X320830D02*
Y453833D01*
X322163Y451833D01*
Y453833D01*
X322830D02*
X324163D01*
X323496D01*
Y451833D01*
X293500Y453833D02*
X294166D01*
X293833D01*
Y451833D01*
X293500D01*
X294166D01*
X296499D02*
X295166D01*
X296499Y453166D01*
Y453499D01*
X296166Y453833D01*
X295499D01*
X295166Y453499D01*
X298498D02*
X298165Y453833D01*
X297499D01*
X297165Y453499D01*
Y452167D01*
X297499Y451833D01*
X298165D01*
X298498Y452167D01*
X299165Y451500D02*
X300498D01*
X302497Y453499D02*
X302164Y453833D01*
X301497D01*
X301164Y453499D01*
Y453166D01*
X301497Y452833D01*
X302164D01*
X302497Y452500D01*
Y452167D01*
X302164Y451833D01*
X301497D01*
X301164Y452167D01*
X304496Y453499D02*
X304163Y453833D01*
X303497D01*
X303164Y453499D01*
Y452167D01*
X303497Y451833D01*
X304163D01*
X304496Y452167D01*
X305163Y453833D02*
Y451833D01*
X306496D01*
X109500Y404833D02*
Y406833D01*
X110500D01*
X110833Y406499D01*
Y405833D01*
X110500Y405500D01*
X109500D01*
X111499Y406833D02*
X112166D01*
X111833D01*
Y404833D01*
X111499D01*
X112166D01*
X113165Y404500D02*
X114498D01*
X115165Y404833D02*
Y406833D01*
X116165D01*
X116498Y406499D01*
Y405833D01*
X116165Y405500D01*
X115165D01*
X115831D02*
X116498Y404833D01*
X117164Y406833D02*
X118497Y404833D01*
Y406833D02*
X117164Y404833D01*
X119164Y404500D02*
X120496D01*
X121163Y406833D02*
X122496D01*
X121829D01*
Y404833D01*
X123162Y406833D02*
X124495Y404833D01*
Y406833D02*
X123162Y404833D01*
X109500Y418833D02*
Y420833D01*
X110500D01*
X110833Y420499D01*
Y419833D01*
X110500Y419500D01*
X109500D01*
X111499Y420833D02*
X112166D01*
X111833D01*
Y418833D01*
X111499D01*
X112166D01*
X113165Y418500D02*
X114498D01*
X115165Y420833D02*
X116498D01*
X115831D01*
Y418833D01*
X117164Y420833D02*
X118497Y418833D01*
Y420833D02*
X117164Y418833D01*
X119164Y418500D02*
X120496D01*
X121163Y418833D02*
Y420833D01*
X122163D01*
X122496Y420499D01*
Y419833D01*
X122163Y419500D01*
X121163D01*
X121829D02*
X122496Y418833D01*
X123162Y420833D02*
X124495Y418833D01*
Y420833D02*
X123162Y418833D01*
X257833Y442833D02*
X256500D01*
Y441833D01*
X257166D01*
X256500D01*
Y440833D01*
X258499Y442833D02*
X259832D01*
X259166D01*
Y440833D01*
X260499Y442833D02*
Y440833D01*
X261498D01*
X261832Y441166D01*
Y442499D01*
X261498Y442833D01*
X260499D01*
X262498D02*
X263164D01*
X262831D01*
Y440833D01*
X262498D01*
X263164D01*
X264164Y440500D02*
X265497D01*
X266163Y442833D02*
X267496D01*
X266830D01*
Y440833D01*
X268163Y442833D02*
X269496Y440833D01*
Y442833D02*
X268163Y440833D01*
X270162Y440500D02*
X271495D01*
X272162Y440833D02*
Y442833D01*
X273161D01*
X273495Y442499D01*
Y441833D01*
X273161Y441500D01*
X272162D01*
X272828D02*
X273495Y440833D01*
X274161Y442833D02*
X275494Y440833D01*
Y442833D02*
X274161Y440833D01*
X246500Y533833D02*
X247166D01*
X246833D01*
Y531833D01*
X246500D01*
X247166D01*
X249499D02*
X248166D01*
X249499Y533166D01*
Y533499D01*
X249166Y533833D01*
X248499D01*
X248166Y533499D01*
X251498D02*
X251165Y533833D01*
X250499D01*
X250166Y533499D01*
Y532166D01*
X250499Y531833D01*
X251165D01*
X251498Y532166D01*
X252165Y531500D02*
X253498D01*
X255497Y533499D02*
X255164Y533833D01*
X254497D01*
X254164Y533499D01*
Y533166D01*
X254497Y532833D01*
X255164D01*
X255497Y532500D01*
Y532166D01*
X255164Y531833D01*
X254497D01*
X254164Y532166D01*
X257496Y533499D02*
X257163Y533833D01*
X256497D01*
X256164Y533499D01*
Y532166D01*
X256497Y531833D01*
X257163D01*
X257496Y532166D01*
X258163Y533833D02*
Y531833D01*
X259496D01*
X229500Y533833D02*
X230166D01*
X229833D01*
Y531833D01*
X229500D01*
X230166D01*
X232499D02*
X231166D01*
X232499Y533166D01*
Y533499D01*
X232166Y533833D01*
X231499D01*
X231166Y533499D01*
X234498D02*
X234165Y533833D01*
X233499D01*
X233166Y533499D01*
Y532166D01*
X233499Y531833D01*
X234165D01*
X234498Y532166D01*
X235165Y531500D02*
X236498D01*
X238497Y533499D02*
X238164Y533833D01*
X237497D01*
X237164Y533499D01*
Y533166D01*
X237497Y532833D01*
X238164D01*
X238497Y532500D01*
Y532166D01*
X238164Y531833D01*
X237497D01*
X237164Y532166D01*
X239163Y533833D02*
Y531833D01*
X240163D01*
X240496Y532166D01*
Y533499D01*
X240163Y533833D01*
X239163D01*
X241163Y531833D02*
Y533166D01*
X241829Y533833D01*
X242496Y533166D01*
Y531833D01*
Y532833D01*
X241163D01*
X277833Y578166D02*
X277500Y578499D01*
X276833D01*
X276500Y578166D01*
Y576833D01*
X276833Y576500D01*
X277500D01*
X277833Y576833D01*
Y577500D01*
X277166D01*
X278499Y576500D02*
Y578499D01*
X279832Y576500D01*
Y578499D01*
X280499D02*
Y576500D01*
X281498D01*
X281832Y576833D01*
Y578166D01*
X281498Y578499D01*
X280499D01*
X277833Y590166D02*
X277500Y590499D01*
X276833D01*
X276500Y590166D01*
Y588833D01*
X276833Y588500D01*
X277500D01*
X277833Y588833D01*
Y589500D01*
X277166D01*
X278499Y588500D02*
Y590499D01*
X279832Y588500D01*
Y590499D01*
X280499D02*
Y588500D01*
X281498D01*
X281832Y588833D01*
Y590166D01*
X281498Y590499D01*
X280499D01*
X276833Y601833D02*
X275500D01*
Y600833D01*
X276166D01*
X275500D01*
Y599833D01*
X277499Y601833D02*
X278832D01*
X278166D01*
Y599833D01*
X279499Y601833D02*
Y599833D01*
X280498D01*
X280832Y600167D01*
Y601499D01*
X280498Y601833D01*
X279499D01*
X281498D02*
X282165D01*
X281831D01*
Y599833D01*
X281498D01*
X282165D01*
X283164Y599500D02*
X284497D01*
X285163Y599833D02*
Y601833D01*
X286163D01*
X286496Y601499D01*
Y600833D01*
X286163Y600500D01*
X285163D01*
X285830D02*
X286496Y599833D01*
X287163Y601833D02*
X288496Y599833D01*
Y601833D02*
X287163Y599833D01*
X289162Y599500D02*
X290495D01*
X291162Y601833D02*
X292495D01*
X291828D01*
Y599833D01*
X293161Y601833D02*
X294494Y599833D01*
Y601833D02*
X293161Y599833D01*
X323833Y650166D02*
X323500Y650499D01*
X322833D01*
X322500Y650166D01*
Y648833D01*
X322833Y648500D01*
X323500D01*
X323833Y648833D01*
Y649500D01*
X323166D01*
X324499Y648500D02*
Y650499D01*
X325832Y648500D01*
Y650499D01*
X326499D02*
Y648500D01*
X327498D01*
X327832Y648833D01*
Y650166D01*
X327498Y650499D01*
X326499D01*
X309833Y634499D02*
X308500D01*
Y633500D01*
X309166Y633833D01*
X309500D01*
X309833Y633500D01*
Y632833D01*
X309500Y632500D01*
X308833D01*
X308500Y632833D01*
X310499Y634499D02*
Y633166D01*
X311166Y632500D01*
X311832Y633166D01*
Y634499D01*
X290500Y650833D02*
Y652833D01*
X291500D01*
X291833Y652499D01*
Y651833D01*
X291500Y651500D01*
X290500D01*
X292499Y652833D02*
X293166D01*
X292833D01*
Y650833D01*
X292499D01*
X293166D01*
X294165Y650500D02*
X295498D01*
X296165Y650833D02*
Y652833D01*
X297165D01*
X297498Y652499D01*
Y651833D01*
X297165Y651500D01*
X296165D01*
X296831D02*
X297498Y650833D01*
X298164Y652833D02*
X299497Y650833D01*
Y652833D02*
X298164Y650833D01*
X300164Y650500D02*
X301496D01*
X302163Y652833D02*
X303496D01*
X302829D01*
Y650833D01*
X304162Y652833D02*
X305495Y650833D01*
Y652833D02*
X304162Y650833D01*
X273500D02*
Y652833D01*
X274500D01*
X274833Y652499D01*
Y651833D01*
X274500Y651500D01*
X273500D01*
X275499Y652833D02*
X276166D01*
X275833D01*
Y650833D01*
X275499D01*
X276166D01*
X277166Y650500D02*
X278498D01*
X279165Y652833D02*
X280498D01*
X279831D01*
Y650833D01*
X281164Y652833D02*
X282497Y650833D01*
Y652833D02*
X281164Y650833D01*
X283163Y650500D02*
X284496D01*
X285163Y650833D02*
Y652833D01*
X286163D01*
X286496Y652499D01*
Y651833D01*
X286163Y651500D01*
X285163D01*
X285829D02*
X286496Y650833D01*
X287162Y652833D02*
X288495Y650833D01*
Y652833D02*
X287162Y650833D01*
X429500Y626833D02*
Y628833D01*
X430500D01*
X430833Y628499D01*
Y627833D01*
X430500Y627500D01*
X429500D01*
X431499Y626833D02*
Y628833D01*
X432499D01*
X432832Y628499D01*
Y627833D01*
X432499Y627500D01*
X431499D01*
X432166D02*
X432832Y626833D01*
X434832Y628833D02*
X433499D01*
Y626833D01*
X434832D01*
X433499Y627833D02*
X434165D01*
X436831Y628499D02*
X436498Y628833D01*
X435831D01*
X435498Y628499D01*
Y628166D01*
X435831Y627833D01*
X436498D01*
X436831Y627500D01*
Y627167D01*
X436498Y626833D01*
X435831D01*
X435498Y627167D01*
X438830Y628499D02*
X438497Y628833D01*
X437831D01*
X437497Y628499D01*
Y628166D01*
X437831Y627833D01*
X438497D01*
X438830Y627500D01*
Y627167D01*
X438497Y626833D01*
X437831D01*
X437497Y627167D01*
X439497Y626500D02*
X440830D01*
X441496Y626833D02*
Y628166D01*
X442163Y628833D01*
X442829Y628166D01*
Y626833D01*
Y627833D01*
X441496D01*
X443495Y628833D02*
Y626833D01*
X444495D01*
X444828Y627167D01*
Y628499D01*
X444495Y628833D01*
X443495D01*
X446828Y628499D02*
X446494Y628833D01*
X445828D01*
X445495Y628499D01*
Y627167D01*
X445828Y626833D01*
X446494D01*
X446828Y627167D01*
X464500Y617833D02*
Y619833D01*
X465500D01*
X465833Y619499D01*
Y618833D01*
X465500Y618500D01*
X464500D01*
X466499Y617833D02*
Y619833D01*
X467499D01*
X467832Y619499D01*
Y618833D01*
X467499Y618500D01*
X466499D01*
X467166D02*
X467832Y617833D01*
X469832Y619833D02*
X468499D01*
Y617833D01*
X469832D01*
X468499Y618833D02*
X469165D01*
X471831Y619499D02*
X471498Y619833D01*
X470831D01*
X470498Y619499D01*
Y619166D01*
X470831Y618833D01*
X471498D01*
X471831Y618500D01*
Y618166D01*
X471498Y617833D01*
X470831D01*
X470498Y618166D01*
X473830Y619499D02*
X473497Y619833D01*
X472831D01*
X472497Y619499D01*
Y619166D01*
X472831Y618833D01*
X473497D01*
X473830Y618500D01*
Y618166D01*
X473497Y617833D01*
X472831D01*
X472497Y618166D01*
X474497Y617500D02*
X475830D01*
X476496Y617833D02*
Y619833D01*
X477496D01*
X477829Y619499D01*
Y618833D01*
X477496Y618500D01*
X476496D01*
X479495Y619833D02*
X478829D01*
X478495Y619499D01*
Y618166D01*
X478829Y617833D01*
X479495D01*
X479828Y618166D01*
Y619499D01*
X479495Y619833D01*
X480495D02*
Y617833D01*
X481161Y618500D01*
X481828Y617833D01*
Y619833D01*
X482494Y617500D02*
X483827D01*
X484493Y619833D02*
Y617833D01*
X485826D01*
X487826Y619833D02*
X486493D01*
Y617833D01*
X487826D01*
X486493Y618833D02*
X487159D01*
X488492Y619833D02*
Y617833D01*
X489492D01*
X489825Y618166D01*
Y619499D01*
X489492Y619833D01*
X488492D01*
X387500Y691833D02*
Y693833D01*
X388500D01*
X388833Y693499D01*
Y692833D01*
X388500Y692500D01*
X387500D01*
X389499Y691833D02*
Y693833D01*
X390499D01*
X390832Y693499D01*
Y692833D01*
X390499Y692500D01*
X389499D01*
X390166D02*
X390832Y691833D01*
X392832Y693833D02*
X391499D01*
Y691833D01*
X392832D01*
X391499Y692833D02*
X392165D01*
X394831Y693499D02*
X394498Y693833D01*
X393831D01*
X393498Y693499D01*
Y693166D01*
X393831Y692833D01*
X394498D01*
X394831Y692500D01*
Y692167D01*
X394498Y691833D01*
X393831D01*
X393498Y692167D01*
X396830Y693499D02*
X396497Y693833D01*
X395831D01*
X395497Y693499D01*
Y693166D01*
X395831Y692833D01*
X396497D01*
X396830Y692500D01*
Y692167D01*
X396497Y691833D01*
X395831D01*
X395497Y692167D01*
X397497Y691500D02*
X398830D01*
X399496Y691833D02*
Y693833D01*
X400496D01*
X400829Y693499D01*
Y692833D01*
X400496Y692500D01*
X399496D01*
X401495Y693833D02*
Y691833D01*
X402828D01*
X403495Y693833D02*
Y692167D01*
X403828Y691833D01*
X404494D01*
X404828Y692167D01*
Y693833D01*
X406827Y693499D02*
X406494Y693833D01*
X405827D01*
X405494Y693499D01*
Y693166D01*
X405827Y692833D01*
X406494D01*
X406827Y692500D01*
Y692167D01*
X406494Y691833D01*
X405827D01*
X405494Y692167D01*
X475500Y680833D02*
Y682833D01*
X476500D01*
X476833Y682499D01*
Y681833D01*
X476500Y681500D01*
X475500D01*
X477499Y680833D02*
Y682833D01*
X478499D01*
X478832Y682499D01*
Y681833D01*
X478499Y681500D01*
X477499D01*
X478166D02*
X478832Y680833D01*
X480832Y682833D02*
X479499D01*
Y680833D01*
X480832D01*
X479499Y681833D02*
X480165D01*
X482831Y682499D02*
X482498Y682833D01*
X481831D01*
X481498Y682499D01*
Y682166D01*
X481831Y681833D01*
X482498D01*
X482831Y681500D01*
Y681167D01*
X482498Y680833D01*
X481831D01*
X481498Y681167D01*
X484830Y682499D02*
X484497Y682833D01*
X483831D01*
X483497Y682499D01*
Y682166D01*
X483831Y681833D01*
X484497D01*
X484830Y681500D01*
Y681167D01*
X484497Y680833D01*
X483831D01*
X483497Y681167D01*
X485497Y680500D02*
X486830D01*
X487496Y680833D02*
Y682833D01*
X488163Y682166D01*
X488829Y682833D01*
Y680833D01*
X489495Y682833D02*
X490162D01*
X489829D01*
Y680833D01*
X489495D01*
X490162D01*
X491162D02*
Y682833D01*
X492494Y680833D01*
Y682833D01*
X493161D02*
Y681167D01*
X493494Y680833D01*
X494161D01*
X494494Y681167D01*
Y682833D01*
X496493Y682499D02*
X496160Y682833D01*
X495494D01*
X495160Y682499D01*
Y682166D01*
X495494Y681833D01*
X496160D01*
X496493Y681500D01*
Y681167D01*
X496160Y680833D01*
X495494D01*
X495160Y681167D01*
X192500Y652833D02*
Y650833D01*
X193500D01*
X193833Y651166D01*
Y652499D01*
X193500Y652833D01*
X192500D01*
X194499D02*
X195166D01*
X194833D01*
Y650833D01*
X194499D01*
X195166D01*
X197498Y652499D02*
X197165Y652833D01*
X196499D01*
X196166Y652499D01*
Y652166D01*
X196499Y651833D01*
X197165D01*
X197498Y651500D01*
Y651166D01*
X197165Y650833D01*
X196499D01*
X196166Y651166D01*
X198165Y652833D02*
X199498D01*
X198831D01*
Y650833D01*
X200164Y650500D02*
X201497D01*
X202164Y650833D02*
Y652833D01*
X203163D01*
X203496Y652499D01*
Y651833D01*
X203163Y651500D01*
X202164D01*
X205163Y652833D02*
X204496D01*
X204163Y652499D01*
Y651166D01*
X204496Y650833D01*
X205163D01*
X205496Y651166D01*
Y652499D01*
X205163Y652833D01*
X206162D02*
Y650833D01*
X206829Y651500D01*
X207495Y650833D01*
Y652833D01*
X208162Y650500D02*
X209494D01*
X210161Y652833D02*
Y650833D01*
X211494D01*
X213493Y652833D02*
X212160D01*
Y650833D01*
X213493D01*
X212160Y651833D02*
X212827D01*
X214160Y652833D02*
Y650833D01*
X215159D01*
X215493Y651166D01*
Y652499D01*
X215159Y652833D01*
X214160D01*
X243833Y662166D02*
X243500Y662499D01*
X242833D01*
X242500Y662166D01*
Y660833D01*
X242833Y660500D01*
X243500D01*
X243833Y660833D01*
Y661500D01*
X243166D01*
X244499Y660500D02*
Y662499D01*
X245832Y660500D01*
Y662499D01*
X246499D02*
Y660500D01*
X247498D01*
X247832Y660833D01*
Y662166D01*
X247498Y662499D01*
X246499D01*
X223500Y695833D02*
X224166D01*
X223833D01*
Y693833D01*
X223500D01*
X224166D01*
X226499D02*
X225166D01*
X226499Y695166D01*
Y695499D01*
X226166Y695833D01*
X225499D01*
X225166Y695499D01*
X228498D02*
X228165Y695833D01*
X227499D01*
X227166Y695499D01*
Y694167D01*
X227499Y693833D01*
X228165D01*
X228498Y694167D01*
X229165Y693500D02*
X230498D01*
X232497Y695499D02*
X232164Y695833D01*
X231497D01*
X231164Y695499D01*
Y695166D01*
X231497Y694833D01*
X232164D01*
X232497Y694500D01*
Y694167D01*
X232164Y693833D01*
X231497D01*
X231164Y694167D01*
X233163Y695833D02*
Y693833D01*
X234163D01*
X234496Y694167D01*
Y695499D01*
X234163Y695833D01*
X233163D01*
X235163Y693833D02*
Y695166D01*
X235829Y695833D01*
X236496Y695166D01*
Y693833D01*
Y694833D01*
X235163D01*
X190500Y695833D02*
Y693833D01*
X191500D01*
X191833Y694167D01*
Y695499D01*
X191500Y695833D01*
X190500D01*
X192499D02*
X193166D01*
X192833D01*
Y693833D01*
X192499D01*
X193166D01*
X195498Y695499D02*
X195165Y695833D01*
X194499D01*
X194166Y695499D01*
Y695166D01*
X194499Y694833D01*
X195165D01*
X195498Y694500D01*
Y694167D01*
X195165Y693833D01*
X194499D01*
X194166Y694167D01*
X196165Y695833D02*
X197498D01*
X196831D01*
Y693833D01*
X198164Y693500D02*
X199497D01*
X200164Y695833D02*
X200830D01*
X200497D01*
Y693833D01*
X200164D01*
X200830D01*
X201830D02*
Y695833D01*
X203163Y693833D01*
Y695833D01*
X203829D02*
X205162D01*
X204496D01*
Y693833D01*
X157500Y683833D02*
X158167D01*
X157833D01*
Y681833D01*
X157500D01*
X158167D01*
X160499D02*
X159166D01*
X160499Y683166D01*
Y683499D01*
X160166Y683833D01*
X159499D01*
X159166Y683499D01*
X162498D02*
X162165Y683833D01*
X161499D01*
X161165Y683499D01*
Y682166D01*
X161499Y681833D01*
X162165D01*
X162498Y682166D01*
X163165Y681500D02*
X164498D01*
X166497Y683499D02*
X166164Y683833D01*
X165497D01*
X165164Y683499D01*
Y683166D01*
X165497Y682833D01*
X166164D01*
X166497Y682500D01*
Y682166D01*
X166164Y681833D01*
X165497D01*
X165164Y682166D01*
X168496Y683499D02*
X168163Y683833D01*
X167497D01*
X167164Y683499D01*
Y682166D01*
X167497Y681833D01*
X168163D01*
X168496Y682166D01*
X169163Y683833D02*
Y681833D01*
X170496D01*
X358000Y198333D02*
Y200333D01*
X358666Y199666D01*
X359333Y200333D01*
Y198333D01*
X361332D02*
X359999D01*
X361332Y199666D01*
Y199999D01*
X360999Y200333D01*
X360333D01*
X359999Y199999D01*
X361999Y198000D02*
X363332D01*
X363998Y200333D02*
Y198333D01*
X364998D01*
X365331Y198667D01*
Y199000D01*
X364998Y199333D01*
X363998D01*
X364998D01*
X365331Y199666D01*
Y199999D01*
X364998Y200333D01*
X363998D01*
X340500Y198333D02*
Y200333D01*
X341166Y199666D01*
X341833Y200333D01*
Y198333D01*
X343832D02*
X342499D01*
X343832Y199666D01*
Y199999D01*
X343499Y200333D01*
X342833D01*
X342499Y199999D01*
X344499Y198000D02*
X345832D01*
X347831Y200333D02*
X346498D01*
Y199333D01*
X347165D01*
X346498D01*
Y198333D01*
X445500Y106167D02*
X446833D01*
X446166Y106833D02*
Y105500D01*
X445500Y145500D02*
X446833D01*
X444833Y388499D02*
X444500Y388833D01*
X443833D01*
X443500Y388499D01*
Y388166D01*
X443833Y387833D01*
X444500D01*
X444833Y387500D01*
Y387167D01*
X444500Y386833D01*
X443833D01*
X443500Y387167D01*
X446832Y386833D02*
X445499D01*
X446832Y388166D01*
Y388499D01*
X446499Y388833D01*
X445833D01*
X445499Y388499D01*
X447499Y386500D02*
X448832D01*
X450498Y388833D02*
X449831D01*
X449498Y388499D01*
Y387167D01*
X449831Y386833D01*
X450498D01*
X450831Y387167D01*
Y388499D01*
X450498Y388833D01*
X451497D02*
Y387167D01*
X451831Y386833D01*
X452497D01*
X452830Y387167D01*
Y388833D01*
X453497D02*
X454830D01*
X454163D01*
Y386833D01*
X444333Y367499D02*
X444000Y367833D01*
X443333D01*
X443000Y367499D01*
Y367166D01*
X443333Y366833D01*
X444000D01*
X444333Y366500D01*
Y366166D01*
X444000Y365833D01*
X443333D01*
X443000Y366166D01*
X444999Y367499D02*
X445333Y367833D01*
X445999D01*
X446332Y367499D01*
Y367166D01*
X445999Y366833D01*
X445666D01*
X445999D01*
X446332Y366500D01*
Y366166D01*
X445999Y365833D01*
X445333D01*
X444999Y366166D01*
X446999Y365500D02*
X448332D01*
X449998Y367833D02*
X449331D01*
X448998Y367499D01*
Y366166D01*
X449331Y365833D01*
X449998D01*
X450331Y366166D01*
Y367499D01*
X449998Y367833D01*
X450997D02*
Y366166D01*
X451331Y365833D01*
X451997D01*
X452330Y366166D01*
Y367833D01*
X452997D02*
X454330D01*
X453663D01*
Y365833D01*
X444333Y344999D02*
X444000Y345333D01*
X443333D01*
X443000Y344999D01*
Y344666D01*
X443333Y344333D01*
X444000D01*
X444333Y344000D01*
Y343667D01*
X444000Y343333D01*
X443333D01*
X443000Y343667D01*
X445999Y343333D02*
Y345333D01*
X444999Y344333D01*
X446332D01*
X446999Y343000D02*
X448332D01*
X449998Y345333D02*
X449331D01*
X448998Y344999D01*
Y343667D01*
X449331Y343333D01*
X449998D01*
X450331Y343667D01*
Y344999D01*
X449998Y345333D01*
X450997D02*
Y343667D01*
X451331Y343333D01*
X451997D01*
X452330Y343667D01*
Y345333D01*
X452997D02*
X454330D01*
X453663D01*
Y343333D01*
X444333Y322499D02*
X444000Y322833D01*
X443333D01*
X443000Y322499D01*
Y322166D01*
X443333Y321833D01*
X444000D01*
X444333Y321500D01*
Y321166D01*
X444000Y320833D01*
X443333D01*
X443000Y321166D01*
X446332Y322833D02*
X444999D01*
Y321833D01*
X445666Y322166D01*
X445999D01*
X446332Y321833D01*
Y321166D01*
X445999Y320833D01*
X445333D01*
X444999Y321166D01*
X446999Y320500D02*
X448332D01*
X449998Y322833D02*
X449331D01*
X448998Y322499D01*
Y321166D01*
X449331Y320833D01*
X449998D01*
X450331Y321166D01*
Y322499D01*
X449998Y322833D01*
X450997D02*
Y321166D01*
X451331Y320833D01*
X451997D01*
X452330Y321166D01*
Y322833D01*
X452997D02*
X454330D01*
X453663D01*
Y320833D01*
X444333Y302499D02*
X444000Y302833D01*
X443333D01*
X443000Y302499D01*
Y302166D01*
X443333Y301833D01*
X444000D01*
X444333Y301500D01*
Y301167D01*
X444000Y300833D01*
X443333D01*
X443000Y301167D01*
X446332Y302833D02*
X445666Y302499D01*
X444999Y301833D01*
Y301167D01*
X445333Y300833D01*
X445999D01*
X446332Y301167D01*
Y301500D01*
X445999Y301833D01*
X444999D01*
X446999Y300500D02*
X448332D01*
X449998Y302833D02*
X449331D01*
X448998Y302499D01*
Y301167D01*
X449331Y300833D01*
X449998D01*
X450331Y301167D01*
Y302499D01*
X449998Y302833D01*
X450997D02*
Y301167D01*
X451331Y300833D01*
X451997D01*
X452330Y301167D01*
Y302833D01*
X452997D02*
X454330D01*
X453663D01*
Y300833D01*
X444333Y279999D02*
X444000Y280333D01*
X443333D01*
X443000Y279999D01*
Y279666D01*
X443333Y279333D01*
X444000D01*
X444333Y279000D01*
Y278666D01*
X444000Y278333D01*
X443333D01*
X443000Y278666D01*
X444999Y280333D02*
X446332D01*
Y279999D01*
X444999Y278666D01*
Y278333D01*
X446999Y278000D02*
X448332D01*
X449998Y280333D02*
X449331D01*
X448998Y279999D01*
Y278666D01*
X449331Y278333D01*
X449998D01*
X450331Y278666D01*
Y279999D01*
X449998Y280333D01*
X450997D02*
Y278666D01*
X451331Y278333D01*
X451997D01*
X452330Y278666D01*
Y280333D01*
X452997D02*
X454330D01*
X453663D01*
Y278333D01*
X444333Y409999D02*
X444000Y410333D01*
X443333D01*
X443000Y409999D01*
Y409666D01*
X443333Y409333D01*
X444000D01*
X444333Y409000D01*
Y408667D01*
X444000Y408333D01*
X443333D01*
X443000Y408667D01*
X444999Y408333D02*
X445666D01*
X445333D01*
Y410333D01*
X444999Y409999D01*
X446665Y408000D02*
X447998D01*
X449664Y410333D02*
X448998D01*
X448665Y409999D01*
Y408667D01*
X448998Y408333D01*
X449664D01*
X449998Y408667D01*
Y409999D01*
X449664Y410333D01*
X450664D02*
Y408667D01*
X450997Y408333D01*
X451664D01*
X451997Y408667D01*
Y410333D01*
X452664D02*
X453996D01*
X453330D01*
Y408333D01*
X389333Y294999D02*
X389000Y295333D01*
X388333D01*
X388000Y294999D01*
Y294666D01*
X388333Y294333D01*
X389000D01*
X389333Y294000D01*
Y293667D01*
X389000Y293333D01*
X388333D01*
X388000Y293667D01*
X391332Y295333D02*
X390666Y294999D01*
X389999Y294333D01*
Y293667D01*
X390333Y293333D01*
X390999D01*
X391332Y293667D01*
Y294000D01*
X390999Y294333D01*
X389999D01*
X391999Y293000D02*
X393332D01*
X393998Y295333D02*
X394665D01*
X394331D01*
Y293333D01*
X393998D01*
X394665D01*
X395664D02*
Y295333D01*
X396997Y293333D01*
Y295333D01*
X389333Y317499D02*
X389000Y317833D01*
X388333D01*
X388000Y317499D01*
Y317166D01*
X388333Y316833D01*
X389000D01*
X389333Y316500D01*
Y316166D01*
X389000Y315833D01*
X388333D01*
X388000Y316166D01*
X391332Y317833D02*
X389999D01*
Y316833D01*
X390666Y317166D01*
X390999D01*
X391332Y316833D01*
Y316166D01*
X390999Y315833D01*
X390333D01*
X389999Y316166D01*
X391999Y315500D02*
X393332D01*
X393998Y317833D02*
X394665D01*
X394331D01*
Y315833D01*
X393998D01*
X394665D01*
X395664D02*
Y317833D01*
X396997Y315833D01*
Y317833D01*
X389333Y274999D02*
X389000Y275333D01*
X388333D01*
X388000Y274999D01*
Y274666D01*
X388333Y274333D01*
X389000D01*
X389333Y274000D01*
Y273667D01*
X389000Y273333D01*
X388333D01*
X388000Y273667D01*
X389999Y275333D02*
X391332D01*
Y274999D01*
X389999Y273667D01*
Y273333D01*
X391999Y273000D02*
X393332D01*
X393998Y275333D02*
X394665D01*
X394331D01*
Y273333D01*
X393998D01*
X394665D01*
X395664D02*
Y275333D01*
X396997Y273333D01*
Y275333D01*
X389333Y337499D02*
X389000Y337833D01*
X388333D01*
X388000Y337499D01*
Y337166D01*
X388333Y336833D01*
X389000D01*
X389333Y336500D01*
Y336167D01*
X389000Y335833D01*
X388333D01*
X388000Y336167D01*
X390999Y335833D02*
Y337833D01*
X389999Y336833D01*
X391332D01*
X391999Y335500D02*
X393332D01*
X393998Y337833D02*
X394665D01*
X394331D01*
Y335833D01*
X393998D01*
X394665D01*
X395664D02*
Y337833D01*
X396997Y335833D01*
Y337833D01*
X389333Y359999D02*
X389000Y360333D01*
X388333D01*
X388000Y359999D01*
Y359666D01*
X388333Y359333D01*
X389000D01*
X389333Y359000D01*
Y358666D01*
X389000Y358333D01*
X388333D01*
X388000Y358666D01*
X389999Y359999D02*
X390333Y360333D01*
X390999D01*
X391332Y359999D01*
Y359666D01*
X390999Y359333D01*
X390666D01*
X390999D01*
X391332Y359000D01*
Y358666D01*
X390999Y358333D01*
X390333D01*
X389999Y358666D01*
X391999Y358000D02*
X393332D01*
X393998Y360333D02*
X394665D01*
X394331D01*
Y358333D01*
X393998D01*
X394665D01*
X395664D02*
Y360333D01*
X396997Y358333D01*
Y360333D01*
X389333Y382499D02*
X389000Y382833D01*
X388333D01*
X388000Y382499D01*
Y382166D01*
X388333Y381833D01*
X389000D01*
X389333Y381500D01*
Y381167D01*
X389000Y380833D01*
X388333D01*
X388000Y381167D01*
X391332Y380833D02*
X389999D01*
X391332Y382166D01*
Y382499D01*
X390999Y382833D01*
X390333D01*
X389999Y382499D01*
X391999Y380500D02*
X393332D01*
X393998Y382833D02*
X394665D01*
X394331D01*
Y380833D01*
X393998D01*
X394665D01*
X395664D02*
Y382833D01*
X396997Y380833D01*
Y382833D01*
X389333Y404999D02*
X389000Y405333D01*
X388333D01*
X388000Y404999D01*
Y404666D01*
X388333Y404333D01*
X389000D01*
X389333Y404000D01*
Y403666D01*
X389000Y403333D01*
X388333D01*
X388000Y403666D01*
X389999Y403333D02*
X390666D01*
X390333D01*
Y405333D01*
X389999Y404999D01*
X391666Y403000D02*
X392998D01*
X393665Y405333D02*
X394331D01*
X393998D01*
Y403333D01*
X393665D01*
X394331D01*
X395331D02*
Y405333D01*
X396664Y403333D01*
Y405333D01*
X363000Y125833D02*
Y127833D01*
X363666Y127166D01*
X364333Y127833D01*
Y125833D01*
X364999D02*
X365666D01*
X365333D01*
Y127833D01*
X364999Y127499D01*
X366666Y125500D02*
X367998D01*
X368665Y127833D02*
Y125833D01*
X369665D01*
X369998Y126166D01*
Y126500D01*
X369665Y126833D01*
X368665D01*
X369665D01*
X369998Y127166D01*
Y127499D01*
X369665Y127833D01*
X368665D01*
X345500Y125833D02*
Y127833D01*
X346166Y127166D01*
X346833Y127833D01*
Y125833D01*
X347499D02*
X348166D01*
X347833D01*
Y127833D01*
X347499Y127499D01*
X349166Y125500D02*
X350498D01*
X352498Y127833D02*
X351165D01*
Y126833D01*
X351831D01*
X351165D01*
Y125833D01*
X447000Y210500D02*
Y211833D01*
X445500Y196167D02*
X446833D01*
X446166Y196833D02*
Y195500D01*
X272501Y506000D02*
Y508000D01*
X273500D01*
X273834Y507666D01*
Y507000D01*
X273500Y506667D01*
X272501D01*
X273167D02*
X273834Y506000D01*
X274500D02*
X275167D01*
X274833D01*
Y508000D01*
X274500Y507666D01*
X277499Y508000D02*
X276166D01*
Y507000D01*
X276833Y507333D01*
X277166D01*
X277499Y507000D01*
Y506334D01*
X277166Y506000D01*
X276500D01*
X276166Y506334D01*
X272501Y496000D02*
Y498000D01*
X273500D01*
X273834Y497667D01*
Y497000D01*
X273500Y496667D01*
X272501D01*
X273167D02*
X273834Y496000D01*
X274500D02*
X275167D01*
X274833D01*
Y498000D01*
X274500Y497667D01*
X277166Y496000D02*
Y498000D01*
X276166Y497000D01*
X277499D01*
X378334Y465000D02*
Y463000D01*
X379334D01*
X379667Y463334D01*
Y464667D01*
X379334Y465000D01*
X378334D01*
X381666Y464667D02*
X381333Y465000D01*
X380667D01*
X380334Y464667D01*
Y464333D01*
X380667Y464000D01*
X381333D01*
X381666Y463667D01*
Y463334D01*
X381333Y463000D01*
X380667D01*
X380334Y463334D01*
X382333Y464667D02*
X382666Y465000D01*
X383333D01*
X383666Y464667D01*
Y464333D01*
X383333Y464000D01*
X383666Y463667D01*
Y463334D01*
X383333Y463000D01*
X382666D01*
X382333Y463334D01*
Y463667D01*
X382666Y464000D01*
X382333Y464333D01*
Y464667D01*
X382666Y464000D02*
X383333D01*
X413336Y510000D02*
Y512000D01*
X414335D01*
X414668Y511666D01*
Y511000D01*
X414335Y510667D01*
X413336D01*
X414002D02*
X414668Y510000D01*
X416668Y511666D02*
X416334Y512000D01*
X415668D01*
X415335Y511666D01*
Y510334D01*
X415668Y510000D01*
X416334D01*
X416668Y510334D01*
Y511000D01*
X416001D01*
X417334Y512000D02*
Y510000D01*
X418334D01*
X418667Y510334D01*
Y510667D01*
X418334Y511000D01*
X417334D01*
X418334D01*
X418667Y511333D01*
Y511666D01*
X418334Y512000D01*
X417334D01*
X419334D02*
Y510000D01*
X420666D01*
X422666Y512000D02*
X421333D01*
Y510000D01*
X422666D01*
X421333Y511000D02*
X421999D01*
X423332Y512000D02*
Y510000D01*
X424332D01*
X424665Y510334D01*
Y511666D01*
X424332Y512000D01*
X423332D01*
X425332Y511666D02*
X425665Y512000D01*
X426331D01*
X426664Y511666D01*
Y510334D01*
X426331Y510000D01*
X425665D01*
X425332Y510334D01*
Y511666D01*
X425167Y481500D02*
Y483500D01*
X426167D01*
X426500Y483167D01*
Y482500D01*
X426167Y482167D01*
X425167D01*
X425834D02*
X426500Y481500D01*
X427167Y483500D02*
X428500D01*
Y483167D01*
X427167Y481834D01*
Y481500D01*
X429166D02*
X429833D01*
X429499D01*
Y483500D01*
X429166Y483167D01*
X80100Y690300D02*
Y692299D01*
X81100D01*
X81433Y691966D01*
Y691300D01*
X81100Y690966D01*
X80100D01*
X82099Y692299D02*
X83432D01*
Y691966D01*
X82099Y690633D01*
Y690300D01*
X110334Y183000D02*
Y181334D01*
X110667Y181000D01*
X111334D01*
X111667Y181334D01*
Y183000D01*
X112333Y181334D02*
X112666Y181000D01*
X113333D01*
X113666Y181334D01*
Y182667D01*
X113333Y183000D01*
X112666D01*
X112333Y182667D01*
Y182333D01*
X112666Y182000D01*
X113666D01*
X140592Y525000D02*
Y524667D01*
X141259Y524000D01*
X141925Y524667D01*
Y525000D01*
X141259Y524000D02*
Y523000D01*
X142592D02*
X143258D01*
X142925D01*
Y525000D01*
X142592Y524667D01*
X427501Y658500D02*
Y656834D01*
X427834Y656500D01*
X428501D01*
X428834Y656834D01*
Y658500D01*
X429500Y656500D02*
X430167D01*
X429833D01*
Y658500D01*
X429500Y658167D01*
X432166Y656500D02*
Y658500D01*
X431166Y657500D01*
X432499D01*
X241334Y297000D02*
Y295334D01*
X241667Y295000D01*
X242334D01*
X242667Y295334D01*
Y297000D01*
X243333Y296667D02*
X243667Y297000D01*
X244333D01*
X244666Y296667D01*
Y296333D01*
X244333Y296000D01*
X244666Y295667D01*
Y295334D01*
X244333Y295000D01*
X243667D01*
X243333Y295334D01*
Y295667D01*
X243667Y296000D01*
X243333Y296333D01*
Y296667D01*
X243667Y296000D02*
X244333D01*
X165334Y338000D02*
Y336334D01*
X165667Y336000D01*
X166334D01*
X166667Y336334D01*
Y338000D01*
X167333D02*
X168666D01*
Y337667D01*
X167333Y336334D01*
Y336000D01*
X288334Y212000D02*
Y210334D01*
X288667Y210000D01*
X289334D01*
X289667Y210334D01*
Y212000D01*
X291666D02*
X291000Y211666D01*
X290333Y211000D01*
Y210334D01*
X290667Y210000D01*
X291333D01*
X291666Y210334D01*
Y210667D01*
X291333Y211000D01*
X290333D01*
X123334Y347000D02*
Y345334D01*
X123667Y345000D01*
X124334D01*
X124667Y345334D01*
Y347000D01*
X126666D02*
X125333D01*
Y346000D01*
X126000Y346333D01*
X126333D01*
X126666Y346000D01*
Y345334D01*
X126333Y345000D01*
X125666D01*
X125333Y345334D01*
X195334Y310000D02*
Y308334D01*
X195667Y308000D01*
X196334D01*
X196667Y308334D01*
Y310000D01*
X198333Y308000D02*
Y310000D01*
X197333Y309000D01*
X198666D01*
X223334Y223000D02*
Y221334D01*
X223667Y221000D01*
X224334D01*
X224667Y221334D01*
Y223000D01*
X225333Y222667D02*
X225666Y223000D01*
X226333D01*
X226666Y222667D01*
Y222333D01*
X226333Y222000D01*
X226000D01*
X226333D01*
X226666Y221667D01*
Y221334D01*
X226333Y221000D01*
X225666D01*
X225333Y221334D01*
X471668Y615000D02*
X473001D01*
X472334D01*
Y613000D01*
X473667D02*
Y615000D01*
X474667D01*
X475000Y614667D01*
Y614000D01*
X474667Y613667D01*
X473667D01*
X475666Y615000D02*
X476999D01*
Y614667D01*
X475666Y613334D01*
Y613000D01*
X477666D02*
X478332D01*
X477999D01*
Y615000D01*
X477666Y614667D01*
X313334Y519000D02*
X314667D01*
X314001D01*
Y517000D01*
X315334D02*
Y519000D01*
X316334D01*
X316667Y518667D01*
Y518000D01*
X316334Y517667D01*
X315334D01*
X317333Y519000D02*
X318666D01*
Y518667D01*
X317333Y517334D01*
Y517000D01*
X319333Y518667D02*
X319666Y519000D01*
X320332D01*
X320666Y518667D01*
Y517334D01*
X320332Y517000D01*
X319666D01*
X319333Y517334D01*
Y518667D01*
X194334Y648000D02*
X195667D01*
X195001D01*
Y646000D01*
X196334D02*
Y648000D01*
X197334D01*
X197667Y647667D01*
Y647000D01*
X197334Y646667D01*
X196334D01*
X199666Y648000D02*
X199000Y647667D01*
X198333Y647000D01*
Y646334D01*
X198667Y646000D01*
X199333D01*
X199666Y646334D01*
Y646667D01*
X199333Y647000D01*
X198333D01*
X200333Y646334D02*
X200666Y646000D01*
X201332D01*
X201665Y646334D01*
Y647667D01*
X201332Y648000D01*
X200666D01*
X200333Y647667D01*
Y647333D01*
X200666Y647000D01*
X201665D01*
X420000Y446499D02*
X421333D01*
X420666D01*
Y444500D01*
X421999D02*
Y446499D01*
X422999D01*
X423332Y446166D01*
Y445500D01*
X422999Y445166D01*
X421999D01*
X425332Y446499D02*
X424665Y446166D01*
X423999Y445500D01*
Y444833D01*
X424332Y444500D01*
X424998D01*
X425332Y444833D01*
Y445166D01*
X424998Y445500D01*
X423999D01*
X425998Y446166D02*
X426331Y446499D01*
X426998D01*
X427331Y446166D01*
Y445833D01*
X426998Y445500D01*
X427331Y445166D01*
Y444833D01*
X426998Y444500D01*
X426331D01*
X425998Y444833D01*
Y445166D01*
X426331Y445500D01*
X425998Y445833D01*
Y446166D01*
X426331Y445500D02*
X426998D01*
X419335Y258000D02*
X420667D01*
X420001D01*
Y256000D01*
X421334D02*
Y258000D01*
X422334D01*
X422667Y257666D01*
Y257000D01*
X422334Y256667D01*
X421334D01*
X424666Y258000D02*
X424000Y257666D01*
X423333Y257000D01*
Y256334D01*
X423666Y256000D01*
X424333D01*
X424666Y256334D01*
Y256667D01*
X424333Y257000D01*
X423333D01*
X426665Y258000D02*
X425999Y257666D01*
X425333Y257000D01*
Y256334D01*
X425666Y256000D01*
X426332D01*
X426665Y256334D01*
Y256667D01*
X426332Y257000D01*
X425333D01*
X425299Y177857D02*
X426630Y177909D01*
X425965Y177883D01*
X426042Y175885D01*
X427374Y175937D02*
X427296Y177935D01*
X428295Y177973D01*
X428641Y177653D01*
X428667Y176987D01*
X428347Y176641D01*
X427348Y176603D01*
X430626Y178063D02*
X429973Y177705D01*
X429333Y177013D01*
X429359Y176347D01*
X429705Y176027D01*
X430371Y176053D01*
X430691Y176398D01*
X430678Y176731D01*
X430332Y177051D01*
X429333Y177013D01*
X432624Y178141D02*
X431292Y178089D01*
X431331Y177090D01*
X431984Y177449D01*
X432317Y177462D01*
X432663Y177142D01*
X432689Y176476D01*
X432368Y176130D01*
X431703Y176104D01*
X431357Y176424D01*
X385334Y258000D02*
X386667D01*
X386001D01*
Y256000D01*
X387334D02*
Y258000D01*
X388334D01*
X388667Y257666D01*
Y257000D01*
X388334Y256667D01*
X387334D01*
X390666Y258000D02*
X390000Y257666D01*
X389333Y257000D01*
Y256334D01*
X389667Y256000D01*
X390333D01*
X390666Y256334D01*
Y256667D01*
X390333Y257000D01*
X389333D01*
X392332Y256000D02*
Y258000D01*
X391333Y257000D01*
X392666D01*
X350376Y165141D02*
X351708Y165089D01*
X351042Y165115D01*
X350965Y163117D01*
X352296Y163066D02*
X352374Y165063D01*
X353373Y165025D01*
X353693Y164679D01*
X353667Y164013D01*
X353321Y163693D01*
X352322Y163731D01*
X355703Y164935D02*
X355025Y164627D01*
X354333Y163987D01*
X354307Y163321D01*
X354627Y162975D01*
X355293Y162950D01*
X355639Y163270D01*
X355652Y163603D01*
X355332Y163949D01*
X354333Y163987D01*
X356357Y164576D02*
X356702Y164896D01*
X357368Y164870D01*
X357688Y164524D01*
X357676Y164191D01*
X357330Y163871D01*
X356997Y163884D01*
X357330Y163871D01*
X357650Y163525D01*
X357637Y163192D01*
X357291Y162872D01*
X356625Y162898D01*
X356305Y163244D01*
X322335Y646000D02*
X323667D01*
X323001D01*
Y644000D01*
X324334D02*
Y646000D01*
X325334D01*
X325667Y645667D01*
Y645000D01*
X325334Y644667D01*
X324334D01*
X327666Y646000D02*
X327000Y645667D01*
X326333Y645000D01*
Y644334D01*
X326666Y644000D01*
X327333D01*
X327666Y644334D01*
Y644667D01*
X327333Y645000D01*
X326333D01*
X329665Y644000D02*
X328333D01*
X329665Y645333D01*
Y645667D01*
X329332Y646000D01*
X328666D01*
X328333Y645667D01*
X280668Y648000D02*
X282001D01*
X281334D01*
Y646000D01*
X282667D02*
Y648000D01*
X283667D01*
X284000Y647667D01*
Y647000D01*
X283667Y646667D01*
X282667D01*
X285999Y648000D02*
X285333Y647667D01*
X284666Y647000D01*
Y646334D01*
X285000Y646000D01*
X285666D01*
X285999Y646334D01*
Y646667D01*
X285666Y647000D01*
X284666D01*
X286666Y646000D02*
X287332D01*
X286999D01*
Y648000D01*
X286666Y647667D01*
X158335Y258000D02*
X159667D01*
X159001D01*
Y256000D01*
X160334D02*
Y258000D01*
X161334D01*
X161667Y257666D01*
Y257000D01*
X161334Y256667D01*
X160334D01*
X163666Y258000D02*
X163000Y257666D01*
X162333Y257000D01*
Y256334D01*
X162666Y256000D01*
X163333D01*
X163666Y256334D01*
Y256667D01*
X163333Y257000D01*
X162333D01*
X164333Y257666D02*
X164666Y258000D01*
X165332D01*
X165665Y257666D01*
Y256334D01*
X165332Y256000D01*
X164666D01*
X164333Y256334D01*
Y257666D01*
X292335Y648000D02*
X293667D01*
X293001D01*
Y646000D01*
X294334D02*
Y648000D01*
X295334D01*
X295667Y647667D01*
Y647000D01*
X295334Y646667D01*
X294334D01*
X297666Y648000D02*
X296333D01*
Y647000D01*
X297000Y647333D01*
X297333D01*
X297666Y647000D01*
Y646334D01*
X297333Y646000D01*
X296667D01*
X296333Y646334D01*
X298333D02*
X298666Y646000D01*
X299332D01*
X299665Y646334D01*
Y647667D01*
X299332Y648000D01*
X298666D01*
X298333Y647667D01*
Y647333D01*
X298666Y647000D01*
X299665D01*
X248335Y530000D02*
X249667D01*
X249001D01*
Y528000D01*
X250334D02*
Y530000D01*
X251334D01*
X251667Y529667D01*
Y529000D01*
X251334Y528667D01*
X250334D01*
X253666Y530000D02*
X252333D01*
Y529000D01*
X253000Y529333D01*
X253333D01*
X253666Y529000D01*
Y528334D01*
X253333Y528000D01*
X252666D01*
X252333Y528334D01*
X255332Y528000D02*
Y530000D01*
X254333Y529000D01*
X255665D01*
X278334Y574000D02*
X279667D01*
X279001D01*
Y572000D01*
X280334D02*
Y574000D01*
X281334D01*
X281667Y573666D01*
Y573000D01*
X281334Y572667D01*
X280334D01*
X283666Y574000D02*
X282333D01*
Y573000D01*
X283000Y573333D01*
X283333D01*
X283666Y573000D01*
Y572334D01*
X283333Y572000D01*
X282666D01*
X282333Y572334D01*
X284333Y573666D02*
X284666Y574000D01*
X285332D01*
X285665Y573666D01*
Y573333D01*
X285332Y573000D01*
X284999D01*
X285332D01*
X285665Y572667D01*
Y572334D01*
X285332Y572000D01*
X284666D01*
X284333Y572334D01*
X278334Y586000D02*
X279667D01*
X279001D01*
Y584000D01*
X280334D02*
Y586000D01*
X281334D01*
X281667Y585667D01*
Y585000D01*
X281334Y584667D01*
X280334D01*
X283666Y586000D02*
X282333D01*
Y585000D01*
X283000Y585333D01*
X283333D01*
X283666Y585000D01*
Y584334D01*
X283333Y584000D01*
X282666D01*
X282333Y584334D01*
X285665Y584000D02*
X284333D01*
X285665Y585333D01*
Y585667D01*
X285332Y586000D01*
X284666D01*
X284333Y585667D01*
X231668Y530000D02*
X233001D01*
X232334D01*
Y528000D01*
X233667D02*
Y530000D01*
X234667D01*
X235000Y529667D01*
Y529000D01*
X234667Y528667D01*
X233667D01*
X236999Y530000D02*
X235666D01*
Y529000D01*
X236333Y529333D01*
X236666D01*
X236999Y529000D01*
Y528334D01*
X236666Y528000D01*
X236000D01*
X235666Y528334D01*
X237666Y528000D02*
X238332D01*
X237999D01*
Y530000D01*
X237666Y529667D01*
X115334Y403000D02*
X116667D01*
X116001D01*
Y401000D01*
X117334D02*
Y403000D01*
X118334D01*
X118667Y402667D01*
Y402000D01*
X118334Y401667D01*
X117334D01*
X120666Y403000D02*
X119333D01*
Y402000D01*
X120000Y402333D01*
X120333D01*
X120666Y402000D01*
Y401334D01*
X120333Y401000D01*
X119667D01*
X119333Y401334D01*
X121333Y402667D02*
X121666Y403000D01*
X122332D01*
X122666Y402667D01*
Y401334D01*
X122332Y401000D01*
X121666D01*
X121333Y401334D01*
Y402667D01*
X115334Y417000D02*
X116667D01*
X116001D01*
Y415000D01*
X117334D02*
Y417000D01*
X118334D01*
X118667Y416667D01*
Y416000D01*
X118334Y415667D01*
X117334D01*
X120333Y415000D02*
Y417000D01*
X119333Y416000D01*
X120666D01*
X121333Y415334D02*
X121666Y415000D01*
X122332D01*
X122666Y415334D01*
Y416667D01*
X122332Y417000D01*
X121666D01*
X121333Y416667D01*
Y416333D01*
X121666Y416000D01*
X122666D01*
X262334Y439000D02*
X263667D01*
X263001D01*
Y437000D01*
X264334D02*
Y439000D01*
X265334D01*
X265667Y438666D01*
Y438000D01*
X265334Y437667D01*
X264334D01*
X267333Y437000D02*
Y439000D01*
X266333Y438000D01*
X267666D01*
X268333Y438666D02*
X268666Y439000D01*
X269332D01*
X269666Y438666D01*
Y438333D01*
X269332Y438000D01*
X269666Y437667D01*
Y437334D01*
X269332Y437000D01*
X268666D01*
X268333Y437334D01*
Y437667D01*
X268666Y438000D01*
X268333Y438333D01*
Y438666D01*
X268666Y438000D02*
X269332D01*
X277334Y597000D02*
X278667D01*
X278001D01*
Y595000D01*
X279334D02*
Y597000D01*
X280334D01*
X280667Y596666D01*
Y596000D01*
X280334Y595667D01*
X279334D01*
X282333Y595000D02*
Y597000D01*
X281333Y596000D01*
X282666D01*
X283333Y597000D02*
X284665D01*
Y596666D01*
X283333Y595334D01*
Y595000D01*
X302334Y494000D02*
X303667D01*
X303001D01*
Y492000D01*
X304334D02*
Y494000D01*
X305334D01*
X305667Y493667D01*
Y493000D01*
X305334Y492667D01*
X304334D01*
X307333Y492000D02*
Y494000D01*
X306333Y493000D01*
X307666D01*
X309665Y494000D02*
X308999Y493667D01*
X308333Y493000D01*
Y492334D01*
X308666Y492000D01*
X309332D01*
X309665Y492334D01*
Y492667D01*
X309332Y493000D01*
X308333D01*
X313334Y449000D02*
X314667D01*
X314001D01*
Y447000D01*
X315334D02*
Y449000D01*
X316334D01*
X316667Y448666D01*
Y448000D01*
X316334Y447667D01*
X315334D01*
X318333Y447000D02*
Y449000D01*
X317333Y448000D01*
X318666D01*
X320666Y449000D02*
X319333D01*
Y448000D01*
X319999Y448333D01*
X320332D01*
X320666Y448000D01*
Y447334D01*
X320332Y447000D01*
X319666D01*
X319333Y447334D01*
X315335Y494000D02*
X316667D01*
X316001D01*
Y492000D01*
X317334D02*
Y494000D01*
X318334D01*
X318667Y493667D01*
Y493000D01*
X318334Y492667D01*
X317334D01*
X320333Y492000D02*
Y494000D01*
X319333Y493000D01*
X320666D01*
X322332Y492000D02*
Y494000D01*
X321333Y493000D01*
X322666D01*
X295322Y448954D02*
X296655Y448971D01*
X295989Y448963D01*
X296013Y446963D01*
X297346Y446980D02*
X297322Y448979D01*
X298321Y448991D01*
X298659Y448662D01*
X298667Y447996D01*
X298338Y447659D01*
X297338Y447646D01*
X300345Y447017D02*
X300321Y449016D01*
X299333Y448004D01*
X300666Y448021D01*
X301324Y448695D02*
X301653Y449032D01*
X302320Y449041D01*
X302657Y448712D01*
X302661Y448378D01*
X302332Y448041D01*
X301999Y448037D01*
X302332Y448041D01*
X302669Y447712D01*
X302673Y447379D01*
X302344Y447042D01*
X301678Y447033D01*
X301341Y447362D01*
X434335Y624000D02*
X435667D01*
X435001D01*
Y622000D01*
X436334D02*
Y624000D01*
X437334D01*
X437667Y623666D01*
Y623000D01*
X437334Y622667D01*
X436334D01*
X439333Y622000D02*
Y624000D01*
X438333Y623000D01*
X439666D01*
X441666Y622000D02*
X440333D01*
X441666Y623333D01*
Y623666D01*
X441332Y624000D01*
X440666D01*
X440333Y623666D01*
X397668Y689000D02*
X399001D01*
X398334D01*
Y687000D01*
X399667D02*
Y689000D01*
X400667D01*
X401000Y688666D01*
Y688000D01*
X400667Y687667D01*
X399667D01*
X402666Y687000D02*
Y689000D01*
X401666Y688000D01*
X402999D01*
X403666Y687000D02*
X404332D01*
X403999D01*
Y689000D01*
X403666Y688666D01*
X477334Y679000D02*
X478667D01*
X478001D01*
Y677000D01*
X479334D02*
Y679000D01*
X480334D01*
X480667Y678666D01*
Y678000D01*
X480334Y677667D01*
X479334D01*
X482333Y677000D02*
Y679000D01*
X481333Y678000D01*
X482666D01*
X483333Y678666D02*
X483666Y679000D01*
X484332D01*
X484665Y678666D01*
Y677334D01*
X484332Y677000D01*
X483666D01*
X483333Y677334D01*
Y678666D01*
X241335Y658000D02*
X242667D01*
X242001D01*
Y656000D01*
X243334D02*
Y658000D01*
X244334D01*
X244667Y657666D01*
Y657000D01*
X244334Y656667D01*
X243334D01*
X245333Y657666D02*
X245667Y658000D01*
X246333D01*
X246666Y657666D01*
Y657333D01*
X246333Y657000D01*
X246000D01*
X246333D01*
X246666Y656667D01*
Y656334D01*
X246333Y656000D01*
X245667D01*
X245333Y656334D01*
X247333Y658000D02*
X248665D01*
Y657666D01*
X247333Y656334D01*
Y656000D01*
X223335Y692000D02*
X224667D01*
X224001D01*
Y690000D01*
X225334D02*
Y692000D01*
X226334D01*
X226667Y691667D01*
Y691000D01*
X226334Y690667D01*
X225334D01*
X227333Y691667D02*
X227666Y692000D01*
X228333D01*
X228666Y691667D01*
Y691333D01*
X228333Y691000D01*
X228000D01*
X228333D01*
X228666Y690667D01*
Y690334D01*
X228333Y690000D01*
X227666D01*
X227333Y690334D01*
X230665Y692000D02*
X229999Y691667D01*
X229333Y691000D01*
Y690334D01*
X229666Y690000D01*
X230332D01*
X230665Y690334D01*
Y690667D01*
X230332Y691000D01*
X229333D01*
X190334Y692000D02*
X191667D01*
X191001D01*
Y690000D01*
X192334D02*
Y692000D01*
X193334D01*
X193667Y691667D01*
Y691000D01*
X193334Y690667D01*
X192334D01*
X194333Y691667D02*
X194667Y692000D01*
X195333D01*
X195666Y691667D01*
Y691333D01*
X195333Y691000D01*
X195000D01*
X195333D01*
X195666Y690667D01*
Y690334D01*
X195333Y690000D01*
X194667D01*
X194333Y690334D01*
X197666Y692000D02*
X196333D01*
Y691000D01*
X196999Y691333D01*
X197332D01*
X197666Y691000D01*
Y690334D01*
X197332Y690000D01*
X196666D01*
X196333Y690334D01*
X143334Y691500D02*
X144667D01*
X144001D01*
Y689500D01*
X145334D02*
Y691500D01*
X146334D01*
X146667Y691166D01*
Y690500D01*
X146334Y690167D01*
X145334D01*
X147333Y691166D02*
X147667Y691500D01*
X148333D01*
X148666Y691166D01*
Y690833D01*
X148333Y690500D01*
X148000D01*
X148333D01*
X148666Y690167D01*
Y689834D01*
X148333Y689500D01*
X147667D01*
X147333Y689834D01*
X150332Y689500D02*
Y691500D01*
X149333Y690500D01*
X150665D01*
X136335Y209000D02*
X137667D01*
X137001D01*
Y207000D01*
X138334D02*
Y209000D01*
X139334D01*
X139667Y208666D01*
Y208000D01*
X139334Y207667D01*
X138334D01*
X140333Y208666D02*
X140666Y209000D01*
X141333D01*
X141666Y208666D01*
Y208333D01*
X141333Y208000D01*
X141000D01*
X141333D01*
X141666Y207667D01*
Y207334D01*
X141333Y207000D01*
X140666D01*
X140333Y207334D01*
X142333Y208666D02*
X142666Y209000D01*
X143332D01*
X143666Y208666D01*
Y208333D01*
X143332Y208000D01*
X142999D01*
X143332D01*
X143666Y207667D01*
Y207334D01*
X143332Y207000D01*
X142666D01*
X142333Y207334D01*
X179334Y221000D02*
X180667D01*
X180001D01*
Y219000D01*
X181334D02*
Y221000D01*
X182334D01*
X182667Y220667D01*
Y220000D01*
X182334Y219667D01*
X181334D01*
X183333Y220667D02*
X183667Y221000D01*
X184333D01*
X184666Y220667D01*
Y220333D01*
X184333Y220000D01*
X184000D01*
X184333D01*
X184666Y219667D01*
Y219334D01*
X184333Y219000D01*
X183667D01*
X183333Y219334D01*
X186665Y219000D02*
X185333D01*
X186665Y220333D01*
Y220667D01*
X186332Y221000D01*
X185666D01*
X185333Y220667D01*
X309668Y630000D02*
X311001D01*
X310334D01*
Y628000D01*
X311667D02*
Y630000D01*
X312667D01*
X313000Y629667D01*
Y629000D01*
X312667Y628667D01*
X311667D01*
X313666Y629667D02*
X314000Y630000D01*
X314666D01*
X314999Y629667D01*
Y629333D01*
X314666Y629000D01*
X314333D01*
X314666D01*
X314999Y628667D01*
Y628334D01*
X314666Y628000D01*
X314000D01*
X313666Y628334D01*
X315666Y628000D02*
X316332D01*
X315999D01*
Y630000D01*
X315666Y629667D01*
X115334Y190000D02*
X116667D01*
X116001D01*
Y188000D01*
X117334D02*
Y190000D01*
X118334D01*
X118667Y189666D01*
Y189000D01*
X118334Y188667D01*
X117334D01*
X119333Y189666D02*
X119667Y190000D01*
X120333D01*
X120666Y189666D01*
Y189333D01*
X120333Y189000D01*
X120000D01*
X120333D01*
X120666Y188667D01*
Y188334D01*
X120333Y188000D01*
X119667D01*
X119333Y188334D01*
X121333Y189666D02*
X121666Y190000D01*
X122332D01*
X122666Y189666D01*
Y188334D01*
X122332Y188000D01*
X121666D01*
X121333Y188334D01*
Y189666D01*
X115334Y113000D02*
X116667D01*
X116001D01*
Y111000D01*
X117334D02*
Y113000D01*
X118334D01*
X118667Y112666D01*
Y112000D01*
X118334Y111667D01*
X117334D01*
X120666Y111000D02*
X119333D01*
X120666Y112333D01*
Y112666D01*
X120333Y113000D01*
X119667D01*
X119333Y112666D01*
X121333Y111334D02*
X121666Y111000D01*
X122332D01*
X122666Y111334D01*
Y112666D01*
X122332Y113000D01*
X121666D01*
X121333Y112666D01*
Y112333D01*
X121666Y112000D01*
X122666D01*
X268335Y285000D02*
X269667D01*
X269001D01*
Y283000D01*
X270334D02*
Y285000D01*
X271334D01*
X271667Y284666D01*
Y284000D01*
X271334Y283667D01*
X270334D01*
X273666Y283000D02*
X272333D01*
X273666Y284333D01*
Y284666D01*
X273333Y285000D01*
X272667D01*
X272333Y284666D01*
X274333D02*
X274666Y285000D01*
X275332D01*
X275665Y284666D01*
Y284333D01*
X275332Y284000D01*
X275665Y283667D01*
Y283334D01*
X275332Y283000D01*
X274666D01*
X274333Y283334D01*
Y283667D01*
X274666Y284000D01*
X274333Y284333D01*
Y284666D01*
X274666Y284000D02*
X275332D01*
X189334Y341000D02*
X190667D01*
X190001D01*
Y339000D01*
X191334D02*
Y341000D01*
X192334D01*
X192667Y340667D01*
Y340000D01*
X192334Y339667D01*
X191334D01*
X194666Y339000D02*
X193333D01*
X194666Y340333D01*
Y340667D01*
X194333Y341000D01*
X193667D01*
X193333Y340667D01*
X195333Y341000D02*
X196666D01*
Y340667D01*
X195333Y339334D01*
Y339000D01*
X304334Y200000D02*
X305667D01*
X305001D01*
Y198000D01*
X306334D02*
Y200000D01*
X307334D01*
X307667Y199667D01*
Y199000D01*
X307334Y198667D01*
X306334D01*
X309666Y198000D02*
X308333D01*
X309666Y199333D01*
Y199667D01*
X309333Y200000D01*
X308666D01*
X308333Y199667D01*
X311666Y200000D02*
X310999Y199667D01*
X310333Y199000D01*
Y198334D01*
X310666Y198000D01*
X311332D01*
X311666Y198334D01*
Y198667D01*
X311332Y199000D01*
X310333D01*
X169334Y361000D02*
X170667D01*
X170001D01*
Y359000D01*
X171334D02*
Y361000D01*
X172334D01*
X172667Y360666D01*
Y360000D01*
X172334Y359667D01*
X171334D01*
X174666Y359000D02*
X173333D01*
X174666Y360333D01*
Y360666D01*
X174333Y361000D01*
X173667D01*
X173333Y360666D01*
X176665Y361000D02*
X175333D01*
Y360000D01*
X175999Y360333D01*
X176332D01*
X176665Y360000D01*
Y359334D01*
X176332Y359000D01*
X175666D01*
X175333Y359334D01*
X246335Y319000D02*
X247667D01*
X247001D01*
Y317000D01*
X248334D02*
Y319000D01*
X249334D01*
X249667Y318667D01*
Y318000D01*
X249334Y317667D01*
X248334D01*
X251666Y317000D02*
X250333D01*
X251666Y318333D01*
Y318667D01*
X251333Y319000D01*
X250666D01*
X250333Y318667D01*
X253332Y317000D02*
Y319000D01*
X252333Y318000D01*
X253665D01*
X276335Y236000D02*
X277667D01*
X277001D01*
Y234000D01*
X278334D02*
Y236000D01*
X279334D01*
X279667Y235666D01*
Y235000D01*
X279334Y234667D01*
X278334D01*
X281666Y234000D02*
X280333D01*
X281666Y235333D01*
Y235666D01*
X281333Y236000D01*
X280666D01*
X280333Y235666D01*
X282333D02*
X282666Y236000D01*
X283332D01*
X283665Y235666D01*
Y235333D01*
X283332Y235000D01*
X282999D01*
X283332D01*
X283665Y234667D01*
Y234334D01*
X283332Y234000D01*
X282666D01*
X282333Y234334D01*
X180667Y159667D02*
X180334Y160000D01*
X179667D01*
X179334Y159667D01*
Y159333D01*
X179667Y159000D01*
X180334D01*
X180667Y158667D01*
Y158334D01*
X180334Y158000D01*
X179667D01*
X179334Y158334D01*
X181333Y160000D02*
Y158000D01*
X182000Y158667D01*
X182667Y158000D01*
Y160000D01*
X183333Y159667D02*
X183666Y160000D01*
X184333D01*
X184666Y159667D01*
Y159333D01*
X184333Y159000D01*
X183999D01*
X184333D01*
X184666Y158667D01*
Y158334D01*
X184333Y158000D01*
X183666D01*
X183333Y158334D01*
X379333Y488667D02*
X379000Y488334D01*
Y487667D01*
X379333Y487334D01*
X379667D01*
X380000Y487667D01*
Y488334D01*
X380333Y488667D01*
X380666D01*
X381000Y488334D01*
Y487667D01*
X380666Y487334D01*
X379000Y489334D02*
X381000D01*
X380333Y490000D01*
X381000Y490666D01*
X379000D01*
X381000Y492666D02*
Y491333D01*
X379667Y492666D01*
X379333D01*
X379000Y492333D01*
Y491666D01*
X379333Y491333D01*
X125633Y600866D02*
X125300Y601199D01*
X124633D01*
X124300Y600866D01*
Y600533D01*
X124633Y600200D01*
X125300D01*
X125633Y599866D01*
Y599533D01*
X125300Y599200D01*
X124633D01*
X124300Y599533D01*
X126299Y601199D02*
Y599200D01*
X126966Y599866D01*
X127632Y599200D01*
Y601199D01*
X128299Y599200D02*
X128965D01*
X128632D01*
Y601199D01*
X128299Y600866D01*
X310334Y668000D02*
Y670000D01*
X311334D01*
X311667Y669666D01*
Y669000D01*
X311334Y668667D01*
X310334D01*
X311001D02*
X311667Y668000D01*
X312334Y670000D02*
X313666D01*
Y669666D01*
X312334Y668334D01*
Y668000D01*
X314333Y669666D02*
X314666Y670000D01*
X315333D01*
X315666Y669666D01*
Y668334D01*
X315333Y668000D01*
X314666D01*
X314333Y668334D01*
Y669666D01*
X477334Y656000D02*
Y658000D01*
X478334D01*
X478667Y657666D01*
Y657000D01*
X478334Y656667D01*
X477334D01*
X478001D02*
X478667Y656000D01*
X480666Y658000D02*
X480000Y657666D01*
X479334Y657000D01*
Y656334D01*
X479667Y656000D01*
X480333D01*
X480666Y656334D01*
Y656667D01*
X480333Y657000D01*
X479334D01*
X481333Y656334D02*
X481666Y656000D01*
X482333D01*
X482666Y656334D01*
Y657666D01*
X482333Y658000D01*
X481666D01*
X481333Y657666D01*
Y657333D01*
X481666Y657000D01*
X482666D01*
X349334Y491000D02*
Y493000D01*
X350334D01*
X350667Y492666D01*
Y492000D01*
X350334Y491667D01*
X349334D01*
X350001D02*
X350667Y491000D01*
X352666Y493000D02*
X352000Y492666D01*
X351334Y492000D01*
Y491334D01*
X351667Y491000D01*
X352333D01*
X352666Y491334D01*
Y491667D01*
X352333Y492000D01*
X351334D01*
X353333Y493000D02*
X354666D01*
Y492666D01*
X353333Y491334D01*
Y491000D01*
X179334Y631000D02*
Y633000D01*
X180334D01*
X180667Y632666D01*
Y632000D01*
X180334Y631667D01*
X179334D01*
X180001D02*
X180667Y631000D01*
X182667Y633000D02*
X182000Y632666D01*
X181333Y632000D01*
Y631334D01*
X181667Y631000D01*
X182333D01*
X182667Y631334D01*
Y631667D01*
X182333Y632000D01*
X181333D01*
X184666Y633000D02*
X183999Y632666D01*
X183333Y632000D01*
Y631334D01*
X183666Y631000D01*
X184333D01*
X184666Y631334D01*
Y631667D01*
X184333Y632000D01*
X183333D01*
X469334Y431000D02*
Y433000D01*
X470334D01*
X470667Y432666D01*
Y432000D01*
X470334Y431667D01*
X469334D01*
X470001D02*
X470667Y431000D01*
X472666Y433000D02*
X472000Y432666D01*
X471334Y432000D01*
Y431334D01*
X471667Y431000D01*
X472333D01*
X472666Y431334D01*
Y431667D01*
X472333Y432000D01*
X471334D01*
X474666Y433000D02*
X473333D01*
Y432000D01*
X473999Y432333D01*
X474333D01*
X474666Y432000D01*
Y431334D01*
X474333Y431000D01*
X473666D01*
X473333Y431334D01*
X368667Y226000D02*
Y228000D01*
X369667D01*
X370000Y227666D01*
Y227000D01*
X369667Y226667D01*
X368667D01*
X369334D02*
X370000Y226000D01*
X372000Y228000D02*
X371333Y227666D01*
X370667Y227000D01*
Y226334D01*
X371000Y226000D01*
X371667D01*
X372000Y226334D01*
Y226667D01*
X371667Y227000D01*
X370667D01*
X372666Y226000D02*
X373333D01*
X372999D01*
Y228000D01*
X372666Y227666D01*
X374834Y506500D02*
Y508500D01*
X375834D01*
X376167Y508167D01*
Y507500D01*
X375834Y507167D01*
X374834D01*
X375501D02*
X376167Y506500D01*
X378166Y508500D02*
X376834D01*
Y507500D01*
X377500Y507833D01*
X377833D01*
X378166Y507500D01*
Y506834D01*
X377833Y506500D01*
X377167D01*
X376834Y506834D01*
X378833Y508167D02*
X379166Y508500D01*
X379833D01*
X380166Y508167D01*
Y507833D01*
X379833Y507500D01*
X380166Y507167D01*
Y506834D01*
X379833Y506500D01*
X379166D01*
X378833Y506834D01*
Y507167D01*
X379166Y507500D01*
X378833Y507833D01*
Y508167D01*
X379166Y507500D02*
X379833D01*
X412334Y459000D02*
Y461000D01*
X413334D01*
X413667Y460667D01*
Y460000D01*
X413334Y459667D01*
X412334D01*
X413001D02*
X413667Y459000D01*
X415666Y461000D02*
X414334D01*
Y460000D01*
X415000Y460333D01*
X415333D01*
X415666Y460000D01*
Y459334D01*
X415333Y459000D01*
X414667D01*
X414334Y459334D01*
X416333Y461000D02*
X417666D01*
Y460667D01*
X416333Y459334D01*
Y459000D01*
X434334Y669000D02*
Y671000D01*
X435334D01*
X435667Y670667D01*
Y670000D01*
X435334Y669667D01*
X434334D01*
X435001D02*
X435667Y669000D01*
X437333D02*
Y671000D01*
X436334Y670000D01*
X437666D01*
X438333Y670667D02*
X438666Y671000D01*
X439333D01*
X439666Y670667D01*
Y669334D01*
X439333Y669000D01*
X438666D01*
X438333Y669334D01*
Y670667D01*
X350173Y142000D02*
Y144000D01*
X351172D01*
X351506Y143667D01*
Y143000D01*
X351172Y142667D01*
X350173D01*
X350839D02*
X351506Y142000D01*
X353505D02*
X352172D01*
X353505Y143333D01*
Y143667D01*
X353172Y144000D01*
X352505D01*
X352172Y143667D01*
X354171Y142334D02*
X354505Y142000D01*
X355171D01*
X355504Y142334D01*
Y143667D01*
X355171Y144000D01*
X354505D01*
X354171Y143667D01*
Y143333D01*
X354505Y143000D01*
X355504D01*
X239716Y265615D02*
Y267614D01*
X240716D01*
X241049Y267281D01*
Y266614D01*
X240716Y266281D01*
X239716D01*
X240383D02*
X241049Y265615D01*
X243048D02*
X241715D01*
X243048Y266947D01*
Y267281D01*
X242715Y267614D01*
X242049D01*
X241715Y267281D01*
X245048Y267614D02*
X243715D01*
Y266614D01*
X244381Y266947D01*
X244714D01*
X245048Y266614D01*
Y265948D01*
X244714Y265615D01*
X244048D01*
X243715Y265948D01*
X167334Y310000D02*
Y312000D01*
X168334D01*
X168667Y311666D01*
Y311000D01*
X168334Y310667D01*
X167334D01*
X168001D02*
X168667Y310000D01*
X170667D02*
X169334D01*
X170667Y311333D01*
Y311666D01*
X170333Y312000D01*
X169667D01*
X169334Y311666D01*
X172333Y310000D02*
Y312000D01*
X171333Y311000D01*
X172666D01*
X269716Y183115D02*
Y185114D01*
X270716D01*
X271049Y184781D01*
Y184114D01*
X270716Y183781D01*
X269716D01*
X270382D02*
X271049Y183115D01*
X273048D02*
X271715D01*
X273048Y184447D01*
Y184781D01*
X272715Y185114D01*
X272049D01*
X271715Y184781D01*
X273715D02*
X274048Y185114D01*
X274714D01*
X275048Y184781D01*
Y184447D01*
X274714Y184114D01*
X274381D01*
X274714D01*
X275048Y183781D01*
Y183448D01*
X274714Y183115D01*
X274048D01*
X273715Y183448D01*
X109305Y312000D02*
Y314000D01*
X110304D01*
X110638Y313667D01*
Y313000D01*
X110304Y312667D01*
X109305D01*
X109971D02*
X110638Y312000D01*
X112637D02*
X111304D01*
X112637Y313333D01*
Y313667D01*
X112304Y314000D01*
X111637D01*
X111304Y313667D01*
X113303Y312000D02*
X113970D01*
X113637D01*
Y314000D01*
X113303Y313667D01*
X127501Y313000D02*
Y315000D01*
X128500D01*
X128834Y314667D01*
Y314000D01*
X128500Y313667D01*
X127501D01*
X128167D02*
X128834Y313000D01*
X129500D02*
X130167D01*
X129833D01*
Y315000D01*
X129500Y314667D01*
X131166Y313334D02*
X131500Y313000D01*
X132166D01*
X132499Y313334D01*
Y314667D01*
X132166Y315000D01*
X131500D01*
X131166Y314667D01*
Y314333D01*
X131500Y314000D01*
X132499D01*
X189000Y280501D02*
X187000D01*
Y281501D01*
X187334Y281834D01*
X188000D01*
X188333Y281501D01*
Y280501D01*
Y281167D02*
X189000Y281834D01*
Y282500D02*
Y283167D01*
Y282833D01*
X187000D01*
X187334Y282500D01*
Y284166D02*
X187000Y284500D01*
Y285166D01*
X187334Y285499D01*
X187667D01*
X188000Y285166D01*
X188333Y285499D01*
X188666D01*
X189000Y285166D01*
Y284500D01*
X188666Y284166D01*
X188333D01*
X188000Y284500D01*
X187667Y284166D01*
X187334D01*
X188000Y284500D02*
Y285166D01*
X205501Y275000D02*
Y277000D01*
X206501D01*
X206834Y276666D01*
Y276000D01*
X206501Y275667D01*
X205501D01*
X206167D02*
X206834Y275000D01*
X207500D02*
X208167D01*
X207833D01*
Y277000D01*
X207500Y276666D01*
X210499Y277000D02*
X209833Y276666D01*
X209166Y276000D01*
Y275334D01*
X209500Y275000D01*
X210166D01*
X210499Y275334D01*
Y275667D01*
X210166Y276000D01*
X209166D01*
X163667Y148334D02*
Y149667D01*
X163334Y150000D01*
X162667D01*
X162334Y149667D01*
Y148334D01*
X162667Y148000D01*
X163334D01*
X163000Y148667D02*
X163667Y148000D01*
X163334D02*
X163667Y148334D01*
X164333Y149667D02*
X164666Y150000D01*
X165333D01*
X165666Y149667D01*
Y149333D01*
X165333Y149000D01*
X165666Y148667D01*
Y148334D01*
X165333Y148000D01*
X164666D01*
X164333Y148334D01*
Y148667D01*
X164666Y149000D01*
X164333Y149333D01*
Y149667D01*
X164666Y149000D02*
X165333D01*
X481673Y636500D02*
Y638500D01*
X482672D01*
X483006Y638167D01*
Y637500D01*
X482672Y637167D01*
X481673D01*
X483672Y636500D02*
X484338D01*
X484005D01*
Y638500D01*
X483672Y638167D01*
X485338Y636500D02*
X486005D01*
X485671D01*
Y638500D01*
X485338Y638167D01*
X343501Y514000D02*
Y516000D01*
X344500D01*
X344834Y515666D01*
Y515000D01*
X344500Y514667D01*
X343501D01*
X345500Y514000D02*
X346167D01*
X345833D01*
Y516000D01*
X345500Y515666D01*
X347166D02*
X347499Y516000D01*
X348166D01*
X348499Y515666D01*
Y514334D01*
X348166Y514000D01*
X347499D01*
X347166Y514334D01*
Y515666D01*
X146334Y657000D02*
Y659000D01*
X147334D01*
X147667Y658667D01*
Y658000D01*
X147334Y657667D01*
X146334D01*
X148333Y657334D02*
X148667Y657000D01*
X149333D01*
X149666Y657334D01*
Y658667D01*
X149333Y659000D01*
X148667D01*
X148333Y658667D01*
Y658333D01*
X148667Y658000D01*
X149666D01*
X442334Y445000D02*
Y447000D01*
X443334D01*
X443667Y446666D01*
Y446000D01*
X443334Y445667D01*
X442334D01*
X444333Y446666D02*
X444666Y447000D01*
X445333D01*
X445666Y446666D01*
Y446333D01*
X445333Y446000D01*
X445666Y445667D01*
Y445334D01*
X445333Y445000D01*
X444666D01*
X444333Y445334D01*
Y445667D01*
X444666Y446000D01*
X444333Y446333D01*
Y446666D01*
X444666Y446000D02*
X445333D01*
X458334Y232000D02*
Y234000D01*
X459334D01*
X459667Y233666D01*
Y233000D01*
X459334Y232667D01*
X458334D01*
X461666Y234000D02*
X461000Y233666D01*
X460333Y233000D01*
Y232334D01*
X460667Y232000D01*
X461333D01*
X461666Y232334D01*
Y232667D01*
X461333Y233000D01*
X460333D01*
X443334Y154000D02*
Y156000D01*
X444334D01*
X444667Y155666D01*
Y155000D01*
X444334Y154667D01*
X443334D01*
X446666Y156000D02*
X445333D01*
Y155000D01*
X446000Y155333D01*
X446333D01*
X446666Y155000D01*
Y154334D01*
X446333Y154000D01*
X445667D01*
X445333Y154334D01*
X352334Y247000D02*
Y249000D01*
X353334D01*
X353667Y248667D01*
Y248000D01*
X353334Y247667D01*
X352334D01*
X355333Y247000D02*
Y249000D01*
X354333Y248000D01*
X355666D01*
X365834Y179000D02*
Y181000D01*
X366834D01*
X367167Y180666D01*
Y180000D01*
X366834Y179667D01*
X365834D01*
X367833Y180666D02*
X368166Y181000D01*
X368833D01*
X369166Y180666D01*
Y180333D01*
X368833Y180000D01*
X368500D01*
X368833D01*
X369166Y179667D01*
Y179334D01*
X368833Y179000D01*
X368166D01*
X367833Y179334D01*
X216300Y587800D02*
Y589799D01*
X217300D01*
X217633Y589466D01*
Y588800D01*
X217300Y588466D01*
X216300D01*
X219632Y587800D02*
X218299D01*
X219632Y589133D01*
Y589466D01*
X219299Y589799D01*
X218633D01*
X218299Y589466D01*
X441667Y694000D02*
Y696000D01*
X442667D01*
X443000Y695667D01*
Y695000D01*
X442667Y694667D01*
X441667D01*
X443666Y694000D02*
X444333D01*
X444000D01*
Y696000D01*
X443666Y695667D01*
X102900Y527100D02*
Y529099D01*
X103567Y528433D01*
X104233Y529099D01*
Y527100D01*
X104899Y529099D02*
Y527100D01*
X105899D01*
X106232Y527433D01*
Y528766D01*
X105899Y529099D01*
X104899D01*
X106899Y527100D02*
X107565D01*
X107232D01*
Y529099D01*
X106899Y528766D01*
X148334Y344000D02*
Y342000D01*
X149667D01*
X150333Y343667D02*
X150666Y344000D01*
X151333D01*
X151666Y343667D01*
Y343333D01*
X151333Y343000D01*
X151000D01*
X151333D01*
X151666Y342667D01*
Y342334D01*
X151333Y342000D01*
X150666D01*
X150333Y342334D01*
X220834Y311000D02*
Y309000D01*
X222167D01*
X224166D02*
X222833D01*
X224166Y310333D01*
Y310666D01*
X223833Y311000D01*
X223166D01*
X222833Y310666D01*
X248667Y226374D02*
Y224374D01*
X250000D01*
X250666D02*
X251333D01*
X251000D01*
Y226374D01*
X250666Y226041D01*
X270933Y688699D02*
X270266D01*
X270600D01*
Y687033D01*
X270266Y686700D01*
X269933D01*
X269600Y687033D01*
X272932Y686700D02*
X271599D01*
X272932Y688033D01*
Y688366D01*
X272599Y688699D01*
X271933D01*
X271599Y688366D01*
X273599D02*
X273932Y688699D01*
X274598D01*
X274932Y688366D01*
Y687033D01*
X274598Y686700D01*
X273932D01*
X273599Y687033D01*
Y688366D01*
X275598Y686700D02*
X276265D01*
X275931D01*
Y688699D01*
X275598Y688366D01*
X224167Y656000D02*
X223500D01*
X223834D01*
Y654334D01*
X223500Y654000D01*
X223167D01*
X222834Y654334D01*
X224833Y654000D02*
X225500D01*
X225167D01*
Y656000D01*
X224833Y655666D01*
X226500Y654000D02*
X227166D01*
X226833D01*
Y656000D01*
X226500Y655666D01*
X107834Y268000D02*
X107167D01*
X107501D01*
Y266334D01*
X107167Y266000D01*
X106834D01*
X106501Y266334D01*
X108500Y266000D02*
X109167D01*
X108833D01*
Y268000D01*
X108500Y267667D01*
X110166D02*
X110500Y268000D01*
X111166D01*
X111499Y267667D01*
Y266334D01*
X111166Y266000D01*
X110500D01*
X110166Y266334D01*
Y267667D01*
X479501Y648000D02*
Y646000D01*
X480501D01*
X480834Y646334D01*
Y647667D01*
X480501Y648000D01*
X479501D01*
X482833Y647667D02*
X482500Y648000D01*
X481834D01*
X481500Y647667D01*
Y647333D01*
X481834Y647000D01*
X482500D01*
X482833Y646667D01*
Y646334D01*
X482500Y646000D01*
X481834D01*
X481500Y646334D01*
X483500Y646000D02*
X484166D01*
X483833D01*
Y648000D01*
X483500Y647667D01*
X486499Y646000D02*
X485166D01*
X486499Y647333D01*
Y647667D01*
X486166Y648000D01*
X485499D01*
X485166Y647667D01*
X350834Y499000D02*
Y497000D01*
X351834D01*
X352167Y497334D01*
Y498666D01*
X351834Y499000D01*
X350834D01*
X354167Y498666D02*
X353833Y499000D01*
X353167D01*
X352834Y498666D01*
Y498333D01*
X353167Y498000D01*
X353833D01*
X354167Y497667D01*
Y497334D01*
X353833Y497000D01*
X353167D01*
X352834Y497334D01*
X354833Y497000D02*
X355500D01*
X355166D01*
Y499000D01*
X354833Y498666D01*
X356499Y497000D02*
X357166D01*
X356832D01*
Y499000D01*
X356499Y498666D01*
X185501Y641000D02*
Y639000D01*
X186501D01*
X186834Y639334D01*
Y640666D01*
X186501Y641000D01*
X185501D01*
X188833Y640666D02*
X188500Y641000D01*
X187834D01*
X187501Y640666D01*
Y640333D01*
X187834Y640000D01*
X188500D01*
X188833Y639667D01*
Y639334D01*
X188500Y639000D01*
X187834D01*
X187501Y639334D01*
X189500Y639000D02*
X190166D01*
X189833D01*
Y641000D01*
X189500Y640666D01*
X191166D02*
X191499Y641000D01*
X192166D01*
X192499Y640666D01*
Y639334D01*
X192166Y639000D01*
X191499D01*
X191166Y639334D01*
Y640666D01*
X445334Y423000D02*
Y421000D01*
X446334D01*
X446667Y421334D01*
Y422667D01*
X446334Y423000D01*
X445334D01*
X448666Y422667D02*
X448333Y423000D01*
X447667D01*
X447334Y422667D01*
Y422333D01*
X447667Y422000D01*
X448333D01*
X448666Y421667D01*
Y421334D01*
X448333Y421000D01*
X447667D01*
X447334Y421334D01*
X449333D02*
X449666Y421000D01*
X450333D01*
X450666Y421334D01*
Y422667D01*
X450333Y423000D01*
X449666D01*
X449333Y422667D01*
Y422333D01*
X449666Y422000D01*
X450666D01*
X442334Y250000D02*
Y248000D01*
X443334D01*
X443667Y248334D01*
Y249667D01*
X443334Y250000D01*
X442334D01*
X445666Y249667D02*
X445333Y250000D01*
X444667D01*
X444334Y249667D01*
Y249333D01*
X444667Y249000D01*
X445333D01*
X445666Y248667D01*
Y248334D01*
X445333Y248000D01*
X444667D01*
X444334Y248334D01*
X446333Y250000D02*
X447666D01*
Y249667D01*
X446333Y248334D01*
Y248000D01*
X455334Y180000D02*
Y178000D01*
X456334D01*
X456667Y178334D01*
Y179666D01*
X456334Y180000D01*
X455334D01*
X458666Y179666D02*
X458333Y180000D01*
X457667D01*
X457334Y179666D01*
Y179333D01*
X457667Y179000D01*
X458333D01*
X458666Y178667D01*
Y178334D01*
X458333Y178000D01*
X457667D01*
X457334Y178334D01*
X460666Y180000D02*
X459999Y179666D01*
X459333Y179000D01*
Y178334D01*
X459666Y178000D01*
X460333D01*
X460666Y178334D01*
Y178667D01*
X460333Y179000D01*
X459333D01*
X374334Y248000D02*
Y246000D01*
X375334D01*
X375667Y246334D01*
Y247667D01*
X375334Y248000D01*
X374334D01*
X377666Y247667D02*
X377333Y248000D01*
X376667D01*
X376334Y247667D01*
Y247333D01*
X376667Y247000D01*
X377333D01*
X377666Y246667D01*
Y246334D01*
X377333Y246000D01*
X376667D01*
X376334Y246334D01*
X379666Y248000D02*
X378333D01*
Y247000D01*
X378999Y247333D01*
X379333D01*
X379666Y247000D01*
Y246334D01*
X379333Y246000D01*
X378666D01*
X378333Y246334D01*
X342300Y157000D02*
Y159000D01*
X341300D01*
X340967Y158666D01*
Y157334D01*
X341300Y157000D01*
X342300D01*
X338967Y157334D02*
X339301Y157000D01*
X339967D01*
X340300Y157334D01*
Y157667D01*
X339967Y158000D01*
X339301D01*
X338967Y158333D01*
Y158666D01*
X339301Y159000D01*
X339967D01*
X340300Y158666D01*
X337301Y159000D02*
Y157000D01*
X338301Y158000D01*
X336968D01*
X269602Y276000D02*
Y274000D01*
X270602D01*
X270935Y274334D01*
Y275666D01*
X270602Y276000D01*
X269602D01*
X272934Y275666D02*
X272601Y276000D01*
X271935D01*
X271601Y275666D01*
Y275333D01*
X271935Y275000D01*
X272601D01*
X272934Y274667D01*
Y274334D01*
X272601Y274000D01*
X271935D01*
X271601Y274334D01*
X273601Y275666D02*
X273934Y276000D01*
X274600D01*
X274934Y275666D01*
Y275333D01*
X274600Y275000D01*
X274267D01*
X274600D01*
X274934Y274667D01*
Y274334D01*
X274600Y274000D01*
X273934D01*
X273601Y274334D01*
X199334Y323000D02*
Y321000D01*
X200334D01*
X200667Y321334D01*
Y322667D01*
X200334Y323000D01*
X199334D01*
X202666Y322667D02*
X202333Y323000D01*
X201667D01*
X201333Y322667D01*
Y322333D01*
X201667Y322000D01*
X202333D01*
X202666Y321667D01*
Y321334D01*
X202333Y321000D01*
X201667D01*
X201333Y321334D01*
X204666Y321000D02*
X203333D01*
X204666Y322333D01*
Y322667D01*
X204333Y323000D01*
X203666D01*
X203333Y322667D01*
X282667Y185000D02*
Y183000D01*
X283667D01*
X284000Y183334D01*
Y184667D01*
X283667Y185000D01*
X282667D01*
X286000Y184667D02*
X285666Y185000D01*
X285000D01*
X284667Y184667D01*
Y184333D01*
X285000Y184000D01*
X285666D01*
X286000Y183667D01*
Y183334D01*
X285666Y183000D01*
X285000D01*
X284667Y183334D01*
X286666Y183000D02*
X287333D01*
X286999D01*
Y185000D01*
X286666Y184667D01*
X159600Y198799D02*
Y196800D01*
X160600D01*
X160933Y197133D01*
Y198466D01*
X160600Y198799D01*
X159600D01*
X161599Y196800D02*
X162266D01*
X161933D01*
Y198799D01*
X161599Y198466D01*
X473000Y670667D02*
X472667Y671000D01*
X472001D01*
X471667Y670667D01*
Y669334D01*
X472001Y669000D01*
X472667D01*
X473000Y669334D01*
X474667Y669000D02*
Y671000D01*
X473667Y670000D01*
X475000D01*
X475666Y669000D02*
X476333D01*
X475999D01*
Y671000D01*
X475666Y670667D01*
X453667D02*
X453334Y671000D01*
X452667D01*
X452334Y670667D01*
Y669334D01*
X452667Y669000D01*
X453334D01*
X453667Y669334D01*
X455333Y669000D02*
Y671000D01*
X454334Y670000D01*
X455666D01*
X456333Y670667D02*
X456666Y671000D01*
X457333D01*
X457666Y670667D01*
Y669334D01*
X457333Y669000D01*
X456666D01*
X456333Y669334D01*
Y670667D01*
X381167Y213166D02*
X380834Y213500D01*
X380167D01*
X379834Y213166D01*
Y211834D01*
X380167Y211500D01*
X380834D01*
X381167Y211834D01*
X381834Y213166D02*
X382167Y213500D01*
X382833D01*
X383166Y213166D01*
Y212833D01*
X382833Y212500D01*
X382500D01*
X382833D01*
X383166Y212167D01*
Y211834D01*
X382833Y211500D01*
X382167D01*
X381834Y211834D01*
X383833Y213166D02*
X384166Y213500D01*
X384833D01*
X385166Y213166D01*
Y211834D01*
X384833Y211500D01*
X384166D01*
X383833Y211834D01*
Y213166D01*
X381167Y138166D02*
X380834Y138500D01*
X380167D01*
X379834Y138166D01*
Y136834D01*
X380167Y136500D01*
X380834D01*
X381167Y136834D01*
X383166Y136500D02*
X381834D01*
X383166Y137833D01*
Y138166D01*
X382833Y138500D01*
X382167D01*
X381834Y138166D01*
X383833Y136834D02*
X384166Y136500D01*
X384833D01*
X385166Y136834D01*
Y138166D01*
X384833Y138500D01*
X384166D01*
X383833Y138166D01*
Y137833D01*
X384166Y137500D01*
X385166D01*
X159633Y542066D02*
X159300Y542399D01*
X158633D01*
X158300Y542066D01*
Y540733D01*
X158633Y540400D01*
X159300D01*
X159633Y540733D01*
X161632Y540400D02*
X160299D01*
X161632Y541733D01*
Y542066D01*
X161299Y542399D01*
X160633D01*
X160299Y542066D01*
X162299D02*
X162632Y542399D01*
X163298D01*
X163632Y542066D01*
Y541733D01*
X163298Y541400D01*
X163632Y541066D01*
Y540733D01*
X163298Y540400D01*
X162632D01*
X162299Y540733D01*
Y541066D01*
X162632Y541400D01*
X162299Y541733D01*
Y542066D01*
X162632Y541400D02*
X163298D01*
X146433Y542066D02*
X146100Y542399D01*
X145433D01*
X145100Y542066D01*
Y540733D01*
X145433Y540400D01*
X146100D01*
X146433Y540733D01*
X148432Y540400D02*
X147099D01*
X148432Y541733D01*
Y542066D01*
X148099Y542399D01*
X147433D01*
X147099Y542066D01*
X149099Y542399D02*
X150432D01*
Y542066D01*
X149099Y540733D01*
Y540400D01*
X196667Y539667D02*
X196334Y540000D01*
X195667D01*
X195334Y539667D01*
Y538334D01*
X195667Y538000D01*
X196334D01*
X196667Y538334D01*
X198667Y538000D02*
X197334D01*
X198667Y539333D01*
Y539667D01*
X198333Y540000D01*
X197667D01*
X197334Y539667D01*
X200666Y540000D02*
X199999Y539667D01*
X199333Y539000D01*
Y538334D01*
X199666Y538000D01*
X200333D01*
X200666Y538334D01*
Y538667D01*
X200333Y539000D01*
X199333D01*
X208167Y538438D02*
X207834Y538771D01*
X207167D01*
X206834Y538438D01*
Y537105D01*
X207167Y536772D01*
X207834D01*
X208167Y537105D01*
X210166Y536772D02*
X208834D01*
X210166Y538105D01*
Y538438D01*
X209833Y538771D01*
X209167D01*
X208834Y538438D01*
X212166Y538771D02*
X210833D01*
Y537772D01*
X211499Y538105D01*
X211833D01*
X212166Y537772D01*
Y537105D01*
X211833Y536772D01*
X211166D01*
X210833Y537105D01*
X105667Y305666D02*
X105334Y306000D01*
X104667D01*
X104334Y305666D01*
Y304334D01*
X104667Y304000D01*
X105334D01*
X105667Y304334D01*
X107667Y304000D02*
X106333D01*
X107667Y305333D01*
Y305666D01*
X107333Y306000D01*
X106667D01*
X106333Y305666D01*
X108333D02*
X108666Y306000D01*
X109333D01*
X109666Y305666D01*
Y305333D01*
X109333Y305000D01*
X108999D01*
X109333D01*
X109666Y304667D01*
Y304334D01*
X109333Y304000D01*
X108666D01*
X108333Y304334D01*
X167667Y252666D02*
X167334Y253000D01*
X166667D01*
X166334Y252666D01*
Y251334D01*
X166667Y251000D01*
X167334D01*
X167667Y251334D01*
X169667Y251000D02*
X168333D01*
X169667Y252333D01*
Y252666D01*
X169333Y253000D01*
X168667D01*
X168333Y252666D01*
X171666Y251000D02*
X170333D01*
X171666Y252333D01*
Y252666D01*
X171333Y253000D01*
X170666D01*
X170333Y252666D01*
X216748Y172667D02*
X216415Y173000D01*
X215749D01*
X215416Y172667D01*
Y171334D01*
X215749Y171000D01*
X216415D01*
X216748Y171334D01*
X218748Y171000D02*
X217415D01*
X218748Y172333D01*
Y172667D01*
X218414Y173000D01*
X217748D01*
X217415Y172667D01*
X219414Y171000D02*
X220081D01*
X219747D01*
Y173000D01*
X219414Y172667D01*
X154667Y319667D02*
X154334Y320000D01*
X153667D01*
X153334Y319667D01*
Y318334D01*
X153667Y318000D01*
X154334D01*
X154667Y318334D01*
X156667Y318000D02*
X155333D01*
X156667Y319333D01*
Y319667D01*
X156333Y320000D01*
X155667D01*
X155333Y319667D01*
X157333D02*
X157666Y320000D01*
X158333D01*
X158666Y319667D01*
Y318334D01*
X158333Y318000D01*
X157666D01*
X157333Y318334D01*
Y319667D01*
X153834Y329666D02*
X153500Y330000D01*
X152834D01*
X152501Y329666D01*
Y328334D01*
X152834Y328000D01*
X153500D01*
X153834Y328334D01*
X154500Y328000D02*
X155167D01*
X154833D01*
Y330000D01*
X154500Y329666D01*
X156166Y328334D02*
X156500Y328000D01*
X157166D01*
X157499Y328334D01*
Y329666D01*
X157166Y330000D01*
X156500D01*
X156166Y329666D01*
Y329333D01*
X156500Y329000D01*
X157499D01*
X107834Y346667D02*
X107501Y347000D01*
X106834D01*
X106501Y346667D01*
Y345334D01*
X106834Y345000D01*
X107501D01*
X107834Y345334D01*
X108500Y345000D02*
X109167D01*
X108833D01*
Y347000D01*
X108500Y346667D01*
X110166D02*
X110500Y347000D01*
X111166D01*
X111499Y346667D01*
Y346333D01*
X111166Y346000D01*
X111499Y345667D01*
Y345334D01*
X111166Y345000D01*
X110500D01*
X110166Y345334D01*
Y345667D01*
X110500Y346000D01*
X110166Y346333D01*
Y346667D01*
X110500Y346000D02*
X111166D01*
X136834Y355666D02*
X136501Y356000D01*
X135834D01*
X135501Y355666D01*
Y354334D01*
X135834Y354000D01*
X136501D01*
X136834Y354334D01*
X137500Y354000D02*
X138167D01*
X137833D01*
Y356000D01*
X137500Y355666D01*
X139166Y356000D02*
X140499D01*
Y355666D01*
X139166Y354334D01*
Y354000D01*
X225834Y262667D02*
X225500Y263000D01*
X224834D01*
X224501Y262667D01*
Y261334D01*
X224834Y261000D01*
X225500D01*
X225834Y261334D01*
X226500Y261000D02*
X227167D01*
X226833D01*
Y263000D01*
X226500Y262667D01*
X229499Y263000D02*
X228833Y262667D01*
X228166Y262000D01*
Y261334D01*
X228500Y261000D01*
X229166D01*
X229499Y261334D01*
Y261667D01*
X229166Y262000D01*
X228166D01*
X215834Y280666D02*
X215500Y281000D01*
X214834D01*
X214501Y280666D01*
Y279334D01*
X214834Y279000D01*
X215500D01*
X215834Y279334D01*
X216500Y279000D02*
X217167D01*
X216833D01*
Y281000D01*
X216500Y280666D01*
X219499Y281000D02*
X218166D01*
Y280000D01*
X218833Y280333D01*
X219166D01*
X219499Y280000D01*
Y279334D01*
X219166Y279000D01*
X218499D01*
X218166Y279334D01*
X256216Y186907D02*
X255882Y187240D01*
X255216D01*
X254883Y186907D01*
Y185574D01*
X255216Y185240D01*
X255882D01*
X256216Y185574D01*
X256882Y185240D02*
X257548D01*
X257215D01*
Y187240D01*
X256882Y186907D01*
X259548Y185240D02*
Y187240D01*
X258548Y186240D01*
X259881D01*
X256216Y196907D02*
X255882Y197240D01*
X255216D01*
X254883Y196907D01*
Y195574D01*
X255216Y195240D01*
X255882D01*
X256216Y195574D01*
X256882Y195240D02*
X257548D01*
X257215D01*
Y197240D01*
X256882Y196907D01*
X258548D02*
X258881Y197240D01*
X259548D01*
X259881Y196907D01*
Y196573D01*
X259548Y196240D01*
X259215D01*
X259548D01*
X259881Y195907D01*
Y195574D01*
X259548Y195240D01*
X258881D01*
X258548Y195574D01*
X181834Y312667D02*
X181500Y313000D01*
X180834D01*
X180501Y312667D01*
Y311334D01*
X180834Y311000D01*
X181500D01*
X181834Y311334D01*
X182500Y311000D02*
X183167D01*
X182833D01*
Y313000D01*
X182500Y312667D01*
X185499Y311000D02*
X184166D01*
X185499Y312333D01*
Y312667D01*
X185166Y313000D01*
X184500D01*
X184166Y312667D01*
X211167Y222667D02*
X210834Y223000D01*
X210167D01*
X209834Y222667D01*
Y221334D01*
X210167Y221000D01*
X210834D01*
X211167Y221334D01*
X211833Y221000D02*
X212500D01*
X212167D01*
Y223000D01*
X211833Y222667D01*
X213499Y221000D02*
X214166D01*
X213833D01*
Y223000D01*
X213499Y222667D01*
X206834Y318667D02*
X206501Y319000D01*
X205834D01*
X205501Y318667D01*
Y317334D01*
X205834Y317000D01*
X206501D01*
X206834Y317334D01*
X207500Y317000D02*
X208167D01*
X207833D01*
Y319000D01*
X207500Y318667D01*
X209166D02*
X209500Y319000D01*
X210166D01*
X210499Y318667D01*
Y317334D01*
X210166Y317000D01*
X209500D01*
X209166Y317334D01*
Y318667D01*
X235667Y234666D02*
X235334Y235000D01*
X234667D01*
X234334Y234666D01*
Y233334D01*
X234667Y233000D01*
X235334D01*
X235667Y233334D01*
X236333D02*
X236666Y233000D01*
X237333D01*
X237666Y233334D01*
Y234666D01*
X237333Y235000D01*
X236666D01*
X236333Y234666D01*
Y234333D01*
X236666Y234000D01*
X237666D01*
X412334Y413000D02*
X413667D01*
X413001D01*
Y411000D01*
X414334D02*
Y413000D01*
X415333D01*
X415666Y412667D01*
Y412000D01*
X415333Y411667D01*
X414334D01*
X416333Y411334D02*
X416666Y411000D01*
X417333D01*
X417666Y411334D01*
Y412667D01*
X417333Y413000D01*
X416666D01*
X416333Y412667D01*
Y412333D01*
X416666Y412000D01*
X417666D01*
X464001Y377016D02*
X465334D01*
X464668D01*
Y375017D01*
X466001D02*
Y377016D01*
X467000D01*
X467333Y376683D01*
Y376016D01*
X467000Y375683D01*
X466001D01*
X468000Y375017D02*
X468666D01*
X468333D01*
Y377016D01*
X468000Y376683D01*
X470666Y375017D02*
Y377016D01*
X469666Y376016D01*
X470999D01*
X410501Y286000D02*
X411834D01*
X411168D01*
Y284000D01*
X412500D02*
Y286000D01*
X413500D01*
X413833Y285666D01*
Y285000D01*
X413500Y284667D01*
X412500D01*
X414500Y284000D02*
X415166D01*
X414833D01*
Y286000D01*
X414500Y285666D01*
X416166Y284334D02*
X416499Y284000D01*
X417166D01*
X417499Y284334D01*
Y285666D01*
X417166Y286000D01*
X416499D01*
X416166Y285666D01*
Y285333D01*
X416499Y285000D01*
X417499D01*
X410501Y390000D02*
X411834D01*
X411168D01*
Y388000D01*
X412500D02*
Y390000D01*
X413500D01*
X413833Y389667D01*
Y389000D01*
X413500Y388667D01*
X412500D01*
X414500Y388000D02*
X415166D01*
X414833D01*
Y390000D01*
X414500Y389667D01*
X416166D02*
X416499Y390000D01*
X417166D01*
X417499Y389667D01*
Y389333D01*
X417166Y389000D01*
X416832D01*
X417166D01*
X417499Y388667D01*
Y388334D01*
X417166Y388000D01*
X416499D01*
X416166Y388334D01*
X463834Y268500D02*
X465167D01*
X464501D01*
Y266500D01*
X465834D02*
Y268500D01*
X466834D01*
X467167Y268166D01*
Y267500D01*
X466834Y267167D01*
X465834D01*
X469166Y266500D02*
X467833D01*
X469166Y267833D01*
Y268166D01*
X468833Y268500D01*
X468166D01*
X467833Y268166D01*
X469833D02*
X470166Y268500D01*
X470832D01*
X471166Y268166D01*
Y266834D01*
X470832Y266500D01*
X470166D01*
X469833Y266834D01*
Y268166D01*
X410501Y368000D02*
X411834D01*
X411168D01*
Y366000D01*
X412500D02*
Y368000D01*
X413500D01*
X413833Y367667D01*
Y367000D01*
X413500Y366667D01*
X412500D01*
X414500Y366000D02*
X415166D01*
X414833D01*
Y368000D01*
X414500Y367667D01*
X416166Y368000D02*
X417499D01*
Y367667D01*
X416166Y366334D01*
Y366000D01*
X464356Y289710D02*
X465688D01*
X465022D01*
Y287711D01*
X466355D02*
Y289710D01*
X467355D01*
X467688Y289377D01*
Y288711D01*
X467355Y288378D01*
X466355D01*
X468354Y287711D02*
X469021D01*
X468687D01*
Y289710D01*
X468354Y289377D01*
X471353Y289710D02*
X470687Y289377D01*
X470020Y288711D01*
Y288044D01*
X470354Y287711D01*
X471020D01*
X471353Y288044D01*
Y288378D01*
X471020Y288711D01*
X470020D01*
X464001Y311000D02*
X465334D01*
X464668D01*
Y309000D01*
X466001D02*
Y311000D01*
X467000D01*
X467333Y310666D01*
Y310000D01*
X467000Y309667D01*
X466001D01*
X468000Y309000D02*
X468666D01*
X468333D01*
Y311000D01*
X468000Y310666D01*
X470999Y309000D02*
X469666D01*
X470999Y310333D01*
Y310666D01*
X470666Y311000D01*
X469999D01*
X469666Y310666D01*
X464001Y355295D02*
X465334D01*
X464668D01*
Y353295D01*
X466001D02*
Y355295D01*
X467000D01*
X467333Y354961D01*
Y354295D01*
X467000Y353962D01*
X466001D01*
X468000Y353295D02*
X468666D01*
X468333D01*
Y355295D01*
X468000Y354961D01*
X469666D02*
X469999Y355295D01*
X470666D01*
X470999Y354961D01*
Y354628D01*
X470666Y354295D01*
X470999Y353962D01*
Y353628D01*
X470666Y353295D01*
X469999D01*
X469666Y353628D01*
Y353962D01*
X469999Y354295D01*
X469666Y354628D01*
Y354961D01*
X469999Y354295D02*
X470666D01*
X410501Y303000D02*
X411834D01*
X411168D01*
Y301000D01*
X412500D02*
Y303000D01*
X413500D01*
X413833Y302666D01*
Y302000D01*
X413500Y301667D01*
X412500D01*
X414500Y301000D02*
X415166D01*
X414833D01*
Y303000D01*
X414500Y302666D01*
X417499Y303000D02*
X416166D01*
Y302000D01*
X416832Y302333D01*
X417166D01*
X417499Y302000D01*
Y301334D01*
X417166Y301000D01*
X416499D01*
X416166Y301334D01*
X463834Y332134D02*
X465167D01*
X464501D01*
Y330135D01*
X465834D02*
Y332134D01*
X466834D01*
X467167Y331801D01*
Y331134D01*
X466834Y330801D01*
X465834D01*
X469166Y330135D02*
X467833D01*
X469166Y331467D01*
Y331801D01*
X468833Y332134D01*
X468166D01*
X467833Y331801D01*
X471166Y330135D02*
X469833D01*
X471166Y331467D01*
Y331801D01*
X470832Y332134D01*
X470166D01*
X469833Y331801D01*
X411834Y323000D02*
X413167D01*
X412501D01*
Y321000D01*
X413834D02*
Y323000D01*
X414833D01*
X415167Y322667D01*
Y322000D01*
X414833Y321667D01*
X413834D01*
X415833Y321000D02*
X416500D01*
X416166D01*
Y323000D01*
X415833Y322667D01*
X417499Y321000D02*
X418166D01*
X417832D01*
Y323000D01*
X417499Y322667D01*
X411668Y345000D02*
X413001D01*
X412334D01*
Y343000D01*
X413667D02*
Y345000D01*
X414667D01*
X415000Y344667D01*
Y344000D01*
X414667Y343667D01*
X413667D01*
X416999Y343000D02*
X415666D01*
X416999Y344333D01*
Y344667D01*
X416666Y345000D01*
X416000D01*
X415666Y344667D01*
X417666Y343000D02*
X418332D01*
X417999D01*
Y345000D01*
X417666Y344667D01*
X464001Y398500D02*
X465334D01*
X464668D01*
Y396500D01*
X466001D02*
Y398500D01*
X467000D01*
X467333Y398166D01*
Y397500D01*
X467000Y397167D01*
X466001D01*
X468000Y396500D02*
X468666D01*
X468333D01*
Y398500D01*
X468000Y398166D01*
X469666D02*
X469999Y398500D01*
X470666D01*
X470999Y398166D01*
Y396834D01*
X470666Y396500D01*
X469999D01*
X469666Y396834D01*
Y398166D01*
X461501Y248000D02*
Y250000D01*
X462500D01*
X462834Y249667D01*
Y249000D01*
X462500Y248667D01*
X461501D01*
X462167D02*
X462834Y248000D01*
X463500D02*
X464167D01*
X463833D01*
Y250000D01*
X463500Y249667D01*
X465166D02*
X465499Y250000D01*
X466166D01*
X466499Y249667D01*
Y249333D01*
X466166Y249000D01*
X465833D01*
X466166D01*
X466499Y248667D01*
Y248334D01*
X466166Y248000D01*
X465499D01*
X465166Y248334D01*
X480506Y176987D02*
X480496Y178987D01*
X481495Y178992D01*
X481830Y178660D01*
X481834Y177994D01*
X481502Y177659D01*
X480503Y177654D01*
X481169Y177657D02*
X481839Y176994D01*
X482505Y176998D02*
X483172Y177001D01*
X482839Y176999D01*
X482828Y178999D01*
X482497Y178664D01*
X485504Y177013D02*
X484171Y177006D01*
X485497Y178346D01*
X485496Y178679D01*
X485161Y179011D01*
X484494Y179007D01*
X484163Y178673D01*
X225786Y182774D02*
X223787D01*
Y183774D01*
X224120Y184107D01*
X224786D01*
X225120Y183774D01*
Y182774D01*
Y183441D02*
X225786Y184107D01*
Y184774D02*
Y185440D01*
Y185107D01*
X223787D01*
X224120Y184774D01*
X225786Y186440D02*
Y187106D01*
Y186773D01*
X223787D01*
X224120Y186440D01*
X231000Y183501D02*
X229000D01*
Y184501D01*
X229333Y184834D01*
X230000D01*
X230333Y184501D01*
Y183501D01*
Y184167D02*
X231000Y184834D01*
Y185500D02*
Y186167D01*
Y185833D01*
X229000D01*
X229333Y185500D01*
Y187166D02*
X229000Y187499D01*
Y188166D01*
X229333Y188499D01*
X230666D01*
X231000Y188166D01*
Y187499D01*
X230666Y187166D01*
X229333D01*
X436334Y345000D02*
Y347000D01*
X437334D01*
X437667Y346667D01*
Y346000D01*
X437334Y345667D01*
X436334D01*
X437000D02*
X437667Y345000D01*
X438333Y345334D02*
X438666Y345000D01*
X439333D01*
X439666Y345334D01*
Y346667D01*
X439333Y347000D01*
X438666D01*
X438333Y346667D01*
Y346333D01*
X438666Y346000D01*
X439666D01*
X436334Y282000D02*
Y284000D01*
X437334D01*
X437667Y283666D01*
Y283000D01*
X437334Y282667D01*
X436334D01*
X437000D02*
X437667Y282000D01*
X438333Y283666D02*
X438666Y284000D01*
X439333D01*
X439666Y283666D01*
Y283333D01*
X439333Y283000D01*
X439666Y282667D01*
Y282334D01*
X439333Y282000D01*
X438666D01*
X438333Y282334D01*
Y282667D01*
X438666Y283000D01*
X438333Y283333D01*
Y283666D01*
X438666Y283000D02*
X439333D01*
X436334Y368000D02*
Y370000D01*
X437334D01*
X437667Y369667D01*
Y369000D01*
X437334Y368667D01*
X436334D01*
X437000D02*
X437667Y368000D01*
X438333Y370000D02*
X439666D01*
Y369667D01*
X438333Y368334D01*
Y368000D01*
X436334Y302000D02*
Y304000D01*
X437334D01*
X437667Y303666D01*
Y303000D01*
X437334Y302667D01*
X436334D01*
X437000D02*
X437667Y302000D01*
X439666Y304000D02*
X439000Y303666D01*
X438333Y303000D01*
Y302334D01*
X438666Y302000D01*
X439333D01*
X439666Y302334D01*
Y302667D01*
X439333Y303000D01*
X438333D01*
X436334Y391000D02*
Y393000D01*
X437334D01*
X437667Y392667D01*
Y392000D01*
X437334Y391667D01*
X436334D01*
X437000D02*
X437667Y391000D01*
X439666Y393000D02*
X438333D01*
Y392000D01*
X439000Y392333D01*
X439333D01*
X439666Y392000D01*
Y391334D01*
X439333Y391000D01*
X438666D01*
X438333Y391334D01*
X435334Y323000D02*
Y325000D01*
X436334D01*
X436667Y324667D01*
Y324000D01*
X436334Y323667D01*
X435334D01*
X436000D02*
X436667Y323000D01*
X438333D02*
Y325000D01*
X437333Y324000D01*
X438666D01*
X436334Y414000D02*
Y416000D01*
X437334D01*
X437667Y415666D01*
Y415000D01*
X437334Y414667D01*
X436334D01*
X437000D02*
X437667Y414000D01*
X439666D02*
X438333D01*
X439666Y415333D01*
Y415666D01*
X439333Y416000D01*
X438666D01*
X438333Y415666D01*
X427667Y341334D02*
Y342667D01*
X427334Y343000D01*
X426667D01*
X426334Y342667D01*
Y341334D01*
X426667Y341000D01*
X427334D01*
X427000Y341667D02*
X427667Y341000D01*
X427334D02*
X427667Y341334D01*
X428333Y343000D02*
X429666D01*
Y342667D01*
X428333Y341334D01*
Y341000D01*
X427667Y280334D02*
Y281666D01*
X427334Y282000D01*
X426667D01*
X426334Y281666D01*
Y280334D01*
X426667Y280000D01*
X427334D01*
X427000Y280667D02*
X427667Y280000D01*
X427334D02*
X427667Y280334D01*
X429666Y282000D02*
X429000Y281666D01*
X428333Y281000D01*
Y280334D01*
X428666Y280000D01*
X429333D01*
X429666Y280334D01*
Y280667D01*
X429333Y281000D01*
X428333D01*
X427667Y364334D02*
Y365667D01*
X427334Y366000D01*
X426667D01*
X426334Y365667D01*
Y364334D01*
X426667Y364000D01*
X427334D01*
X427000Y364667D02*
X427667Y364000D01*
X427334D02*
X427667Y364334D01*
X429666Y366000D02*
X428333D01*
Y365000D01*
X429000Y365333D01*
X429333D01*
X429666Y365000D01*
Y364334D01*
X429333Y364000D01*
X428666D01*
X428333Y364334D01*
X427667Y299334D02*
Y300666D01*
X427334Y301000D01*
X426667D01*
X426334Y300666D01*
Y299334D01*
X426667Y299000D01*
X427334D01*
X427000Y299667D02*
X427667Y299000D01*
X427334D02*
X427667Y299334D01*
X429333Y299000D02*
Y301000D01*
X428333Y300000D01*
X429666D01*
X427667Y387334D02*
Y388667D01*
X427334Y389000D01*
X426667D01*
X426334Y388667D01*
Y387334D01*
X426667Y387000D01*
X427334D01*
X427000Y387667D02*
X427667Y387000D01*
X427334D02*
X427667Y387334D01*
X428333Y388667D02*
X428666Y389000D01*
X429333D01*
X429666Y388667D01*
Y388333D01*
X429333Y388000D01*
X429000D01*
X429333D01*
X429666Y387667D01*
Y387334D01*
X429333Y387000D01*
X428666D01*
X428333Y387334D01*
X426667Y320334D02*
Y321667D01*
X426334Y322000D01*
X425667D01*
X425334Y321667D01*
Y320334D01*
X425667Y320000D01*
X426334D01*
X426000Y320667D02*
X426667Y320000D01*
X426334D02*
X426667Y320334D01*
X428666Y320000D02*
X427333D01*
X428666Y321333D01*
Y321667D01*
X428333Y322000D01*
X427667D01*
X427333Y321667D01*
X428000Y409334D02*
Y410667D01*
X427667Y411000D01*
X427000D01*
X426667Y410667D01*
Y409334D01*
X427000Y409000D01*
X427667D01*
X427334Y409667D02*
X428000Y409000D01*
X427667D02*
X428000Y409334D01*
X428666Y409000D02*
X429333D01*
X429000D01*
Y411000D01*
X428666Y410667D01*
X487167Y348500D02*
X486500D01*
X486834D01*
Y346834D01*
X486500Y346500D01*
X486167D01*
X485834Y346834D01*
X487833D02*
X488167Y346500D01*
X488833D01*
X489166Y346834D01*
Y348166D01*
X488833Y348500D01*
X488167D01*
X487833Y348166D01*
Y347833D01*
X488167Y347500D01*
X489166D01*
X487167Y285127D02*
X486500D01*
X486834D01*
Y283461D01*
X486500Y283127D01*
X486167D01*
X485834Y283461D01*
X487833Y284794D02*
X488167Y285127D01*
X488833D01*
X489166Y284794D01*
Y284460D01*
X488833Y284127D01*
X489166Y283794D01*
Y283461D01*
X488833Y283127D01*
X488167D01*
X487833Y283461D01*
Y283794D01*
X488167Y284127D01*
X487833Y284460D01*
Y284794D01*
X488167Y284127D02*
X488833D01*
X487750Y371798D02*
X487084D01*
X487417D01*
Y370131D01*
X487084Y369798D01*
X486750D01*
X486417Y370131D01*
X488416Y371798D02*
X489749D01*
Y371464D01*
X488416Y370131D01*
Y369798D01*
X486904Y306354D02*
X486238D01*
X486571D01*
Y304688D01*
X486238Y304355D01*
X485905D01*
X485571Y304688D01*
X488904Y306354D02*
X488237Y306021D01*
X487571Y305354D01*
Y304688D01*
X487904Y304355D01*
X488570D01*
X488904Y304688D01*
Y305021D01*
X488570Y305354D01*
X487571D01*
X487167Y394017D02*
X486500D01*
X486833D01*
Y392351D01*
X486500Y392018D01*
X486167D01*
X485834Y392351D01*
X489166Y394017D02*
X487833D01*
Y393018D01*
X488500Y393351D01*
X488833D01*
X489166Y393018D01*
Y392351D01*
X488833Y392018D01*
X488166D01*
X487833Y392351D01*
X487167Y327532D02*
X486500D01*
X486834D01*
Y325866D01*
X486500Y325533D01*
X486167D01*
X485834Y325866D01*
X488833Y325533D02*
Y327532D01*
X487833Y326533D01*
X489166D01*
X487167Y416000D02*
X486500D01*
X486834D01*
Y414334D01*
X486500Y414000D01*
X486167D01*
X485834Y414334D01*
X487833Y415666D02*
X488167Y416000D01*
X488833D01*
X489166Y415666D01*
Y415333D01*
X488833Y415000D01*
X488500D01*
X488833D01*
X489166Y414667D01*
Y414334D01*
X488833Y414000D01*
X488167D01*
X487833Y414334D01*
X462933Y224999D02*
X462266D01*
X462600D01*
Y223333D01*
X462266Y223000D01*
X461933D01*
X461600Y223333D01*
X464932Y223000D02*
X463599D01*
X464932Y224333D01*
Y224666D01*
X464599Y224999D01*
X463933D01*
X463599Y224666D01*
X462833Y152299D02*
X462166D01*
X462500D01*
Y150633D01*
X462166Y150300D01*
X461833D01*
X461500Y150633D01*
X463499Y150300D02*
X464166D01*
X463833D01*
Y152299D01*
X463499Y151966D01*
X376500Y189834D02*
Y191167D01*
Y190501D01*
X378500D01*
Y191833D02*
X376500D01*
Y192833D01*
X376834Y193166D01*
X377500D01*
X377833Y192833D01*
Y191833D01*
X376834Y193833D02*
X376500Y194166D01*
Y194833D01*
X376834Y195166D01*
X377167D01*
X377500Y194833D01*
X377833Y195166D01*
X378166D01*
X378500Y194833D01*
Y194166D01*
X378166Y193833D01*
X377833D01*
X377500Y194166D01*
X377167Y193833D01*
X376834D01*
X377500Y194166D02*
Y194833D01*
X448500Y222666D02*
Y221333D01*
Y221999D01*
X446500D01*
Y220666D02*
X448500D01*
Y219667D01*
X448167Y219334D01*
X447500D01*
X447167Y219667D01*
Y220666D01*
X448500Y218667D02*
Y217334D01*
X448167D01*
X446834Y218667D01*
X446500D01*
X336500Y184834D02*
Y186167D01*
Y185501D01*
X338500D01*
Y186834D02*
X336500D01*
Y187833D01*
X336834Y188166D01*
X337500D01*
X337833Y187833D01*
Y186834D01*
X336500Y190166D02*
X336834Y189499D01*
X337500Y188833D01*
X338166D01*
X338500Y189166D01*
Y189833D01*
X338166Y190166D01*
X337833D01*
X337500Y189833D01*
Y188833D01*
X448500Y192666D02*
Y191333D01*
Y191999D01*
X446500D01*
Y190666D02*
X448500D01*
Y189667D01*
X448167Y189333D01*
X447500D01*
X447167Y189667D01*
Y190666D01*
X448500Y187334D02*
Y188667D01*
X447500D01*
X447833Y188001D01*
Y187667D01*
X447500Y187334D01*
X446834D01*
X446500Y187667D01*
Y188334D01*
X446834Y188667D01*
X347334Y108500D02*
X348667D01*
X348001D01*
Y106500D01*
X349334D02*
Y108500D01*
X350333D01*
X350666Y108167D01*
Y107500D01*
X350333Y107167D01*
X349334D01*
X352333Y106500D02*
Y108500D01*
X351333Y107500D01*
X352666D01*
X452334Y151000D02*
X453667D01*
X453001D01*
Y149000D01*
X454334D02*
Y151000D01*
X455333D01*
X455666Y150666D01*
Y150000D01*
X455333Y149667D01*
X454334D01*
X456333Y150666D02*
X456666Y151000D01*
X457333D01*
X457666Y150666D01*
Y150333D01*
X457333Y150000D01*
X456999D01*
X457333D01*
X457666Y149667D01*
Y149334D01*
X457333Y149000D01*
X456666D01*
X456333Y149334D01*
X364834Y108500D02*
X366167D01*
X365501D01*
Y106500D01*
X366834D02*
Y108500D01*
X367833D01*
X368166Y108167D01*
Y107500D01*
X367833Y107167D01*
X366834D01*
X370166Y106500D02*
X368833D01*
X370166Y107833D01*
Y108167D01*
X369833Y108500D01*
X369166D01*
X368833Y108167D01*
X452667Y108500D02*
X454000D01*
X453334D01*
Y106500D01*
X454667D02*
Y108500D01*
X455666D01*
X456000Y108167D01*
Y107500D01*
X455666Y107167D01*
X454667D01*
X456666Y106500D02*
X457333D01*
X456999D01*
Y108500D01*
X456666Y108167D01*
X389667Y228167D02*
X389334Y228500D01*
X388667D01*
X388334Y228167D01*
Y226834D01*
X388667Y226500D01*
X389334D01*
X389667Y226834D01*
X390333Y228167D02*
X390667Y228500D01*
X391333D01*
X391666Y228167D01*
Y227833D01*
X391333Y227500D01*
X391666Y227167D01*
Y226834D01*
X391333Y226500D01*
X390667D01*
X390333Y226834D01*
Y227167D01*
X390667Y227500D01*
X390333Y227833D01*
Y228167D01*
X390667Y227500D02*
X391333D01*
X428667Y228666D02*
X428334Y229000D01*
X427667D01*
X427334Y228666D01*
Y227334D01*
X427667Y227000D01*
X428334D01*
X428667Y227334D01*
X429333Y229000D02*
X430666D01*
Y228666D01*
X429333Y227334D01*
Y227000D01*
X390809Y238166D02*
X390475Y238500D01*
X389809D01*
X389476Y238166D01*
Y236834D01*
X389809Y236500D01*
X390475D01*
X390809Y236834D01*
X392808Y238500D02*
X392141Y238166D01*
X391475Y237500D01*
Y236834D01*
X391808Y236500D01*
X392475D01*
X392808Y236834D01*
Y237167D01*
X392475Y237500D01*
X391475D01*
X427667Y238667D02*
X427334Y239000D01*
X426667D01*
X426334Y238667D01*
Y237334D01*
X426667Y237000D01*
X427334D01*
X427667Y237334D01*
X429666Y239000D02*
X428333D01*
Y238000D01*
X429000Y238333D01*
X429333D01*
X429666Y238000D01*
Y237334D01*
X429333Y237000D01*
X428666D01*
X428333Y237334D01*
X391667Y157667D02*
X391334Y158000D01*
X390667D01*
X390334Y157667D01*
Y156334D01*
X390667Y156000D01*
X391334D01*
X391667Y156334D01*
X393333Y156000D02*
Y158000D01*
X392333Y157000D01*
X393666D01*
X427167Y158167D02*
X426834Y158500D01*
X426167D01*
X425834Y158167D01*
Y156834D01*
X426167Y156500D01*
X426834D01*
X427167Y156834D01*
X427833Y158167D02*
X428166Y158500D01*
X428833D01*
X429166Y158167D01*
Y157833D01*
X428833Y157500D01*
X428500D01*
X428833D01*
X429166Y157167D01*
Y156834D01*
X428833Y156500D01*
X428166D01*
X427833Y156834D01*
X393667Y166666D02*
X393334Y167000D01*
X392667D01*
X392334Y166666D01*
Y165334D01*
X392667Y165000D01*
X393334D01*
X393667Y165334D01*
X395666Y165000D02*
X394333D01*
X395666Y166333D01*
Y166666D01*
X395333Y167000D01*
X394667D01*
X394333Y166666D01*
X426000Y167666D02*
X425667Y168000D01*
X425000D01*
X424667Y167666D01*
Y166334D01*
X425000Y166000D01*
X425667D01*
X426000Y166334D01*
X426666Y166000D02*
X427333D01*
X427000D01*
Y168000D01*
X426666Y167666D01*
D15*
X231685Y538346D02*
Y540346D01*
X230186D01*
X230685Y539346D01*
Y538846D01*
X230186Y538346D01*
X229186D01*
X228686Y538846D01*
Y539846D01*
X229186Y540346D01*
X229000Y582000D02*
X230000D01*
X229500D01*
Y584999D01*
X229000Y584499D01*
X119999Y689999D02*
X119000Y689499D01*
X118000Y688499D01*
Y687500D01*
X118500Y687000D01*
X119500D01*
X119999Y687500D01*
Y688000D01*
X119500Y688499D01*
X118000D01*
D16*
X100000Y100000D02*
Y700000D01*
X500000D01*
Y100000D02*
Y700000D01*
X100000Y100000D02*
X500000D01*
D17*
X169883Y329614D02*
X172382D01*
X172882Y330114D01*
Y331114D01*
X172382Y331613D01*
X169883D01*
Y332613D02*
Y334613D01*
X170383D01*
X172382Y332613D01*
X172882D01*
X277383Y204614D02*
X279882D01*
X280382Y205114D01*
Y206114D01*
X279882Y206613D01*
X277383D01*
Y209613D02*
X277883Y208613D01*
X278882Y207613D01*
X279882D01*
X280382Y208113D01*
Y209113D01*
X279882Y209613D01*
X279382D01*
X278882Y209113D01*
Y207613D01*
X443720Y656100D02*
X441221D01*
X440722Y655601D01*
Y654601D01*
X441221Y654101D01*
X443720D01*
X440722Y653101D02*
Y652102D01*
Y652601D01*
X443720D01*
X443221Y653101D01*
X440722Y649103D02*
X443720D01*
X442221Y650602D01*
Y648603D01*
M02*
