G04*
G04 #@! TF.GenerationSoftware,Altium Limited,Altium Designer,22.6.1 (34)*
G04*
G04 Layer_Physical_Order=2*
G04 Layer_Color=16711680*
%FSLAX25Y25*%
%MOIN*%
G70*
G04*
G04 #@! TF.SameCoordinates,7D94B0EB-34EF-48B3-BABB-182D4114F96C*
G04*
G04*
G04 #@! TF.FilePolarity,Positive*
G04*
G01*
G75*
%ADD12C,0.01500*%
%ADD16C,0.01000*%
%ADD17C,0.00236*%
%ADD37R,0.03740X0.05512*%
%ADD41R,0.05315X0.03937*%
%ADD53R,0.05906X0.06102*%
%ADD81R,0.11024X0.11024*%
%ADD82C,0.11024*%
%ADD92R,0.05118X0.05118*%
%ADD93C,0.05118*%
%ADD94C,0.03200*%
%ADD98C,0.06299*%
%ADD99R,0.06299X0.06299*%
%ADD100R,0.06299X0.06299*%
G04:AMPARAMS|DCode=101|XSize=137.8mil|YSize=51.18mil|CornerRadius=12.8mil|HoleSize=0mil|Usage=FLASHONLY|Rotation=180.000|XOffset=0mil|YOffset=0mil|HoleType=Round|Shape=RoundedRectangle|*
%AMROUNDEDRECTD101*
21,1,0.13780,0.02559,0,0,180.0*
21,1,0.11221,0.05118,0,0,180.0*
1,1,0.02559,-0.05610,0.01280*
1,1,0.02559,0.05610,0.01280*
1,1,0.02559,0.05610,-0.01280*
1,1,0.02559,-0.05610,-0.01280*
%
%ADD101ROUNDEDRECTD101*%
G04:AMPARAMS|DCode=102|XSize=137.8mil|YSize=51.18mil|CornerRadius=12.8mil|HoleSize=0mil|Usage=FLASHONLY|Rotation=90.000|XOffset=0mil|YOffset=0mil|HoleType=Round|Shape=RoundedRectangle|*
%AMROUNDEDRECTD102*
21,1,0.13780,0.02559,0,0,90.0*
21,1,0.11221,0.05118,0,0,90.0*
1,1,0.02559,0.01280,0.05610*
1,1,0.02559,0.01280,-0.05610*
1,1,0.02559,-0.01280,-0.05610*
1,1,0.02559,-0.01280,0.05610*
%
%ADD102ROUNDEDRECTD102*%
G04:AMPARAMS|DCode=103|XSize=157.48mil|YSize=51.18mil|CornerRadius=12.8mil|HoleSize=0mil|Usage=FLASHONLY|Rotation=90.000|XOffset=0mil|YOffset=0mil|HoleType=Round|Shape=RoundedRectangle|*
%AMROUNDEDRECTD103*
21,1,0.15748,0.02559,0,0,90.0*
21,1,0.13189,0.05118,0,0,90.0*
1,1,0.02559,0.01280,0.06594*
1,1,0.02559,0.01280,-0.06594*
1,1,0.02559,-0.01280,-0.06594*
1,1,0.02559,-0.01280,0.06594*
%
%ADD103ROUNDEDRECTD103*%
%ADD104R,0.19685X0.19685*%
%ADD105C,0.19685*%
%ADD106C,0.05906*%
%ADD107R,0.05906X0.05906*%
%ADD108R,0.06102X0.06102*%
%ADD109C,0.06102*%
%ADD110R,0.05906X0.05906*%
%ADD111R,0.07087X0.07087*%
%ADD112C,0.07087*%
%ADD113C,0.06496*%
%ADD114R,0.06496X0.06496*%
%ADD115C,0.02400*%
%ADD116C,0.05000*%
%ADD117R,0.02095X0.04745*%
G04:AMPARAMS|DCode=118|XSize=47.45mil|YSize=20.95mil|CornerRadius=10.48mil|HoleSize=0mil|Usage=FLASHONLY|Rotation=90.000|XOffset=0mil|YOffset=0mil|HoleType=Round|Shape=RoundedRectangle|*
%AMROUNDEDRECTD118*
21,1,0.04745,0.00000,0,0,90.0*
21,1,0.02650,0.02095,0,0,90.0*
1,1,0.02095,0.00000,0.01325*
1,1,0.02095,0.00000,-0.01325*
1,1,0.02095,0.00000,-0.01325*
1,1,0.02095,0.00000,0.01325*
%
%ADD118ROUNDEDRECTD118*%
%ADD119R,0.04745X0.02095*%
G04:AMPARAMS|DCode=120|XSize=47.45mil|YSize=20.95mil|CornerRadius=10.48mil|HoleSize=0mil|Usage=FLASHONLY|Rotation=180.000|XOffset=0mil|YOffset=0mil|HoleType=Round|Shape=RoundedRectangle|*
%AMROUNDEDRECTD120*
21,1,0.04745,0.00000,0,0,180.0*
21,1,0.02650,0.02095,0,0,180.0*
1,1,0.02095,-0.01325,0.00000*
1,1,0.02095,0.01325,0.00000*
1,1,0.02095,0.01325,0.00000*
1,1,0.02095,-0.01325,0.00000*
%
%ADD120ROUNDEDRECTD120*%
%ADD121R,0.05709X0.04724*%
%ADD122R,0.04528X0.05709*%
%ADD123R,0.04724X0.05709*%
%ADD124R,0.03378X0.04969*%
%ADD125R,0.01378X0.02264*%
%ADD126R,0.02264X0.01378*%
%ADD127O,0.05709X0.02362*%
%ADD128R,0.10669X0.13386*%
%ADD129R,0.04969X0.03955*%
G36*
X496772Y103228D02*
X103228D01*
Y436920D01*
X136786D01*
X137059Y436974D01*
X137291Y437129D01*
X137445Y437361D01*
X137499Y437634D01*
Y447981D01*
X137999Y448081D01*
X138135Y447754D01*
X138754Y447135D01*
X139500Y446826D01*
Y449000D01*
Y451174D01*
X138754Y450865D01*
X138135Y450246D01*
X137999Y449919D01*
X137499Y450019D01*
Y524248D01*
X137445Y524521D01*
X137291Y524753D01*
X137059Y524907D01*
X136786Y524962D01*
X103228D01*
Y696772D01*
X496772D01*
Y103228D01*
D02*
G37*
%LPC*%
G36*
X448018Y690843D02*
X447004D01*
X446025Y690581D01*
X445147Y690074D01*
X444431Y689357D01*
X443924Y688479D01*
X443661Y687500D01*
Y686486D01*
X443924Y685507D01*
X444431Y684629D01*
X445147Y683913D01*
X446025Y683406D01*
X447004Y683144D01*
X448018D01*
X448997Y683406D01*
X449875Y683913D01*
X450592Y684629D01*
X451098Y685507D01*
X451361Y686486D01*
Y687500D01*
X451098Y688479D01*
X450592Y689357D01*
X449875Y690074D01*
X448997Y690581D01*
X448018Y690843D01*
D02*
G37*
G36*
X441361D02*
X433661D01*
Y683144D01*
X441361D01*
Y690843D01*
D02*
G37*
G36*
X328472Y682800D02*
X325019D01*
Y679347D01*
X328472D01*
Y682800D01*
D02*
G37*
G36*
X324019D02*
X320566D01*
Y679347D01*
X324019D01*
Y682800D01*
D02*
G37*
G36*
X120520Y683948D02*
X119480D01*
X118476Y683679D01*
X117576Y683159D01*
X116841Y682424D01*
X116321Y681524D01*
X116052Y680520D01*
Y679480D01*
X116321Y678476D01*
X116841Y677576D01*
X117576Y676841D01*
X118476Y676321D01*
X119480Y676052D01*
X120520D01*
X121524Y676321D01*
X122424Y676841D01*
X123159Y677576D01*
X123679Y678476D01*
X123948Y679480D01*
Y680520D01*
X123679Y681524D01*
X123159Y682424D01*
X122424Y683159D01*
X121524Y683679D01*
X120520Y683948D01*
D02*
G37*
G36*
X315000Y682500D02*
X314038D01*
X313109Y682251D01*
X312276Y681770D01*
X311596Y681090D01*
X311115Y680257D01*
X310866Y679328D01*
Y678366D01*
X311115Y677437D01*
X311596Y676604D01*
X312276Y675924D01*
X313109Y675443D01*
X314038Y675195D01*
X315000D01*
X315929Y675443D01*
X316762Y675924D01*
X317442Y676604D01*
X317923Y677437D01*
X318172Y678366D01*
Y679328D01*
X317923Y680257D01*
X317442Y681090D01*
X316762Y681770D01*
X315929Y682251D01*
X315000Y682500D01*
D02*
G37*
G36*
X305000D02*
X304038D01*
X303109Y682251D01*
X302276Y681770D01*
X301596Y681090D01*
X301115Y680257D01*
X300866Y679328D01*
Y678366D01*
X301115Y677437D01*
X301596Y676604D01*
X302276Y675924D01*
X303109Y675443D01*
X304038Y675195D01*
X305000D01*
X305929Y675443D01*
X306762Y675924D01*
X307442Y676604D01*
X307923Y677437D01*
X308172Y678366D01*
Y679328D01*
X307923Y680257D01*
X307442Y681090D01*
X306762Y681770D01*
X305929Y682251D01*
X305000Y682500D01*
D02*
G37*
G36*
X295000D02*
X294038D01*
X293109Y682251D01*
X292276Y681770D01*
X291596Y681090D01*
X291115Y680257D01*
X290866Y679328D01*
Y678366D01*
X291115Y677437D01*
X291596Y676604D01*
X292276Y675924D01*
X293109Y675443D01*
X294038Y675195D01*
X295000D01*
X295929Y675443D01*
X296762Y675924D01*
X297442Y676604D01*
X297923Y677437D01*
X298172Y678366D01*
Y679328D01*
X297923Y680257D01*
X297442Y681090D01*
X296762Y681770D01*
X295929Y682251D01*
X295000Y682500D01*
D02*
G37*
G36*
X285000D02*
X284038D01*
X283109Y682251D01*
X282276Y681770D01*
X281596Y681090D01*
X281115Y680257D01*
X280866Y679328D01*
Y678366D01*
X281115Y677437D01*
X281596Y676604D01*
X282276Y675924D01*
X283109Y675443D01*
X284038Y675195D01*
X285000D01*
X285929Y675443D01*
X286762Y675924D01*
X287442Y676604D01*
X287923Y677437D01*
X288172Y678366D01*
Y679328D01*
X287923Y680257D01*
X287442Y681090D01*
X286762Y681770D01*
X285929Y682251D01*
X285000Y682500D01*
D02*
G37*
G36*
X275000D02*
X274038D01*
X273109Y682251D01*
X272276Y681770D01*
X271596Y681090D01*
X271115Y680257D01*
X270866Y679328D01*
Y678366D01*
X271115Y677437D01*
X271596Y676604D01*
X272276Y675924D01*
X273109Y675443D01*
X274038Y675195D01*
X275000D01*
X275929Y675443D01*
X276762Y675924D01*
X277442Y676604D01*
X277923Y677437D01*
X278172Y678366D01*
Y679328D01*
X277923Y680257D01*
X277442Y681090D01*
X276762Y681770D01*
X275929Y682251D01*
X275000Y682500D01*
D02*
G37*
G36*
X328472Y678347D02*
X325019D01*
Y674895D01*
X328472D01*
Y678347D01*
D02*
G37*
G36*
X324019D02*
X320566D01*
Y674895D01*
X324019D01*
Y678347D01*
D02*
G37*
G36*
X220533Y676551D02*
X220500D01*
Y673000D01*
X224051D01*
Y673033D01*
X223775Y674064D01*
X223242Y674988D01*
X222487Y675742D01*
X221564Y676275D01*
X220533Y676551D01*
D02*
G37*
G36*
X219500D02*
X219467D01*
X218436Y676275D01*
X217512Y675742D01*
X216758Y674988D01*
X216225Y674064D01*
X215949Y673033D01*
Y673000D01*
X219500D01*
Y676551D01*
D02*
G37*
G36*
X325122Y674074D02*
Y672400D01*
X326796D01*
X326487Y673146D01*
X325868Y673765D01*
X325122Y674074D01*
D02*
G37*
G36*
X324122D02*
X323376Y673765D01*
X322757Y673146D01*
X322448Y672400D01*
X324122D01*
Y674074D01*
D02*
G37*
G36*
X326796Y671400D02*
X325122D01*
Y669726D01*
X325868Y670035D01*
X326487Y670654D01*
X326796Y671400D01*
D02*
G37*
G36*
X324122D02*
X322448D01*
X322757Y670654D01*
X323376Y670035D01*
X324122Y669726D01*
Y671400D01*
D02*
G37*
G36*
X210494Y676251D02*
X209506D01*
X208552Y675995D01*
X207697Y675502D01*
X206998Y674803D01*
X206505Y673948D01*
X206249Y672994D01*
Y672006D01*
X206505Y671052D01*
X206998Y670197D01*
X207697Y669498D01*
X208552Y669004D01*
X209506Y668749D01*
X210494D01*
X211448Y669004D01*
X212303Y669498D01*
X213002Y670197D01*
X213495Y671052D01*
X213751Y672006D01*
Y672994D01*
X213495Y673948D01*
X213002Y674803D01*
X212303Y675502D01*
X211448Y675995D01*
X210494Y676251D01*
D02*
G37*
G36*
X200494D02*
X199506D01*
X198552Y675995D01*
X197697Y675502D01*
X196998Y674803D01*
X196504Y673948D01*
X196249Y672994D01*
Y672006D01*
X196504Y671052D01*
X196998Y670197D01*
X197697Y669498D01*
X198552Y669004D01*
X199506Y668749D01*
X200494D01*
X201448Y669004D01*
X202303Y669498D01*
X203002Y670197D01*
X203496Y671052D01*
X203751Y672006D01*
Y672994D01*
X203496Y673948D01*
X203002Y674803D01*
X202303Y675502D01*
X201448Y675995D01*
X200494Y676251D01*
D02*
G37*
G36*
X190494D02*
X189506D01*
X188552Y675995D01*
X187697Y675502D01*
X186998Y674803D01*
X186504Y673948D01*
X186249Y672994D01*
Y672006D01*
X186504Y671052D01*
X186998Y670197D01*
X187697Y669498D01*
X188552Y669004D01*
X189506Y668749D01*
X190494D01*
X191448Y669004D01*
X192303Y669498D01*
X193002Y670197D01*
X193496Y671052D01*
X193751Y672006D01*
Y672994D01*
X193496Y673948D01*
X193002Y674803D01*
X192303Y675502D01*
X191448Y675995D01*
X190494Y676251D01*
D02*
G37*
G36*
X183751D02*
X176249D01*
Y668749D01*
X183751D01*
Y676251D01*
D02*
G37*
G36*
X224051Y672000D02*
X220500D01*
Y668449D01*
X220533D01*
X221564Y668725D01*
X222487Y669258D01*
X223242Y670013D01*
X223775Y670936D01*
X224051Y671967D01*
Y672000D01*
D02*
G37*
G36*
X219500D02*
X215949D01*
Y671967D01*
X216225Y670936D01*
X216758Y670013D01*
X217512Y669258D01*
X218436Y668725D01*
X219467Y668449D01*
X219500D01*
Y672000D01*
D02*
G37*
G36*
X120520Y673948D02*
X119480D01*
X118476Y673679D01*
X117576Y673159D01*
X116841Y672424D01*
X116321Y671524D01*
X116052Y670520D01*
Y669480D01*
X116321Y668476D01*
X116841Y667576D01*
X117576Y666841D01*
X118476Y666321D01*
X119480Y666052D01*
X120520D01*
X121524Y666321D01*
X122424Y666841D01*
X123159Y667576D01*
X123679Y668476D01*
X123948Y669480D01*
Y670520D01*
X123679Y671524D01*
X123159Y672424D01*
X122424Y673159D01*
X121524Y673679D01*
X120520Y673948D01*
D02*
G37*
G36*
X473000Y667174D02*
Y665500D01*
X474674D01*
X474365Y666246D01*
X473746Y666865D01*
X473000Y667174D01*
D02*
G37*
G36*
X472000D02*
X471254Y666865D01*
X470635Y666246D01*
X470326Y665500D01*
X472000D01*
Y667174D01*
D02*
G37*
G36*
X454611Y666098D02*
Y664424D01*
X456285D01*
X455976Y665170D01*
X455357Y665789D01*
X454611Y666098D01*
D02*
G37*
G36*
X453611D02*
X452865Y665789D01*
X452246Y665170D01*
X451937Y664424D01*
X453611D01*
Y666098D01*
D02*
G37*
G36*
X474674Y664500D02*
X473000D01*
Y662826D01*
X473746Y663135D01*
X474365Y663754D01*
X474674Y664500D01*
D02*
G37*
G36*
X472000D02*
X470326D01*
X470635Y663754D01*
X471254Y663135D01*
X472000Y662826D01*
Y664500D01*
D02*
G37*
G36*
X456285Y663424D02*
X454611D01*
Y661750D01*
X455357Y662059D01*
X455976Y662677D01*
X456285Y663424D01*
D02*
G37*
G36*
X453611D02*
X451937D01*
X452246Y662677D01*
X452865Y662059D01*
X453611Y661750D01*
Y663424D01*
D02*
G37*
G36*
X428378Y662774D02*
Y661100D01*
X430052D01*
X429743Y661846D01*
X429124Y662465D01*
X428378Y662774D01*
D02*
G37*
G36*
X427378D02*
X426632Y662465D01*
X426013Y661846D01*
X425704Y661100D01*
X427378D01*
Y662774D01*
D02*
G37*
G36*
X220494Y666251D02*
X219506D01*
X218552Y665996D01*
X217697Y665502D01*
X216998Y664803D01*
X216505Y663948D01*
X216249Y662994D01*
Y662006D01*
X216505Y661052D01*
X216998Y660197D01*
X217697Y659498D01*
X218552Y659004D01*
X219506Y658749D01*
X220494D01*
X221448Y659004D01*
X222303Y659498D01*
X223002Y660197D01*
X223496Y661052D01*
X223751Y662006D01*
Y662994D01*
X223496Y663948D01*
X223002Y664803D01*
X222303Y665502D01*
X221448Y665996D01*
X220494Y666251D01*
D02*
G37*
G36*
X210494D02*
X209506D01*
X208552Y665996D01*
X207697Y665502D01*
X206998Y664803D01*
X206505Y663948D01*
X206249Y662994D01*
Y662006D01*
X206505Y661052D01*
X206998Y660197D01*
X207697Y659498D01*
X208552Y659004D01*
X209506Y658749D01*
X210494D01*
X211448Y659004D01*
X212303Y659498D01*
X213002Y660197D01*
X213495Y661052D01*
X213751Y662006D01*
Y662994D01*
X213495Y663948D01*
X213002Y664803D01*
X212303Y665502D01*
X211448Y665996D01*
X210494Y666251D01*
D02*
G37*
G36*
X200494D02*
X199506D01*
X198552Y665996D01*
X197697Y665502D01*
X196998Y664803D01*
X196504Y663948D01*
X196249Y662994D01*
Y662006D01*
X196504Y661052D01*
X196998Y660197D01*
X197697Y659498D01*
X198552Y659004D01*
X199506Y658749D01*
X200494D01*
X201448Y659004D01*
X202303Y659498D01*
X203002Y660197D01*
X203496Y661052D01*
X203751Y662006D01*
Y662994D01*
X203496Y663948D01*
X203002Y664803D01*
X202303Y665502D01*
X201448Y665996D01*
X200494Y666251D01*
D02*
G37*
G36*
X190494D02*
X189506D01*
X188552Y665996D01*
X187697Y665502D01*
X186998Y664803D01*
X186504Y663948D01*
X186249Y662994D01*
Y662006D01*
X186504Y661052D01*
X186998Y660197D01*
X187697Y659498D01*
X188552Y659004D01*
X189506Y658749D01*
X190494D01*
X191448Y659004D01*
X192303Y659498D01*
X193002Y660197D01*
X193496Y661052D01*
X193751Y662006D01*
Y662994D01*
X193496Y663948D01*
X193002Y664803D01*
X192303Y665502D01*
X191448Y665996D01*
X190494Y666251D01*
D02*
G37*
G36*
X180494D02*
X179506D01*
X178552Y665996D01*
X177697Y665502D01*
X176998Y664803D01*
X176505Y663948D01*
X176249Y662994D01*
Y662006D01*
X176505Y661052D01*
X176998Y660197D01*
X177697Y659498D01*
X178552Y659004D01*
X179506Y658749D01*
X180494D01*
X181448Y659004D01*
X182303Y659498D01*
X183002Y660197D01*
X183495Y661052D01*
X183751Y662006D01*
Y662994D01*
X183495Y663948D01*
X183002Y664803D01*
X182303Y665502D01*
X181448Y665996D01*
X180494Y666251D01*
D02*
G37*
G36*
X430052Y660100D02*
X428378D01*
Y658426D01*
X429124Y658735D01*
X429743Y659354D01*
X430052Y660100D01*
D02*
G37*
G36*
X427378D02*
X425704D01*
X426013Y659354D01*
X426632Y658735D01*
X427378Y658426D01*
Y660100D01*
D02*
G37*
G36*
X161850Y663850D02*
X154150D01*
Y656150D01*
X161850D01*
Y663850D01*
D02*
G37*
G36*
X120520Y663948D02*
X119480D01*
X118476Y663679D01*
X117576Y663159D01*
X116841Y662424D01*
X116321Y661524D01*
X116052Y660520D01*
Y659480D01*
X116321Y658476D01*
X116841Y657576D01*
X117576Y656841D01*
X118476Y656321D01*
X119480Y656052D01*
X120520D01*
X121524Y656321D01*
X122424Y656841D01*
X123159Y657576D01*
X123679Y658476D01*
X123948Y659480D01*
Y660520D01*
X123679Y661524D01*
X123159Y662424D01*
X122424Y663159D01*
X121524Y663679D01*
X120520Y663948D01*
D02*
G37*
G36*
X151578Y674400D02*
X150822D01*
X150124Y674111D01*
X149589Y673576D01*
X149300Y672878D01*
Y672122D01*
X149522Y671587D01*
Y650657D01*
X149060Y650466D01*
X148965Y650561D01*
X148235Y650982D01*
X147421Y651200D01*
X146579D01*
X145765Y650982D01*
X145672Y650928D01*
X145054Y651149D01*
X145002Y651273D01*
X144848Y651505D01*
X144616Y651659D01*
X144343Y651714D01*
X143000D01*
X142978Y651709D01*
X142510Y652028D01*
X142478Y652081D01*
Y668791D01*
X142611Y668924D01*
X142900Y669622D01*
Y670378D01*
X142611Y671076D01*
X142076Y671611D01*
X141378Y671900D01*
X140622D01*
X139924Y671611D01*
X139389Y671076D01*
X139100Y670378D01*
Y669622D01*
X139389Y668924D01*
X139522Y668791D01*
Y661319D01*
X139441Y661271D01*
X139022Y661165D01*
X138576Y661611D01*
X137878Y661900D01*
X137122D01*
X136424Y661611D01*
X135889Y661076D01*
X135600Y660378D01*
Y659622D01*
X135889Y658924D01*
X136022Y658791D01*
Y598709D01*
X135889Y598576D01*
X135600Y597878D01*
Y597122D01*
X135889Y596424D01*
X136424Y595889D01*
X137122Y595600D01*
X137878D01*
X138576Y595889D01*
X139111Y596424D01*
X139400Y597122D01*
Y597878D01*
X139111Y598576D01*
X138978Y598709D01*
Y599681D01*
X139059Y599729D01*
X139478Y599835D01*
X139924Y599389D01*
X140622Y599100D01*
X141378D01*
X142076Y599389D01*
X142611Y599924D01*
X142900Y600622D01*
Y601378D01*
X142611Y602076D01*
X142478Y602209D01*
Y608919D01*
X142510Y608972D01*
X142978Y609291D01*
X143000Y609286D01*
X152000D01*
X152273Y609341D01*
X152505Y609495D01*
X152659Y609727D01*
X152714Y610000D01*
Y623522D01*
X153791D01*
X153924Y623389D01*
X154622Y623100D01*
X155378D01*
X156076Y623389D01*
X156611Y623924D01*
X156900Y624622D01*
Y625378D01*
X156611Y626076D01*
X156076Y626611D01*
X155378Y626900D01*
X154622D01*
X153924Y626611D01*
X153791Y626478D01*
X152478D01*
Y671091D01*
X152811Y671424D01*
X153100Y672122D01*
Y672878D01*
X152811Y673576D01*
X152276Y674111D01*
X151578Y674400D01*
D02*
G37*
G36*
X158507Y653850D02*
X157493D01*
X156514Y653587D01*
X155636Y653081D01*
X154920Y652364D01*
X154413Y651486D01*
X154150Y650507D01*
Y649493D01*
X154413Y648514D01*
X154920Y647636D01*
X155636Y646919D01*
X156514Y646413D01*
X157493Y646150D01*
X158507D01*
X159486Y646413D01*
X160364Y646919D01*
X161080Y647636D01*
X161587Y648514D01*
X161850Y649493D01*
Y650507D01*
X161587Y651486D01*
X161080Y652364D01*
X160364Y653081D01*
X159486Y653587D01*
X158507Y653850D01*
D02*
G37*
G36*
X120520Y653948D02*
X119480D01*
X118476Y653679D01*
X117576Y653159D01*
X116841Y652424D01*
X116321Y651524D01*
X116052Y650520D01*
Y649480D01*
X116321Y648476D01*
X116841Y647576D01*
X117576Y646841D01*
X118476Y646321D01*
X119480Y646052D01*
X120520D01*
X121524Y646321D01*
X122424Y646841D01*
X123159Y647576D01*
X123679Y648476D01*
X123948Y649480D01*
Y650520D01*
X123679Y651524D01*
X123159Y652424D01*
X122424Y653159D01*
X121524Y653679D01*
X120520Y653948D01*
D02*
G37*
G36*
X274500Y645174D02*
Y643500D01*
X276174D01*
X275865Y644246D01*
X275246Y644865D01*
X274500Y645174D01*
D02*
G37*
G36*
X273500D02*
X272754Y644865D01*
X272135Y644246D01*
X271826Y643500D01*
X273500D01*
Y645174D01*
D02*
G37*
G36*
X256500D02*
Y643500D01*
X258174D01*
X257865Y644246D01*
X257246Y644865D01*
X256500Y645174D01*
D02*
G37*
G36*
X255500D02*
X254754Y644865D01*
X254135Y644246D01*
X253826Y643500D01*
X255500D01*
Y645174D01*
D02*
G37*
G36*
X276174Y642500D02*
X271826D01*
X272135Y641754D01*
X272562Y641327D01*
X272698Y641000D01*
X272562Y640673D01*
X272135Y640246D01*
X271826Y639500D01*
X276174D01*
X275865Y640246D01*
X275438Y640673D01*
X275302Y641000D01*
X275438Y641327D01*
X275865Y641754D01*
X276174Y642500D01*
D02*
G37*
G36*
X258174D02*
X253826D01*
X254135Y641754D01*
X254562Y641327D01*
X254698Y641000D01*
X254562Y640673D01*
X254135Y640246D01*
X253826Y639500D01*
X258174D01*
X257865Y640246D01*
X257438Y640673D01*
X257302Y641000D01*
X257438Y641327D01*
X257865Y641754D01*
X258174Y642500D01*
D02*
G37*
G36*
X276174Y638500D02*
X274500D01*
Y636826D01*
X275246Y637135D01*
X275865Y637754D01*
X276174Y638500D01*
D02*
G37*
G36*
X273500D02*
X271826D01*
X272135Y637754D01*
X272754Y637135D01*
X273500Y636826D01*
Y638500D01*
D02*
G37*
G36*
X258174D02*
X256500D01*
Y636826D01*
X257246Y637135D01*
X257865Y637754D01*
X258174Y638500D01*
D02*
G37*
G36*
X255500D02*
X253826D01*
X254135Y637754D01*
X254754Y637135D01*
X255500Y636826D01*
Y638500D01*
D02*
G37*
G36*
X120520Y643948D02*
X119480D01*
X118476Y643679D01*
X117576Y643159D01*
X116841Y642424D01*
X116321Y641524D01*
X116052Y640520D01*
Y639480D01*
X116321Y638476D01*
X116841Y637576D01*
X117576Y636841D01*
X118476Y636321D01*
X119480Y636052D01*
X120520D01*
X121524Y636321D01*
X122424Y636841D01*
X123159Y637576D01*
X123679Y638476D01*
X123948Y639480D01*
Y640520D01*
X123679Y641524D01*
X123159Y642424D01*
X122424Y643159D01*
X121524Y643679D01*
X120520Y643948D01*
D02*
G37*
G36*
X158600Y634296D02*
Y632622D01*
X160274D01*
X159965Y633368D01*
X159346Y633987D01*
X158600Y634296D01*
D02*
G37*
G36*
X157600D02*
X156854Y633987D01*
X156235Y633368D01*
X155926Y632622D01*
X157600D01*
Y634296D01*
D02*
G37*
G36*
X474493Y639937D02*
X473479D01*
X472500Y639675D01*
X471622Y639168D01*
X470905Y638451D01*
X470399Y637573D01*
X470136Y636594D01*
Y635580D01*
X470399Y634601D01*
X470905Y633723D01*
X471622Y633007D01*
X472500Y632500D01*
X473479Y632238D01*
X474493D01*
X475472Y632500D01*
X476350Y633007D01*
X477066Y633723D01*
X477573Y634601D01*
X477836Y635580D01*
Y636594D01*
X477573Y637573D01*
X477066Y638451D01*
X476350Y639168D01*
X475472Y639675D01*
X474493Y639937D01*
D02*
G37*
G36*
X467836D02*
X460136D01*
Y632238D01*
X467836D01*
Y639937D01*
D02*
G37*
G36*
X124248Y634248D02*
X120500D01*
Y630500D01*
X124248D01*
Y634248D01*
D02*
G37*
G36*
X119500D02*
X115752D01*
Y630500D01*
X119500D01*
Y634248D01*
D02*
G37*
G36*
X160274Y631622D02*
X158600D01*
Y629948D01*
X159346Y630257D01*
X159965Y630876D01*
X160274Y631622D01*
D02*
G37*
G36*
X157600D02*
X155926D01*
X156235Y630876D01*
X156854Y630257D01*
X157600Y629948D01*
Y631622D01*
D02*
G37*
G36*
X124248Y629500D02*
X120500D01*
Y625752D01*
X124248D01*
Y629500D01*
D02*
G37*
G36*
X119500D02*
X115752D01*
Y625752D01*
X119500D01*
Y629500D01*
D02*
G37*
G36*
X300000Y646714D02*
X292000D01*
X291727Y646659D01*
X291495Y646505D01*
X291341Y646273D01*
X291286Y646000D01*
Y610000D01*
X291341Y609727D01*
X291495Y609495D01*
X291727Y609341D01*
X292000Y609286D01*
X300000D01*
X300273Y609341D01*
X300505Y609495D01*
X300659Y609727D01*
X300714Y610000D01*
Y646000D01*
X300659Y646273D01*
X300505Y646505D01*
X300273Y646659D01*
X300000Y646714D01*
D02*
G37*
G36*
X127804Y594543D02*
X127784D01*
Y591091D01*
X131236D01*
Y591111D01*
X130967Y592116D01*
X130447Y593018D01*
X129710Y593753D01*
X128809Y594274D01*
X127804Y594543D01*
D02*
G37*
G36*
X126784D02*
X126763D01*
X125758Y594274D01*
X124856Y593753D01*
X124120Y593018D01*
X123600Y592116D01*
X123331Y591111D01*
Y591091D01*
X126784D01*
Y594543D01*
D02*
G37*
G36*
X148653Y594243D02*
X141347D01*
Y586938D01*
X148653D01*
Y594243D01*
D02*
G37*
G36*
X131236Y590091D02*
X127784D01*
Y586638D01*
X127804D01*
X128809Y586907D01*
X129710Y587428D01*
X130447Y588164D01*
X130967Y589065D01*
X131236Y590070D01*
Y590091D01*
D02*
G37*
G36*
X126784D02*
X123331D01*
Y590070D01*
X123600Y589065D01*
X124120Y588164D01*
X124856Y587428D01*
X125758Y586907D01*
X126763Y586638D01*
X126784D01*
Y590091D01*
D02*
G37*
G36*
X240500Y577174D02*
Y575500D01*
X242174D01*
X241865Y576246D01*
X241246Y576865D01*
X240500Y577174D01*
D02*
G37*
G36*
X239500D02*
X238754Y576865D01*
X238135Y576246D01*
X237826Y575500D01*
X239500D01*
Y577174D01*
D02*
G37*
G36*
X225843Y582699D02*
X218144D01*
Y575000D01*
X225843D01*
Y582699D01*
D02*
G37*
G36*
X242174Y574500D02*
X240500D01*
Y572826D01*
X241246Y573135D01*
X241865Y573754D01*
X242174Y574500D01*
D02*
G37*
G36*
X239500D02*
X237826D01*
X238135Y573754D01*
X238754Y573135D01*
X239500Y572826D01*
Y574500D01*
D02*
G37*
G36*
X168378Y687900D02*
X167622D01*
X166924Y687611D01*
X166389Y687076D01*
X166100Y686378D01*
Y685622D01*
X166389Y684924D01*
X166924Y684389D01*
X167622Y684100D01*
X167809D01*
X169096Y682813D01*
Y571744D01*
X168634Y571553D01*
X168576Y571611D01*
X167878Y571900D01*
X167691D01*
X166459Y573132D01*
X165979Y573453D01*
X165413Y573565D01*
X163357D01*
Y574755D01*
X156642D01*
Y569418D01*
X163357D01*
Y570608D01*
X164801D01*
X165600Y569809D01*
Y569622D01*
X165889Y568924D01*
X166424Y568389D01*
X167122Y568100D01*
X167878D01*
X168576Y568389D01*
X168634Y568447D01*
X169096Y568256D01*
Y547562D01*
X167020D01*
Y541438D01*
X174096D01*
Y539688D01*
X167020D01*
Y533564D01*
X169096D01*
Y532562D01*
X166478D01*
Y548791D01*
X166611Y548924D01*
X166900Y549622D01*
Y550378D01*
X166611Y551076D01*
X166076Y551611D01*
X165378Y551900D01*
X164622D01*
X163924Y551611D01*
X163389Y551076D01*
X163100Y550378D01*
Y549622D01*
X163389Y548924D01*
X163522Y548791D01*
Y532562D01*
X162021D01*
Y526438D01*
X169096D01*
Y524688D01*
X162021D01*
Y521025D01*
X161978Y520993D01*
X161478Y521245D01*
Y562331D01*
X163357D01*
Y567668D01*
X156642D01*
Y566478D01*
X148364D01*
X147923Y567243D01*
X147243Y567923D01*
X146410Y568404D01*
X145481Y568653D01*
X144519D01*
X143590Y568404D01*
X142757Y567923D01*
X142077Y567243D01*
X141596Y566410D01*
X141347Y565481D01*
Y564519D01*
X141596Y563590D01*
X142077Y562757D01*
X142757Y562077D01*
X143590Y561596D01*
X144519Y561347D01*
X145481D01*
X146410Y561596D01*
X147243Y562077D01*
X147923Y562757D01*
X148364Y563522D01*
X156642D01*
Y562331D01*
X158522D01*
Y501209D01*
X158389Y501076D01*
X158100Y500378D01*
Y499622D01*
X158389Y498924D01*
X158924Y498389D01*
X159622Y498100D01*
X160378D01*
X161076Y498389D01*
X161611Y498924D01*
X161900Y499622D01*
Y500378D01*
X161611Y501076D01*
X161478Y501209D01*
Y512181D01*
X161978Y512367D01*
X162622Y512100D01*
X163378D01*
X164076Y512389D01*
X164611Y512924D01*
X164900Y513622D01*
Y514378D01*
X164699Y514863D01*
Y518564D01*
X169096D01*
Y517187D01*
X167809Y515900D01*
X167622D01*
X166924Y515611D01*
X166389Y515076D01*
X166100Y514378D01*
Y513622D01*
X166389Y512924D01*
X166924Y512389D01*
X167622Y512100D01*
X168378D01*
X169076Y512389D01*
X169611Y512924D01*
X169900Y513622D01*
Y513809D01*
X170638Y514547D01*
X170895Y514453D01*
X171100Y514302D01*
Y513622D01*
X171389Y512924D01*
X171924Y512389D01*
X172622Y512100D01*
X173378D01*
X174076Y512389D01*
X174611Y512924D01*
X174765Y513295D01*
X175512Y514043D01*
X175600Y514101D01*
X176100Y513834D01*
Y513622D01*
X176389Y512924D01*
X176924Y512389D01*
X177622Y512100D01*
X178378D01*
X179076Y512389D01*
X179611Y512924D01*
X179900Y513622D01*
Y513809D01*
X180384Y514293D01*
X180641Y514199D01*
X180846Y514048D01*
Y513368D01*
X181135Y512670D01*
X181669Y512135D01*
X182368Y511846D01*
X183124D01*
X183822Y512135D01*
X184126Y512439D01*
X184778D01*
X185344Y512552D01*
X185824Y512873D01*
X187691Y514740D01*
X188012Y515220D01*
X188124Y515786D01*
Y519001D01*
X192554D01*
Y525075D01*
X194122D01*
Y518212D01*
X183711Y507802D01*
X183391Y507322D01*
X183278Y506756D01*
Y499613D01*
X182778Y499278D01*
X182484Y499400D01*
X181728D01*
X181030Y499111D01*
X180496Y498576D01*
X180207Y497878D01*
Y497447D01*
X180195Y497436D01*
X179874Y496956D01*
X179762Y496390D01*
Y493894D01*
X179594Y493643D01*
X179478Y493061D01*
X178978Y493111D01*
Y498791D01*
X179111Y498924D01*
X179400Y499622D01*
Y500378D01*
X179111Y501076D01*
X178576Y501611D01*
X177878Y501900D01*
X177122D01*
X176424Y501611D01*
X175889Y501076D01*
X175600Y500378D01*
Y499622D01*
X175889Y498924D01*
X176022Y498791D01*
Y493111D01*
X175522Y493061D01*
X175406Y493643D01*
X175020Y494221D01*
X174442Y494607D01*
X173760Y494742D01*
X173078Y494607D01*
X172500Y494221D01*
X172338Y493978D01*
X161344D01*
Y494247D01*
X155199D01*
Y490753D01*
X155883D01*
X156035Y490252D01*
X155687Y490020D01*
X155300Y489442D01*
X155165Y488760D01*
X155300Y488078D01*
X155687Y487500D01*
X155885Y487367D01*
X155880Y486769D01*
X155470Y486496D01*
X155018Y485819D01*
X154958Y485520D01*
X158272D01*
X161585D01*
X161525Y485819D01*
X161073Y486496D01*
X160663Y486769D01*
X160653Y486807D01*
X160797Y487281D01*
X162749D01*
X163235Y486795D01*
X163389Y486424D01*
X163522Y486291D01*
Y480967D01*
X158767Y476212D01*
X154142D01*
Y470875D01*
X160857D01*
Y474121D01*
X166045Y479309D01*
X166366Y479789D01*
X166478Y480354D01*
Y486291D01*
X166611Y486424D01*
X166900Y487122D01*
Y487878D01*
X166611Y488576D01*
X166076Y489111D01*
X165378Y489400D01*
X164812D01*
X164407Y489805D01*
X163927Y490126D01*
X163361Y490238D01*
X161026D01*
X161016Y490252D01*
X161267Y490753D01*
X161344D01*
Y491022D01*
X171978D01*
Y490311D01*
X172114Y489629D01*
X172500Y489051D01*
X173078Y488665D01*
X173760Y488529D01*
X174442Y488665D01*
X175020Y489051D01*
X175406Y489629D01*
X175522Y490210D01*
X176022Y490161D01*
Y485890D01*
X175548Y485746D01*
X175510Y485756D01*
X175236Y486165D01*
X174559Y486618D01*
X174260Y486677D01*
Y483364D01*
Y480051D01*
X174559Y480111D01*
X175236Y480563D01*
X175510Y480973D01*
X176107Y480978D01*
X176240Y480779D01*
X176818Y480393D01*
X177500Y480258D01*
X178182Y480393D01*
X178760Y480779D01*
X178993Y481128D01*
X179493Y480976D01*
Y480292D01*
X179762D01*
Y450632D01*
X179262Y450425D01*
X179076Y450611D01*
X178378Y450900D01*
X177622D01*
X176924Y450611D01*
X176389Y450076D01*
X176100Y449378D01*
Y448698D01*
X175895Y448547D01*
X175638Y448453D01*
X174900Y449191D01*
Y449378D01*
X174611Y450076D01*
X174076Y450611D01*
X173378Y450900D01*
X172622D01*
X171924Y450611D01*
X171389Y450076D01*
X171100Y449378D01*
Y448622D01*
X171389Y447924D01*
X171924Y447389D01*
X172622Y447100D01*
X172809D01*
X174167Y445742D01*
Y443943D01*
X173667Y443736D01*
X168604Y448798D01*
Y449075D01*
X168315Y449773D01*
X167781Y450307D01*
X167082Y450597D01*
X166326D01*
X165628Y450307D01*
X165094Y449773D01*
X164804Y449075D01*
Y448993D01*
X164304Y448786D01*
X163900Y449191D01*
Y449378D01*
X163611Y450076D01*
X163076Y450611D01*
X162378Y450900D01*
X161622D01*
X160924Y450611D01*
X160389Y450076D01*
X160100Y449378D01*
Y448698D01*
X159895Y448547D01*
X159638Y448453D01*
X158900Y449191D01*
Y449378D01*
X158611Y450076D01*
X158076Y450611D01*
X157378Y450900D01*
X156622D01*
X155924Y450611D01*
X155389Y450076D01*
X155100Y449378D01*
Y448622D01*
X155389Y447924D01*
X155924Y447389D01*
X156622Y447100D01*
X156809D01*
X159096Y444813D01*
Y432562D01*
X157478D01*
Y442791D01*
X157611Y442924D01*
X157900Y443622D01*
Y444378D01*
X157611Y445076D01*
X157076Y445611D01*
X156378Y445900D01*
X155622D01*
X154924Y445611D01*
X154389Y445076D01*
X154100Y444378D01*
Y443622D01*
X154389Y442924D01*
X154522Y442791D01*
Y432822D01*
X154129Y432562D01*
X154022Y432562D01*
X151731D01*
Y443885D01*
X151863Y444017D01*
X152153Y444715D01*
Y445471D01*
X151863Y446169D01*
X151329Y446704D01*
X150631Y446993D01*
X149875D01*
X149176Y446704D01*
X148642Y446169D01*
X148353Y445471D01*
Y444715D01*
X148642Y444017D01*
X148774Y443885D01*
Y432562D01*
X147020D01*
Y426438D01*
X154022D01*
X154129Y426438D01*
X154522Y426178D01*
Y424948D01*
X154129Y424688D01*
X147020D01*
Y418564D01*
X149096D01*
Y416032D01*
X148219Y415154D01*
X147847Y415000D01*
X147313Y414466D01*
X147024Y413767D01*
Y413011D01*
X147313Y412313D01*
X147847Y411778D01*
X148546Y411489D01*
X149302D01*
X150000Y411778D01*
X150534Y412313D01*
X150824Y413011D01*
Y413577D01*
X151521Y414274D01*
X151912Y414163D01*
X152021Y414086D01*
Y410375D01*
X158522D01*
Y408625D01*
X152021D01*
Y402501D01*
X153522D01*
Y401209D01*
X153389Y401076D01*
X153100Y400378D01*
Y399622D01*
X153389Y398924D01*
X153924Y398389D01*
X154622Y398100D01*
X155378D01*
X156076Y398389D01*
X156611Y398924D01*
X156900Y399622D01*
Y400378D01*
X156611Y401076D01*
X156478Y401209D01*
Y402501D01*
X158522D01*
Y378709D01*
X158389Y378576D01*
X158100Y377878D01*
Y377122D01*
X158389Y376424D01*
X158924Y375889D01*
X159622Y375600D01*
X160378D01*
X161076Y375889D01*
X161611Y376424D01*
X161900Y377122D01*
Y377878D01*
X161611Y378576D01*
X161478Y378709D01*
Y418564D01*
X164129D01*
Y424688D01*
X157478D01*
Y426438D01*
X164129D01*
Y432562D01*
X162053D01*
Y445425D01*
X161941Y445991D01*
X161747Y446281D01*
X161821Y446677D01*
X161969Y446829D01*
X162101Y446808D01*
X166596Y442313D01*
Y416499D01*
X164521D01*
Y410375D01*
X171596D01*
Y408625D01*
X164521D01*
Y402501D01*
X166022D01*
Y401209D01*
X165889Y401076D01*
X165600Y400378D01*
Y399622D01*
X165889Y398924D01*
X166424Y398389D01*
X167122Y398100D01*
X167878D01*
X168576Y398389D01*
X169111Y398924D01*
X169400Y399622D01*
Y400378D01*
X169111Y401076D01*
X168978Y401209D01*
Y402501D01*
X171596D01*
Y389182D01*
X171424Y389111D01*
X170889Y388576D01*
X170600Y387878D01*
Y387122D01*
X170889Y386424D01*
X171424Y385889D01*
X172122Y385600D01*
X172878D01*
X173576Y385889D01*
X174111Y386424D01*
X174400Y387122D01*
Y387827D01*
X174441Y387888D01*
X174553Y388454D01*
Y417501D01*
X176629D01*
Y423625D01*
X169553D01*
Y425375D01*
X176629D01*
Y431499D01*
X174553D01*
Y433649D01*
X175053Y433856D01*
X177651Y431258D01*
Y416687D01*
X175575D01*
Y410563D01*
X182684D01*
Y416687D01*
X180607D01*
Y431871D01*
X180495Y432437D01*
X180175Y432916D01*
X177124Y435967D01*
Y437132D01*
X177586Y437323D01*
X181992Y432917D01*
Y430049D01*
X182020Y429906D01*
Y425375D01*
X189129D01*
Y431499D01*
X184949D01*
Y433530D01*
X184836Y434095D01*
X184516Y434575D01*
X179352Y439739D01*
Y444501D01*
X179852Y444550D01*
X179874Y444438D01*
X180100Y444100D01*
Y443622D01*
X180389Y442924D01*
X180924Y442389D01*
X181622Y442100D01*
X182378D01*
X183076Y442389D01*
X183611Y442924D01*
X183900Y443622D01*
Y444378D01*
X183611Y445076D01*
X183076Y445611D01*
X182719Y445759D01*
Y480292D01*
X182988D01*
Y485941D01*
X182988Y486044D01*
X183444Y486481D01*
X183591Y486478D01*
X183680Y486389D01*
X184379Y486100D01*
X185134D01*
X185833Y486389D01*
X186367Y486924D01*
X186656Y487622D01*
Y488378D01*
X186367Y489076D01*
X186235Y489209D01*
Y506144D01*
X192116Y512026D01*
X192577Y511779D01*
X192522Y511500D01*
Y452136D01*
X192634Y451571D01*
X192955Y451091D01*
X194919Y449127D01*
X195398Y448806D01*
X195964Y448694D01*
X196119D01*
X196424Y448389D01*
X197122Y448100D01*
X197878D01*
X198576Y448389D01*
X199111Y448924D01*
X199400Y449622D01*
Y450378D01*
X199111Y451076D01*
X198576Y451611D01*
X197878Y451900D01*
X197122D01*
X196560Y451667D01*
X195478Y452749D01*
Y469581D01*
X195978Y469681D01*
X196053Y469500D01*
X196588Y468965D01*
X197286Y468676D01*
X198042D01*
X198740Y468965D01*
X199045Y469270D01*
X209323D01*
X209889Y469383D01*
X210369Y469703D01*
X211292Y470627D01*
X211956Y470605D01*
X212001Y470554D01*
X212001Y470422D01*
Y468478D01*
X208454D01*
X207888Y468366D01*
X207491Y468101D01*
X205383D01*
X205251Y468233D01*
X204553Y468522D01*
X203797D01*
X203099Y468233D01*
X202564Y467698D01*
X202275Y467000D01*
Y466244D01*
X202564Y465546D01*
X203099Y465011D01*
X203178Y464978D01*
X203079Y464478D01*
X200209D01*
X200076Y464611D01*
X199378Y464900D01*
X198622D01*
X197924Y464611D01*
X197389Y464076D01*
X197100Y463378D01*
Y462622D01*
X197389Y461924D01*
X197924Y461389D01*
X198622Y461100D01*
X199378D01*
X200076Y461389D01*
X200209Y461522D01*
X203181D01*
X203367Y461022D01*
X203100Y460378D01*
Y459622D01*
X203389Y458924D01*
X203924Y458389D01*
X204622Y458100D01*
X205378D01*
X205683Y458226D01*
X205850Y458059D01*
X206330Y457738D01*
X206896Y457626D01*
X216076D01*
X216076Y453446D01*
X215622Y453333D01*
X208833D01*
X205366Y456800D01*
X204886Y457120D01*
X204321Y457233D01*
X203029D01*
X202629Y457633D01*
X201931Y457922D01*
X201175D01*
X200477Y457633D01*
X199942Y457098D01*
X199653Y456400D01*
Y455644D01*
X199942Y454946D01*
X200477Y454411D01*
X201175Y454122D01*
X201931D01*
X202302Y454276D01*
X203708D01*
X207175Y450809D01*
X207655Y450489D01*
X208221Y450376D01*
X233576D01*
Y445946D01*
X239700D01*
Y453054D01*
X235590D01*
X235341Y453220D01*
X234776Y453333D01*
X230527D01*
X230074Y453446D01*
X230074Y453833D01*
Y456022D01*
X233791D01*
X233924Y455889D01*
X234622Y455600D01*
X235378D01*
X236076Y455889D01*
X236611Y456424D01*
X236900Y457122D01*
Y457878D01*
X236611Y458576D01*
X236076Y459111D01*
X235378Y459400D01*
X234622D01*
X233924Y459111D01*
X233791Y458978D01*
X230074D01*
Y460554D01*
X223950D01*
Y453833D01*
X223950Y453446D01*
X223496Y453333D01*
X222653D01*
X222200Y453446D01*
X222200Y453833D01*
Y460554D01*
X217668D01*
X217526Y460583D01*
X207508D01*
X207218Y460873D01*
X206996Y461022D01*
X207147Y461522D01*
X211206D01*
X211619Y461245D01*
X212185Y461133D01*
X229537D01*
X230102Y461245D01*
X230582Y461566D01*
X232038Y463022D01*
X233576D01*
Y460946D01*
X239700D01*
Y468054D01*
X233576D01*
Y465978D01*
X231425D01*
X230860Y465866D01*
X230380Y465545D01*
X228924Y464090D01*
X225999D01*
Y465916D01*
X226057Y465955D01*
X227013Y466911D01*
X228215D01*
X228347Y466779D01*
X229046Y466489D01*
X229802D01*
X230500Y466779D01*
X231034Y467313D01*
X231324Y468011D01*
Y468767D01*
X231034Y469465D01*
X230500Y470000D01*
X229802Y470289D01*
X229046D01*
X228347Y470000D01*
X228215Y469868D01*
X226401D01*
X226100Y470229D01*
X226082Y470520D01*
X226453Y470922D01*
X234776D01*
X234897Y470946D01*
X239700D01*
Y478054D01*
X233576D01*
Y473878D01*
X210975D01*
X210409Y473766D01*
X209929Y473445D01*
X208711Y472227D01*
X198644D01*
X198042Y472476D01*
X197286D01*
X196588Y472187D01*
X196053Y471653D01*
X195978Y471472D01*
X195478Y471571D01*
Y507876D01*
X195978Y508083D01*
X196404Y507657D01*
X197150Y507348D01*
Y509523D01*
Y511697D01*
X196885Y511587D01*
X196602Y512011D01*
X198413Y513822D01*
X199003Y513705D01*
X199124Y513411D01*
X199659Y512877D01*
X200357Y512587D01*
X200481D01*
X200522Y512546D01*
Y505534D01*
X198955Y503967D01*
X198634Y503487D01*
X198522Y502922D01*
Y492200D01*
X198634Y491634D01*
X198955Y491155D01*
X199254Y490856D01*
Y489749D01*
X199100Y489378D01*
Y488622D01*
X199389Y487924D01*
X199924Y487389D01*
X200622Y487100D01*
X201378D01*
X202076Y487389D01*
X202611Y487924D01*
X202900Y488622D01*
Y489378D01*
X202611Y490076D01*
X202210Y490477D01*
Y491468D01*
X202098Y492034D01*
X201778Y492513D01*
X201478Y492812D01*
Y502309D01*
X203022Y503852D01*
X203123Y503846D01*
X203522Y503689D01*
Y493709D01*
X203389Y493576D01*
X203100Y492878D01*
Y492122D01*
X203389Y491424D01*
X203924Y490889D01*
X204622Y490600D01*
X205378D01*
X206076Y490889D01*
X206611Y491424D01*
X206900Y492122D01*
Y492878D01*
X206611Y493576D01*
X206478Y493709D01*
Y497756D01*
X206940Y497948D01*
X206998Y497889D01*
X207697Y497600D01*
X208453D01*
X209151Y497889D01*
X209594Y498333D01*
X209777Y498455D01*
X211844Y500522D01*
X215001D01*
Y498478D01*
X213524D01*
X212959Y498366D01*
X212479Y498045D01*
X209738Y495304D01*
X209417Y494824D01*
X209304Y494259D01*
Y493457D01*
X209000Y493153D01*
X208711Y492454D01*
Y491698D01*
X209000Y491000D01*
X209535Y490465D01*
X210147Y490212D01*
X210356Y489714D01*
X207522Y486880D01*
X206997D01*
X206298Y486591D01*
X205764Y486057D01*
X205475Y485358D01*
Y484603D01*
X205764Y483904D01*
X206298Y483370D01*
X206997Y483080D01*
X207753D01*
X208451Y483370D01*
X208985Y483904D01*
X209168Y484344D01*
X213539Y488716D01*
X214001Y488524D01*
Y488446D01*
X220125D01*
Y495522D01*
X221875D01*
Y488446D01*
X227999D01*
Y489499D01*
X228499Y489703D01*
X228524Y489678D01*
Y489011D01*
X228813Y488313D01*
X229347Y487779D01*
X230046Y487489D01*
X230802D01*
X231500Y487779D01*
X232034Y488313D01*
X232324Y489011D01*
Y489767D01*
X232034Y490465D01*
X231579Y490921D01*
X231522Y491209D01*
X231201Y491689D01*
X229845Y493045D01*
X229365Y493366D01*
X228799Y493478D01*
X227999D01*
Y495128D01*
X228499Y495335D01*
X230380Y493455D01*
X230860Y493134D01*
X231425Y493022D01*
X233576D01*
Y490946D01*
X239700D01*
Y498054D01*
X233576D01*
Y495978D01*
X232038D01*
X229971Y498045D01*
X229491Y498366D01*
X228999Y498464D01*
Y500391D01*
X231439D01*
X231572Y500259D01*
X232270Y499970D01*
X233026D01*
X233724Y500259D01*
X234259Y500793D01*
X234548Y501492D01*
Y502248D01*
X234259Y502946D01*
X233724Y503480D01*
X233026Y503770D01*
X232270D01*
X231572Y503480D01*
X231439Y503348D01*
X228999D01*
Y505554D01*
X222875D01*
Y498478D01*
X221125D01*
Y505554D01*
X215001D01*
Y503478D01*
X211232D01*
X210666Y503366D01*
X210186Y503045D01*
X208515Y501374D01*
X208453Y501400D01*
X207697D01*
X206998Y501111D01*
X206940Y501053D01*
X206478Y501244D01*
Y505256D01*
X206940Y505447D01*
X206998Y505389D01*
X207697Y505100D01*
X208453D01*
X209151Y505389D01*
X209685Y505924D01*
X209975Y506622D01*
Y506809D01*
X210687Y507522D01*
X233001D01*
Y506446D01*
X239125D01*
Y513554D01*
X233001D01*
Y510478D01*
X221319D01*
X221271Y510559D01*
X221165Y510978D01*
X221611Y511424D01*
X221900Y512122D01*
Y512878D01*
X221611Y513576D01*
X221478Y513709D01*
Y527791D01*
X221611Y527924D01*
X221900Y528622D01*
Y529378D01*
X221611Y530076D01*
X221076Y530611D01*
X220378Y530900D01*
X219622D01*
X218924Y530611D01*
X218389Y530076D01*
X218100Y529378D01*
Y528622D01*
X218389Y527924D01*
X218522Y527791D01*
Y513709D01*
X218389Y513576D01*
X218100Y512878D01*
Y512122D01*
X218389Y511424D01*
X218835Y510978D01*
X218729Y510559D01*
X218681Y510478D01*
X210075D01*
X209509Y510366D01*
X209029Y510045D01*
X207884Y508900D01*
X207697D01*
X206998Y508611D01*
X206940Y508553D01*
X206478Y508744D01*
Y510791D01*
X206611Y510924D01*
X206900Y511622D01*
Y512378D01*
X206611Y513076D01*
X206076Y513611D01*
X205378Y513900D01*
X204622D01*
X203924Y513611D01*
X203884Y513571D01*
X203411Y513681D01*
X203352Y513746D01*
X203045Y514204D01*
X202635Y514614D01*
Y514865D01*
X202346Y515563D01*
X201811Y516098D01*
X201496Y516229D01*
X201308Y516848D01*
X201366Y516934D01*
X201478Y517500D01*
Y599791D01*
X201611Y599924D01*
X201900Y600622D01*
Y601378D01*
X201611Y602076D01*
X201076Y602611D01*
X200378Y602900D01*
X199622D01*
X198924Y602611D01*
X198389Y602076D01*
X198100Y601378D01*
Y600622D01*
X198389Y599924D01*
X198522Y599791D01*
Y518112D01*
X197484Y517074D01*
X197023Y517321D01*
X197078Y517600D01*
Y558414D01*
X197211Y558546D01*
X197500Y559244D01*
Y560000D01*
X197211Y560698D01*
X196676Y561233D01*
X195978Y561522D01*
X195222D01*
X194524Y561233D01*
X194478Y561188D01*
X193978Y561395D01*
Y563791D01*
X194111Y563924D01*
X194400Y564622D01*
Y565378D01*
X194111Y566076D01*
X193576Y566611D01*
X192878Y566900D01*
X192122D01*
X191828Y566778D01*
X191328Y567112D01*
Y628569D01*
X191548Y628950D01*
X191800Y629891D01*
Y630865D01*
X191548Y631806D01*
X191061Y632650D01*
X190372Y633339D01*
X189528Y633826D01*
X188587Y634078D01*
X187613D01*
X186672Y633826D01*
X185828Y633339D01*
X185139Y632650D01*
X184652Y631806D01*
X184400Y630865D01*
Y629891D01*
X184652Y628950D01*
X184772Y628742D01*
Y548157D01*
X184828Y547732D01*
X184884Y547308D01*
X185211Y546518D01*
X185427Y546236D01*
X185181Y545736D01*
X184948D01*
X184629Y545604D01*
X184129Y545938D01*
Y547562D01*
X178292D01*
X177871Y548062D01*
X177878Y548100D01*
X178576Y548389D01*
X179111Y548924D01*
X179400Y549622D01*
Y550378D01*
X179111Y551076D01*
X178576Y551611D01*
X177878Y551900D01*
X177122D01*
X176424Y551611D01*
X175889Y551076D01*
X175600Y550378D01*
Y550191D01*
X174529Y549120D01*
X174209Y548641D01*
X174096Y548075D01*
Y547562D01*
X172053D01*
Y683425D01*
X171941Y683991D01*
X171620Y684471D01*
X169900Y686191D01*
Y686378D01*
X169611Y687076D01*
X169076Y687611D01*
X168378Y687900D01*
D02*
G37*
G36*
X222539Y572999D02*
X222493D01*
Y569350D01*
X226143D01*
Y569396D01*
X225860Y570451D01*
X225314Y571397D01*
X224541Y572170D01*
X223595Y572716D01*
X222539Y572999D01*
D02*
G37*
G36*
X221493D02*
X221447D01*
X220392Y572716D01*
X219445Y572170D01*
X218673Y571397D01*
X218126Y570451D01*
X217844Y569396D01*
Y569350D01*
X221493D01*
Y572999D01*
D02*
G37*
G36*
X226143Y568350D02*
X222493D01*
Y564700D01*
X222539D01*
X223595Y564983D01*
X224541Y565529D01*
X225314Y566302D01*
X225860Y567248D01*
X226143Y568303D01*
Y568350D01*
D02*
G37*
G36*
X221493D02*
X217844D01*
Y568303D01*
X218126Y567248D01*
X218673Y566302D01*
X219445Y565529D01*
X220392Y564983D01*
X221447Y564700D01*
X221493D01*
Y568350D01*
D02*
G37*
G36*
X127764Y568653D02*
X126803D01*
X125874Y568404D01*
X125041Y567923D01*
X124361Y567243D01*
X123880Y566410D01*
X123631Y565481D01*
Y564519D01*
X123880Y563590D01*
X124361Y562757D01*
X125041Y562077D01*
X125874Y561596D01*
X126803Y561347D01*
X127764D01*
X128693Y561596D01*
X129526Y562077D01*
X130206Y562757D01*
X130687Y563590D01*
X130936Y564519D01*
Y565481D01*
X130687Y566410D01*
X130206Y567243D01*
X129526Y567923D01*
X128693Y568404D01*
X127764Y568653D01*
D02*
G37*
G36*
X263257Y661900D02*
X262501D01*
X261803Y661611D01*
X261268Y661076D01*
X260979Y660378D01*
Y659622D01*
X261268Y658924D01*
X261461Y658731D01*
Y560114D01*
X260961Y560015D01*
X260865Y560246D01*
X260246Y560865D01*
X259500Y561174D01*
Y559000D01*
Y556826D01*
X260246Y557135D01*
X260865Y557754D01*
X260961Y557985D01*
X261461Y557886D01*
Y539283D01*
X260961Y539076D01*
X260926Y539111D01*
X260228Y539400D01*
X259472D01*
X258774Y539111D01*
X258239Y538576D01*
X257950Y537878D01*
Y537122D01*
X258239Y536424D01*
X258372Y536291D01*
Y466209D01*
X258239Y466076D01*
X257950Y465378D01*
Y464622D01*
X258239Y463924D01*
X258774Y463389D01*
X259472Y463100D01*
X260228D01*
X260926Y463389D01*
X260961Y463424D01*
X261461Y463217D01*
Y417148D01*
X261389Y417076D01*
X261100Y416378D01*
Y415622D01*
X261389Y414924D01*
X261924Y414389D01*
X262622Y414100D01*
X263378D01*
X264076Y414389D01*
X264611Y414924D01*
X264900Y415622D01*
Y416378D01*
X264611Y417076D01*
X264418Y417269D01*
Y658852D01*
X264490Y658924D01*
X264779Y659622D01*
Y660378D01*
X264490Y661076D01*
X263955Y661611D01*
X263257Y661900D01*
D02*
G37*
G36*
X284500Y561174D02*
Y559500D01*
X286174D01*
X285865Y560246D01*
X285246Y560865D01*
X284500Y561174D01*
D02*
G37*
G36*
X283500D02*
X282754Y560865D01*
X282135Y560246D01*
X281826Y559500D01*
X283500D01*
Y561174D01*
D02*
G37*
G36*
X258500D02*
X257754Y560865D01*
X257135Y560246D01*
X256826Y559500D01*
X258500D01*
Y561174D01*
D02*
G37*
G36*
X286174Y558500D02*
X284500D01*
Y556826D01*
X285246Y557135D01*
X285865Y557754D01*
X286174Y558500D01*
D02*
G37*
G36*
X283500D02*
X281826D01*
X282135Y557754D01*
X282754Y557135D01*
X283500Y556826D01*
Y558500D01*
D02*
G37*
G36*
X258500D02*
X256826D01*
X257135Y557754D01*
X257754Y557135D01*
X258500Y556826D01*
Y558500D01*
D02*
G37*
G36*
X222500Y562699D02*
X221486D01*
X220507Y562437D01*
X219630Y561930D01*
X218913Y561213D01*
X218406Y560335D01*
X218144Y559356D01*
Y558343D01*
X218406Y557364D01*
X218913Y556486D01*
X219630Y555769D01*
X220507Y555262D01*
X221486Y555000D01*
X222500D01*
X223479Y555262D01*
X224357Y555769D01*
X225074Y556486D01*
X225581Y557364D01*
X225843Y558343D01*
Y559356D01*
X225581Y560335D01*
X225074Y561213D01*
X224357Y561930D01*
X223479Y562437D01*
X222500Y562699D01*
D02*
G37*
G36*
Y552699D02*
X221486D01*
X220507Y552437D01*
X219630Y551930D01*
X218913Y551213D01*
X218406Y550336D01*
X218144Y549356D01*
Y548343D01*
X218406Y547364D01*
X218913Y546486D01*
X219630Y545769D01*
X220507Y545262D01*
X221486Y545000D01*
X222500D01*
X223479Y545262D01*
X224357Y545769D01*
X225074Y546486D01*
X225581Y547364D01*
X225843Y548343D01*
Y549356D01*
X225581Y550336D01*
X225074Y551213D01*
X224357Y551930D01*
X223479Y552437D01*
X222500Y552699D01*
D02*
G37*
G36*
Y542699D02*
X221486D01*
X220507Y542437D01*
X219630Y541930D01*
X218913Y541213D01*
X218406Y540336D01*
X218144Y539356D01*
Y538343D01*
X218406Y537364D01*
X218913Y536486D01*
X219630Y535769D01*
X220507Y535262D01*
X221486Y535000D01*
X222500D01*
X223479Y535262D01*
X224357Y535769D01*
X225074Y536486D01*
X225581Y537364D01*
X225843Y538343D01*
Y539356D01*
X225581Y540336D01*
X225074Y541213D01*
X224357Y541930D01*
X223479Y542437D01*
X222500Y542699D01*
D02*
G37*
G36*
X132878Y544400D02*
X132122D01*
X131424Y544111D01*
X130889Y543576D01*
X130600Y542878D01*
Y542122D01*
X130889Y541424D01*
X131022Y541291D01*
Y535554D01*
X129166D01*
Y528446D01*
X135094D01*
Y535554D01*
X133978D01*
Y541291D01*
X134111Y541424D01*
X134400Y542122D01*
Y542878D01*
X134111Y543576D01*
X133576Y544111D01*
X132878Y544400D01*
D02*
G37*
G36*
X235756Y688800D02*
X235000D01*
X234302Y688511D01*
X233767Y687976D01*
X233478Y687278D01*
Y686522D01*
X233767Y685824D01*
X233899Y685691D01*
Y529712D01*
X227187Y523000D01*
X227000D01*
X226302Y522711D01*
X225978Y522388D01*
X225478Y522595D01*
Y524791D01*
X225611Y524924D01*
X225900Y525622D01*
Y526378D01*
X225611Y527076D01*
X225076Y527611D01*
X224378Y527900D01*
X223622D01*
X222924Y527611D01*
X222389Y527076D01*
X222100Y526378D01*
Y525622D01*
X222389Y524924D01*
X222522Y524791D01*
Y519209D01*
X222389Y519076D01*
X222100Y518378D01*
Y517622D01*
X222389Y516924D01*
X222924Y516389D01*
X223622Y516100D01*
X224378D01*
X225076Y516389D01*
X225611Y516924D01*
X225900Y517622D01*
Y518378D01*
X225611Y519076D01*
X225543Y519143D01*
X225590Y519544D01*
X226063Y519728D01*
X226302Y519489D01*
X227000Y519200D01*
X227756D01*
X228454Y519489D01*
X228989Y520024D01*
X229278Y520722D01*
Y520909D01*
X236423Y528055D01*
X236744Y528534D01*
X236856Y529100D01*
Y685691D01*
X236989Y685824D01*
X237278Y686522D01*
Y687278D01*
X236989Y687976D01*
X236454Y688511D01*
X235756Y688800D01*
D02*
G37*
G36*
X208100Y522324D02*
Y520650D01*
X209774D01*
X209465Y521396D01*
X208846Y522015D01*
X208100Y522324D01*
D02*
G37*
G36*
X207100D02*
X206354Y522015D01*
X205735Y521396D01*
X205426Y520650D01*
X207100D01*
Y522324D01*
D02*
G37*
G36*
X209774Y519650D02*
X208100D01*
Y517976D01*
X208846Y518285D01*
X209465Y518904D01*
X209774Y519650D01*
D02*
G37*
G36*
X207100D02*
X205426D01*
X205735Y518904D01*
X206354Y518285D01*
X207100Y517976D01*
Y519650D01*
D02*
G37*
G36*
X215378Y534400D02*
X214622D01*
X213924Y534111D01*
X213389Y533576D01*
X213100Y532878D01*
Y532122D01*
X213389Y531424D01*
X213522Y531291D01*
Y516209D01*
X213389Y516076D01*
X213100Y515378D01*
Y514622D01*
X213389Y513924D01*
X213924Y513389D01*
X214622Y513100D01*
X215378D01*
X216076Y513389D01*
X216611Y513924D01*
X216900Y514622D01*
Y515378D01*
X216611Y516076D01*
X216478Y516209D01*
Y531291D01*
X216611Y531424D01*
X216900Y532122D01*
Y532878D01*
X216611Y533576D01*
X216076Y534111D01*
X215378Y534400D01*
D02*
G37*
G36*
X141983Y535554D02*
X136056D01*
Y528446D01*
X141983D01*
Y530522D01*
X143361D01*
X145542Y528340D01*
Y517542D01*
X143709Y515709D01*
X143522D01*
X142824Y515420D01*
X142289Y514886D01*
X142000Y514187D01*
Y513431D01*
X142289Y512733D01*
X142824Y512198D01*
X143522Y511909D01*
X144278D01*
X144976Y512198D01*
X145511Y512733D01*
X145800Y513431D01*
Y513618D01*
X148066Y515884D01*
X148386Y516364D01*
X148499Y516930D01*
Y528953D01*
X148386Y529518D01*
X148066Y529998D01*
X145018Y533045D01*
X144539Y533366D01*
X143973Y533478D01*
X141983D01*
Y535554D01*
D02*
G37*
G36*
X198150Y511697D02*
Y510023D01*
X199824D01*
X199515Y510769D01*
X198896Y511388D01*
X198150Y511697D01*
D02*
G37*
G36*
X245378Y626900D02*
X244622D01*
X243924Y626611D01*
X243389Y626076D01*
X243100Y625378D01*
Y624622D01*
X243389Y623924D01*
X243502Y623811D01*
Y526549D01*
X243483Y526452D01*
X243596Y525886D01*
X243916Y525407D01*
X248255Y521068D01*
X248734Y520748D01*
X249300Y520635D01*
X250678D01*
X250924Y520389D01*
X251622Y520100D01*
X252378D01*
X252672Y520222D01*
X253172Y519887D01*
Y507963D01*
X252672Y507755D01*
X252540Y507887D01*
X251841Y508177D01*
X251275D01*
X250761Y508691D01*
X250281Y509012D01*
X249715Y509124D01*
X246999D01*
Y513554D01*
X240875D01*
Y506446D01*
X244985D01*
X245233Y506280D01*
X245799Y506167D01*
X249103D01*
X249699Y505571D01*
X249853Y505200D01*
X250387Y504666D01*
X251086Y504377D01*
X251841D01*
X252540Y504666D01*
X252672Y504798D01*
X253172Y504591D01*
Y496029D01*
X252672Y495929D01*
X252611Y496076D01*
X252076Y496611D01*
X251378Y496900D01*
X250622D01*
X249924Y496611D01*
X249791Y496478D01*
X247574D01*
Y498054D01*
X241450D01*
Y490946D01*
X247574D01*
Y493522D01*
X249791D01*
X249924Y493389D01*
X250622Y493100D01*
X251378D01*
X252076Y493389D01*
X252611Y493924D01*
X252672Y494071D01*
X253172Y493971D01*
Y486029D01*
X252672Y485929D01*
X252611Y486076D01*
X252076Y486611D01*
X251378Y486900D01*
X250622D01*
X249924Y486611D01*
X249791Y486478D01*
X247574D01*
Y488054D01*
X241450D01*
Y480946D01*
X247574D01*
Y483522D01*
X249791D01*
X249924Y483389D01*
X250622Y483100D01*
X251378D01*
X252076Y483389D01*
X252611Y483924D01*
X252672Y484071D01*
X253172Y483971D01*
Y476029D01*
X252672Y475929D01*
X252611Y476076D01*
X252076Y476611D01*
X251378Y476900D01*
X250622D01*
X249924Y476611D01*
X249791Y476478D01*
X247574D01*
Y478054D01*
X241450D01*
Y470946D01*
X247574D01*
Y473522D01*
X249791D01*
X249924Y473389D01*
X250622Y473100D01*
X251378D01*
X252076Y473389D01*
X252611Y473924D01*
X252672Y474071D01*
X253172Y473971D01*
Y471081D01*
X252789Y470698D01*
X252500Y470000D01*
Y469244D01*
X252789Y468546D01*
X253324Y468011D01*
X254022Y467722D01*
X254778D01*
X255476Y468011D01*
X256011Y468546D01*
X256300Y469244D01*
Y470000D01*
X256128Y470414D01*
Y533004D01*
X256016Y533570D01*
X255695Y534050D01*
X253978Y535767D01*
Y546291D01*
X254111Y546424D01*
X254400Y547122D01*
Y547878D01*
X254111Y548576D01*
X253576Y549111D01*
X252878Y549400D01*
X252122D01*
X251424Y549111D01*
X250889Y548576D01*
X250600Y547878D01*
Y547122D01*
X250889Y546424D01*
X251022Y546291D01*
Y535154D01*
X251134Y534589D01*
X251455Y534109D01*
X253172Y532392D01*
Y524113D01*
X252672Y523778D01*
X252378Y523900D01*
X251622D01*
X250924Y523611D01*
X250905Y523592D01*
X249912D01*
X246459Y527045D01*
Y623772D01*
X246611Y623924D01*
X246900Y624622D01*
Y625378D01*
X246611Y626076D01*
X246076Y626611D01*
X245378Y626900D01*
D02*
G37*
G36*
X199824Y509023D02*
X198150D01*
Y507348D01*
X198896Y507657D01*
X199515Y508276D01*
X199824Y509023D01*
D02*
G37*
G36*
X415378Y534550D02*
X414622D01*
X413924Y534261D01*
X413389Y533726D01*
X413100Y533028D01*
Y532272D01*
X413389Y531574D01*
X413522Y531441D01*
Y509209D01*
X413389Y509076D01*
X413100Y508378D01*
Y507622D01*
X413389Y506924D01*
X413924Y506389D01*
X414622Y506100D01*
X415378D01*
X416076Y506389D01*
X416611Y506924D01*
X416900Y507622D01*
Y508378D01*
X416611Y509076D01*
X416478Y509209D01*
Y531441D01*
X416611Y531574D01*
X416900Y532272D01*
Y533028D01*
X416611Y533726D01*
X416076Y534261D01*
X415378Y534550D01*
D02*
G37*
G36*
X362878Y524400D02*
X362122D01*
X361424Y524111D01*
X360889Y523576D01*
X360600Y522878D01*
Y522122D01*
X360889Y521424D01*
X361022Y521291D01*
Y508709D01*
X360889Y508576D01*
X360600Y507878D01*
Y507122D01*
X360889Y506424D01*
X361424Y505889D01*
X362122Y505600D01*
X362878D01*
X363576Y505889D01*
X364111Y506424D01*
X364400Y507122D01*
Y507878D01*
X364111Y508576D01*
X363978Y508709D01*
Y521291D01*
X364111Y521424D01*
X364400Y522122D01*
Y522878D01*
X364111Y523576D01*
X363576Y524111D01*
X362878Y524400D01*
D02*
G37*
G36*
X428378Y530900D02*
X427622D01*
X426924Y530611D01*
X426389Y530076D01*
X426100Y529378D01*
Y528622D01*
X426389Y527924D01*
X426461Y527852D01*
Y508170D01*
X426267Y507976D01*
X425978Y507278D01*
Y506522D01*
X426267Y505824D01*
X426802Y505289D01*
X427500Y505000D01*
X428256D01*
X428954Y505289D01*
X429489Y505824D01*
X429778Y506522D01*
Y507278D01*
X429489Y507976D01*
X429417Y508048D01*
Y527730D01*
X429611Y527924D01*
X429900Y528622D01*
Y529378D01*
X429611Y530076D01*
X429076Y530611D01*
X428378Y530900D01*
D02*
G37*
G36*
X405481Y503653D02*
X404519D01*
X403590Y503404D01*
X402757Y502923D01*
X402077Y502243D01*
X401596Y501410D01*
X401347Y500481D01*
Y499519D01*
X401596Y498590D01*
X402077Y497757D01*
X402757Y497077D01*
X403590Y496596D01*
X404519Y496347D01*
X405481D01*
X406410Y496596D01*
X407243Y497077D01*
X407923Y497757D01*
X408404Y498590D01*
X408653Y499519D01*
Y500481D01*
X408404Y501410D01*
X407923Y502243D01*
X407243Y502923D01*
X406410Y503404D01*
X405481Y503653D01*
D02*
G37*
G36*
X387764D02*
X386803D01*
X385874Y503404D01*
X385041Y502923D01*
X384361Y502243D01*
X383880Y501410D01*
X383631Y500481D01*
Y499519D01*
X383880Y498590D01*
X384361Y497757D01*
X385041Y497077D01*
X385874Y496596D01*
X386803Y496347D01*
X387764D01*
X388693Y496596D01*
X389526Y497077D01*
X390206Y497757D01*
X390687Y498590D01*
X390936Y499519D01*
Y500481D01*
X390687Y501410D01*
X390206Y502243D01*
X389526Y502923D01*
X388693Y503404D01*
X387764Y503653D01*
D02*
G37*
G36*
X438378Y527900D02*
X437622D01*
X436924Y527611D01*
X436389Y527076D01*
X436100Y526378D01*
Y525651D01*
X436022Y525256D01*
Y496209D01*
X435889Y496076D01*
X435600Y495378D01*
Y494622D01*
X435889Y493924D01*
X436424Y493389D01*
X437122Y493100D01*
X437878D01*
X438576Y493389D01*
X439111Y493924D01*
X439400Y494622D01*
Y495378D01*
X439111Y496076D01*
X438978Y496209D01*
Y524349D01*
X439076Y524389D01*
X439611Y524924D01*
X439900Y525622D01*
Y526378D01*
X439611Y527076D01*
X439076Y527611D01*
X438378Y527900D01*
D02*
G37*
G36*
X150378Y499400D02*
X149622D01*
X148924Y499111D01*
X148389Y498576D01*
X148100Y497878D01*
Y497122D01*
X148389Y496424D01*
X148522Y496291D01*
Y494251D01*
X147993Y494146D01*
X147415Y493760D01*
X147029Y493182D01*
X146893Y492500D01*
X147029Y491818D01*
X147415Y491240D01*
X147993Y490854D01*
X148675Y490718D01*
X151325D01*
X152007Y490854D01*
X152585Y491240D01*
X152971Y491818D01*
X153107Y492500D01*
X152971Y493182D01*
X152585Y493760D01*
X152007Y494146D01*
X151478Y494251D01*
Y496291D01*
X151611Y496424D01*
X151900Y497122D01*
Y497878D01*
X151611Y498576D01*
X151076Y499111D01*
X150378Y499400D01*
D02*
G37*
G36*
X336000Y646714D02*
X309000D01*
X308727Y646659D01*
X308495Y646505D01*
X308341Y646273D01*
X308286Y646000D01*
Y632653D01*
Y472344D01*
X308293Y472312D01*
X308289Y472280D01*
X308319Y472176D01*
X308341Y472071D01*
X308359Y472044D01*
X308367Y472013D01*
X308435Y471929D01*
X308495Y471839D01*
X308522Y471821D01*
X308542Y471796D01*
X308637Y471744D01*
X308727Y471684D01*
X309100Y471378D01*
Y470622D01*
X309389Y469924D01*
X309522Y469791D01*
Y451612D01*
X307159Y449250D01*
X307122D01*
X306424Y448961D01*
X305889Y448426D01*
X305600Y447728D01*
Y446972D01*
X305889Y446274D01*
X306424Y445739D01*
X307122Y445450D01*
X307878D01*
X308286Y445177D01*
Y342000D01*
X308341Y341727D01*
X308495Y341495D01*
X308727Y341341D01*
X309000Y341286D01*
X321000D01*
X321273Y341341D01*
X321505Y341495D01*
X321659Y341727D01*
X321714Y342000D01*
Y451577D01*
X321969Y451786D01*
X340000D01*
X340273Y451841D01*
X340505Y451995D01*
X340659Y452227D01*
X340714Y452500D01*
Y453449D01*
X341587D01*
Y457500D01*
Y461551D01*
X340714D01*
Y463744D01*
X342000D01*
Y467500D01*
Y471256D01*
X340714D01*
Y472224D01*
X340659Y472497D01*
X340505Y472729D01*
X340273Y472884D01*
X340000Y472938D01*
X335571D01*
X333941Y474569D01*
X333905Y475430D01*
X334251Y475791D01*
X334608D01*
Y477923D01*
X335608D01*
Y475791D01*
X336577D01*
Y477923D01*
X337577D01*
Y475791D01*
X338766D01*
X338766Y475791D01*
Y475791D01*
X339192Y475603D01*
X340096Y474700D01*
X340493Y474435D01*
X340961Y474341D01*
X349440D01*
X349827Y473954D01*
X350525Y473665D01*
X351281D01*
X351979Y473954D01*
X352514Y474489D01*
X352803Y475187D01*
Y475943D01*
X352514Y476641D01*
X351979Y477176D01*
X351281Y477465D01*
X350525D01*
X349827Y477176D01*
X349440Y476788D01*
X344261D01*
X343956Y477288D01*
X343982Y477340D01*
X345684D01*
X346152Y477433D01*
X346549Y477698D01*
X347001Y478150D01*
X347122Y478100D01*
X347878D01*
X348576Y478389D01*
X349111Y478924D01*
X349400Y479622D01*
Y480378D01*
X349111Y481076D01*
X348576Y481611D01*
X347878Y481900D01*
X347122D01*
X346424Y481611D01*
X345889Y481076D01*
X345600Y480378D01*
Y480209D01*
X345177Y479786D01*
X343785D01*
Y480031D01*
X341653D01*
Y481032D01*
X343785D01*
Y482000D01*
X341653D01*
Y483000D01*
X343785D01*
Y483968D01*
X341653D01*
Y484469D01*
X341154D01*
Y486158D01*
X340434D01*
Y486737D01*
X340535Y486805D01*
X340763Y487032D01*
X347445D01*
X347832Y486645D01*
X348531Y486356D01*
X349287D01*
X349985Y486645D01*
X350519Y487180D01*
X350809Y487878D01*
Y488634D01*
X350519Y489332D01*
X349985Y489867D01*
X349287Y490156D01*
X348531D01*
X347832Y489867D01*
X347445Y489479D01*
X340256D01*
X339788Y489386D01*
X339391Y489121D01*
X338883Y488614D01*
X338800Y488558D01*
X338578Y488608D01*
X338300Y488723D01*
Y501142D01*
X338207Y501611D01*
X337942Y502007D01*
X337224Y502726D01*
Y502758D01*
X337500Y503144D01*
X337723Y503144D01*
X345199D01*
Y510843D01*
X337723D01*
X337500Y510843D01*
X337224Y511228D01*
Y516537D01*
X337611Y516924D01*
X337900Y517622D01*
Y518378D01*
X337611Y519076D01*
X337076Y519611D01*
X336378Y519900D01*
X335622D01*
X334924Y519611D01*
X334389Y519076D01*
X334100Y518378D01*
Y517622D01*
X334389Y516924D01*
X334776Y516537D01*
Y509718D01*
X334277Y509511D01*
X333713Y510074D01*
X333178Y510382D01*
X333116Y510497D01*
X333065Y510900D01*
X333095Y511008D01*
X333118Y511035D01*
X333133Y511079D01*
X333159Y511119D01*
X333178Y511210D01*
X333208Y511298D01*
X333205Y511345D01*
X333214Y511392D01*
Y512158D01*
X333213Y512159D01*
X333214Y512159D01*
X333187Y512294D01*
X333159Y512431D01*
X333159Y512432D01*
X333159Y512432D01*
X333082Y512547D01*
X333005Y512662D01*
X333004Y512663D01*
X333003Y512664D01*
X332649Y513016D01*
X332648Y513017D01*
X332648Y513018D01*
X332531Y513095D01*
X332417Y513170D01*
X332416Y513171D01*
X332416Y513171D01*
X332280Y513197D01*
X332144Y513224D01*
X332143Y513224D01*
X332142Y513224D01*
X322214Y513176D01*
X321769Y513526D01*
X321714Y513626D01*
Y631786D01*
X336291D01*
X336564Y631841D01*
X336796Y631995D01*
X336951Y632227D01*
X337005Y632500D01*
Y645709D01*
X336951Y645982D01*
X336796Y646213D01*
X336505Y646505D01*
X336273Y646659D01*
X336000Y646714D01*
D02*
G37*
G36*
X343785Y486158D02*
X342154D01*
Y484969D01*
X343785D01*
Y486158D01*
D02*
G37*
G36*
X173260Y486677D02*
X172961Y486618D01*
X172284Y486165D01*
X171831Y485488D01*
X171672Y484689D01*
Y483864D01*
X173260D01*
Y486677D01*
D02*
G37*
G36*
X161585Y484520D02*
X158772D01*
Y482932D01*
X159597D01*
X160395Y483091D01*
X161073Y483543D01*
X161525Y484221D01*
X161585Y484520D01*
D02*
G37*
G36*
X157772D02*
X154958D01*
X155018Y484221D01*
X155470Y483543D01*
X156148Y483091D01*
X156947Y482932D01*
X157772D01*
Y484520D01*
D02*
G37*
G36*
X239700Y488054D02*
X233576D01*
Y485978D01*
X214500D01*
X213934Y485866D01*
X213455Y485545D01*
X209156Y481246D01*
X207493D01*
X207251Y481489D01*
X206553Y481778D01*
X205797D01*
X205099Y481489D01*
X204564Y480954D01*
X204275Y480256D01*
Y479500D01*
X204564Y478802D01*
X205099Y478267D01*
X205797Y477978D01*
X206553D01*
X207251Y478267D01*
X207273Y478290D01*
X208891D01*
X209098Y477789D01*
X207787Y476478D01*
X201209D01*
X201076Y476611D01*
X200378Y476900D01*
X199622D01*
X198924Y476611D01*
X198389Y476076D01*
X198100Y475378D01*
Y474622D01*
X198389Y473924D01*
X198924Y473389D01*
X199622Y473100D01*
X200378D01*
X201076Y473389D01*
X201209Y473522D01*
X208399D01*
X208965Y473634D01*
X209445Y473955D01*
X210907Y475417D01*
X215451D01*
X215594Y475446D01*
X220125D01*
Y482554D01*
X220125D01*
X220204Y483022D01*
X221796D01*
X221875Y482554D01*
X221875Y482522D01*
Y475446D01*
X227999D01*
Y477522D01*
X229599D01*
X230165Y477634D01*
X230296Y477722D01*
X230978D01*
X231676Y478011D01*
X232211Y478546D01*
X232500Y479244D01*
Y480000D01*
X232211Y480698D01*
X231676Y481233D01*
X230978Y481522D01*
X230222D01*
X229524Y481233D01*
X228989Y480698D01*
X228898Y480478D01*
X227999D01*
Y482522D01*
X227999Y482554D01*
X228078Y483022D01*
X233576D01*
Y480946D01*
X239700D01*
Y488054D01*
D02*
G37*
G36*
X173260Y482864D02*
X171672D01*
Y482039D01*
X171831Y481240D01*
X172284Y480563D01*
X172961Y480111D01*
X173260Y480051D01*
Y482864D01*
D02*
G37*
G36*
X405520Y478362D02*
X405500D01*
Y474909D01*
X408953D01*
Y474930D01*
X408683Y475935D01*
X408163Y476836D01*
X407427Y477572D01*
X406526Y478093D01*
X405520Y478362D01*
D02*
G37*
G36*
X404500D02*
X404480D01*
X403474Y478093D01*
X402573Y477572D01*
X401837Y476836D01*
X401317Y475935D01*
X401047Y474930D01*
Y474909D01*
X404500D01*
Y478362D01*
D02*
G37*
G36*
X302878Y519400D02*
X302122D01*
X301424Y519111D01*
X300889Y518576D01*
X300600Y517878D01*
Y517691D01*
X298376Y515467D01*
X298056Y514987D01*
X297943Y514422D01*
Y494622D01*
X298056Y494056D01*
X298376Y493576D01*
X298522Y493431D01*
Y475209D01*
X298389Y475076D01*
X298100Y474378D01*
Y473622D01*
X298389Y472924D01*
X298924Y472389D01*
X299622Y472100D01*
X300378D01*
X301076Y472389D01*
X301611Y472924D01*
X301900Y473622D01*
Y474378D01*
X301611Y475076D01*
X301478Y475209D01*
Y494043D01*
X301366Y494609D01*
X301045Y495089D01*
X300900Y495234D01*
Y513809D01*
X302691Y515600D01*
X302878D01*
X303576Y515889D01*
X304111Y516424D01*
X304400Y517122D01*
Y517878D01*
X304111Y518576D01*
X303576Y519111D01*
X302878Y519400D01*
D02*
G37*
G36*
X390936Y478062D02*
X383631D01*
Y470757D01*
X390936D01*
Y478062D01*
D02*
G37*
G36*
X408953Y473909D02*
X405500D01*
Y470457D01*
X405520D01*
X406526Y470726D01*
X407427Y471246D01*
X408163Y471982D01*
X408683Y472884D01*
X408953Y473889D01*
Y473909D01*
D02*
G37*
G36*
X404500D02*
X401047D01*
Y473889D01*
X401317Y472884D01*
X401837Y471982D01*
X402573Y471246D01*
X403474Y470726D01*
X404480Y470457D01*
X404500D01*
Y473909D01*
D02*
G37*
G36*
X345370Y471256D02*
X343000D01*
Y468000D01*
X345370D01*
Y471256D01*
D02*
G37*
G36*
X165378Y469400D02*
X164622D01*
X163924Y469111D01*
X163389Y468576D01*
X163235Y468205D01*
X162966Y467935D01*
X160857D01*
Y469125D01*
X154142D01*
Y463788D01*
X160857D01*
Y464978D01*
X163578D01*
X164144Y465091D01*
X164623Y465411D01*
X164812Y465600D01*
X165378D01*
X166076Y465889D01*
X166611Y466424D01*
X166900Y467122D01*
Y467878D01*
X166611Y468576D01*
X166076Y469111D01*
X165378Y469400D01*
D02*
G37*
G36*
X413000Y468490D02*
Y465500D01*
X415989D01*
X415762Y466351D01*
X415301Y467149D01*
X414649Y467801D01*
X413851Y468261D01*
X413000Y468490D01*
D02*
G37*
G36*
X412000D02*
X411149Y468261D01*
X410351Y467801D01*
X409699Y467149D01*
X409238Y466351D01*
X409011Y465500D01*
X412000D01*
Y468490D01*
D02*
G37*
G36*
X345370Y467000D02*
X343000D01*
Y463744D01*
X345370D01*
Y467000D01*
D02*
G37*
G36*
X247574Y468054D02*
X241450D01*
Y460946D01*
X247574D01*
Y463522D01*
X249791D01*
X249924Y463389D01*
X250622Y463100D01*
X251378D01*
X252076Y463389D01*
X252611Y463924D01*
X252900Y464622D01*
Y465378D01*
X252611Y466076D01*
X252076Y466611D01*
X251378Y466900D01*
X250622D01*
X249924Y466611D01*
X249791Y466478D01*
X247574D01*
Y468054D01*
D02*
G37*
G36*
X415989Y464500D02*
X413000D01*
Y461511D01*
X413851Y461738D01*
X414649Y462199D01*
X415301Y462851D01*
X415762Y463649D01*
X415989Y464500D01*
D02*
G37*
G36*
X412000D02*
X409011D01*
X409238Y463649D01*
X409699Y462851D01*
X410351Y462199D01*
X411149Y461738D01*
X412000Y461511D01*
Y464500D01*
D02*
G37*
G36*
X346039Y461551D02*
X342587D01*
Y458000D01*
X346039D01*
Y461551D01*
D02*
G37*
G36*
Y457000D02*
X342587D01*
Y453449D01*
X346039D01*
Y457000D01*
D02*
G37*
G36*
X151325Y486801D02*
X148675D01*
X147993Y486666D01*
X147415Y486280D01*
X147029Y485702D01*
X146893Y485020D01*
X147029Y484338D01*
X147415Y483760D01*
X147993Y483374D01*
X148522Y483268D01*
Y468112D01*
X141855Y461445D01*
X141534Y460966D01*
X141422Y460400D01*
Y451334D01*
X140922Y450999D01*
X140500Y451174D01*
Y449000D01*
Y446826D01*
X140922Y447001D01*
X141422Y446666D01*
Y437589D01*
X140057Y436224D01*
X135316D01*
X134751Y436111D01*
X134271Y435791D01*
X132034Y433554D01*
X128001D01*
Y431478D01*
X125448D01*
Y433184D01*
X120670D01*
Y426816D01*
X125448D01*
Y428522D01*
X128001D01*
Y426446D01*
X134125D01*
Y431463D01*
X135413Y432751D01*
X135875Y432560D01*
Y426446D01*
X141999D01*
Y428522D01*
X144414D01*
X144980Y428634D01*
X145460Y428955D01*
X146045Y429540D01*
X146366Y430020D01*
X146478Y430586D01*
Y436546D01*
X147045Y437113D01*
X147366Y437592D01*
X147478Y438158D01*
Y447791D01*
X147611Y447924D01*
X147900Y448622D01*
Y449378D01*
X147611Y450076D01*
X147076Y450611D01*
X146378Y450900D01*
X145622D01*
X144924Y450611D01*
X144878Y450565D01*
X144378Y450772D01*
Y459788D01*
X151045Y466455D01*
X151366Y466934D01*
X151478Y467500D01*
Y483268D01*
X152007Y483374D01*
X152585Y483760D01*
X152971Y484338D01*
X153107Y485020D01*
X152971Y485702D01*
X152585Y486280D01*
X152007Y486666D01*
X151325Y486801D01*
D02*
G37*
G36*
X360378Y481900D02*
X359622D01*
X358924Y481611D01*
X358389Y481076D01*
X358100Y480378D01*
Y479622D01*
X358389Y478924D01*
X358711Y478603D01*
Y452840D01*
X358478Y452278D01*
Y451522D01*
X358767Y450824D01*
X359302Y450289D01*
X360000Y450000D01*
X360756D01*
X361454Y450289D01*
X361989Y450824D01*
X362278Y451522D01*
Y452278D01*
X361989Y452976D01*
X361667Y453298D01*
Y479061D01*
X361900Y479622D01*
Y480378D01*
X361611Y481076D01*
X361076Y481611D01*
X360378Y481900D01*
D02*
G37*
G36*
X272878Y599400D02*
X272122D01*
X271424Y599111D01*
X270889Y598576D01*
X270600Y597878D01*
Y597122D01*
X270889Y596424D01*
X271022Y596291D01*
Y481209D01*
X270889Y481076D01*
X270600Y480378D01*
Y479622D01*
X270889Y478924D01*
X271424Y478389D01*
X272122Y478100D01*
X272878D01*
X273576Y478389D01*
X274111Y478924D01*
X274400Y479622D01*
Y480378D01*
X274111Y481076D01*
X273978Y481209D01*
Y487898D01*
X274478Y488113D01*
X275072Y487867D01*
X275828D01*
X276411Y488109D01*
X276911Y487888D01*
Y476483D01*
X276411Y476276D01*
X276076Y476611D01*
X275378Y476900D01*
X274622D01*
X273924Y476611D01*
X273389Y476076D01*
X273100Y475378D01*
Y474622D01*
X273389Y473924D01*
X273522Y473791D01*
Y370968D01*
X273022Y370868D01*
X272865Y371246D01*
X272246Y371865D01*
X271500Y372174D01*
Y370000D01*
X271000D01*
Y369500D01*
X268826D01*
X269135Y368754D01*
X269562Y368327D01*
X269698Y368000D01*
X269562Y367673D01*
X269135Y367246D01*
X268826Y366500D01*
X271000D01*
Y366000D01*
X271500D01*
Y363826D01*
X272246Y364135D01*
X272865Y364754D01*
X273022Y365132D01*
X273522Y365032D01*
Y271209D01*
X273389Y271076D01*
X273100Y270378D01*
Y269622D01*
X273389Y268924D01*
X273924Y268389D01*
X274622Y268100D01*
X275378D01*
X276076Y268389D01*
X276611Y268924D01*
X276900Y269622D01*
Y270378D01*
X276611Y271076D01*
X276478Y271209D01*
Y298185D01*
X276978Y298379D01*
X277024Y298330D01*
Y298011D01*
X277313Y297313D01*
X277848Y296778D01*
X278546Y296489D01*
X279302D01*
X280000Y296778D01*
X280535Y297313D01*
X280824Y298011D01*
Y298767D01*
X280535Y299465D01*
X280000Y300000D01*
X279868Y300055D01*
Y439927D01*
X280368Y440261D01*
X280661Y440139D01*
X281417D01*
X282022Y440390D01*
X282522Y440181D01*
Y319209D01*
X282389Y319076D01*
X282100Y318378D01*
Y317622D01*
X282389Y316924D01*
X282924Y316389D01*
X283622Y316100D01*
X284378D01*
X285076Y316389D01*
X285597Y316910D01*
X285673Y316906D01*
X286097Y316790D01*
Y276284D01*
X285889Y276076D01*
X285600Y275378D01*
Y274622D01*
X285889Y273924D01*
X286424Y273389D01*
X287122Y273100D01*
X287878D01*
X288576Y273389D01*
X289111Y273924D01*
X289400Y274622D01*
Y275378D01*
X289111Y276076D01*
X289053Y276134D01*
Y353716D01*
X289261Y353924D01*
X289550Y354622D01*
Y355378D01*
X289261Y356076D01*
X288726Y356611D01*
X288028Y356900D01*
X287272D01*
X286574Y356611D01*
X286039Y356076D01*
X285978Y355929D01*
X285478Y356029D01*
Y365032D01*
X285978Y365132D01*
X286135Y364754D01*
X286754Y364135D01*
X287500Y363826D01*
Y366000D01*
X288000D01*
Y366500D01*
X290174D01*
X289865Y367246D01*
X289438Y367673D01*
X289302Y368000D01*
X289438Y368327D01*
X289865Y368754D01*
X290174Y369500D01*
X288000D01*
Y370000D01*
X287500D01*
Y372174D01*
X286754Y371865D01*
X286135Y371246D01*
X285978Y370868D01*
X285478Y370968D01*
Y491471D01*
X285978Y491571D01*
X286039Y491424D01*
X286522Y490941D01*
Y451209D01*
X286389Y451076D01*
X286100Y450378D01*
Y449622D01*
X286389Y448924D01*
X286924Y448389D01*
X287622Y448100D01*
X288378D01*
X289076Y448389D01*
X289611Y448924D01*
X289900Y449622D01*
Y450378D01*
X289611Y451076D01*
X289478Y451209D01*
Y491906D01*
X289473Y491935D01*
X289550Y492122D01*
Y492878D01*
X289261Y493576D01*
X288726Y494111D01*
X288028Y494400D01*
X287272D01*
X286574Y494111D01*
X286039Y493576D01*
X285978Y493429D01*
X285478Y493529D01*
Y552791D01*
X285611Y552924D01*
X285900Y553622D01*
Y554378D01*
X285611Y555076D01*
X285076Y555611D01*
X284378Y555900D01*
X283622D01*
X282924Y555611D01*
X282389Y555076D01*
X282100Y554378D01*
Y553622D01*
X282389Y552924D01*
X282522Y552791D01*
Y486858D01*
X282022Y486650D01*
X281417Y486900D01*
X280661D01*
X280368Y486778D01*
X279868Y487113D01*
Y562715D01*
X280000Y562848D01*
X280289Y563546D01*
Y564302D01*
X280000Y565000D01*
X279466Y565534D01*
X278767Y565824D01*
X278011D01*
X277313Y565534D01*
X276779Y565000D01*
X276489Y564302D01*
Y563546D01*
X276779Y562848D01*
X276911Y562715D01*
Y523633D01*
X276411Y523426D01*
X276226Y523611D01*
X275528Y523900D01*
X274772D01*
X274478Y523778D01*
X273978Y524113D01*
Y596291D01*
X274111Y596424D01*
X274400Y597122D01*
Y597878D01*
X274111Y598576D01*
X273576Y599111D01*
X272878Y599400D01*
D02*
G37*
G36*
X247574Y453054D02*
X241450D01*
Y445946D01*
X247574D01*
Y448022D01*
X251866D01*
X251998Y447889D01*
X252697Y447600D01*
X253453D01*
X254151Y447889D01*
X254685Y448424D01*
X254975Y449122D01*
Y449878D01*
X254685Y450576D01*
X254151Y451111D01*
X253453Y451400D01*
X252697D01*
X251998Y451111D01*
X251866Y450978D01*
X247574D01*
Y453054D01*
D02*
G37*
G36*
X355860Y488165D02*
X355104D01*
X354406Y487876D01*
X353871Y487341D01*
X353582Y486643D01*
Y485887D01*
X353871Y485189D01*
X354004Y485056D01*
Y467602D01*
X353955Y467553D01*
X353634Y467073D01*
X353522Y466507D01*
Y448709D01*
X353389Y448576D01*
X353100Y447878D01*
Y447122D01*
X353389Y446424D01*
X353924Y445889D01*
X354622Y445600D01*
X355378D01*
X356076Y445889D01*
X356611Y446424D01*
X356900Y447122D01*
Y447878D01*
X356611Y448576D01*
X356478Y448709D01*
Y465895D01*
X356527Y465944D01*
X356848Y466424D01*
X356960Y466990D01*
Y485056D01*
X357093Y485189D01*
X357382Y485887D01*
Y486643D01*
X357093Y487341D01*
X356558Y487876D01*
X355860Y488165D01*
D02*
G37*
G36*
X370378Y460900D02*
X369622D01*
X368924Y460611D01*
X368389Y460076D01*
X368100Y459378D01*
Y458622D01*
X368389Y457924D01*
X368522Y457791D01*
Y443709D01*
X368389Y443576D01*
X368100Y442878D01*
Y442122D01*
X368389Y441424D01*
X368924Y440889D01*
X369622Y440600D01*
X370378D01*
X371076Y440889D01*
X371611Y441424D01*
X371900Y442122D01*
Y442878D01*
X371611Y443576D01*
X371478Y443709D01*
Y457791D01*
X371611Y457924D01*
X371900Y458622D01*
Y459378D01*
X371611Y460076D01*
X371076Y460611D01*
X370378Y460900D01*
D02*
G37*
G36*
X470500Y439674D02*
Y438000D01*
X472174D01*
X471865Y438746D01*
X471246Y439365D01*
X470500Y439674D01*
D02*
G37*
G36*
X469500D02*
X468754Y439365D01*
X468135Y438746D01*
X467826Y438000D01*
X469500D01*
Y439674D01*
D02*
G37*
G36*
X257878Y459400D02*
X257122D01*
X256424Y459111D01*
X255889Y458576D01*
X255600Y457878D01*
Y457122D01*
X255889Y456424D01*
X256022Y456291D01*
Y438709D01*
X255889Y438576D01*
X255600Y437878D01*
Y437122D01*
X255889Y436424D01*
X256424Y435889D01*
X257122Y435600D01*
X257878D01*
X258576Y435889D01*
X259111Y436424D01*
X259400Y437122D01*
Y437878D01*
X259111Y438576D01*
X258978Y438709D01*
Y456291D01*
X259111Y456424D01*
X259400Y457122D01*
Y457878D01*
X259111Y458576D01*
X258576Y459111D01*
X257878Y459400D01*
D02*
G37*
G36*
X472174Y437000D02*
X470500D01*
Y435326D01*
X471246Y435635D01*
X471865Y436254D01*
X472174Y437000D01*
D02*
G37*
G36*
X469500D02*
X467826D01*
X468135Y436254D01*
X468754Y435635D01*
X469500Y435326D01*
Y437000D01*
D02*
G37*
G36*
X197378Y445900D02*
X196622D01*
X195924Y445611D01*
X195389Y445076D01*
X195100Y444378D01*
Y443622D01*
X195389Y442924D01*
X195522Y442791D01*
Y435209D01*
X195389Y435076D01*
X195100Y434378D01*
Y433622D01*
X195389Y432924D01*
X195924Y432389D01*
X196622Y432100D01*
X197378D01*
X198076Y432389D01*
X198611Y432924D01*
X198900Y433622D01*
Y434378D01*
X198611Y435076D01*
X198478Y435209D01*
Y442791D01*
X198611Y442924D01*
X198900Y443622D01*
Y444378D01*
X198611Y445076D01*
X198076Y445611D01*
X197378Y445900D01*
D02*
G37*
G36*
X119330Y433184D02*
X114552D01*
Y426816D01*
X115463D01*
Y424058D01*
X115222Y423478D01*
Y422722D01*
X115511Y422024D01*
X116046Y421489D01*
X116744Y421200D01*
X117500D01*
X118198Y421489D01*
X118733Y422024D01*
X119022Y422722D01*
Y423478D01*
X118733Y424176D01*
X118419Y424490D01*
Y426816D01*
X119330D01*
Y433184D01*
D02*
G37*
G36*
X193378Y448900D02*
X192622D01*
X191924Y448611D01*
X191389Y448076D01*
X191100Y447378D01*
Y446622D01*
X191389Y445924D01*
X191522Y445791D01*
Y416499D01*
X189521D01*
Y410375D01*
X196629D01*
Y416499D01*
X194478D01*
Y445791D01*
X194611Y445924D01*
X194900Y446622D01*
Y447378D01*
X194611Y448076D01*
X194076Y448611D01*
X193378Y448900D01*
D02*
G37*
G36*
X485677Y410007D02*
Y406957D01*
X488728D01*
X488494Y407830D01*
X488025Y408642D01*
X487362Y409305D01*
X486551Y409773D01*
X485677Y410007D01*
D02*
G37*
G36*
X189129Y423625D02*
X182020D01*
Y417501D01*
X184096D01*
Y403501D01*
X183596Y403349D01*
X183545Y403426D01*
X182932Y404039D01*
X182849Y404455D01*
X182684Y404703D01*
Y408813D01*
X175575D01*
Y402689D01*
X180213D01*
X180438Y402352D01*
X181022Y401768D01*
Y356209D01*
X180889Y356076D01*
X180600Y355378D01*
Y354622D01*
X180889Y353924D01*
X181424Y353389D01*
X182122Y353100D01*
X182878D01*
X183576Y353389D01*
X184111Y353924D01*
X184400Y354622D01*
Y355378D01*
X184111Y356076D01*
X183978Y356209D01*
Y398305D01*
X184478Y398456D01*
X184529Y398380D01*
X185600Y397309D01*
Y397122D01*
X185889Y396424D01*
X186424Y395889D01*
X187122Y395600D01*
X187878D01*
X188576Y395889D01*
X189111Y396424D01*
X189400Y397122D01*
Y397878D01*
X189111Y398576D01*
X188576Y399111D01*
X187878Y399400D01*
X187691D01*
X187053Y400038D01*
Y417501D01*
X189129D01*
Y423625D01*
D02*
G37*
G36*
X267878Y651900D02*
X267122D01*
X266424Y651611D01*
X265889Y651076D01*
X265600Y650378D01*
Y649622D01*
X265889Y648924D01*
X266022Y648791D01*
Y406209D01*
X265889Y406076D01*
X265600Y405378D01*
Y404622D01*
X265889Y403924D01*
X266424Y403389D01*
X267122Y403100D01*
X267878D01*
X268576Y403389D01*
X269111Y403924D01*
X269400Y404622D01*
Y405378D01*
X269111Y406076D01*
X268978Y406209D01*
Y648791D01*
X269111Y648924D01*
X269400Y649622D01*
Y650378D01*
X269111Y651076D01*
X268576Y651611D01*
X267878Y651900D01*
D02*
G37*
G36*
X488728Y405957D02*
X485677D01*
Y402906D01*
X486551Y403140D01*
X487362Y403609D01*
X488025Y404271D01*
X488494Y405083D01*
X488728Y405957D01*
D02*
G37*
G36*
X447500Y445714D02*
X435000D01*
X434727Y445659D01*
X434495Y445505D01*
X434341Y445273D01*
X434286Y445000D01*
Y420714D01*
X407500D01*
X407227Y420659D01*
X406995Y420505D01*
X406841Y420273D01*
X406786Y420000D01*
Y280000D01*
X406841Y279727D01*
X406995Y279495D01*
X407227Y279341D01*
X407500Y279286D01*
X420000D01*
X420273Y279341D01*
X420505Y279495D01*
X420659Y279727D01*
X420714Y280000D01*
Y400286D01*
X426547D01*
X426632Y392702D01*
X426133Y392600D01*
X425865Y393246D01*
X425246Y393865D01*
X424500Y394174D01*
Y392000D01*
Y389826D01*
X425246Y390135D01*
X425865Y390754D01*
X426146Y391432D01*
X426647Y391335D01*
X428039Y266449D01*
X428067Y266316D01*
X428094Y266184D01*
X428096Y266180D01*
X428097Y266176D01*
X428173Y266065D01*
X428248Y265952D01*
X428252Y265950D01*
X428254Y265946D01*
X428367Y265873D01*
X428480Y265797D01*
X428484Y265796D01*
X428487Y265794D01*
X428620Y265769D01*
X428753Y265743D01*
X445286D01*
Y236650D01*
X445341Y236377D01*
X445495Y236145D01*
X445727Y235990D01*
X446000Y235936D01*
X446150D01*
Y229064D01*
X446000D01*
X445727Y229010D01*
X445495Y228855D01*
X445341Y228624D01*
X445286Y228350D01*
Y227000D01*
X445341Y226727D01*
X445495Y226495D01*
X445727Y226341D01*
X446000Y226286D01*
X457000D01*
X457273Y226341D01*
X457505Y226495D01*
X457659Y226727D01*
X457714Y227000D01*
Y265743D01*
X482303D01*
X482576Y265797D01*
X482808Y265952D01*
X482963Y266184D01*
X483017Y266457D01*
Y272221D01*
X483450Y272471D01*
X483803Y272267D01*
X484677Y272033D01*
Y275584D01*
Y279134D01*
X483803Y278900D01*
X483450Y278696D01*
X483017Y278946D01*
Y293297D01*
X483450Y293547D01*
X483541Y293495D01*
X484415Y293260D01*
Y296811D01*
Y300362D01*
X483541Y300128D01*
X483450Y300075D01*
X483017Y300325D01*
Y314627D01*
X483450Y314877D01*
X483803Y314673D01*
X484677Y314439D01*
Y317989D01*
Y321540D01*
X483803Y321306D01*
X483450Y321101D01*
X483017Y321352D01*
Y335594D01*
X483450Y335844D01*
X483803Y335640D01*
X484677Y335406D01*
Y338957D01*
Y342507D01*
X483803Y342273D01*
X483450Y342069D01*
X483017Y342319D01*
Y359312D01*
X483479Y359503D01*
X483575Y359407D01*
X484387Y358938D01*
X485260Y358704D01*
Y362255D01*
Y365805D01*
X484387Y365571D01*
X483575Y365103D01*
X483479Y365006D01*
X483017Y365198D01*
Y381112D01*
X483450Y381362D01*
X483803Y381158D01*
X484677Y380924D01*
Y384474D01*
Y388025D01*
X483803Y387791D01*
X483450Y387587D01*
X483017Y387837D01*
Y403094D01*
X483450Y403344D01*
X483803Y403140D01*
X484677Y402906D01*
Y406457D01*
Y410007D01*
X483803Y409773D01*
X483450Y409569D01*
X483017Y409819D01*
Y420000D01*
X482963Y420273D01*
X482808Y420505D01*
X482576Y420659D01*
X482303Y420714D01*
X448214D01*
Y433497D01*
X448650Y433650D01*
X448714Y433650D01*
X456350D01*
Y441350D01*
X448714D01*
X448650Y441350D01*
X448214Y441503D01*
Y445000D01*
X448159Y445273D01*
X448005Y445505D01*
X447773Y445659D01*
X447500Y445714D01*
D02*
G37*
G36*
X423500Y394174D02*
X422754Y393865D01*
X422135Y393246D01*
X421826Y392500D01*
X423500D01*
Y394174D01*
D02*
G37*
G36*
Y391500D02*
X421826D01*
X422135Y390754D01*
X422754Y390135D01*
X423500Y389826D01*
Y391500D01*
D02*
G37*
G36*
X485677Y388025D02*
Y384974D01*
X488728D01*
X488494Y385848D01*
X488025Y386660D01*
X487362Y387322D01*
X486551Y387791D01*
X485677Y388025D01*
D02*
G37*
G36*
X488728Y383974D02*
X485677D01*
Y380924D01*
X486551Y381158D01*
X487362Y381626D01*
X488025Y382289D01*
X488494Y383101D01*
X488728Y383974D01*
D02*
G37*
G36*
X424122Y372274D02*
Y370600D01*
X425796D01*
X425487Y371346D01*
X424868Y371965D01*
X424122Y372274D01*
D02*
G37*
G36*
X423122D02*
X422376Y371965D01*
X421757Y371346D01*
X421448Y370600D01*
X423122D01*
Y372274D01*
D02*
G37*
G36*
X288500Y372174D02*
Y370500D01*
X290174D01*
X289865Y371246D01*
X289246Y371865D01*
X288500Y372174D01*
D02*
G37*
G36*
X270500D02*
X269754Y371865D01*
X269135Y371246D01*
X268826Y370500D01*
X270500D01*
Y372174D01*
D02*
G37*
G36*
X425796Y369600D02*
X424122D01*
Y367926D01*
X424868Y368235D01*
X425487Y368854D01*
X425796Y369600D01*
D02*
G37*
G36*
X423122D02*
X421448D01*
X421757Y368854D01*
X422376Y368235D01*
X423122Y367926D01*
Y369600D01*
D02*
G37*
G36*
X119000Y367714D02*
X117657D01*
X117384Y367659D01*
X117152Y367505D01*
X116998Y367273D01*
X116946Y367149D01*
X116328Y366928D01*
X116235Y366982D01*
X115421Y367200D01*
X114579D01*
X113765Y366982D01*
X113672Y366928D01*
X113054Y367149D01*
X113003Y367273D01*
X112848Y367505D01*
X112616Y367659D01*
X112343Y367714D01*
X111000D01*
X110727Y367659D01*
X110495Y367505D01*
X110341Y367273D01*
X110286Y367000D01*
Y345000D01*
X110341Y344727D01*
X110495Y344495D01*
X110727Y344341D01*
X111000Y344286D01*
X119000D01*
X119273Y344341D01*
X119505Y344495D01*
X119659Y344727D01*
X119714Y345000D01*
Y367000D01*
X119659Y367273D01*
X119505Y367505D01*
X119273Y367659D01*
X119000Y367714D01*
D02*
G37*
G36*
X290174Y365500D02*
X288500D01*
Y363826D01*
X289246Y364135D01*
X289865Y364754D01*
X290174Y365500D01*
D02*
G37*
G36*
X270500D02*
X268826D01*
X269135Y364754D01*
X269754Y364135D01*
X270500Y363826D01*
Y365500D01*
D02*
G37*
G36*
X486260Y365805D02*
Y362755D01*
X489311D01*
X489077Y363628D01*
X488608Y364440D01*
X487946Y365103D01*
X487134Y365571D01*
X486260Y365805D01*
D02*
G37*
G36*
X196629Y408625D02*
X189521D01*
Y402501D01*
X191596D01*
Y364425D01*
X191709Y363859D01*
X192029Y363380D01*
X193100Y362309D01*
Y362122D01*
X193389Y361424D01*
X193924Y360889D01*
X194622Y360600D01*
X195378D01*
X196076Y360889D01*
X196611Y361424D01*
X196900Y362122D01*
Y362878D01*
X196611Y363576D01*
X196076Y364111D01*
X195378Y364400D01*
X195191D01*
X194553Y365038D01*
Y402501D01*
X196629D01*
Y408625D01*
D02*
G37*
G36*
X489311Y361755D02*
X486260D01*
Y358704D01*
X487134Y358938D01*
X487946Y359407D01*
X488608Y360069D01*
X489077Y360881D01*
X489311Y361755D01*
D02*
G37*
G36*
X424878Y349274D02*
Y347600D01*
X426552D01*
X426243Y348346D01*
X425624Y348965D01*
X424878Y349274D01*
D02*
G37*
G36*
X423878D02*
X423132Y348965D01*
X422513Y348346D01*
X422204Y347600D01*
X423878D01*
Y349274D01*
D02*
G37*
G36*
X426552Y346600D02*
X424878D01*
Y344926D01*
X425624Y345235D01*
X426243Y345854D01*
X426552Y346600D01*
D02*
G37*
G36*
X423878D02*
X422204D01*
X422513Y345854D01*
X423132Y345235D01*
X423878Y344926D01*
Y346600D01*
D02*
G37*
G36*
X485677Y342507D02*
Y339457D01*
X488728D01*
X488494Y340330D01*
X488025Y341142D01*
X487362Y341805D01*
X486551Y342273D01*
X485677Y342507D01*
D02*
G37*
G36*
X488728Y338457D02*
X485677D01*
Y335406D01*
X486551Y335640D01*
X487362Y336109D01*
X488025Y336771D01*
X488494Y337583D01*
X488728Y338457D01*
D02*
G37*
G36*
X292672Y546300D02*
X291916D01*
X291217Y546011D01*
X290683Y545476D01*
X290394Y544778D01*
Y544022D01*
X290683Y543324D01*
X290918Y543088D01*
Y336105D01*
X290889Y336076D01*
X290600Y335378D01*
Y334622D01*
X290889Y333924D01*
X291424Y333389D01*
X292122Y333100D01*
X292878D01*
X293576Y333389D01*
X294111Y333924D01*
X294400Y334622D01*
Y335378D01*
X294111Y336076D01*
X293875Y336312D01*
Y543295D01*
X293904Y543324D01*
X294194Y544022D01*
Y544778D01*
X293904Y545476D01*
X293370Y546011D01*
X292672Y546300D01*
D02*
G37*
G36*
X110500Y329489D02*
Y326500D01*
X113489D01*
X113261Y327351D01*
X112801Y328149D01*
X112149Y328801D01*
X111351Y329261D01*
X110500Y329489D01*
D02*
G37*
G36*
X109500D02*
X108649Y329261D01*
X107851Y328801D01*
X107199Y328149D01*
X106738Y327351D01*
X106510Y326500D01*
X109500D01*
Y329489D01*
D02*
G37*
G36*
X424878Y327274D02*
Y325600D01*
X426552D01*
X426243Y326346D01*
X425624Y326965D01*
X424878Y327274D01*
D02*
G37*
G36*
X423878D02*
X423132Y326965D01*
X422513Y326346D01*
X422204Y325600D01*
X423878D01*
Y327274D01*
D02*
G37*
G36*
X164500Y326174D02*
Y324500D01*
X166174D01*
X165865Y325246D01*
X165246Y325865D01*
X164500Y326174D01*
D02*
G37*
G36*
X426552Y324600D02*
X424878D01*
Y322926D01*
X425624Y323235D01*
X426243Y323854D01*
X426552Y324600D01*
D02*
G37*
G36*
X423878D02*
X422204D01*
X422513Y323854D01*
X423132Y323235D01*
X423878Y322926D01*
Y324600D01*
D02*
G37*
G36*
X113489Y325500D02*
X110500D01*
Y322511D01*
X111351Y322739D01*
X112149Y323199D01*
X112801Y323851D01*
X113261Y324649D01*
X113489Y325500D01*
D02*
G37*
G36*
X109500D02*
X106510D01*
X106738Y324649D01*
X107199Y323851D01*
X107851Y323199D01*
X108649Y322739D01*
X109500Y322511D01*
Y325500D01*
D02*
G37*
G36*
X166174Y323500D02*
X164500D01*
Y321826D01*
X165246Y322135D01*
X165865Y322754D01*
X166174Y323500D01*
D02*
G37*
G36*
X156343Y367714D02*
X155000D01*
X154727Y367659D01*
X154495Y367505D01*
X154341Y367273D01*
X154286Y367000D01*
Y299000D01*
X154341Y298727D01*
X154495Y298495D01*
X154727Y298341D01*
X155000Y298286D01*
X162000D01*
X162273Y298341D01*
X162505Y298495D01*
X162659Y298727D01*
X162714Y299000D01*
Y300343D01*
X162659Y300616D01*
X162505Y300848D01*
X162273Y301003D01*
X162149Y301054D01*
X161928Y301672D01*
X161982Y301765D01*
X162200Y302579D01*
Y303421D01*
X161982Y304235D01*
X161928Y304328D01*
X162149Y304946D01*
X162273Y304997D01*
X162505Y305152D01*
X162659Y305384D01*
X162714Y305657D01*
Y321610D01*
X163214Y321944D01*
X163500Y321826D01*
Y324000D01*
Y326174D01*
X163214Y326056D01*
X162714Y326390D01*
Y361343D01*
X162659Y361616D01*
X162505Y361848D01*
X162273Y362002D01*
X162149Y362054D01*
X161928Y362672D01*
X161982Y362765D01*
X162200Y363579D01*
Y364421D01*
X161982Y365235D01*
X161561Y365965D01*
X160965Y366561D01*
X160235Y366982D01*
X159421Y367200D01*
X158579D01*
X157765Y366982D01*
X157672Y366928D01*
X157054Y367149D01*
X157002Y367273D01*
X156848Y367505D01*
X156616Y367659D01*
X156343Y367714D01*
D02*
G37*
G36*
X485677Y321540D02*
Y318489D01*
X488728D01*
X488494Y319363D01*
X488025Y320174D01*
X487362Y320837D01*
X486551Y321306D01*
X485677Y321540D01*
D02*
G37*
G36*
X488728Y317489D02*
X485677D01*
Y314439D01*
X486551Y314673D01*
X487362Y315141D01*
X488025Y315804D01*
X488494Y316615D01*
X488728Y317489D01*
D02*
G37*
G36*
X141669Y314774D02*
Y311784D01*
X144659D01*
X144431Y312635D01*
X143970Y313433D01*
X143318Y314085D01*
X142520Y314546D01*
X141669Y314774D01*
D02*
G37*
G36*
X140669D02*
X139818Y314546D01*
X139020Y314085D01*
X138368Y313433D01*
X137908Y312635D01*
X137680Y311784D01*
X140669D01*
Y314774D01*
D02*
G37*
G36*
X144659Y310784D02*
X141669D01*
Y307795D01*
X142520Y308023D01*
X143318Y308483D01*
X143970Y309135D01*
X144431Y309933D01*
X144659Y310784D01*
D02*
G37*
G36*
X140669D02*
X137680D01*
X137908Y309933D01*
X138368Y309135D01*
X139020Y308483D01*
X139818Y308023D01*
X140669Y307795D01*
Y310784D01*
D02*
G37*
G36*
X424878Y305274D02*
Y303600D01*
X426552D01*
X426243Y304346D01*
X425624Y304965D01*
X424878Y305274D01*
D02*
G37*
G36*
X423878D02*
X423132Y304965D01*
X422513Y304346D01*
X422204Y303600D01*
X423878D01*
Y305274D01*
D02*
G37*
G36*
X426552Y302600D02*
X424878D01*
Y300926D01*
X425624Y301235D01*
X426243Y301854D01*
X426552Y302600D01*
D02*
G37*
G36*
X423878D02*
X422204D01*
X422513Y301854D01*
X423132Y301235D01*
X423878Y300926D01*
Y302600D01*
D02*
G37*
G36*
X485415Y300362D02*
Y297311D01*
X488465D01*
X488231Y298185D01*
X487763Y298996D01*
X487100Y299659D01*
X486288Y300128D01*
X485415Y300362D01*
D02*
G37*
G36*
X488465Y296311D02*
X485415D01*
Y293260D01*
X486288Y293495D01*
X487100Y293963D01*
X487763Y294626D01*
X488231Y295437D01*
X488465Y296311D01*
D02*
G37*
G36*
X179000Y308714D02*
X172000D01*
X171727Y308659D01*
X171495Y308505D01*
X171341Y308273D01*
X171286Y308000D01*
Y305657D01*
X171341Y305384D01*
X171495Y305152D01*
X171727Y304997D01*
X171851Y304946D01*
X172072Y304328D01*
X172018Y304235D01*
X171800Y303421D01*
Y302579D01*
X172018Y301765D01*
X172072Y301672D01*
X171851Y301054D01*
X171727Y301003D01*
X171495Y300848D01*
X171341Y300616D01*
X171286Y300343D01*
Y290308D01*
X170853Y290166D01*
X170786Y290163D01*
X170149Y290801D01*
X169351Y291262D01*
X168500Y291490D01*
Y288000D01*
Y284510D01*
X169351Y284738D01*
X170149Y285199D01*
X170786Y285837D01*
X170853Y285834D01*
X171286Y285692D01*
Y265000D01*
X171341Y264727D01*
X171495Y264495D01*
X171727Y264341D01*
X172000Y264286D01*
X179000D01*
X179273Y264341D01*
X179505Y264495D01*
X179659Y264727D01*
X179714Y265000D01*
Y266343D01*
X179659Y266616D01*
X179505Y266848D01*
X179273Y267003D01*
X179149Y267054D01*
X178928Y267672D01*
X178982Y267765D01*
X179200Y268579D01*
Y269421D01*
X178982Y270235D01*
X178928Y270328D01*
X179149Y270946D01*
X179273Y270998D01*
X179505Y271152D01*
X179659Y271384D01*
X179714Y271657D01*
Y308000D01*
X179659Y308273D01*
X179505Y308505D01*
X179273Y308659D01*
X179000Y308714D01*
D02*
G37*
G36*
X167500Y291490D02*
X166649Y291262D01*
X165851Y290801D01*
X165199Y290149D01*
X164739Y289351D01*
X164511Y288500D01*
X167500D01*
Y291490D01*
D02*
G37*
G36*
X254378Y435900D02*
X253622D01*
X252924Y435611D01*
X252389Y435076D01*
X252100Y434378D01*
Y433622D01*
X252389Y432924D01*
X252522Y432791D01*
Y290209D01*
X252389Y290076D01*
X252100Y289378D01*
Y288622D01*
X252389Y287924D01*
X252924Y287389D01*
X253622Y287100D01*
X254378D01*
X255076Y287389D01*
X255611Y287924D01*
X255900Y288622D01*
Y289378D01*
X255611Y290076D01*
X255478Y290209D01*
Y432791D01*
X255611Y432924D01*
X255900Y433622D01*
Y434378D01*
X255611Y435076D01*
X255076Y435611D01*
X254378Y435900D01*
D02*
G37*
G36*
X167500Y287500D02*
X164511D01*
X164739Y286649D01*
X165199Y285851D01*
X165851Y285199D01*
X166649Y284738D01*
X167500Y284510D01*
Y287500D01*
D02*
G37*
G36*
X424122Y285274D02*
Y283600D01*
X425796D01*
X425487Y284346D01*
X424868Y284965D01*
X424122Y285274D01*
D02*
G37*
G36*
X423122D02*
X422376Y284965D01*
X421757Y284346D01*
X421448Y283600D01*
X423122D01*
Y285274D01*
D02*
G37*
G36*
X185606Y284159D02*
Y281169D01*
X188596D01*
X188368Y282020D01*
X187907Y282818D01*
X187255Y283470D01*
X186457Y283931D01*
X185606Y284159D01*
D02*
G37*
G36*
X184606D02*
X183755Y283931D01*
X182957Y283470D01*
X182306Y282818D01*
X181845Y282020D01*
X181617Y281169D01*
X184606D01*
Y284159D01*
D02*
G37*
G36*
X425796Y282600D02*
X424122D01*
Y280926D01*
X424868Y281235D01*
X425487Y281854D01*
X425796Y282600D01*
D02*
G37*
G36*
X423122D02*
X421448D01*
X421757Y281854D01*
X422376Y281235D01*
X423122Y280926D01*
Y282600D01*
D02*
G37*
G36*
X188596Y280169D02*
X185606D01*
Y277180D01*
X186457Y277408D01*
X187255Y277869D01*
X187907Y278520D01*
X188368Y279318D01*
X188596Y280169D01*
D02*
G37*
G36*
X184606D02*
X181617D01*
X181845Y279318D01*
X182306Y278520D01*
X182957Y277869D01*
X183755Y277408D01*
X184606Y277180D01*
Y280169D01*
D02*
G37*
G36*
X485677Y279134D02*
Y276084D01*
X488728D01*
X488494Y276958D01*
X488025Y277769D01*
X487362Y278432D01*
X486551Y278900D01*
X485677Y279134D01*
D02*
G37*
G36*
X488728Y275084D02*
X485677D01*
Y272033D01*
X486551Y272267D01*
X487362Y272736D01*
X488025Y273398D01*
X488494Y274210D01*
X488728Y275084D01*
D02*
G37*
G36*
X416500Y272174D02*
Y270500D01*
X418174D01*
X417865Y271246D01*
X417246Y271865D01*
X416500Y272174D01*
D02*
G37*
G36*
X415500D02*
X414754Y271865D01*
X414135Y271246D01*
X413826Y270500D01*
X415500D01*
Y272174D01*
D02*
G37*
G36*
X418174Y269500D02*
X416500D01*
Y267826D01*
X417246Y268135D01*
X417865Y268754D01*
X418174Y269500D01*
D02*
G37*
G36*
X415500D02*
X413826D01*
X414135Y268754D01*
X414754Y268135D01*
X415500Y267826D01*
Y269500D01*
D02*
G37*
G36*
X236500Y263490D02*
Y260500D01*
X239490D01*
X239262Y261351D01*
X238801Y262149D01*
X238149Y262801D01*
X237351Y263262D01*
X236500Y263490D01*
D02*
G37*
G36*
X235500D02*
X234649Y263262D01*
X233851Y262801D01*
X233199Y262149D01*
X232738Y261351D01*
X232510Y260500D01*
X235500D01*
Y263490D01*
D02*
G37*
G36*
X239490Y259500D02*
X236500D01*
Y256510D01*
X237351Y256738D01*
X238149Y257199D01*
X238801Y257851D01*
X239262Y258649D01*
X239490Y259500D01*
D02*
G37*
G36*
X235500D02*
X232510D01*
X232738Y258649D01*
X233199Y257851D01*
X233851Y257199D01*
X234649Y256738D01*
X235500Y256510D01*
Y259500D01*
D02*
G37*
G36*
X404000Y454714D02*
X389000D01*
X388727Y454659D01*
X388495Y454505D01*
X388341Y454273D01*
X388286Y454000D01*
Y256000D01*
X388341Y255727D01*
X388495Y255495D01*
X388727Y255341D01*
X389000Y255286D01*
X404000D01*
X404273Y255341D01*
X404505Y255495D01*
X404659Y255727D01*
X404714Y256000D01*
Y454000D01*
X404659Y454273D01*
X404505Y454505D01*
X404273Y454659D01*
X404000Y454714D01*
D02*
G37*
G36*
X226500Y255489D02*
Y252500D01*
X229489D01*
X229261Y253351D01*
X228801Y254149D01*
X228149Y254801D01*
X227351Y255261D01*
X226500Y255489D01*
D02*
G37*
G36*
X225500D02*
X224649Y255261D01*
X223851Y254801D01*
X223199Y254149D01*
X222739Y253351D01*
X222511Y252500D01*
X225500D01*
Y255489D01*
D02*
G37*
G36*
X229489Y251500D02*
X226500D01*
Y248511D01*
X227351Y248739D01*
X228149Y249199D01*
X228801Y249851D01*
X229261Y250649D01*
X229489Y251500D01*
D02*
G37*
G36*
X225500D02*
X222511D01*
X222739Y250649D01*
X223199Y249851D01*
X223851Y249199D01*
X224649Y248739D01*
X225500Y248511D01*
Y251500D01*
D02*
G37*
G36*
X131280Y252934D02*
X130500D01*
Y245500D01*
X133604D01*
Y250610D01*
X133427Y251500D01*
X132923Y252254D01*
X132169Y252758D01*
X131280Y252934D01*
D02*
G37*
G36*
X129500D02*
X128720D01*
X127831Y252758D01*
X127077Y252254D01*
X126573Y251500D01*
X126396Y250610D01*
Y245500D01*
X129500D01*
Y252934D01*
D02*
G37*
G36*
X474500Y244174D02*
Y242500D01*
X476174D01*
X475865Y243246D01*
X475246Y243865D01*
X474500Y244174D01*
D02*
G37*
G36*
X473500D02*
X472754Y243865D01*
X472135Y243246D01*
X471826Y242500D01*
X473500D01*
Y244174D01*
D02*
G37*
G36*
X360378Y439400D02*
X359622D01*
X358924Y439111D01*
X358389Y438576D01*
X358100Y437878D01*
Y437122D01*
X358389Y436424D01*
X358522Y436291D01*
Y242506D01*
X358022Y242423D01*
X357364Y243080D01*
X356486Y243587D01*
X355507Y243850D01*
X354493D01*
X353514Y243587D01*
X352636Y243080D01*
X351978Y242423D01*
X351478Y242506D01*
Y396291D01*
X351611Y396424D01*
X351900Y397122D01*
Y397878D01*
X351611Y398576D01*
X351076Y399111D01*
X350378Y399400D01*
X349622D01*
X348924Y399111D01*
X348389Y398576D01*
X348100Y397878D01*
Y397122D01*
X348389Y396424D01*
X348522Y396291D01*
Y196209D01*
X348389Y196076D01*
X348100Y195378D01*
Y194622D01*
X348389Y193924D01*
X348924Y193389D01*
X349622Y193100D01*
X350378D01*
X351076Y193389D01*
X351611Y193924D01*
X351900Y194622D01*
Y194809D01*
X371112Y214022D01*
X395925D01*
X396364Y213728D01*
X397098Y213582D01*
X400445D01*
X401179Y213728D01*
X401801Y214144D01*
X402217Y214766D01*
X402363Y215500D01*
X402217Y216234D01*
X402206Y216250D01*
X402436Y216739D01*
X402769Y216793D01*
X403165Y216471D01*
Y213500D01*
X409000D01*
Y220693D01*
X403165D01*
Y220286D01*
X402726Y219980D01*
X402357Y220139D01*
X402331Y220339D01*
X402363Y220500D01*
X402331Y220660D01*
X402392Y221139D01*
X402892Y221290D01*
X402923Y221307D01*
X402958Y221314D01*
X403045Y221372D01*
X403138Y221422D01*
X403160Y221449D01*
X403190Y221469D01*
X403248Y221556D01*
X403314Y221637D01*
X403325Y221671D01*
X403344Y221700D01*
X403365Y221803D01*
X403395Y221903D01*
X403392Y221939D01*
X403399Y221973D01*
Y225661D01*
X403344Y225935D01*
X403190Y226166D01*
X402958Y226321D01*
X402685Y226375D01*
X389122D01*
X388849Y226321D01*
X388617Y226166D01*
X388463Y225935D01*
X388408Y225661D01*
Y224620D01*
X388432Y224503D01*
X388448Y224385D01*
X388459Y224367D01*
X388463Y224347D01*
X388529Y224248D01*
X388590Y224145D01*
X388606Y224132D01*
X388617Y224115D01*
X388668Y224082D01*
X388718Y223998D01*
X388725Y223977D01*
X388760Y223656D01*
X388730Y223462D01*
X388327Y223059D01*
X387906Y222330D01*
X387688Y221516D01*
Y220673D01*
X387906Y219860D01*
X388327Y219130D01*
X388923Y218534D01*
X389653Y218113D01*
X390466Y217895D01*
X391309D01*
X391547Y217958D01*
X391604Y217956D01*
X391969Y217711D01*
X391999Y217416D01*
X391593Y216978D01*
X380243D01*
X379958Y217478D01*
X380174Y218000D01*
X375826D01*
X376042Y217478D01*
X375757Y216978D01*
X370500D01*
X369934Y216866D01*
X369455Y216545D01*
X351940Y199031D01*
X351478Y199223D01*
Y226150D01*
X358522D01*
Y221209D01*
X358389Y221076D01*
X358100Y220378D01*
Y219622D01*
X358389Y218924D01*
X358924Y218389D01*
X359622Y218100D01*
X360378D01*
X361076Y218389D01*
X361611Y218924D01*
X361900Y219622D01*
Y220378D01*
X361611Y221076D01*
X361478Y221209D01*
Y436291D01*
X361611Y436424D01*
X361900Y437122D01*
Y437878D01*
X361611Y438576D01*
X361076Y439111D01*
X360378Y439400D01*
D02*
G37*
G36*
X476174Y241500D02*
X474500D01*
Y239826D01*
X475246Y240135D01*
X475865Y240754D01*
X476174Y241500D01*
D02*
G37*
G36*
X473500D02*
X471826D01*
X472135Y240754D01*
X472754Y240135D01*
X473500Y239826D01*
Y241500D01*
D02*
G37*
G36*
X133604Y244500D02*
X130500D01*
Y237066D01*
X131280D01*
X132169Y237243D01*
X132923Y237746D01*
X133427Y238500D01*
X133604Y239390D01*
Y244500D01*
D02*
G37*
G36*
X129500D02*
X126396D01*
Y239390D01*
X126573Y238500D01*
X127077Y237746D01*
X127831Y237243D01*
X128720Y237066D01*
X129500D01*
Y244500D01*
D02*
G37*
G36*
X155689Y253613D02*
X153130D01*
X152357Y253459D01*
X151703Y253022D01*
X151265Y252367D01*
X151112Y251594D01*
Y238405D01*
X151265Y237633D01*
X151703Y236978D01*
X152357Y236541D01*
X153130Y236387D01*
X155689D01*
X156461Y236541D01*
X157116Y236978D01*
X157554Y237633D01*
X157707Y238405D01*
Y251594D01*
X157554Y252367D01*
X157116Y253022D01*
X156461Y253459D01*
X155689Y253613D01*
D02*
G37*
G36*
X440507Y236350D02*
X439493D01*
X438514Y236087D01*
X437636Y235580D01*
X436919Y234864D01*
X436413Y233986D01*
X436150Y233007D01*
Y231993D01*
X436413Y231014D01*
X436919Y230136D01*
X437636Y229419D01*
X438514Y228913D01*
X439493Y228650D01*
X440507D01*
X441486Y228913D01*
X442364Y229419D01*
X443081Y230136D01*
X443587Y231014D01*
X443850Y231993D01*
Y233007D01*
X443587Y233986D01*
X443081Y234864D01*
X442364Y235580D01*
X441486Y236087D01*
X440507Y236350D01*
D02*
G37*
G36*
X147421Y230100D02*
X142311D01*
Y226996D01*
X149745D01*
Y227776D01*
X149568Y228665D01*
X149065Y229419D01*
X148311Y229923D01*
X147421Y230100D01*
D02*
G37*
G36*
X141311D02*
X136201D01*
X135311Y229923D01*
X134557Y229419D01*
X134054Y228665D01*
X133877Y227776D01*
Y226996D01*
X141311D01*
Y230100D01*
D02*
G37*
G36*
X130500Y228558D02*
Y226500D01*
X132558D01*
X132423Y227004D01*
X132080Y227596D01*
X131596Y228081D01*
X131004Y228423D01*
X130500Y228558D01*
D02*
G37*
G36*
X129500D02*
X128996Y228423D01*
X128404Y228081D01*
X127919Y227596D01*
X127577Y227004D01*
X127442Y226500D01*
X129500D01*
Y228558D01*
D02*
G37*
G36*
X201000Y274714D02*
X191000D01*
X190727Y274659D01*
X190495Y274505D01*
X190341Y274273D01*
X190286Y274000D01*
Y226000D01*
X190341Y225727D01*
X190495Y225495D01*
X190727Y225341D01*
X191000Y225286D01*
X201000D01*
X201273Y225341D01*
X201505Y225495D01*
X201659Y225727D01*
X201714Y226000D01*
Y274000D01*
X201659Y274273D01*
X201505Y274505D01*
X201273Y274659D01*
X201000Y274714D01*
D02*
G37*
G36*
X132558Y225500D02*
X130500D01*
Y223442D01*
X131004Y223577D01*
X131596Y223920D01*
X132080Y224404D01*
X132423Y224996D01*
X132558Y225500D01*
D02*
G37*
G36*
X129500D02*
X127442D01*
X127577Y224996D01*
X127919Y224404D01*
X128404Y223920D01*
X128996Y223577D01*
X129500Y223442D01*
Y225500D01*
D02*
G37*
G36*
X149745Y225996D02*
X142311D01*
Y222892D01*
X147421D01*
X148311Y223069D01*
X149065Y223573D01*
X149568Y224327D01*
X149745Y225217D01*
Y225996D01*
D02*
G37*
G36*
X141311D02*
X133877D01*
Y225217D01*
X134054Y224327D01*
X134557Y223573D01*
X135311Y223069D01*
X136201Y222892D01*
X141311D01*
Y225996D01*
D02*
G37*
G36*
X378500Y220674D02*
Y219000D01*
X380174D01*
X379865Y219746D01*
X379246Y220365D01*
X378500Y220674D01*
D02*
G37*
G36*
X377500D02*
X376754Y220365D01*
X376135Y219746D01*
X375826Y219000D01*
X377500D01*
Y220674D01*
D02*
G37*
G36*
X125500Y220174D02*
Y218500D01*
X127174D01*
X126865Y219246D01*
X126246Y219865D01*
X125500Y220174D01*
D02*
G37*
G36*
X124500D02*
X123754Y219865D01*
X123135Y219246D01*
X122826Y218500D01*
X124500D01*
Y220174D01*
D02*
G37*
G36*
X127174Y217500D02*
X125500D01*
Y215826D01*
X126246Y216135D01*
X126865Y216754D01*
X127174Y217500D01*
D02*
G37*
G36*
X124500D02*
X122826D01*
X123135Y216754D01*
X123754Y216135D01*
X124500Y215826D01*
Y217500D01*
D02*
G37*
G36*
X415835Y220693D02*
X410000D01*
Y213500D01*
X415835D01*
Y220693D01*
D02*
G37*
G36*
X289000Y266714D02*
X264000D01*
X263727Y266659D01*
X263495Y266505D01*
X263341Y266273D01*
X263286Y266000D01*
Y214000D01*
X263341Y213727D01*
X263495Y213495D01*
X263727Y213341D01*
X264000Y213286D01*
X274000D01*
X274273Y213341D01*
X274505Y213495D01*
X274659Y213727D01*
X274714Y214000D01*
Y254286D01*
X289000D01*
X289273Y254341D01*
X289505Y254495D01*
X289659Y254727D01*
X289714Y255000D01*
Y266000D01*
X289659Y266273D01*
X289505Y266505D01*
X289273Y266659D01*
X289000Y266714D01*
D02*
G37*
G36*
X419728Y212724D02*
X418555D01*
X417704Y212555D01*
X416983Y212072D01*
X416501Y211351D01*
X416431Y211000D01*
X419728D01*
Y212724D01*
D02*
G37*
G36*
X400445Y212418D02*
X397098D01*
X396364Y212272D01*
X395925Y211978D01*
X383000D01*
X382434Y211866D01*
X381955Y211545D01*
X367309Y196900D01*
X367122D01*
X366424Y196611D01*
X365889Y196076D01*
X365600Y195378D01*
Y194622D01*
X365889Y193924D01*
X366424Y193389D01*
X367122Y193100D01*
X367878D01*
X368576Y193389D01*
X369111Y193924D01*
X369400Y194622D01*
Y194809D01*
X383612Y209022D01*
X395925D01*
X396364Y208728D01*
X397098Y208582D01*
X400445D01*
X401179Y208728D01*
X401801Y209144D01*
X402217Y209766D01*
X402363Y210500D01*
X402217Y211234D01*
X401801Y211856D01*
X401179Y212272D01*
X400445Y212418D01*
D02*
G37*
G36*
X424026Y210000D02*
X420728D01*
Y208276D01*
X421902D01*
X422753Y208445D01*
X423474Y208927D01*
X423956Y209649D01*
X424026Y210000D01*
D02*
G37*
G36*
X419728D02*
X416431D01*
X416501Y209649D01*
X416983Y208927D01*
X417704Y208445D01*
X418555Y208276D01*
X419728D01*
Y210000D01*
D02*
G37*
G36*
X495000Y266714D02*
X486000D01*
X485727Y266659D01*
X485495Y266505D01*
X485341Y266273D01*
X485286Y266000D01*
Y220714D01*
X465000Y220714D01*
X464727Y220659D01*
X464495Y220505D01*
X452204Y208214D01*
X445700D01*
X445626Y208199D01*
X445482Y208735D01*
X445428Y208829D01*
X445649Y209447D01*
X445773Y209498D01*
X446004Y209653D01*
X446159Y209884D01*
X446213Y210157D01*
Y214843D01*
X446159Y215116D01*
X446004Y215347D01*
X445773Y215502D01*
X445649Y215553D01*
X445428Y216171D01*
X445482Y216265D01*
X445700Y217079D01*
Y217921D01*
X445482Y218735D01*
X445061Y219465D01*
X444465Y220061D01*
X443735Y220482D01*
X442921Y220700D01*
X442079D01*
X441265Y220482D01*
X440535Y220061D01*
X439939Y219465D01*
X439658Y218978D01*
X439467Y218888D01*
X439128Y218809D01*
X439037Y218827D01*
X438948Y218857D01*
X438901Y218854D01*
X438855Y218863D01*
X432128D01*
X431703Y219250D01*
Y220171D01*
X431694Y220217D01*
X431697Y220264D01*
X431667Y220352D01*
X431649Y220444D01*
X431623Y220483D01*
X431608Y220528D01*
X431546Y220598D01*
X431494Y220676D01*
X431455Y220702D01*
X431440Y220719D01*
X431382Y220807D01*
X431452Y221303D01*
X431601Y221389D01*
X432197Y221985D01*
X432618Y222714D01*
X432836Y223528D01*
Y224371D01*
X432618Y225184D01*
X432197Y225914D01*
X431601Y226510D01*
X430871Y226931D01*
X430057Y227149D01*
X429215D01*
X428401Y226931D01*
X428136Y226778D01*
X427506Y226992D01*
X427493Y227023D01*
X427338Y227255D01*
X427107Y227409D01*
X426834Y227464D01*
X417240D01*
X417165Y227449D01*
X417090Y227448D01*
X417030Y227422D01*
X416966Y227409D01*
X416903Y227367D01*
X416834Y227337D01*
X416789Y227291D01*
X416735Y227255D01*
X416693Y227192D01*
X416640Y227138D01*
X415637Y225586D01*
X415613Y225526D01*
X415577Y225472D01*
X415562Y225398D01*
X415534Y225328D01*
X415535Y225263D01*
X415523Y225199D01*
Y221856D01*
X415529Y221821D01*
X415526Y221786D01*
X415556Y221685D01*
X415577Y221583D01*
X415597Y221553D01*
X415607Y221519D01*
X415673Y221438D01*
X415732Y221351D01*
X415761Y221331D01*
X415784Y221304D01*
X415876Y221254D01*
X415963Y221196D01*
X415998Y221189D01*
X416029Y221173D01*
X416529Y221021D01*
X416626Y220649D01*
X416638Y220504D01*
X416637Y220500D01*
X416783Y219766D01*
X417199Y219144D01*
X417821Y218728D01*
X418555Y218582D01*
X421208D01*
X421223Y218578D01*
X421327Y218514D01*
X421601Y218082D01*
X421565Y217720D01*
X421173Y217430D01*
X421145Y217424D01*
X421092Y217418D01*
X418555D01*
X417821Y217272D01*
X417199Y216856D01*
X416783Y216234D01*
X416637Y215500D01*
X416783Y214766D01*
X417199Y214144D01*
X417821Y213728D01*
X418555Y213582D01*
X421902D01*
X421967Y213572D01*
X422203Y213497D01*
X422337Y213080D01*
X421995Y212705D01*
X421902Y212724D01*
X420728D01*
Y211000D01*
X424026D01*
X423956Y211351D01*
X423565Y211936D01*
X423741Y212382D01*
X423787Y212436D01*
X424786D01*
Y210649D01*
X424840Y210376D01*
X424995Y210145D01*
X426464Y208676D01*
X426273Y208214D01*
X423666D01*
X423626Y208206D01*
X423585Y208209D01*
X423490Y208179D01*
X423393Y208159D01*
X423359Y208137D01*
X423319Y208124D01*
X423244Y208060D01*
X423161Y208005D01*
X423138Y207971D01*
X423107Y207944D01*
X423062Y207856D01*
X423006Y207773D01*
X422998Y207733D01*
X422980Y207697D01*
X422967Y207652D01*
X422636Y207272D01*
X422382Y207322D01*
X421902Y207418D01*
X418555D01*
X417821Y207272D01*
X417199Y206856D01*
X416783Y206234D01*
X416637Y205500D01*
X416783Y204766D01*
X417199Y204144D01*
X417207Y203695D01*
X417083Y203605D01*
X417043Y203563D01*
X416995Y203531D01*
X416949Y203462D01*
X416893Y203401D01*
X416873Y203347D01*
X416841Y203299D01*
X416824Y203218D01*
X416795Y203141D01*
X416798Y203083D01*
X416786Y203026D01*
Y200000D01*
X416841Y199727D01*
X416995Y199495D01*
X417227Y199341D01*
X417500Y199286D01*
X485286D01*
Y175478D01*
X485159Y175408D01*
X484786Y175325D01*
X484246Y175865D01*
X483500Y176174D01*
Y174000D01*
Y171826D01*
X484246Y172135D01*
X484786Y172675D01*
X485159Y172592D01*
X485286Y172522D01*
Y158000D01*
X485341Y157727D01*
X485495Y157495D01*
X485727Y157341D01*
X486000Y157286D01*
X495000D01*
X495273Y157341D01*
X495505Y157495D01*
X495659Y157727D01*
X495714Y158000D01*
Y266000D01*
X495659Y266273D01*
X495505Y266505D01*
X495273Y266659D01*
X495000Y266714D01*
D02*
G37*
G36*
X415835Y212500D02*
X410000D01*
Y205307D01*
X415835D01*
Y212500D01*
D02*
G37*
G36*
X409000D02*
X403165D01*
Y205307D01*
X409000D01*
Y212500D01*
D02*
G37*
G36*
X190494Y213456D02*
X189270D01*
X188070Y213217D01*
X186940Y212749D01*
X185922Y212069D01*
X185057Y211204D01*
X184377Y210187D01*
X183909Y209056D01*
X183670Y207856D01*
Y206632D01*
X183909Y205432D01*
X184377Y204302D01*
X185057Y203284D01*
X185922Y202419D01*
X186940Y201739D01*
X188070Y201271D01*
X189270Y201032D01*
X190494D01*
X191694Y201271D01*
X192824Y201739D01*
X193842Y202419D01*
X194707Y203284D01*
X195387Y204302D01*
X195855Y205432D01*
X196094Y206632D01*
Y207856D01*
X195855Y209056D01*
X195387Y210187D01*
X194707Y211204D01*
X193842Y212069D01*
X192824Y212749D01*
X191694Y213217D01*
X190494Y213456D01*
D02*
G37*
G36*
X270705Y202763D02*
Y200705D01*
X272762D01*
X272628Y201208D01*
X272285Y201801D01*
X271801Y202285D01*
X271208Y202627D01*
X270705Y202763D01*
D02*
G37*
G36*
X269705D02*
X269201Y202627D01*
X268608Y202285D01*
X268124Y201801D01*
X267782Y201208D01*
X267647Y200705D01*
X269705D01*
Y202763D01*
D02*
G37*
G36*
X410500Y203489D02*
Y200500D01*
X413489D01*
X413262Y201351D01*
X412801Y202149D01*
X412149Y202801D01*
X411351Y203261D01*
X410500Y203489D01*
D02*
G37*
G36*
X409500D02*
X408649Y203261D01*
X407851Y202801D01*
X407199Y202149D01*
X406739Y201351D01*
X406510Y200500D01*
X409500D01*
Y203489D01*
D02*
G37*
G36*
X214077Y201554D02*
Y199496D01*
X216135D01*
X216000Y200000D01*
X215658Y200593D01*
X215174Y201077D01*
X214581Y201419D01*
X214077Y201554D01*
D02*
G37*
G36*
X213077D02*
X212574Y201419D01*
X211981Y201077D01*
X211497Y200593D01*
X211154Y200000D01*
X211019Y199496D01*
X213077D01*
Y201554D01*
D02*
G37*
G36*
X272762Y199705D02*
X270705D01*
Y197647D01*
X271208Y197782D01*
X271801Y198124D01*
X272285Y198608D01*
X272628Y199201D01*
X272762Y199705D01*
D02*
G37*
G36*
X269705D02*
X267647D01*
X267782Y199201D01*
X268124Y198608D01*
X268608Y198124D01*
X269201Y197782D01*
X269705Y197647D01*
Y199705D01*
D02*
G37*
G36*
X413489Y199500D02*
X410500D01*
Y196511D01*
X411351Y196739D01*
X412149Y197199D01*
X412801Y197851D01*
X413262Y198649D01*
X413489Y199500D01*
D02*
G37*
G36*
X409500D02*
X406510D01*
X406739Y198649D01*
X407199Y197851D01*
X407851Y197199D01*
X408649Y196739D01*
X409500Y196511D01*
Y199500D01*
D02*
G37*
G36*
X216135Y198496D02*
X214077D01*
Y196439D01*
X214581Y196574D01*
X215174Y196916D01*
X215658Y197400D01*
X216000Y197993D01*
X216135Y198496D01*
D02*
G37*
G36*
X213077D02*
X211019D01*
X211154Y197993D01*
X211497Y197400D01*
X211981Y196916D01*
X212574Y196574D01*
X213077Y196439D01*
Y198496D01*
D02*
G37*
G36*
X400445Y207418D02*
X397098D01*
X396364Y207272D01*
X395742Y206856D01*
X395326Y206234D01*
X395181Y205500D01*
X395326Y204766D01*
X395742Y204144D01*
X396364Y203728D01*
X396840Y203633D01*
X396815Y203133D01*
X396815D01*
X396815Y197898D01*
X396515Y197522D01*
X396515Y197403D01*
Y195044D01*
X400000D01*
X403484D01*
X403484Y197522D01*
X403185Y197898D01*
X403185Y198022D01*
Y203134D01*
X400753D01*
X400703Y203633D01*
X401179Y203728D01*
X401801Y204144D01*
X402217Y204766D01*
X402363Y205500D01*
X402217Y206234D01*
X401801Y206856D01*
X401179Y207272D01*
X400445Y207418D01*
D02*
G37*
G36*
X217500Y195558D02*
Y193500D01*
X219558D01*
X219423Y194004D01*
X219080Y194596D01*
X218596Y195080D01*
X218004Y195423D01*
X217500Y195558D01*
D02*
G37*
G36*
X216500D02*
X215996Y195423D01*
X215404Y195080D01*
X214919Y194596D01*
X214577Y194004D01*
X214442Y193500D01*
X216500D01*
Y195558D01*
D02*
G37*
G36*
X403484Y194044D02*
X400500D01*
Y191567D01*
X403484D01*
Y194044D01*
D02*
G37*
G36*
X399500D02*
X396515D01*
Y191567D01*
X399500D01*
Y194044D01*
D02*
G37*
G36*
X219558Y192500D02*
X217500D01*
Y190442D01*
X218004Y190577D01*
X218596Y190919D01*
X219080Y191404D01*
X219423Y191996D01*
X219558Y192500D01*
D02*
G37*
G36*
X216500D02*
X214442D01*
X214577Y191996D01*
X214919Y191404D01*
X215404Y190919D01*
X215996Y190577D01*
X216500Y190442D01*
Y192500D01*
D02*
G37*
G36*
X481743Y194243D02*
X473257D01*
Y185757D01*
X481743D01*
Y194243D01*
D02*
G37*
G36*
X234500Y186558D02*
Y184500D01*
X236558D01*
X236423Y185004D01*
X236081Y185596D01*
X235596Y186081D01*
X235004Y186423D01*
X234500Y186558D01*
D02*
G37*
G36*
X233500D02*
X232996Y186423D01*
X232404Y186081D01*
X231920Y185596D01*
X231577Y185004D01*
X231442Y184500D01*
X233500D01*
Y186558D01*
D02*
G37*
G36*
X190494Y194952D02*
X189270D01*
X188070Y194713D01*
X186940Y194245D01*
X185922Y193565D01*
X185057Y192700D01*
X184377Y191683D01*
X183909Y190552D01*
X183670Y189352D01*
Y188128D01*
X183909Y186928D01*
X184377Y185798D01*
X185057Y184780D01*
X185922Y183915D01*
X186940Y183235D01*
X188070Y182767D01*
X189270Y182528D01*
X190494D01*
X191694Y182767D01*
X192824Y183235D01*
X193842Y183915D01*
X194707Y184780D01*
X195387Y185798D01*
X195855Y186928D01*
X196094Y188128D01*
Y189352D01*
X195855Y190552D01*
X195387Y191683D01*
X194707Y192700D01*
X193842Y193565D01*
X192824Y194245D01*
X191694Y194713D01*
X190494Y194952D01*
D02*
G37*
G36*
X236558Y183500D02*
X234500D01*
Y181442D01*
X235004Y181577D01*
X235596Y181920D01*
X236081Y182404D01*
X236423Y182996D01*
X236558Y183500D01*
D02*
G37*
G36*
X233500D02*
X231442D01*
X231577Y182996D01*
X231920Y182404D01*
X232404Y181920D01*
X232996Y181577D01*
X233500Y181442D01*
Y183500D01*
D02*
G37*
G36*
X482500Y176174D02*
X481754Y175865D01*
X481135Y175246D01*
X480826Y174500D01*
X482500D01*
Y176174D01*
D02*
G37*
G36*
Y173500D02*
X480826D01*
X481135Y172754D01*
X481754Y172135D01*
X482500Y171826D01*
Y173500D01*
D02*
G37*
G36*
X370507Y173850D02*
X369493D01*
X368514Y173587D01*
X367636Y173080D01*
X366919Y172364D01*
X366413Y171486D01*
X366150Y170507D01*
Y169493D01*
X366413Y168514D01*
X366919Y167636D01*
X367636Y166920D01*
X368514Y166413D01*
X369493Y166150D01*
X370507D01*
X371486Y166413D01*
X372364Y166920D01*
X373080Y167636D01*
X373587Y168514D01*
X373850Y169493D01*
Y170507D01*
X373587Y171486D01*
X373080Y172364D01*
X372364Y173080D01*
X371486Y173587D01*
X370507Y173850D01*
D02*
G37*
G36*
X196094Y176448D02*
X183670D01*
Y164024D01*
X196094D01*
Y176448D01*
D02*
G37*
G36*
X277748Y161558D02*
Y159500D01*
X279806D01*
X279671Y160004D01*
X279328Y160596D01*
X278844Y161081D01*
X278252Y161423D01*
X277748Y161558D01*
D02*
G37*
G36*
X276748D02*
X276244Y161423D01*
X275652Y161081D01*
X275167Y160596D01*
X274825Y160004D01*
X274690Y159500D01*
X276748D01*
Y161558D01*
D02*
G37*
G36*
X453850Y166881D02*
X446150D01*
Y159182D01*
X453850D01*
Y166881D01*
D02*
G37*
G36*
X440507D02*
X439493D01*
X438514Y166619D01*
X437636Y166112D01*
X436919Y165395D01*
X436413Y164517D01*
X436150Y163538D01*
Y162525D01*
X436413Y161546D01*
X436919Y160668D01*
X437636Y159951D01*
X438514Y159444D01*
X439493Y159182D01*
X440507D01*
X441486Y159444D01*
X442364Y159951D01*
X443081Y160668D01*
X443587Y161546D01*
X443850Y162525D01*
Y163538D01*
X443587Y164517D01*
X443081Y165395D01*
X442364Y166112D01*
X441486Y166619D01*
X440507Y166881D01*
D02*
G37*
G36*
X142924Y179283D02*
X121839D01*
Y158198D01*
X142924D01*
Y179283D01*
D02*
G37*
G36*
X279806Y158500D02*
X277748D01*
Y156442D01*
X278252Y156577D01*
X278844Y156920D01*
X279328Y157404D01*
X279671Y157996D01*
X279806Y158500D01*
D02*
G37*
G36*
X276748D02*
X274690D01*
X274825Y157996D01*
X275167Y157404D01*
X275652Y156920D01*
X276244Y156577D01*
X276748Y156442D01*
Y158500D01*
D02*
G37*
G36*
X373850Y163850D02*
X366150D01*
Y156150D01*
X373850D01*
Y163850D01*
D02*
G37*
G36*
X157500Y152558D02*
Y150500D01*
X159558D01*
X159423Y151004D01*
X159081Y151596D01*
X158596Y152081D01*
X158004Y152423D01*
X157500Y152558D01*
D02*
G37*
G36*
X156500D02*
X155996Y152423D01*
X155404Y152081D01*
X154920Y151596D01*
X154577Y151004D01*
X154442Y150500D01*
X156500D01*
Y152558D01*
D02*
G37*
G36*
X345839Y150174D02*
Y148500D01*
X347513D01*
X347204Y149246D01*
X346585Y149865D01*
X345839Y150174D01*
D02*
G37*
G36*
X344839D02*
X344092Y149865D01*
X343474Y149246D01*
X343164Y148500D01*
X344839D01*
Y150174D01*
D02*
G37*
G36*
X159558Y149500D02*
X157500D01*
Y147442D01*
X158004Y147577D01*
X158596Y147919D01*
X159081Y148404D01*
X159423Y148996D01*
X159558Y149500D01*
D02*
G37*
G36*
X156500D02*
X154442D01*
X154577Y148996D01*
X154920Y148404D01*
X155404Y147919D01*
X155996Y147577D01*
X156500Y147442D01*
Y149500D01*
D02*
G37*
G36*
X347513Y147500D02*
X345839D01*
Y145826D01*
X346585Y146135D01*
X347204Y146754D01*
X347513Y147500D01*
D02*
G37*
G36*
X344839D02*
X343164D01*
X343474Y146754D01*
X344092Y146135D01*
X344839Y145826D01*
Y147500D01*
D02*
G37*
G36*
X402863Y155714D02*
X389300D01*
X389027Y155659D01*
X388795Y155505D01*
X388641Y155273D01*
X388586Y155000D01*
Y153576D01*
X388606Y153477D01*
X388615Y153376D01*
X388633Y153341D01*
X388641Y153303D01*
X388697Y153219D01*
X388744Y153129D01*
X388774Y153104D01*
X388795Y153071D01*
X388879Y153015D01*
X388898Y152959D01*
X388924Y152685D01*
X388891Y152416D01*
X388439Y151965D01*
X388018Y151235D01*
X387800Y150421D01*
Y149579D01*
X388018Y148765D01*
X388439Y148035D01*
X389035Y147439D01*
X389765Y147018D01*
X389913Y146978D01*
X389847Y146478D01*
X375000D01*
X374434Y146366D01*
X373955Y146045D01*
X352309Y124400D01*
X352122D01*
X351424Y124111D01*
X350889Y123576D01*
X350600Y122878D01*
Y122122D01*
X350889Y121424D01*
X351424Y120889D01*
X352122Y120600D01*
X352878D01*
X353576Y120889D01*
X354111Y121424D01*
X354400Y122122D01*
Y122309D01*
X375612Y143522D01*
X396425D01*
X396864Y143228D01*
X397598Y143082D01*
X400945D01*
X401679Y143228D01*
X402301Y143644D01*
X402717Y144266D01*
X402863Y145000D01*
X402717Y145734D01*
X402664Y145814D01*
X402963Y146265D01*
X403136Y146299D01*
X403165Y146319D01*
X403665Y146068D01*
Y143000D01*
X409500D01*
Y150193D01*
X403665D01*
Y149293D01*
X403214Y148891D01*
X403033Y148907D01*
X402729Y149327D01*
X402863Y150000D01*
X402717Y150734D01*
X403021Y151179D01*
X403140Y151230D01*
X403254Y151306D01*
X403368Y151382D01*
X403369Y151384D01*
X403371Y151386D01*
X403446Y151500D01*
X403522Y151614D01*
X403523Y151616D01*
X403524Y151618D01*
X403550Y151753D01*
X403577Y151887D01*
Y155000D01*
X403522Y155273D01*
X403368Y155505D01*
X403136Y155659D01*
X402863Y155714D01*
D02*
G37*
G36*
X420228Y142224D02*
X419055D01*
X418204Y142054D01*
X417483Y141572D01*
X417001Y140851D01*
X416931Y140500D01*
X420228D01*
Y142224D01*
D02*
G37*
G36*
X400945Y141918D02*
X397598D01*
X396864Y141772D01*
X396425Y141478D01*
X387500D01*
X386934Y141366D01*
X386455Y141045D01*
X369809Y124400D01*
X369622D01*
X368924Y124111D01*
X368389Y123576D01*
X368100Y122878D01*
Y122122D01*
X368389Y121424D01*
X368924Y120889D01*
X369622Y120600D01*
X370378D01*
X371076Y120889D01*
X371611Y121424D01*
X371900Y122122D01*
Y122309D01*
X388112Y138522D01*
X396425D01*
X396864Y138228D01*
X397598Y138082D01*
X400945D01*
X401679Y138228D01*
X402301Y138644D01*
X402717Y139266D01*
X402863Y140000D01*
X402717Y140734D01*
X402301Y141356D01*
X401679Y141772D01*
X400945Y141918D01*
D02*
G37*
G36*
X420228Y139500D02*
X416931D01*
X417001Y139149D01*
X417483Y138427D01*
X418204Y137945D01*
X419055Y137776D01*
X420228D01*
Y139500D01*
D02*
G37*
G36*
X416335Y142000D02*
X410500D01*
Y134807D01*
X416335D01*
Y142000D01*
D02*
G37*
G36*
X409500D02*
X403665D01*
Y134807D01*
X409500D01*
Y142000D01*
D02*
G37*
G36*
X410500Y133490D02*
Y130500D01*
X413489D01*
X413262Y131351D01*
X412801Y132149D01*
X412149Y132801D01*
X411351Y133262D01*
X410500Y133490D01*
D02*
G37*
G36*
X409500D02*
X408649Y133262D01*
X407851Y132801D01*
X407199Y132149D01*
X406739Y131351D01*
X406510Y130500D01*
X409500D01*
Y133490D01*
D02*
G37*
G36*
X133212Y150346D02*
X131552D01*
X129913Y150086D01*
X128335Y149573D01*
X126856Y148820D01*
X125514Y147845D01*
X124340Y146671D01*
X123365Y145329D01*
X122612Y143850D01*
X122099Y142272D01*
X121839Y140633D01*
Y138973D01*
X122099Y137334D01*
X122612Y135756D01*
X123365Y134278D01*
X124340Y132935D01*
X125514Y131762D01*
X126856Y130786D01*
X128335Y130033D01*
X129913Y129520D01*
X131552Y129261D01*
X133212D01*
X134851Y129520D01*
X136429Y130033D01*
X137907Y130786D01*
X139250Y131762D01*
X140423Y132935D01*
X141399Y134278D01*
X142152Y135756D01*
X142665Y137334D01*
X142924Y138973D01*
Y140633D01*
X142665Y142272D01*
X142152Y143850D01*
X141399Y145329D01*
X140423Y146671D01*
X139250Y147845D01*
X137907Y148820D01*
X136429Y149573D01*
X134851Y150086D01*
X133212Y150346D01*
D02*
G37*
G36*
X426898Y155714D02*
X417500D01*
X417426Y155699D01*
X417350Y155698D01*
X417291Y155672D01*
X417227Y155659D01*
X417164Y155617D01*
X417095Y155587D01*
X417049Y155541D01*
X416995Y155505D01*
X416953Y155442D01*
X416901Y155388D01*
X415898Y153836D01*
X415874Y153776D01*
X415837Y153722D01*
X415823Y153648D01*
X415795Y153577D01*
X415796Y153513D01*
X415783Y153449D01*
Y150882D01*
X415804Y150779D01*
X415812Y150693D01*
X415812Y150669D01*
X415768Y150540D01*
X415616Y150286D01*
X415505Y150193D01*
X410500D01*
Y143000D01*
X416335D01*
Y149654D01*
X416725Y149961D01*
X417174Y149813D01*
X417283Y149266D01*
X417699Y148644D01*
X418321Y148228D01*
X419055Y148082D01*
X422136D01*
X422455Y147985D01*
X422653Y147622D01*
X422658Y147565D01*
X422685Y147476D01*
X422699Y147384D01*
X422706Y147367D01*
X422503Y147028D01*
X422363Y146918D01*
X419055D01*
X418321Y146772D01*
X417699Y146356D01*
X417283Y145734D01*
X417137Y145000D01*
X417283Y144266D01*
X417699Y143644D01*
X418321Y143228D01*
X419055Y143082D01*
X422136D01*
X422344Y143019D01*
X422492Y142694D01*
X422255Y142267D01*
X422218Y142224D01*
X421228D01*
Y140000D01*
Y137776D01*
X422218D01*
X422255Y137733D01*
X422492Y137306D01*
X422344Y136981D01*
X422136Y136918D01*
X419055D01*
X418321Y136772D01*
X417699Y136356D01*
X417283Y135734D01*
X417137Y135000D01*
X417283Y134266D01*
X417342Y134177D01*
X417178Y133523D01*
X417164Y133515D01*
X417083Y133449D01*
X416995Y133390D01*
X416976Y133361D01*
X416948Y133338D01*
X416899Y133246D01*
X416841Y133159D01*
X416834Y133124D01*
X416817Y133093D01*
X416807Y132988D01*
X416786Y132886D01*
Y127500D01*
X416841Y127227D01*
X416995Y126995D01*
X417227Y126841D01*
X417500Y126786D01*
X484931D01*
X485204Y126841D01*
X485435Y126995D01*
X485977Y127536D01*
X486131Y127768D01*
X486186Y128041D01*
X486131Y128314D01*
X486027Y128470D01*
Y147531D01*
X485973Y147804D01*
X485818Y148036D01*
X485587Y148191D01*
X485314Y148245D01*
X462531Y148245D01*
X462258Y148191D01*
X462027Y148036D01*
X452204Y138214D01*
X445714D01*
Y145000D01*
X445659Y145273D01*
X445505Y145505D01*
X444246Y146763D01*
X444147Y146830D01*
X444051Y146902D01*
X444031Y146906D01*
X444015Y146918D01*
X443897Y146941D01*
X443781Y146971D01*
X443761Y146968D01*
X443742Y146972D01*
X443682Y146960D01*
X443593Y146982D01*
X443564Y146996D01*
X443314Y147197D01*
X443200Y147354D01*
Y147921D01*
X442982Y148735D01*
X442561Y149465D01*
X441965Y150061D01*
X441235Y150482D01*
X440421Y150700D01*
X439579D01*
X438765Y150482D01*
X438035Y150061D01*
X437439Y149465D01*
X437018Y148735D01*
X436874Y148197D01*
X436773Y148159D01*
X436500Y148214D01*
X431964D01*
Y148801D01*
X431954Y148847D01*
X431958Y148894D01*
X431928Y148982D01*
X431909Y149074D01*
X431883Y149113D01*
X431868Y149158D01*
X431807Y149228D01*
X431786Y149259D01*
X431750Y149385D01*
X431741Y149526D01*
X431782Y149834D01*
X431965Y149939D01*
X432561Y150535D01*
X432982Y151265D01*
X433200Y152079D01*
Y152921D01*
X432982Y153735D01*
X432561Y154465D01*
X431965Y155061D01*
X431235Y155482D01*
X430421Y155700D01*
X429579D01*
X428765Y155482D01*
X428162Y155134D01*
X427578Y155224D01*
X427553Y155282D01*
X427477Y155393D01*
X427402Y155505D01*
X427398Y155508D01*
X427395Y155512D01*
X427282Y155585D01*
X427171Y155659D01*
X427166Y155660D01*
X427162Y155663D01*
X427030Y155687D01*
X426898Y155714D01*
D02*
G37*
G36*
X413489Y129500D02*
X410500D01*
Y126511D01*
X411351Y126739D01*
X412149Y127199D01*
X412801Y127851D01*
X413262Y128649D01*
X413489Y129500D01*
D02*
G37*
G36*
X409500D02*
X406510D01*
X406739Y128649D01*
X407199Y127851D01*
X407851Y127199D01*
X408649Y126739D01*
X409500Y126511D01*
Y129500D01*
D02*
G37*
G36*
X340378Y271900D02*
X339622D01*
X338924Y271611D01*
X338389Y271076D01*
X338100Y270378D01*
Y269622D01*
X338389Y268924D01*
X338522Y268791D01*
Y128709D01*
X338389Y128576D01*
X338100Y127878D01*
Y127122D01*
X338389Y126424D01*
X338924Y125889D01*
X339622Y125600D01*
X340378D01*
X341076Y125889D01*
X341611Y126424D01*
X341900Y127122D01*
Y127878D01*
X341611Y128576D01*
X341478Y128709D01*
Y268791D01*
X341611Y268924D01*
X341900Y269622D01*
Y270378D01*
X341611Y271076D01*
X341076Y271611D01*
X340378Y271900D01*
D02*
G37*
G36*
X400945Y136918D02*
X397598D01*
X396864Y136772D01*
X396242Y136356D01*
X395827Y135734D01*
X395680Y135000D01*
X395827Y134266D01*
X396242Y133644D01*
X396471Y133491D01*
X396815Y133133D01*
X396815Y127898D01*
X396515Y127522D01*
X396515Y127402D01*
Y125044D01*
X400000D01*
X403484D01*
X403484Y127522D01*
X403185Y127898D01*
X403185Y128022D01*
Y133133D01*
X402437D01*
X402286Y133633D01*
X402301Y133644D01*
X402717Y134266D01*
X402863Y135000D01*
X402717Y135734D01*
X402301Y136356D01*
X401679Y136772D01*
X400945Y136918D01*
D02*
G37*
G36*
X403484Y124044D02*
X400500D01*
Y121566D01*
X403484D01*
Y124044D01*
D02*
G37*
G36*
X399500D02*
X396515D01*
Y121566D01*
X399500D01*
Y124044D01*
D02*
G37*
G36*
X302878Y379400D02*
X302122D01*
X301424Y379111D01*
X300889Y378576D01*
X300600Y377878D01*
Y377122D01*
X300889Y376424D01*
X301424Y375889D01*
X302122Y375600D01*
X302309D01*
X303522Y374388D01*
Y118709D01*
X303389Y118576D01*
X303100Y117878D01*
Y117122D01*
X303389Y116424D01*
X303924Y115889D01*
X304622Y115600D01*
X305378D01*
X306076Y115889D01*
X306611Y116424D01*
X306900Y117122D01*
Y117878D01*
X306611Y118576D01*
X306478Y118709D01*
Y375000D01*
X306366Y375566D01*
X306045Y376045D01*
X304400Y377691D01*
Y377878D01*
X304111Y378576D01*
X303576Y379111D01*
X302878Y379400D01*
D02*
G37*
G36*
X481674Y121560D02*
X473187D01*
Y113073D01*
X481674D01*
Y121560D01*
D02*
G37*
%LPD*%
G36*
X144550Y650500D02*
X144199Y650149D01*
X143738Y649351D01*
X143510Y648500D01*
X147000D01*
Y648000D01*
X147500D01*
Y644511D01*
X148351Y644738D01*
X149022Y645126D01*
X149522Y644926D01*
Y625586D01*
X149634Y625020D01*
X149955Y624540D01*
X150540Y623955D01*
X151020Y623634D01*
X151586Y623522D01*
X152000D01*
Y610000D01*
X143000D01*
Y651000D01*
X144343D01*
X144550Y650500D01*
D02*
G37*
G36*
X139522Y658138D02*
Y602670D01*
X139478Y602633D01*
X138978Y602862D01*
Y658330D01*
X139022Y658367D01*
X139522Y658138D01*
D02*
G37*
%LPC*%
G36*
X146500Y647500D02*
X143510D01*
X143738Y646649D01*
X144199Y645851D01*
X144851Y645199D01*
X145649Y644738D01*
X146500Y644511D01*
Y647500D01*
D02*
G37*
G36*
X147500Y618490D02*
Y615500D01*
X150489D01*
X150261Y616351D01*
X149801Y617149D01*
X149149Y617801D01*
X148351Y618261D01*
X147500Y618490D01*
D02*
G37*
G36*
X146500D02*
X145649Y618261D01*
X144851Y617801D01*
X144199Y617149D01*
X143738Y616351D01*
X143510Y615500D01*
X146500D01*
Y618490D01*
D02*
G37*
G36*
X150489Y614500D02*
X147500D01*
Y611511D01*
X148351Y611738D01*
X149149Y612199D01*
X149801Y612851D01*
X150261Y613649D01*
X150489Y614500D01*
D02*
G37*
G36*
X146500D02*
X143510D01*
X143738Y613649D01*
X144199Y612851D01*
X144851Y612199D01*
X145649Y611738D01*
X146500Y611511D01*
Y614500D01*
D02*
G37*
%LPD*%
G36*
X300000Y610000D02*
X292000D01*
Y646000D01*
X300000D01*
Y610000D01*
D02*
G37*
%LPC*%
G36*
X296500Y643490D02*
Y640500D01*
X299489D01*
X299261Y641351D01*
X298801Y642149D01*
X298149Y642801D01*
X297351Y643261D01*
X296500Y643490D01*
D02*
G37*
G36*
X295500D02*
X294649Y643261D01*
X293851Y642801D01*
X293199Y642149D01*
X292739Y641351D01*
X292511Y640500D01*
X295500D01*
Y643490D01*
D02*
G37*
G36*
X299489Y639500D02*
X296500D01*
Y636511D01*
X297351Y636738D01*
X298149Y637199D01*
X298801Y637851D01*
X299261Y638649D01*
X299489Y639500D01*
D02*
G37*
G36*
X295500D02*
X292511D01*
X292739Y638649D01*
X293199Y637851D01*
X293851Y637199D01*
X294649Y636738D01*
X295500Y636511D01*
Y639500D01*
D02*
G37*
G36*
X296500Y618490D02*
Y615500D01*
X299489D01*
X299261Y616351D01*
X298801Y617149D01*
X298149Y617801D01*
X297351Y618261D01*
X296500Y618490D01*
D02*
G37*
G36*
X295500D02*
X294649Y618261D01*
X293851Y617801D01*
X293199Y617149D01*
X292739Y616351D01*
X292511Y615500D01*
X295500D01*
Y618490D01*
D02*
G37*
G36*
X299489Y614500D02*
X296500D01*
Y611511D01*
X297351Y611738D01*
X298149Y612199D01*
X298801Y612851D01*
X299261Y613649D01*
X299489Y614500D01*
D02*
G37*
G36*
X295500D02*
X292511D01*
X292739Y613649D01*
X293199Y612851D01*
X293851Y612199D01*
X294649Y611738D01*
X295500Y611511D01*
Y614500D01*
D02*
G37*
%LPD*%
G36*
X184948Y541936D02*
X185704D01*
X185998Y542058D01*
X186498Y541724D01*
Y540746D01*
X186161Y540307D01*
X185834Y539517D01*
X185778Y539092D01*
X185722Y538668D01*
Y534799D01*
X184129D01*
Y539688D01*
X177053D01*
Y541438D01*
X184129D01*
Y541734D01*
X184629Y542068D01*
X184948Y541936D01*
D02*
G37*
G36*
X183646Y525075D02*
X185446D01*
Y521015D01*
X185280Y520766D01*
X185167Y520201D01*
Y516398D01*
X184166Y515396D01*
X183726D01*
X183124Y515646D01*
X182368D01*
X182273Y515606D01*
X181941Y516009D01*
X182053Y516575D01*
Y533564D01*
X183646D01*
Y525075D01*
D02*
G37*
G36*
X332500Y512158D02*
Y511392D01*
X332103Y511087D01*
X331896Y511143D01*
X331850D01*
Y506993D01*
Y502844D01*
X331896D01*
X332103Y502899D01*
X332500Y502595D01*
Y493000D01*
X327000D01*
Y485000D01*
X330668D01*
Y480252D01*
X330368D01*
Y479786D01*
X329645D01*
X329177Y479693D01*
X328780Y479428D01*
X327403Y478051D01*
X327137Y477654D01*
X327044Y477185D01*
Y475386D01*
X327137Y474917D01*
X327388Y474542D01*
X327292Y474309D01*
X331640D01*
X331331Y475055D01*
X330712Y475674D01*
X329903Y476009D01*
X329491D01*
Y476679D01*
X329868Y477055D01*
X330368Y476874D01*
Y476874D01*
X332000D01*
Y478563D01*
X333000D01*
Y476874D01*
X333130D01*
X333239Y474261D01*
X335276Y472224D01*
X340000D01*
Y470956D01*
X339930D01*
Y464044D01*
X340000D01*
Y461251D01*
X338953D01*
Y461551D01*
X335500D01*
Y457500D01*
Y453449D01*
X338953D01*
Y453749D01*
X340000D01*
Y452500D01*
X321969D01*
Y512461D01*
X332146Y512510D01*
X332500Y512158D01*
D02*
G37*
G36*
X334776Y504269D02*
Y502219D01*
X334870Y501751D01*
X335135Y501354D01*
X335853Y500635D01*
Y487240D01*
X335608D01*
Y485108D01*
X334608D01*
Y487240D01*
X333419D01*
Y485857D01*
X330668D01*
Y485714D01*
X327714D01*
Y486610D01*
X328214Y486944D01*
X328500Y486826D01*
Y489000D01*
Y491174D01*
X328214Y491056D01*
X327714Y491390D01*
Y492286D01*
X332500D01*
X332773Y492341D01*
X333005Y492495D01*
X333159Y492727D01*
X333214Y493000D01*
Y502595D01*
X333205Y502641D01*
X333208Y502688D01*
X333178Y502776D01*
X333159Y502868D01*
X333133Y502907D01*
X333118Y502952D01*
X333095Y502978D01*
X333065Y503086D01*
X333116Y503490D01*
X333178Y503604D01*
X333713Y503913D01*
X334277Y504476D01*
X334776Y504269D01*
D02*
G37*
G36*
X336291Y645709D02*
Y632500D01*
X321000D01*
Y342000D01*
X309000D01*
Y446163D01*
X309111Y446274D01*
X309400Y446972D01*
Y447309D01*
X312045Y449955D01*
X312366Y450434D01*
X312478Y451000D01*
Y469791D01*
X312611Y469924D01*
X312900Y470622D01*
Y471378D01*
X312611Y472076D01*
X312076Y472611D01*
X311378Y472900D01*
X310622D01*
X309924Y472611D01*
X309500Y472187D01*
X309000Y472344D01*
Y632653D01*
Y646000D01*
X336000D01*
X336291Y645709D01*
D02*
G37*
%LPC*%
G36*
X330850Y511143D02*
X330803D01*
X329748Y510860D01*
X328802Y510314D01*
X328029Y509541D01*
X327483Y508595D01*
X327200Y507540D01*
Y507493D01*
X330850D01*
Y511143D01*
D02*
G37*
G36*
Y506493D02*
X327200D01*
Y506447D01*
X327483Y505392D01*
X328029Y504445D01*
X328802Y503673D01*
X329748Y503126D01*
X330803Y502844D01*
X330850D01*
Y506493D01*
D02*
G37*
G36*
X331640Y473309D02*
X329966D01*
Y471635D01*
X330712Y471944D01*
X331331Y472563D01*
X331640Y473309D01*
D02*
G37*
G36*
X328966D02*
X327292D01*
X327601Y472563D01*
X328220Y471944D01*
X328966Y471635D01*
Y473309D01*
D02*
G37*
G36*
X338087Y471256D02*
X335717D01*
Y468000D01*
X338087D01*
Y471256D01*
D02*
G37*
G36*
X334717D02*
X332347D01*
Y468000D01*
X334717D01*
Y471256D01*
D02*
G37*
G36*
X338087Y467000D02*
X335717D01*
Y463744D01*
X338087D01*
Y467000D01*
D02*
G37*
G36*
X334717D02*
X332347D01*
Y463744D01*
X334717D01*
Y467000D01*
D02*
G37*
G36*
X334500Y461551D02*
X331047D01*
Y458000D01*
X334500D01*
Y461551D01*
D02*
G37*
G36*
Y457000D02*
X331047D01*
Y453449D01*
X334500D01*
Y457000D01*
D02*
G37*
G36*
X329500Y491174D02*
Y489500D01*
X331174D01*
X330865Y490246D01*
X330246Y490865D01*
X329500Y491174D01*
D02*
G37*
G36*
X331174Y488500D02*
X329500D01*
Y486826D01*
X330246Y487135D01*
X330865Y487754D01*
X331174Y488500D01*
D02*
G37*
G36*
X329500Y642489D02*
Y639500D01*
X332489D01*
X332261Y640351D01*
X331801Y641149D01*
X331149Y641801D01*
X330351Y642262D01*
X329500Y642489D01*
D02*
G37*
G36*
X328500D02*
X327649Y642262D01*
X326851Y641801D01*
X326199Y641149D01*
X325739Y640351D01*
X325511Y639500D01*
X328500D01*
Y642489D01*
D02*
G37*
G36*
X332489Y638500D02*
X329500D01*
Y635510D01*
X330351Y635739D01*
X331149Y636199D01*
X331801Y636851D01*
X332261Y637649D01*
X332489Y638500D01*
D02*
G37*
G36*
X328500D02*
X325511D01*
X325739Y637649D01*
X326199Y636851D01*
X326851Y636199D01*
X327649Y635739D01*
X328500Y635510D01*
Y638500D01*
D02*
G37*
G36*
X317500Y351489D02*
Y348500D01*
X320490D01*
X320262Y349351D01*
X319801Y350149D01*
X319149Y350801D01*
X318351Y351261D01*
X317500Y351489D01*
D02*
G37*
G36*
X316500D02*
X315649Y351261D01*
X314851Y350801D01*
X314199Y350149D01*
X313738Y349351D01*
X313510Y348500D01*
X316500D01*
Y351489D01*
D02*
G37*
G36*
X320490Y347500D02*
X317500D01*
Y344511D01*
X318351Y344739D01*
X319149Y345199D01*
X319801Y345851D01*
X320262Y346649D01*
X320490Y347500D01*
D02*
G37*
G36*
X316500D02*
X313510D01*
X313738Y346649D01*
X314199Y345851D01*
X314851Y345199D01*
X315649Y344739D01*
X316500Y344511D01*
Y347500D01*
D02*
G37*
%LPD*%
G36*
X447500Y420000D02*
X482303D01*
Y407997D01*
X482140Y407715D01*
X481918Y406886D01*
Y406028D01*
X482140Y405199D01*
X482303Y404916D01*
Y386015D01*
X482140Y385732D01*
X481918Y384903D01*
Y384045D01*
X482140Y383216D01*
X482303Y382934D01*
Y340497D01*
X482140Y340215D01*
X481918Y339386D01*
Y338528D01*
X482140Y337699D01*
X482303Y337417D01*
Y319529D01*
X482140Y319247D01*
X481918Y318418D01*
Y317560D01*
X482140Y316731D01*
X482303Y316449D01*
Y298806D01*
X481878Y298069D01*
X481656Y297240D01*
Y296382D01*
X481878Y295553D01*
X482303Y294816D01*
Y277124D01*
X482140Y276842D01*
X481918Y276013D01*
Y275155D01*
X482140Y274326D01*
X482303Y274044D01*
Y266457D01*
X457537D01*
X457505Y266505D01*
X457273Y266659D01*
X457000Y266714D01*
X446000D01*
X445727Y266659D01*
X445495Y266505D01*
X445463Y266457D01*
X428753D01*
X427253Y401000D01*
X420000D01*
Y280000D01*
X407500D01*
Y420000D01*
X435000D01*
Y445000D01*
X447500D01*
Y420000D01*
D02*
G37*
G36*
X457000Y227000D02*
X446000D01*
Y228350D01*
X449500D01*
Y232500D01*
Y236650D01*
X446000D01*
Y266000D01*
X457000D01*
Y227000D01*
D02*
G37*
%LPC*%
G36*
X443046Y441650D02*
X443000D01*
Y438000D01*
X446650D01*
Y438046D01*
X446367Y439102D01*
X445821Y440048D01*
X445048Y440821D01*
X444102Y441367D01*
X443046Y441650D01*
D02*
G37*
G36*
X442000D02*
X441954D01*
X440898Y441367D01*
X439952Y440821D01*
X439180Y440048D01*
X438633Y439102D01*
X438350Y438046D01*
Y438000D01*
X442000D01*
Y441650D01*
D02*
G37*
G36*
X446650Y437000D02*
X443000D01*
Y433350D01*
X443046D01*
X444102Y433633D01*
X445048Y434179D01*
X445821Y434952D01*
X446367Y435898D01*
X446650Y436954D01*
Y437000D01*
D02*
G37*
G36*
X442000D02*
X438350D01*
Y436954D01*
X438633Y435898D01*
X439180Y434952D01*
X439952Y434179D01*
X440898Y433633D01*
X441954Y433350D01*
X442000D01*
Y437000D01*
D02*
G37*
G36*
X429135Y415113D02*
Y413439D01*
X430809D01*
X430500Y414185D01*
X429881Y414804D01*
X429135Y415113D01*
D02*
G37*
G36*
X428135D02*
X427389Y414804D01*
X426770Y414185D01*
X426461Y413439D01*
X428135D01*
Y415113D01*
D02*
G37*
G36*
X430809Y412439D02*
X429135D01*
Y410764D01*
X429881Y411073D01*
X430500Y411692D01*
X430809Y412439D01*
D02*
G37*
G36*
X428135D02*
X426461D01*
X426770Y411692D01*
X427389Y411073D01*
X428135Y410764D01*
Y412439D01*
D02*
G37*
G36*
X477803Y410007D02*
Y406957D01*
X480854D01*
X480620Y407830D01*
X480151Y408642D01*
X479489Y409305D01*
X478677Y409773D01*
X477803Y410007D01*
D02*
G37*
G36*
X476803D02*
X475929Y409773D01*
X475118Y409305D01*
X474455Y408642D01*
X473987Y407830D01*
X473752Y406957D01*
X476803D01*
Y410007D01*
D02*
G37*
G36*
X472688Y409716D02*
X466170D01*
Y403198D01*
X472688D01*
Y409716D01*
D02*
G37*
G36*
X480854Y405957D02*
X477803D01*
Y402906D01*
X478677Y403140D01*
X479489Y403609D01*
X480151Y404271D01*
X480620Y405083D01*
X480854Y405957D01*
D02*
G37*
G36*
X476803D02*
X473752D01*
X473987Y405083D01*
X474455Y404271D01*
X475118Y403609D01*
X475929Y403140D01*
X476803Y402906D01*
Y405957D01*
D02*
G37*
G36*
X431378Y393574D02*
Y391900D01*
X433052D01*
X432743Y392646D01*
X432124Y393265D01*
X431378Y393574D01*
D02*
G37*
G36*
X430378D02*
X429632Y393265D01*
X429013Y392646D01*
X428704Y391900D01*
X430378D01*
Y393574D01*
D02*
G37*
G36*
X433052Y390900D02*
X431378D01*
Y389226D01*
X432124Y389535D01*
X432743Y390154D01*
X433052Y390900D01*
D02*
G37*
G36*
X430378D02*
X428704D01*
X429013Y390154D01*
X429632Y389535D01*
X430378Y389226D01*
Y390900D01*
D02*
G37*
G36*
X477803Y388025D02*
Y384974D01*
X480854D01*
X480620Y385848D01*
X480151Y386660D01*
X479488Y387322D01*
X478677Y387791D01*
X477803Y388025D01*
D02*
G37*
G36*
X476803D02*
X475929Y387791D01*
X475118Y387322D01*
X474455Y386660D01*
X473987Y385848D01*
X473752Y384974D01*
X476803D01*
Y388025D01*
D02*
G37*
G36*
X472688Y387733D02*
X466170D01*
Y381215D01*
X472688D01*
Y387733D01*
D02*
G37*
G36*
X480854Y383974D02*
X477803D01*
Y380924D01*
X478677Y381158D01*
X479488Y381626D01*
X480151Y382289D01*
X480620Y383101D01*
X480854Y383974D01*
D02*
G37*
G36*
X476803D02*
X473752D01*
X473987Y383101D01*
X474455Y382289D01*
X475118Y381626D01*
X475929Y381158D01*
X476803Y380924D01*
Y383974D01*
D02*
G37*
G36*
X432000Y369848D02*
Y368174D01*
X433674D01*
X433365Y368920D01*
X432746Y369539D01*
X432000Y369848D01*
D02*
G37*
G36*
X431000D02*
X430254Y369539D01*
X429635Y368920D01*
X429326Y368174D01*
X431000D01*
Y369848D01*
D02*
G37*
G36*
X433674Y367174D02*
X432000D01*
Y365500D01*
X432746Y365809D01*
X433365Y366428D01*
X433674Y367174D01*
D02*
G37*
G36*
X431000D02*
X429326D01*
X429635Y366428D01*
X430254Y365809D01*
X431000Y365500D01*
Y367174D01*
D02*
G37*
G36*
X478386Y365805D02*
Y362755D01*
X481437D01*
X481203Y363628D01*
X480734Y364440D01*
X480072Y365103D01*
X479260Y365571D01*
X478386Y365805D01*
D02*
G37*
G36*
X477386D02*
X476513Y365571D01*
X475701Y365103D01*
X475038Y364440D01*
X474570Y363628D01*
X474336Y362755D01*
X477386D01*
Y365805D01*
D02*
G37*
G36*
X473271Y365514D02*
X466753D01*
Y358996D01*
X473271D01*
Y365514D01*
D02*
G37*
G36*
X481437Y361755D02*
X478386D01*
Y358704D01*
X479260Y358938D01*
X480072Y359407D01*
X480734Y360069D01*
X481203Y360881D01*
X481437Y361755D01*
D02*
G37*
G36*
X477386D02*
X474336D01*
X474570Y360881D01*
X475038Y360069D01*
X475701Y359407D01*
X476513Y358938D01*
X477386Y358704D01*
Y361755D01*
D02*
G37*
G36*
X432122Y347074D02*
Y345400D01*
X433796D01*
X433487Y346146D01*
X432868Y346765D01*
X432122Y347074D01*
D02*
G37*
G36*
X431122D02*
X430376Y346765D01*
X429757Y346146D01*
X429448Y345400D01*
X431122D01*
Y347074D01*
D02*
G37*
G36*
X433796Y344400D02*
X432122D01*
Y342726D01*
X432868Y343035D01*
X433487Y343654D01*
X433796Y344400D01*
D02*
G37*
G36*
X431122D02*
X429448D01*
X429757Y343654D01*
X430376Y343035D01*
X431122Y342726D01*
Y344400D01*
D02*
G37*
G36*
X477803Y342507D02*
Y339457D01*
X480854D01*
X480620Y340330D01*
X480151Y341142D01*
X479489Y341805D01*
X478677Y342273D01*
X477803Y342507D01*
D02*
G37*
G36*
X476803D02*
X475929Y342273D01*
X475118Y341805D01*
X474455Y341142D01*
X473987Y340330D01*
X473752Y339457D01*
X476803D01*
Y342507D01*
D02*
G37*
G36*
X472688Y342216D02*
X466170D01*
Y335698D01*
X472688D01*
Y342216D01*
D02*
G37*
G36*
X480854Y338457D02*
X477803D01*
Y335406D01*
X478677Y335640D01*
X479489Y336109D01*
X480151Y336771D01*
X480620Y337583D01*
X480854Y338457D01*
D02*
G37*
G36*
X476803D02*
X473752D01*
X473987Y337583D01*
X474455Y336771D01*
X475118Y336109D01*
X475929Y335640D01*
X476803Y335406D01*
Y338457D01*
D02*
G37*
G36*
X432122Y324574D02*
Y322900D01*
X433796D01*
X433487Y323646D01*
X432868Y324265D01*
X432122Y324574D01*
D02*
G37*
G36*
X431122D02*
X430376Y324265D01*
X429757Y323646D01*
X429448Y322900D01*
X431122D01*
Y324574D01*
D02*
G37*
G36*
X433796Y321900D02*
X432122D01*
Y320226D01*
X432868Y320535D01*
X433487Y321154D01*
X433796Y321900D01*
D02*
G37*
G36*
X431122D02*
X429448D01*
X429757Y321154D01*
X430376Y320535D01*
X431122Y320226D01*
Y321900D01*
D02*
G37*
G36*
X477803Y321540D02*
Y318489D01*
X480854D01*
X480620Y319363D01*
X480151Y320174D01*
X479489Y320837D01*
X478677Y321306D01*
X477803Y321540D01*
D02*
G37*
G36*
X476803D02*
X475929Y321306D01*
X475118Y320837D01*
X474455Y320174D01*
X473987Y319363D01*
X473752Y318489D01*
X476803D01*
Y321540D01*
D02*
G37*
G36*
X472688Y321248D02*
X466170D01*
Y314730D01*
X472688D01*
Y321248D01*
D02*
G37*
G36*
X480854Y317489D02*
X477803D01*
Y314439D01*
X478677Y314673D01*
X479489Y315141D01*
X480151Y315804D01*
X480620Y316615D01*
X480854Y317489D01*
D02*
G37*
G36*
X476803D02*
X473752D01*
X473987Y316615D01*
X474455Y315804D01*
X475118Y315141D01*
X475929Y314673D01*
X476803Y314439D01*
Y317489D01*
D02*
G37*
G36*
X432122Y304574D02*
Y302900D01*
X433796D01*
X433487Y303646D01*
X432868Y304265D01*
X432122Y304574D01*
D02*
G37*
G36*
X431122D02*
X430376Y304265D01*
X429757Y303646D01*
X429448Y302900D01*
X431122D01*
Y304574D01*
D02*
G37*
G36*
X433796Y301900D02*
X432122D01*
Y300226D01*
X432868Y300535D01*
X433487Y301154D01*
X433796Y301900D01*
D02*
G37*
G36*
X431122D02*
X429448D01*
X429757Y301154D01*
X430376Y300535D01*
X431122Y300226D01*
Y301900D01*
D02*
G37*
G36*
X477541Y300362D02*
Y297311D01*
X480591D01*
X480357Y298185D01*
X479889Y298996D01*
X479226Y299659D01*
X478414Y300128D01*
X477541Y300362D01*
D02*
G37*
G36*
X476541D02*
X475667Y300128D01*
X474855Y299659D01*
X474193Y298996D01*
X473724Y298185D01*
X473490Y297311D01*
X476541D01*
Y300362D01*
D02*
G37*
G36*
X472426Y300070D02*
X465908D01*
Y293552D01*
X472426D01*
Y300070D01*
D02*
G37*
G36*
X480591Y296311D02*
X477541D01*
Y293260D01*
X478414Y293495D01*
X479226Y293963D01*
X479889Y294626D01*
X480357Y295437D01*
X480591Y296311D01*
D02*
G37*
G36*
X476541D02*
X473490D01*
X473724Y295437D01*
X474193Y294626D01*
X474855Y293963D01*
X475667Y293495D01*
X476541Y293260D01*
Y296311D01*
D02*
G37*
G36*
X432500Y286174D02*
Y284500D01*
X434174D01*
X433865Y285246D01*
X433246Y285865D01*
X432500Y286174D01*
D02*
G37*
G36*
X431500D02*
X430754Y285865D01*
X430135Y285246D01*
X429826Y284500D01*
X431500D01*
Y286174D01*
D02*
G37*
G36*
X434174Y283500D02*
X432500D01*
Y281826D01*
X433246Y282135D01*
X433865Y282754D01*
X434174Y283500D01*
D02*
G37*
G36*
X431500D02*
X429826D01*
X430135Y282754D01*
X430754Y282135D01*
X431500Y281826D01*
Y283500D01*
D02*
G37*
G36*
X477803Y279134D02*
Y276084D01*
X480854D01*
X480620Y276958D01*
X480151Y277769D01*
X479489Y278432D01*
X478677Y278900D01*
X477803Y279134D01*
D02*
G37*
G36*
X476803D02*
X475929Y278900D01*
X475118Y278432D01*
X474455Y277769D01*
X473987Y276958D01*
X473752Y276084D01*
X476803D01*
Y279134D01*
D02*
G37*
G36*
X472688Y278843D02*
X466170D01*
Y272325D01*
X472688D01*
Y278843D01*
D02*
G37*
G36*
X480854Y275084D02*
X477803D01*
Y272033D01*
X478677Y272267D01*
X479489Y272736D01*
X480151Y273398D01*
X480620Y274210D01*
X480854Y275084D01*
D02*
G37*
G36*
X476803D02*
X473752D01*
X473987Y274210D01*
X474455Y273398D01*
X475118Y272736D01*
X475929Y272267D01*
X476803Y272033D01*
Y275084D01*
D02*
G37*
G36*
X452500Y264490D02*
Y261500D01*
X455489D01*
X455262Y262351D01*
X454801Y263149D01*
X454149Y263801D01*
X453351Y264262D01*
X452500Y264490D01*
D02*
G37*
G36*
X451500D02*
X450649Y264262D01*
X449851Y263801D01*
X449199Y263149D01*
X448738Y262351D01*
X448511Y261500D01*
X451500D01*
Y264490D01*
D02*
G37*
G36*
X455489Y260500D02*
X452500D01*
Y257510D01*
X453351Y257738D01*
X454149Y258199D01*
X454801Y258851D01*
X455262Y259649D01*
X455489Y260500D01*
D02*
G37*
G36*
X451500D02*
X448511D01*
X448738Y259649D01*
X449199Y258851D01*
X449851Y258199D01*
X450649Y257738D01*
X451500Y257510D01*
Y260500D01*
D02*
G37*
G36*
X454150Y236650D02*
X450500D01*
Y233000D01*
X454150D01*
Y236650D01*
D02*
G37*
G36*
Y232000D02*
X450500D01*
Y228350D01*
X454150D01*
Y232000D01*
D02*
G37*
%LPD*%
G36*
X119000Y345000D02*
X111000D01*
Y367000D01*
X112343D01*
X112550Y366500D01*
X112199Y366149D01*
X111739Y365351D01*
X111511Y364500D01*
X118490D01*
X118262Y365351D01*
X117801Y366149D01*
X117450Y366500D01*
X117657Y367000D01*
X119000D01*
Y345000D01*
D02*
G37*
%LPC*%
G36*
X118490Y363500D02*
X115500D01*
Y360510D01*
X116351Y360738D01*
X117149Y361199D01*
X117801Y361851D01*
X118262Y362649D01*
X118490Y363500D01*
D02*
G37*
G36*
X114500D02*
X111511D01*
X111739Y362649D01*
X112199Y361851D01*
X112851Y361199D01*
X113649Y360738D01*
X114500Y360510D01*
Y363500D01*
D02*
G37*
G36*
X115500Y352489D02*
Y349500D01*
X118490D01*
X118262Y350351D01*
X117801Y351149D01*
X117149Y351801D01*
X116351Y352261D01*
X115500Y352489D01*
D02*
G37*
G36*
X114500D02*
X113649Y352261D01*
X112851Y351801D01*
X112199Y351149D01*
X111739Y350351D01*
X111511Y349500D01*
X114500D01*
Y352489D01*
D02*
G37*
G36*
X118490Y348500D02*
X115500D01*
Y345511D01*
X116351Y345739D01*
X117149Y346199D01*
X117801Y346851D01*
X118262Y347649D01*
X118490Y348500D01*
D02*
G37*
G36*
X114500D02*
X111511D01*
X111739Y347649D01*
X112199Y346851D01*
X112851Y346199D01*
X113649Y345739D01*
X114500Y345511D01*
Y348500D01*
D02*
G37*
%LPD*%
G36*
X156550Y366500D02*
X156199Y366149D01*
X155738Y365351D01*
X155510Y364500D01*
X159000D01*
Y364000D01*
X159500D01*
Y360510D01*
X160351Y360738D01*
X161149Y361199D01*
X161500Y361550D01*
X162000Y361343D01*
Y305657D01*
X161500Y305450D01*
X161149Y305801D01*
X160351Y306261D01*
X159500Y306489D01*
Y303000D01*
Y299511D01*
X160351Y299739D01*
X161149Y300199D01*
X161500Y300550D01*
X162000Y300343D01*
Y299000D01*
X155000D01*
Y367000D01*
X156343D01*
X156550Y366500D01*
D02*
G37*
%LPC*%
G36*
X158500Y363500D02*
X155510D01*
X155738Y362649D01*
X156199Y361851D01*
X156851Y361199D01*
X157649Y360738D01*
X158500Y360510D01*
Y363500D01*
D02*
G37*
G36*
Y306489D02*
X157649Y306261D01*
X156851Y305801D01*
X156199Y305149D01*
X155738Y304351D01*
X155510Y303500D01*
X158500D01*
Y306489D01*
D02*
G37*
G36*
Y302500D02*
X155510D01*
X155738Y301649D01*
X156199Y300851D01*
X156851Y300199D01*
X157649Y299739D01*
X158500Y299511D01*
Y302500D01*
D02*
G37*
%LPD*%
G36*
X179000Y271657D02*
X178500Y271450D01*
X178149Y271801D01*
X177351Y272262D01*
X176500Y272490D01*
Y269000D01*
Y265511D01*
X177351Y265739D01*
X178149Y266199D01*
X178500Y266550D01*
X179000Y266343D01*
Y265000D01*
X172000D01*
Y300343D01*
X172500Y300550D01*
X172851Y300199D01*
X173649Y299739D01*
X174500Y299511D01*
Y303000D01*
Y306489D01*
X173649Y306261D01*
X172851Y305801D01*
X172500Y305450D01*
X172000Y305657D01*
Y308000D01*
X179000D01*
Y271657D01*
D02*
G37*
%LPC*%
G36*
X175500Y306489D02*
Y303500D01*
X178489D01*
X178261Y304351D01*
X177801Y305149D01*
X177149Y305801D01*
X176351Y306261D01*
X175500Y306489D01*
D02*
G37*
G36*
X178489Y302500D02*
X175500D01*
Y299511D01*
X176351Y299739D01*
X177149Y300199D01*
X177801Y300851D01*
X178261Y301649D01*
X178489Y302500D01*
D02*
G37*
G36*
X175500Y272490D02*
X174649Y272262D01*
X173851Y271801D01*
X173199Y271149D01*
X172739Y270351D01*
X172511Y269500D01*
X175500D01*
Y272490D01*
D02*
G37*
G36*
Y268500D02*
X172511D01*
X172739Y267649D01*
X173199Y266851D01*
X173851Y266199D01*
X174649Y265739D01*
X175500Y265511D01*
Y268500D01*
D02*
G37*
%LPD*%
G36*
X404000Y256000D02*
X389000D01*
Y454000D01*
X404000D01*
Y256000D01*
D02*
G37*
%LPC*%
G36*
X397500Y451489D02*
Y448500D01*
X400490D01*
X400261Y449351D01*
X399801Y450149D01*
X399149Y450801D01*
X398351Y451262D01*
X397500Y451489D01*
D02*
G37*
G36*
X396500D02*
X395649Y451262D01*
X394851Y450801D01*
X394199Y450149D01*
X393739Y449351D01*
X393511Y448500D01*
X396500D01*
Y451489D01*
D02*
G37*
G36*
X400490Y447500D02*
X397500D01*
Y444511D01*
X398351Y444738D01*
X399149Y445199D01*
X399801Y445851D01*
X400261Y446649D01*
X400490Y447500D01*
D02*
G37*
G36*
X396500D02*
X393511D01*
X393739Y446649D01*
X394199Y445851D01*
X394851Y445199D01*
X395649Y444738D01*
X396500Y444511D01*
Y447500D01*
D02*
G37*
G36*
Y264490D02*
Y261500D01*
X399489D01*
X399261Y262351D01*
X398801Y263149D01*
X398149Y263801D01*
X397351Y264262D01*
X396500Y264490D01*
D02*
G37*
G36*
X395500D02*
X394649Y264262D01*
X393851Y263801D01*
X393199Y263149D01*
X392739Y262351D01*
X392511Y261500D01*
X395500D01*
Y264490D01*
D02*
G37*
G36*
X399489Y260500D02*
X396500D01*
Y257510D01*
X397351Y257738D01*
X398149Y258199D01*
X398801Y258851D01*
X399261Y259649D01*
X399489Y260500D01*
D02*
G37*
G36*
X395500D02*
X392511D01*
X392739Y259649D01*
X393199Y258851D01*
X393851Y258199D01*
X394649Y257738D01*
X395500Y257510D01*
Y260500D01*
D02*
G37*
%LPD*%
G36*
X402685Y221973D02*
X402185Y221822D01*
X402017Y222073D01*
X401296Y222555D01*
X400445Y222724D01*
X399272D01*
Y220500D01*
Y218276D01*
X400445D01*
X401296Y218445D01*
X402017Y218928D01*
X402185Y219178D01*
X402685Y219026D01*
Y217620D01*
X392870D01*
X392736Y218120D01*
X393037Y218294D01*
X393688Y218946D01*
X394149Y219744D01*
X394377Y220595D01*
X390888D01*
Y221095D01*
X390388D01*
Y224584D01*
X389622Y224379D01*
X389122Y224620D01*
Y225661D01*
X402685D01*
Y221973D01*
D02*
G37*
%LPC*%
G36*
X391388Y224584D02*
Y221595D01*
X394377D01*
X394149Y222446D01*
X393688Y223244D01*
X393037Y223895D01*
X392239Y224356D01*
X391388Y224584D01*
D02*
G37*
G36*
X398272Y222724D02*
X397098D01*
X396247Y222555D01*
X395526Y222073D01*
X395044Y221351D01*
X394974Y221000D01*
X398272D01*
Y222724D01*
D02*
G37*
G36*
Y220000D02*
X394974D01*
X395044Y219649D01*
X395526Y218928D01*
X396247Y218445D01*
X397098Y218276D01*
X398272D01*
Y220000D01*
D02*
G37*
%LPD*%
G36*
X201000Y226000D02*
X191000D01*
Y274000D01*
X201000D01*
Y226000D01*
D02*
G37*
%LPC*%
G36*
X196500Y272490D02*
Y269500D01*
X199489D01*
X199261Y270351D01*
X198801Y271149D01*
X198149Y271801D01*
X197351Y272262D01*
X196500Y272490D01*
D02*
G37*
G36*
X195500D02*
X194649Y272262D01*
X193851Y271801D01*
X193199Y271149D01*
X192738Y270351D01*
X192510Y269500D01*
X195500D01*
Y272490D01*
D02*
G37*
G36*
X199489Y268500D02*
X196500D01*
Y265511D01*
X197351Y265739D01*
X198149Y266199D01*
X198801Y266851D01*
X199261Y267649D01*
X199489Y268500D01*
D02*
G37*
G36*
X195500D02*
X192510D01*
X192738Y267649D01*
X193199Y266851D01*
X193851Y266199D01*
X194649Y265739D01*
X195500Y265511D01*
Y268500D01*
D02*
G37*
G36*
X196500Y235490D02*
Y232500D01*
X199489D01*
X199261Y233351D01*
X198801Y234149D01*
X198149Y234801D01*
X197351Y235262D01*
X196500Y235490D01*
D02*
G37*
G36*
X195500D02*
X194649Y235262D01*
X193851Y234801D01*
X193199Y234149D01*
X192738Y233351D01*
X192510Y232500D01*
X195500D01*
Y235490D01*
D02*
G37*
G36*
X199489Y231500D02*
X196500D01*
Y228510D01*
X197351Y228738D01*
X198149Y229199D01*
X198801Y229851D01*
X199261Y230649D01*
X199489Y231500D01*
D02*
G37*
G36*
X195500D02*
X192510D01*
X192738Y230649D01*
X193199Y229851D01*
X193851Y229199D01*
X194649Y228738D01*
X195500Y228510D01*
Y231500D01*
D02*
G37*
%LPD*%
G36*
X289000Y255000D02*
X274000D01*
Y214000D01*
X264000D01*
Y266000D01*
X289000D01*
Y255000D01*
D02*
G37*
%LPC*%
G36*
X282500Y264490D02*
Y261500D01*
X285490D01*
X285262Y262351D01*
X284801Y263149D01*
X284149Y263801D01*
X283351Y264262D01*
X282500Y264490D01*
D02*
G37*
G36*
X281500D02*
X280649Y264262D01*
X279851Y263801D01*
X279199Y263149D01*
X278738Y262351D01*
X278510Y261500D01*
X281500D01*
Y264490D01*
D02*
G37*
G36*
X269500D02*
Y261500D01*
X272490D01*
X272262Y262351D01*
X271801Y263149D01*
X271149Y263801D01*
X270351Y264262D01*
X269500Y264490D01*
D02*
G37*
G36*
X268500D02*
X267649Y264262D01*
X266851Y263801D01*
X266199Y263149D01*
X265739Y262351D01*
X265511Y261500D01*
X268500D01*
Y264490D01*
D02*
G37*
G36*
X285490Y260500D02*
X282500D01*
Y257510D01*
X283351Y257738D01*
X284149Y258199D01*
X284801Y258851D01*
X285262Y259649D01*
X285490Y260500D01*
D02*
G37*
G36*
X281500D02*
X278510D01*
X278738Y259649D01*
X279199Y258851D01*
X279851Y258199D01*
X280649Y257738D01*
X281500Y257510D01*
Y260500D01*
D02*
G37*
G36*
X272490D02*
X269500D01*
Y257510D01*
X270351Y257738D01*
X271149Y258199D01*
X271801Y258851D01*
X272262Y259649D01*
X272490Y260500D01*
D02*
G37*
G36*
X268500D02*
X265511D01*
X265739Y259649D01*
X266199Y258851D01*
X266851Y258199D01*
X267649Y257738D01*
X268500Y257510D01*
Y260500D01*
D02*
G37*
G36*
X269500Y233489D02*
Y230500D01*
X272490D01*
X272262Y231351D01*
X271801Y232149D01*
X271149Y232801D01*
X270351Y233261D01*
X269500Y233489D01*
D02*
G37*
G36*
X268500D02*
X267649Y233261D01*
X266851Y232801D01*
X266199Y232149D01*
X265739Y231351D01*
X265511Y230500D01*
X268500D01*
Y233489D01*
D02*
G37*
G36*
X272490Y229500D02*
X269500D01*
Y226511D01*
X270351Y226739D01*
X271149Y227199D01*
X271801Y227851D01*
X272262Y228649D01*
X272490Y229500D01*
D02*
G37*
G36*
X268500D02*
X265511D01*
X265739Y228649D01*
X266199Y227851D01*
X266851Y227199D01*
X267649Y226739D01*
X268500Y226511D01*
Y229500D01*
D02*
G37*
G36*
X269500Y223489D02*
Y220500D01*
X272490D01*
X272262Y221351D01*
X271801Y222149D01*
X271149Y222801D01*
X270351Y223261D01*
X269500Y223489D01*
D02*
G37*
G36*
X268500D02*
X267649Y223261D01*
X266851Y222801D01*
X266199Y222149D01*
X265739Y221351D01*
X265511Y220500D01*
X268500D01*
Y223489D01*
D02*
G37*
G36*
X272490Y219500D02*
X269500D01*
Y216511D01*
X270351Y216739D01*
X271149Y217199D01*
X271801Y217851D01*
X272262Y218649D01*
X272490Y219500D01*
D02*
G37*
G36*
X268500D02*
X265511D01*
X265739Y218649D01*
X266199Y217851D01*
X266851Y217199D01*
X267649Y216739D01*
X268500Y216511D01*
Y219500D01*
D02*
G37*
%LPD*%
G36*
X427025Y226288D02*
X426835Y226098D01*
X426374Y225300D01*
X426147Y224449D01*
X429636D01*
Y223949D01*
X430136D01*
Y220460D01*
X430489Y220554D01*
X430990Y220171D01*
Y219250D01*
X424245D01*
X423976Y219750D01*
X424026Y220000D01*
X420228D01*
Y220500D01*
X419728D01*
Y222724D01*
X418555D01*
X417704Y222555D01*
X416983Y222073D01*
X416736Y221704D01*
X416236Y221856D01*
Y225199D01*
X417240Y226750D01*
X426834D01*
X427025Y226288D01*
D02*
G37*
G36*
X438970Y218000D02*
X442500D01*
Y217500D01*
X443000D01*
Y214011D01*
X443851Y214239D01*
X444649Y214699D01*
X445000Y215050D01*
X445500Y214843D01*
Y210157D01*
X445000Y209950D01*
X444649Y210301D01*
X443851Y210761D01*
X443000Y210989D01*
Y207500D01*
X442000D01*
Y210989D01*
X441149Y210761D01*
X440351Y210301D01*
X439699Y209649D01*
X439239Y208851D01*
X439051Y208150D01*
X428000D01*
X425500Y210649D01*
Y213149D01*
X423210D01*
X423058Y213650D01*
X423474Y213928D01*
X423956Y214649D01*
X424026Y215000D01*
X420228D01*
Y216000D01*
X424026D01*
X423956Y216351D01*
X423474Y217073D01*
X422753Y217555D01*
X422275Y217650D01*
X422325Y218149D01*
X438855D01*
X438970Y218000D01*
D02*
G37*
G36*
X485314Y200000D02*
X417500D01*
Y203026D01*
X418000Y203387D01*
X418555Y203276D01*
X419728D01*
Y205500D01*
X420228D01*
Y206000D01*
X424026D01*
X423956Y206351D01*
X423523Y207000D01*
X423666Y207500D01*
X427712D01*
X427727Y207490D01*
X428000Y207436D01*
X439051D01*
X439270Y207121D01*
X439327Y206976D01*
X439518Y206265D01*
X439939Y205535D01*
X440535Y204939D01*
X441265Y204518D01*
X442079Y204300D01*
X442921D01*
X443735Y204518D01*
X444465Y204939D01*
X445061Y205535D01*
X445482Y206265D01*
X445700Y207079D01*
Y207500D01*
X452500D01*
X465000Y220000D01*
X485314Y220000D01*
Y200000D01*
D02*
G37*
G36*
X495000Y158000D02*
X486000D01*
Y199863D01*
X486027Y200000D01*
Y220000D01*
X486000Y220137D01*
Y266000D01*
X495000D01*
Y158000D01*
D02*
G37*
%LPC*%
G36*
X421902Y222724D02*
X420728D01*
Y221000D01*
X424026D01*
X423956Y221351D01*
X423474Y222073D01*
X422753Y222555D01*
X421902Y222724D01*
D02*
G37*
G36*
X429136Y223449D02*
X426147D01*
X426374Y222598D01*
X426835Y221800D01*
X427487Y221149D01*
X428285Y220688D01*
X429136Y220460D01*
Y223449D01*
D02*
G37*
G36*
X442000Y217000D02*
X439010D01*
X439239Y216149D01*
X439699Y215351D01*
X440351Y214699D01*
X441149Y214239D01*
X442000Y214011D01*
Y217000D01*
D02*
G37*
G36*
X478098Y214543D02*
X478000D01*
Y210500D01*
X482043D01*
Y210598D01*
X481734Y211754D01*
X481136Y212790D01*
X480290Y213635D01*
X479254Y214234D01*
X478098Y214543D01*
D02*
G37*
G36*
X477000D02*
X476902D01*
X475746Y214234D01*
X474710Y213635D01*
X473865Y212790D01*
X473266Y211754D01*
X472957Y210598D01*
Y210500D01*
X477000D01*
Y214543D01*
D02*
G37*
G36*
X482043Y209500D02*
X478000D01*
Y205457D01*
X478098D01*
X479254Y205766D01*
X480290Y206364D01*
X481136Y207210D01*
X481734Y208246D01*
X482043Y209402D01*
Y209500D01*
D02*
G37*
G36*
X477000D02*
X472957D01*
Y209402D01*
X473266Y208246D01*
X473865Y207210D01*
X474710Y206364D01*
X475746Y205766D01*
X476902Y205457D01*
X477000D01*
Y209500D01*
D02*
G37*
G36*
X424026Y205000D02*
X420728D01*
Y203276D01*
X421902D01*
X422753Y203446D01*
X423474Y203927D01*
X423956Y204649D01*
X424026Y205000D01*
D02*
G37*
G36*
X491500Y265490D02*
Y262500D01*
X494489D01*
X494262Y263351D01*
X493801Y264149D01*
X493149Y264801D01*
X492351Y265262D01*
X491500Y265490D01*
D02*
G37*
G36*
X490500D02*
X489649Y265262D01*
X488851Y264801D01*
X488199Y264149D01*
X487739Y263351D01*
X487510Y262500D01*
X490500D01*
Y265490D01*
D02*
G37*
G36*
X494489Y261500D02*
X491500D01*
Y258510D01*
X492351Y258738D01*
X493149Y259199D01*
X493801Y259851D01*
X494262Y260649D01*
X494489Y261500D01*
D02*
G37*
G36*
X490500D02*
X487510D01*
X487739Y260649D01*
X488199Y259851D01*
X488851Y259199D01*
X489649Y258738D01*
X490500Y258510D01*
Y261500D01*
D02*
G37*
G36*
X491500Y234489D02*
Y231500D01*
X494489D01*
X494262Y232351D01*
X493801Y233149D01*
X493149Y233801D01*
X492351Y234261D01*
X491500Y234489D01*
D02*
G37*
G36*
X490500D02*
X489649Y234261D01*
X488851Y233801D01*
X488199Y233149D01*
X487739Y232351D01*
X487510Y231500D01*
X490500D01*
Y234489D01*
D02*
G37*
G36*
X494489Y230500D02*
X491500D01*
Y227510D01*
X492351Y227738D01*
X493149Y228199D01*
X493801Y228851D01*
X494262Y229649D01*
X494489Y230500D01*
D02*
G37*
G36*
X490500D02*
X487510D01*
X487739Y229649D01*
X488199Y228851D01*
X488851Y228199D01*
X489649Y227738D01*
X490500Y227510D01*
Y230500D01*
D02*
G37*
G36*
X491500Y166490D02*
Y163500D01*
X494489D01*
X494262Y164351D01*
X493801Y165149D01*
X493149Y165801D01*
X492351Y166261D01*
X491500Y166490D01*
D02*
G37*
G36*
X490500D02*
X489649Y166261D01*
X488851Y165801D01*
X488199Y165149D01*
X487739Y164351D01*
X487510Y163500D01*
X490500D01*
Y166490D01*
D02*
G37*
G36*
X494489Y162500D02*
X491500D01*
Y159511D01*
X492351Y159739D01*
X493149Y160199D01*
X493801Y160851D01*
X494262Y161649D01*
X494489Y162500D01*
D02*
G37*
G36*
X490500D02*
X487510D01*
X487739Y161649D01*
X488199Y160851D01*
X488851Y160199D01*
X489649Y159739D01*
X490500Y159511D01*
Y162500D01*
D02*
G37*
%LPD*%
G36*
X402863Y151887D02*
X402363Y151676D01*
X401796Y152055D01*
X400945Y152224D01*
X399772D01*
Y150000D01*
Y147776D01*
X400945D01*
X401796Y147945D01*
X402363Y148324D01*
X402863Y148113D01*
Y146959D01*
X393616D01*
X393409Y147459D01*
X393801Y147851D01*
X394262Y148649D01*
X394490Y149500D01*
X391000D01*
Y150000D01*
X390500D01*
Y153489D01*
X389800Y153302D01*
X389300Y153576D01*
Y155000D01*
X402863D01*
Y151887D01*
D02*
G37*
%LPC*%
G36*
X391500Y153489D02*
Y150500D01*
X394490D01*
X394262Y151351D01*
X393801Y152149D01*
X393149Y152801D01*
X392351Y153261D01*
X391500Y153489D01*
D02*
G37*
G36*
X398772Y152224D02*
X397598D01*
X396747Y152055D01*
X396026Y151573D01*
X395544Y150851D01*
X395474Y150500D01*
X398772D01*
Y152224D01*
D02*
G37*
G36*
Y149500D02*
X395474D01*
X395544Y149149D01*
X396026Y148427D01*
X396747Y147945D01*
X397598Y147776D01*
X398772D01*
Y149500D01*
D02*
G37*
%LPD*%
G36*
X427113Y154500D02*
X426739Y153851D01*
X426510Y153000D01*
X430000D01*
Y152500D01*
X430500D01*
Y149011D01*
X430853Y149105D01*
X431250Y148801D01*
Y147500D01*
X423417D01*
X423369Y147632D01*
X423334Y148000D01*
X423974Y148427D01*
X424456Y149149D01*
X424526Y149500D01*
X420728D01*
Y150000D01*
X420228D01*
Y152224D01*
X419055D01*
X418204Y152055D01*
X417483Y151573D01*
X417001Y150851D01*
X416997Y150832D01*
X416497Y150882D01*
Y153449D01*
X417500Y155000D01*
X426898D01*
X427113Y154500D01*
D02*
G37*
G36*
X440500Y144010D02*
X441351Y144238D01*
X442149Y144699D01*
X442801Y145351D01*
X443218Y146074D01*
X443742Y146258D01*
X445000Y145000D01*
Y137500D01*
X443500D01*
Y137961D01*
X443261Y138851D01*
X442801Y139649D01*
X442149Y140301D01*
X441351Y140761D01*
X440500Y140989D01*
Y137500D01*
X439500D01*
Y140989D01*
X438649Y140761D01*
X437851Y140301D01*
X437199Y139649D01*
X436738Y138851D01*
X436500Y137961D01*
Y137500D01*
X427500D01*
X425000Y140000D01*
Y142500D01*
X423417D01*
X423369Y142632D01*
X423334Y143000D01*
X423974Y143428D01*
X424456Y144149D01*
X424526Y144500D01*
X420728D01*
Y145500D01*
X424526D01*
X424456Y145851D01*
X424165Y146286D01*
X424433Y146786D01*
X431250D01*
X431523Y146841D01*
X431755Y146995D01*
X431909Y147227D01*
X431964Y147500D01*
X436500D01*
Y147039D01*
X436738Y146149D01*
X437199Y145351D01*
X437851Y144699D01*
X438649Y144238D01*
X439500Y144010D01*
Y147500D01*
X440500D01*
Y144010D01*
D02*
G37*
G36*
X485314Y128200D02*
X485472Y128041D01*
X484931Y127500D01*
X417500D01*
Y132886D01*
X417941Y133121D01*
X418204Y132946D01*
X419055Y132776D01*
X420228D01*
Y135000D01*
X420728D01*
Y135500D01*
X424526D01*
X424456Y135851D01*
X423974Y136573D01*
X423334Y137000D01*
X423369Y137368D01*
X423417Y137500D01*
X426491D01*
X426995Y136995D01*
X427227Y136841D01*
X427500Y136786D01*
X436500D01*
X436773Y136841D01*
X436874Y136803D01*
X437018Y136265D01*
X437439Y135535D01*
X438035Y134939D01*
X438765Y134518D01*
X439579Y134300D01*
X440421D01*
X441235Y134518D01*
X441965Y134939D01*
X442561Y135535D01*
X442982Y136265D01*
X443126Y136803D01*
X443227Y136841D01*
X443500Y136786D01*
X445000D01*
X445273Y136841D01*
X445505Y136995D01*
X445659Y137227D01*
X445714Y137500D01*
X452500D01*
X462531Y147531D01*
X485314Y147531D01*
Y128200D01*
D02*
G37*
%LPC*%
G36*
X422402Y152224D02*
X421228D01*
Y150500D01*
X424526D01*
X424456Y150851D01*
X423974Y151573D01*
X423253Y152055D01*
X422402Y152224D01*
D02*
G37*
G36*
X429500Y152000D02*
X426510D01*
X426739Y151149D01*
X427199Y150351D01*
X427851Y149699D01*
X428649Y149239D01*
X429500Y149011D01*
Y152000D01*
D02*
G37*
G36*
X478029Y141860D02*
X477931D01*
Y137817D01*
X481974D01*
Y137915D01*
X481665Y139070D01*
X481066Y140106D01*
X480220Y140952D01*
X479184Y141550D01*
X478029Y141860D01*
D02*
G37*
G36*
X476931D02*
X476833D01*
X475677Y141550D01*
X474641Y140952D01*
X473795Y140106D01*
X473197Y139070D01*
X472888Y137915D01*
Y137817D01*
X476931D01*
Y141860D01*
D02*
G37*
G36*
X424526Y134500D02*
X421228D01*
Y132776D01*
X422402D01*
X423253Y132946D01*
X423974Y133428D01*
X424456Y134149D01*
X424526Y134500D01*
D02*
G37*
G36*
X481974Y136817D02*
X477931D01*
Y132773D01*
X478029D01*
X479184Y133083D01*
X480220Y133681D01*
X481066Y134527D01*
X481665Y135563D01*
X481974Y136718D01*
Y136817D01*
D02*
G37*
G36*
X476931D02*
X472888D01*
Y136718D01*
X473197Y135563D01*
X473795Y134527D01*
X474641Y133681D01*
X475677Y133083D01*
X476833Y132773D01*
X476931D01*
Y136817D01*
D02*
G37*
%LPD*%
D12*
X214500Y484500D02*
X236638D01*
X206285Y479768D02*
X209768D01*
X214500Y484500D01*
X156000Y413862D02*
Y444000D01*
X299422Y494622D02*
Y514422D01*
X300000Y474000D02*
Y494043D01*
X299422Y494622D02*
X300000Y494043D01*
X299422Y514422D02*
X302500Y517500D01*
X146000Y438158D02*
Y449000D01*
X145000Y437158D02*
X146000Y438158D01*
X157000Y449000D02*
X160575Y445425D01*
Y429500D02*
Y445425D01*
X162000Y449000D02*
X168075Y442925D01*
X175645Y435355D02*
Y446355D01*
X173000Y449000D02*
X175645Y446355D01*
X177874Y439126D02*
Y448874D01*
X178000Y449000D01*
X181240Y491636D02*
Y496390D01*
X182106Y497257D01*
X184757Y506756D02*
X195600Y517600D01*
X184757Y488000D02*
Y506756D01*
X182106Y497257D02*
Y497500D01*
X143900Y513809D02*
X147020Y516930D01*
Y528953D01*
X194000Y511500D02*
X200000Y517500D01*
X194000Y452136D02*
Y511500D01*
Y452136D02*
X195964Y450172D01*
X197328D01*
X200735Y514424D02*
Y514487D01*
X202000Y504922D02*
Y513159D01*
X200000Y502922D02*
X202000Y504922D01*
X200735Y514424D02*
X202000Y513159D01*
X189000Y538668D02*
X189776Y539444D01*
X189000Y529937D02*
Y538668D01*
X182746Y513746D02*
X182918Y513918D01*
X184778D01*
X186646Y515786D02*
Y520201D01*
X184778Y513918D02*
X186646Y515786D01*
X195600Y517600D02*
Y559604D01*
X189776Y539444D02*
Y546431D01*
X188050Y630328D02*
X188100Y630378D01*
X188050Y548157D02*
Y630328D01*
X181239Y543836D02*
X185326D01*
X188050Y548157D02*
X189776Y546431D01*
X180575Y544500D02*
X181239Y543836D01*
X192500Y550000D02*
Y565000D01*
X186646Y520201D02*
X188508Y522063D01*
X189000D01*
X179129Y413625D02*
Y431871D01*
X175645Y435355D02*
X179129Y431871D01*
X183470Y430049D02*
Y433530D01*
X177874Y439126D02*
X183470Y433530D01*
Y430049D02*
X185083Y428437D01*
X185575D01*
X141000Y601000D02*
Y670000D01*
X200000Y517500D02*
Y601000D01*
X284000Y318000D02*
Y554000D01*
X292294Y544400D02*
X292397Y544297D01*
Y335103D02*
Y544297D01*
Y335103D02*
X292500Y335000D01*
X287650Y492256D02*
X288000Y491906D01*
Y450000D02*
Y491906D01*
X307500Y447350D02*
Y447500D01*
X287650Y492256D02*
Y492500D01*
X307500Y447500D02*
X311000Y451000D01*
X287575Y275075D02*
Y354925D01*
X287500Y275000D02*
X287575Y275075D01*
Y354925D02*
X287650Y355000D01*
X281039Y442039D02*
Y485000D01*
X278389Y299167D02*
Y563924D01*
Y299167D02*
X278924Y298633D01*
Y298389D02*
Y298633D01*
X275150Y521757D02*
X275450Y521456D01*
X275150Y521757D02*
Y522000D01*
X275450Y489767D02*
Y521456D01*
X262879Y660000D02*
X262939Y659939D01*
Y416061D02*
X263000Y416000D01*
X262939Y416061D02*
Y659939D01*
X259850Y465000D02*
Y537500D01*
X252500Y535154D02*
X254650Y533004D01*
X254400Y469866D02*
X254650Y470116D01*
X252500Y535154D02*
Y547500D01*
X254650Y470116D02*
Y533004D01*
X254400Y469622D02*
Y469866D01*
X251887Y522113D02*
X252000Y522000D01*
X249300Y522113D02*
X251887D01*
X244962Y526452D02*
X249300Y522113D01*
X244962Y526452D02*
X244981Y526471D01*
X438000Y525757D02*
Y526000D01*
X437500Y495000D02*
Y525256D01*
X438000Y525757D01*
X427939Y528939D02*
X428000Y529000D01*
X427939Y506961D02*
Y528939D01*
X427878Y506900D02*
X427939Y506961D01*
X227378Y521100D02*
X235378Y529100D01*
Y686900D01*
X224000Y518000D02*
Y526000D01*
X220000Y512500D02*
Y529000D01*
X415000Y508000D02*
Y532650D01*
X215000Y515000D02*
Y532500D01*
X235063Y509000D02*
X236063Y510000D01*
X210075Y509000D02*
X235063D01*
X208075Y507000D02*
X210075Y509000D01*
X166704Y448607D02*
X173075Y442237D01*
Y428437D02*
Y442237D01*
X166704Y448607D02*
Y448697D01*
X142900Y460400D02*
X150000Y467500D01*
X140669Y434746D02*
X142900Y436976D01*
Y460400D01*
X197000Y434000D02*
Y444000D01*
X181240Y445003D02*
Y483364D01*
Y445003D02*
X182000Y444243D01*
Y444000D02*
Y444243D01*
X205000Y460000D02*
X205172Y459828D01*
X206896Y459104D02*
X217526D01*
X206172Y459828D02*
X206896Y459104D01*
X205172Y459828D02*
X206172D01*
X217526Y459104D02*
X219138Y457492D01*
Y457000D02*
Y457492D01*
X199000Y463000D02*
X211796D01*
X212185Y462611D01*
X229537D01*
X197328Y450172D02*
X197500Y450000D01*
X200732Y489268D02*
Y491468D01*
Y489268D02*
X201000Y489000D01*
X200000Y492200D02*
Y502922D01*
X197836Y470749D02*
X209323D01*
X197664Y470576D02*
X197836Y470749D01*
X200000Y492200D02*
X200732Y491468D01*
X206175Y479878D02*
X206285Y479768D01*
X200000Y475000D02*
X208399D01*
X210295Y476896D01*
X209323Y470749D02*
X210975Y472400D01*
X215451Y476896D02*
X217063Y478508D01*
X210295Y476896D02*
X215451D01*
X213524Y497000D02*
X228925D01*
X231425Y494500D01*
X210783Y494259D02*
X213524Y497000D01*
X210783Y492248D02*
Y494259D01*
X210611Y492076D02*
X210783Y492248D01*
X207713Y484980D02*
X214733Y492000D01*
X207375Y484980D02*
X207713D01*
X214733Y492000D02*
X218063D01*
X163000Y514000D02*
X163221Y514221D01*
X165083Y521626D02*
X165575D01*
X173000Y514000D02*
X173379D01*
X151586Y625000D02*
X155000D01*
X151000Y672300D02*
X151200Y672500D01*
X151000Y625586D02*
Y672300D01*
Y625586D02*
X151586Y625000D01*
X399272Y131184D02*
X400000Y130456D01*
X399272Y131184D02*
Y135000D01*
X370000Y122500D02*
X387500Y140000D01*
X399272D01*
X352500Y122500D02*
X375000Y145000D01*
X399272D01*
X383000Y210500D02*
X398772D01*
X367500Y195000D02*
X383000Y210500D01*
X350000Y195000D02*
X370500Y215500D01*
X398772D01*
X150253Y429822D02*
Y445093D01*
Y429822D02*
X150575Y429500D01*
X144414Y430000D02*
X145000Y430586D01*
Y437158D01*
X155575Y413437D02*
X156000Y413862D01*
X163221Y519764D02*
X165083Y521626D01*
X143973Y532000D02*
X147020Y528953D01*
X139020Y532000D02*
X143973D01*
X163221Y514221D02*
Y519764D01*
X175575Y516063D02*
Y521626D01*
X180575Y516575D02*
Y536626D01*
X174735Y515356D02*
X174868D01*
X123059Y430000D02*
X131063D01*
X135316Y434746D02*
X140669D01*
X131063Y430000D02*
Y430492D01*
X135316Y434746D01*
X138937Y430000D02*
X144414D01*
X155000Y404988D02*
X155575Y405563D01*
X155000Y400000D02*
Y404988D01*
X193000Y413512D02*
X193075Y413437D01*
X208076Y466622D02*
X208454Y467000D01*
X217138D01*
X229537Y462611D02*
X231425Y464500D01*
X204175Y466622D02*
X208076D01*
X204321Y455754D02*
X208221Y451854D01*
X234776D01*
X236638Y449992D01*
X231425Y464500D02*
X236638D01*
Y449500D02*
Y449992D01*
X231425Y494500D02*
X236638D01*
X227012Y502000D02*
X227142Y501870D01*
X232648D01*
X157500Y473543D02*
X158189D01*
X173254Y492500D02*
X173760Y491994D01*
Y491636D02*
Y491994D01*
X158272Y492500D02*
X173254D01*
X177500Y483364D02*
Y500000D01*
X164621Y487500D02*
X165000D01*
X163361Y488760D02*
X164621Y487500D01*
X158272Y488760D02*
X163361D01*
X132500Y532370D02*
Y542500D01*
X132130Y532000D02*
X132500Y532370D01*
X150000Y492500D02*
Y497500D01*
X164621Y467500D02*
X165000D01*
X163578Y466457D02*
X164621Y467500D01*
X157500Y466457D02*
X163578D01*
X150000Y467500D02*
Y485020D01*
X158189Y473543D02*
X165000Y480354D01*
Y487500D01*
X236638Y474262D02*
Y474500D01*
X210975Y472400D02*
X234776D01*
X236638Y474262D01*
X244512Y464500D02*
X245012Y465000D01*
X167500Y404988D02*
X168075Y405563D01*
X167500Y400000D02*
Y404988D01*
X173075Y388454D02*
Y420563D01*
X172500Y387500D02*
Y387879D01*
X173075Y388454D01*
X193075Y364425D02*
Y405563D01*
X181483Y403397D02*
X182500Y402380D01*
X181483Y403397D02*
Y403889D01*
X179621Y405751D02*
X181483Y403889D01*
X179129Y405751D02*
X179621D01*
X182500Y355000D02*
Y402380D01*
X165000Y530075D02*
X165575Y529500D01*
X165000Y530075D02*
Y550000D01*
X160000Y377500D02*
Y421051D01*
X160575Y421626D01*
X185575Y399425D02*
X187500Y397500D01*
X185575Y399425D02*
Y420563D01*
X227012Y457000D02*
X227512Y457500D01*
X235000D01*
X244512Y449500D02*
X253075D01*
X257500Y437500D02*
Y457500D01*
X244512Y474500D02*
X245012Y475000D01*
X275000Y270000D02*
Y475000D01*
X244512Y484500D02*
X245012Y485000D01*
X347121Y480000D02*
X347500D01*
X355482Y466990D02*
Y486265D01*
X355000Y447500D02*
Y466507D01*
X355482Y466990D01*
X360000Y480000D02*
X360189Y479811D01*
Y452089D02*
X360378Y451900D01*
X360189Y452089D02*
Y479811D01*
X362500Y507500D02*
Y522500D01*
X244512Y494500D02*
X245012Y495000D01*
X175575Y529500D02*
Y548075D01*
X177500Y550000D01*
X170575Y516575D02*
Y536626D01*
X165413Y572087D02*
X167500Y570000D01*
X160000Y572087D02*
X165413D01*
X157500Y565000D02*
X158189D01*
X145000D02*
X157500D01*
X160000Y500000D02*
Y565000D01*
X168000Y686000D02*
X170575Y683425D01*
Y544500D02*
Y683425D01*
X244981Y624981D02*
X245000Y625000D01*
X244981Y526471D02*
Y624981D01*
X267500Y405000D02*
Y650000D01*
X272500Y480000D02*
Y597500D01*
X137500D02*
Y660000D01*
X201553Y456022D02*
X201821Y455754D01*
X204321D01*
X398772Y201684D02*
X400000Y200456D01*
X398772Y201684D02*
Y205500D01*
X340000Y127500D02*
Y270000D01*
X350000Y195000D02*
Y397500D01*
X360000Y220000D02*
Y437500D01*
X449850Y437650D02*
X450000Y437500D01*
X254000Y289000D02*
Y434000D01*
X193075Y364425D02*
X195000Y362500D01*
X302500Y377500D02*
X305000Y375000D01*
Y117500D02*
Y375000D01*
X116941Y423281D02*
X117122Y423100D01*
X116941Y423281D02*
Y430000D01*
X217063Y478508D02*
Y479000D01*
X245012Y465000D02*
X251000D01*
X245012Y475000D02*
X251000D01*
X245012Y485000D02*
X251000D01*
X245012Y495000D02*
X251000D01*
X243937Y509508D02*
X245799Y507646D01*
X243937Y509508D02*
Y510000D01*
X245799Y507646D02*
X249715D01*
X251085Y506277D01*
X251464D01*
X230221Y479622D02*
X230600D01*
X229599Y479000D02*
X230221Y479622D01*
X224937Y479000D02*
X229599D01*
X225012Y467000D02*
X226401Y468389D01*
X229424D01*
X230156Y489657D02*
X230424Y489389D01*
X225937Y492000D02*
X228799D01*
X230156Y489657D02*
Y490643D01*
X228799Y492000D02*
X230156Y490643D01*
X329466Y473809D02*
Y474188D01*
X311000Y451000D02*
Y471000D01*
X151200Y672500D02*
X151468Y672232D01*
X211232Y502000D02*
X219138D01*
X208075Y499500D02*
X208732D01*
X211232Y502000D01*
X205000Y492500D02*
Y512000D01*
X148924Y413768D02*
X150575Y415419D01*
X148924Y413389D02*
Y413768D01*
X150575Y415419D02*
Y421626D01*
X370000Y442500D02*
Y459000D01*
X168000Y514000D02*
X170575Y516575D01*
X178000Y514000D02*
X180575Y516575D01*
X168075Y413437D02*
Y442925D01*
X193000Y413512D02*
Y447000D01*
X174868Y515356D02*
X175575Y516063D01*
X173379Y514000D02*
X174735Y515356D01*
D16*
X339234Y477291D02*
Y477734D01*
Y477291D02*
X340961Y475565D01*
X339045Y477923D02*
X339234Y477734D01*
X339045Y487084D02*
X339631Y487670D01*
X339670D01*
X340256Y488256D02*
X348909D01*
X339670Y487670D02*
X340256Y488256D01*
X339045Y485108D02*
Y487084D01*
X336000Y502219D02*
Y518000D01*
Y502219D02*
X337077Y501142D01*
X340961Y475565D02*
X350903D01*
X335108Y477923D02*
Y485108D01*
X341653Y478563D02*
X345684D01*
X347121Y480000D01*
X337077Y485108D02*
Y501142D01*
X329645Y478563D02*
X332500D01*
X328268Y477185D02*
X329645Y478563D01*
X328268Y475386D02*
Y477185D01*
Y475386D02*
X329466Y474188D01*
X100000Y100000D02*
Y700000D01*
X500000D01*
Y100000D02*
Y700000D01*
X100000Y100000D02*
X500000D01*
D17*
X169883Y329614D02*
X172382D01*
X172882Y330114D01*
Y331114D01*
X172382Y331613D01*
X169883D01*
Y332613D02*
Y334613D01*
X170383D01*
X172382Y332613D01*
X172882D01*
X277383Y204614D02*
X279882D01*
X280382Y205114D01*
Y206114D01*
X279882Y206613D01*
X277383D01*
Y209613D02*
X277883Y208613D01*
X278882Y207613D01*
X279882D01*
X280382Y208113D01*
Y209113D01*
X279882Y209613D01*
X279382D01*
X278882Y209113D01*
Y207613D01*
X443720Y656100D02*
X441221D01*
X440722Y655601D01*
Y654601D01*
X441221Y654101D01*
X443720D01*
X440722Y653101D02*
Y652102D01*
Y652601D01*
X443720D01*
X443221Y653101D01*
X440722Y649103D02*
X443720D01*
X442221Y650602D01*
Y648603D01*
D37*
X342500Y467500D02*
D03*
X335216D02*
D03*
D41*
X160000Y572087D02*
D03*
Y565000D02*
D03*
X157500Y473543D02*
D03*
Y466457D02*
D03*
D53*
X335000Y457500D02*
D03*
X342087D02*
D03*
D81*
X189882Y170236D02*
D03*
D82*
Y188740D02*
D03*
Y207244D02*
D03*
D92*
X469429Y338957D02*
D03*
Y275584D02*
D03*
X470012Y362255D02*
D03*
X469167Y296811D02*
D03*
X469429Y384474D02*
D03*
X469429Y317989D02*
D03*
X469429Y406457D02*
D03*
D93*
X477303Y338957D02*
D03*
X485177D02*
D03*
X477303Y275584D02*
D03*
X485177D02*
D03*
X477886Y362255D02*
D03*
X485760D02*
D03*
X477041Y296811D02*
D03*
X484915D02*
D03*
X477303Y384474D02*
D03*
X485177D02*
D03*
X477303Y317989D02*
D03*
X485177D02*
D03*
X477303Y406457D02*
D03*
X485177D02*
D03*
D94*
X277248Y159000D02*
D03*
X157000Y150000D02*
D03*
X217000Y193000D02*
D03*
X270205Y200205D02*
D03*
X213577Y198996D02*
D03*
X234000Y184000D02*
D03*
X130000Y226000D02*
D03*
D98*
X158000Y650000D02*
D03*
X355000Y240000D02*
D03*
X331350Y506993D02*
D03*
X440000Y232500D02*
D03*
X442500Y437500D02*
D03*
X447511Y686993D02*
D03*
X221993Y558850D02*
D03*
Y568850D02*
D03*
Y548850D02*
D03*
Y538850D02*
D03*
X473986Y636087D02*
D03*
X440000Y163031D02*
D03*
X370000Y170000D02*
D03*
D99*
X158000Y660000D02*
D03*
X355000Y230000D02*
D03*
X221993Y578850D02*
D03*
X370000Y160000D02*
D03*
D100*
X341350Y506993D02*
D03*
X450000Y232500D02*
D03*
X452500Y437500D02*
D03*
X437511Y686993D02*
D03*
X463986Y636087D02*
D03*
X450000Y163031D02*
D03*
D101*
X141811Y226496D02*
D03*
D102*
X130000Y245000D02*
D03*
D103*
X154409D02*
D03*
D104*
X132382Y168740D02*
D03*
D105*
Y139803D02*
D03*
D106*
X145000Y565000D02*
D03*
X127284D02*
D03*
Y590590D02*
D03*
X387283Y500000D02*
D03*
X405000D02*
D03*
Y474409D02*
D03*
X274519Y678847D02*
D03*
X284519D02*
D03*
X294519D02*
D03*
X304519D02*
D03*
X314519D02*
D03*
D107*
X145000Y590590D02*
D03*
X387283Y474409D02*
D03*
D108*
X180000Y672500D02*
D03*
D109*
X220000D02*
D03*
X200000D02*
D03*
X210000Y662500D02*
D03*
X190000Y672500D02*
D03*
X200000Y662500D02*
D03*
X190000D02*
D03*
X180000D02*
D03*
X210000Y672500D02*
D03*
X220000Y662500D02*
D03*
D110*
X324519Y678847D02*
D03*
D111*
X477431Y117316D02*
D03*
X477500Y190000D02*
D03*
D112*
X477431Y137317D02*
D03*
X477500Y210000D02*
D03*
D113*
X120000Y680000D02*
D03*
Y670000D02*
D03*
Y660000D02*
D03*
Y640000D02*
D03*
Y650000D02*
D03*
D114*
Y630000D02*
D03*
D115*
X284000Y559000D02*
D03*
X259000D02*
D03*
X288000Y370000D02*
D03*
X271000D02*
D03*
X288000Y366000D02*
D03*
X271000D02*
D03*
X274000Y643000D02*
D03*
X256000D02*
D03*
X274000Y639000D02*
D03*
X256000D02*
D03*
X156000Y444000D02*
D03*
X300000Y474000D02*
D03*
X146000Y449000D02*
D03*
X157000D02*
D03*
X162000D02*
D03*
X173000D02*
D03*
X178000D02*
D03*
X184757Y488000D02*
D03*
X182106Y497500D02*
D03*
X207600Y520150D02*
D03*
X143900Y513809D02*
D03*
X197650Y509523D02*
D03*
X182746Y513746D02*
D03*
X185326Y543836D02*
D03*
X192500Y550000D02*
D03*
X336000Y518000D02*
D03*
X141000Y670000D02*
D03*
Y601000D02*
D03*
X200000D02*
D03*
X284000Y554000D02*
D03*
X292294Y544400D02*
D03*
X307500Y447350D02*
D03*
X288000Y450000D02*
D03*
X287650Y492500D02*
D03*
Y355000D02*
D03*
X284000Y318000D02*
D03*
X281039Y485000D02*
D03*
Y442039D02*
D03*
X275150Y522000D02*
D03*
X275450Y489767D02*
D03*
X278389Y563924D02*
D03*
X278924Y298389D02*
D03*
X262879Y660000D02*
D03*
X259850Y465000D02*
D03*
Y537500D02*
D03*
X263000Y416000D02*
D03*
X252000Y522000D02*
D03*
X438000Y526000D02*
D03*
X428000Y529000D02*
D03*
X227378Y521100D02*
D03*
X224000Y526000D02*
D03*
X220000Y529000D02*
D03*
X415000Y532650D02*
D03*
X224000Y518000D02*
D03*
X215000Y515000D02*
D03*
X166704Y448697D02*
D03*
X140000Y449000D02*
D03*
X197000Y434000D02*
D03*
Y444000D02*
D03*
X182000D02*
D03*
X205000Y460000D02*
D03*
X199000Y463000D02*
D03*
X200735Y514487D02*
D03*
X197664Y470576D02*
D03*
X206175Y479878D02*
D03*
X200000Y475000D02*
D03*
X210611Y492076D02*
D03*
X207375Y484980D02*
D03*
X193000Y447000D02*
D03*
X197500Y450000D02*
D03*
X150253Y445093D02*
D03*
X201000Y489000D02*
D03*
X205000Y492500D02*
D03*
X173000Y514000D02*
D03*
X178000D02*
D03*
X168000D02*
D03*
X163000D02*
D03*
X235378Y686900D02*
D03*
X168000Y686000D02*
D03*
X370000Y459000D02*
D03*
X378000Y218500D02*
D03*
X148924Y413389D02*
D03*
X483000Y174000D02*
D03*
X205000Y512000D02*
D03*
X208075Y499500D02*
D03*
Y507000D02*
D03*
X427878Y660600D02*
D03*
X454111Y663924D02*
D03*
X151200Y672500D02*
D03*
X324622Y671900D02*
D03*
X158100Y632122D02*
D03*
X348909Y488256D02*
D03*
X329000Y489000D02*
D03*
X415000Y508000D02*
D03*
X427878Y506900D02*
D03*
X311000Y471000D02*
D03*
X329466Y473809D02*
D03*
X424378Y325100D02*
D03*
Y347100D02*
D03*
X423622Y370100D02*
D03*
X424000Y392000D02*
D03*
X424378Y303100D02*
D03*
X423622Y283100D02*
D03*
X432000Y284000D02*
D03*
X431622Y302400D02*
D03*
X428635Y412939D02*
D03*
X431500Y367674D02*
D03*
X431622Y344900D02*
D03*
Y322400D02*
D03*
X230424Y489389D02*
D03*
X229424Y468389D02*
D03*
X230600Y479622D02*
D03*
X251464Y506277D02*
D03*
X254400Y469622D02*
D03*
X251000Y495000D02*
D03*
Y485000D02*
D03*
Y475000D02*
D03*
Y465000D02*
D03*
X117122Y423100D02*
D03*
X272500Y597500D02*
D03*
X416000Y270000D02*
D03*
X240000Y575000D02*
D03*
X164000Y324000D02*
D03*
X125000Y218000D02*
D03*
X275000Y270000D02*
D03*
X254000Y289000D02*
D03*
X182500Y355000D02*
D03*
X195000Y362500D02*
D03*
X160000Y377500D02*
D03*
X305000Y117500D02*
D03*
X287500Y275000D02*
D03*
X292500Y335000D02*
D03*
X302500Y377500D02*
D03*
X474000Y242000D02*
D03*
X254000Y434000D02*
D03*
X195600Y559622D02*
D03*
X192500Y565000D02*
D03*
X201553Y456022D02*
D03*
X188100Y630378D02*
D03*
X137500Y660000D02*
D03*
Y597500D02*
D03*
X272500Y480000D02*
D03*
X267500Y650000D02*
D03*
Y405000D02*
D03*
X232648Y501870D02*
D03*
X155000Y625000D02*
D03*
X245000D02*
D03*
X167500Y570000D02*
D03*
X177500Y550000D02*
D03*
X437500Y495000D02*
D03*
X220000Y512500D02*
D03*
X215000Y532500D02*
D03*
X362500Y507500D02*
D03*
Y522500D02*
D03*
X370000Y442500D02*
D03*
X302500Y517500D02*
D03*
X360378Y451900D02*
D03*
X355000Y447500D02*
D03*
X347500Y480000D02*
D03*
X340000Y127500D02*
D03*
Y270000D02*
D03*
X275000Y475000D02*
D03*
X360000Y220000D02*
D03*
Y437500D02*
D03*
X257500D02*
D03*
Y457500D02*
D03*
X235000D02*
D03*
X350000Y397500D02*
D03*
X187500D02*
D03*
X165000Y550000D02*
D03*
X172500Y387500D02*
D03*
X167500Y400000D02*
D03*
X252500Y547500D02*
D03*
X165000Y467500D02*
D03*
X150000Y497500D02*
D03*
X132500Y542500D02*
D03*
X165000Y487500D02*
D03*
X160000Y500000D02*
D03*
X177500D02*
D03*
X253075Y449500D02*
D03*
X204175Y466622D02*
D03*
X155000Y400000D02*
D03*
X360000Y480000D02*
D03*
X350903Y475565D02*
D03*
X355482Y486265D02*
D03*
X472500Y665000D02*
D03*
X470000Y437500D02*
D03*
X430878Y391400D02*
D03*
X352500Y122500D02*
D03*
X350000Y195000D02*
D03*
X367500D02*
D03*
X370000Y122500D02*
D03*
X345339Y148000D02*
D03*
D116*
X185106Y280669D02*
D03*
X110000Y326000D02*
D03*
X141169Y311284D02*
D03*
X269000Y220000D02*
D03*
X282000Y261000D02*
D03*
X226000Y252000D02*
D03*
X168000Y288000D02*
D03*
X236000Y260000D02*
D03*
X147000Y648000D02*
D03*
Y615000D02*
D03*
X296000D02*
D03*
Y640000D02*
D03*
X329000Y639000D02*
D03*
X317000Y348000D02*
D03*
X115000Y349000D02*
D03*
Y364000D02*
D03*
X196000Y232000D02*
D03*
X269000Y230000D02*
D03*
Y261000D02*
D03*
X196000Y269000D02*
D03*
X176000D02*
D03*
X159000Y303000D02*
D03*
X175000D02*
D03*
X159000Y364000D02*
D03*
X396000Y261000D02*
D03*
X397000Y448000D02*
D03*
X452000Y261000D02*
D03*
X491000Y262000D02*
D03*
Y231000D02*
D03*
Y163000D02*
D03*
X412500Y465000D02*
D03*
X442500Y207500D02*
D03*
Y217500D02*
D03*
X390888Y221095D02*
D03*
X429636Y223949D02*
D03*
X410000Y213500D02*
D03*
Y200000D02*
D03*
X430000Y152500D02*
D03*
X440000Y137500D02*
D03*
Y147500D02*
D03*
X391000Y150000D02*
D03*
X410000Y142500D02*
D03*
Y130000D02*
D03*
D117*
X181240Y483364D02*
D03*
D118*
X177500D02*
D03*
X173760D02*
D03*
Y491636D02*
D03*
X181240D02*
D03*
D119*
X158272Y492500D02*
D03*
D120*
Y488760D02*
D03*
Y485020D02*
D03*
X150000D02*
D03*
Y492500D02*
D03*
D121*
X189000Y529937D02*
D03*
Y522063D02*
D03*
X165575Y521626D02*
D03*
Y529500D02*
D03*
X175575Y521626D02*
D03*
Y529500D02*
D03*
X180575Y536626D02*
D03*
Y544500D02*
D03*
X155575Y405563D02*
D03*
Y413437D02*
D03*
X160575Y421626D02*
D03*
Y429500D02*
D03*
X179129Y405751D02*
D03*
Y413625D02*
D03*
X193075Y413437D02*
D03*
Y405563D02*
D03*
X150575Y421626D02*
D03*
Y429500D02*
D03*
X185575Y428437D02*
D03*
Y420563D02*
D03*
X173075D02*
D03*
Y428437D02*
D03*
X168075Y405563D02*
D03*
Y413437D02*
D03*
X170575Y544500D02*
D03*
Y536626D02*
D03*
D122*
X139020Y532000D02*
D03*
X132130D02*
D03*
D123*
X218063Y502000D02*
D03*
X225937D02*
D03*
X217063Y492000D02*
D03*
X224937D02*
D03*
Y479000D02*
D03*
X217063D02*
D03*
X222937Y467000D02*
D03*
X215063D02*
D03*
X227012Y457000D02*
D03*
X219138D02*
D03*
X236638Y484500D02*
D03*
X244512D02*
D03*
X236638Y494500D02*
D03*
X244512D02*
D03*
X243937Y510000D02*
D03*
X236063D02*
D03*
X244512Y464500D02*
D03*
X236638D02*
D03*
X244512Y449500D02*
D03*
X236638D02*
D03*
X131063Y430000D02*
D03*
X138937D02*
D03*
X236638Y474500D02*
D03*
X244512D02*
D03*
D124*
X116941Y430000D02*
D03*
X123059D02*
D03*
D125*
X339045Y485108D02*
D03*
X337077D02*
D03*
X335108D02*
D03*
Y477923D02*
D03*
X337077D02*
D03*
X339045D02*
D03*
D126*
X332500Y484469D02*
D03*
Y482500D02*
D03*
Y480532D02*
D03*
Y478563D02*
D03*
X341653D02*
D03*
Y480532D02*
D03*
Y482500D02*
D03*
Y484469D02*
D03*
D127*
X398772Y205500D02*
D03*
Y210500D02*
D03*
Y215500D02*
D03*
Y220500D02*
D03*
X420228Y205500D02*
D03*
Y210500D02*
D03*
Y215500D02*
D03*
Y220500D02*
D03*
X420728Y150000D02*
D03*
Y145000D02*
D03*
Y140000D02*
D03*
Y135000D02*
D03*
X399272Y150000D02*
D03*
Y145000D02*
D03*
Y140000D02*
D03*
Y135000D02*
D03*
D128*
X409500Y213000D02*
D03*
X410000Y142500D02*
D03*
D129*
X400000Y194544D02*
D03*
Y200456D02*
D03*
Y124544D02*
D03*
Y130456D02*
D03*
M02*
