M48
;Layer_Color=9474304
;FILE_FORMAT=2:5
INCH,LZ
;TYPE=PLATED
T1F00S00C0.01200
T2F00S00C0.02000
T3F00S00C0.02800
T4F00S00C0.03150
T6F00S00C0.03543
T7F00S00C0.03898
T8F00S00C0.04000
T9F00S00C0.04016
T10F00S00C0.04331
T11F00S00C0.05118
T12F00S00C0.07283
T13F00S00C0.19685
%
T01
X0305Y0113
X034Y01275
X03525Y01225
X037
X0345339Y0148
X0483Y0174
X0474Y0242
X0432Y0284
X0423622Y02831
X0416Y027
X0424378Y03031
X0431622Y03024
X034Y027
X036Y022
X0378Y02185
X03675Y0195
X035
X02875Y0275
X0275Y027
X0278924Y0298389
X0254Y0296
X0125Y0218
X0155Y04
X0148924Y0413389
X0150253Y0445093
X0156Y0444
X0146Y0449
X014
X0117122Y04231
X0157Y0449
X0162
X0166704Y0448697
X0173Y0449
X0178
X0182Y0444
X0193Y0447
X0197Y0444
X01975Y045
X0201553Y0456022
X0205Y046
X0204175Y0466622
X0199Y0463
X0197Y0434
X01875Y03975
X01675Y04
X01725Y03875
X0160378Y03794
X0195Y03625
X0199Y0355
X0271Y0366
Y037
X0288
Y0366
X028765Y0355
X02925Y0335
X0284Y0318
X03025Y03775
X02675Y0405
X0263Y0416
X026Y0421
X0254Y0434
X0253075Y04495
X02575Y04575
X025985Y0465
X0251
X0235Y04575
X0229424Y0468389
X0165Y04675
X0281039Y0425
X0344Y0445
X036Y0421
X037Y0425
Y0459
X035Y03975
X0424Y0392
X0430878Y03914
X0428635Y0412939
X0423622Y03701
X04315Y0367674
X0431622Y03449
X0424378Y03471
Y03251
X0431622Y03224
X047Y04375
X0454Y0501
X0457Y0514
X0454Y0526
X0457Y0529
X0415Y053265
Y0517
X0381Y0506
X0368
X0344Y0511
X0348Y0518
X034Y0501
X0349Y0485
X034Y0475
X0381Y0537
X0292294Y05444
X0284Y0554
Y0559
X0278389Y0563924
X0259Y0559
X02525Y05475
X025985Y05375
X0275Y0537
X0252Y0522
X0251464Y0506277
X0251Y0495
Y0485
Y0475
X02544Y0469622
X0275Y0475
X02725Y048
X027545Y0489767
X0281039Y0485
X028765Y04925
X0288Y0511
X0232648Y050187
X0230424Y0489389
X02306Y0479622
X0206175Y0479878
X0207375Y048498
X0205Y04925
X0210611Y0492076
X0208075Y04995
Y0507
X0205Y0512
X0200735Y0514487
X019765Y0509523
X0182746Y0513746
X0178Y0514
X0173
X0168
X0163
X016Y05
X0165Y04875
X0184757Y0488
X0182106Y04975
X01775Y05
X0201Y0489
X02Y0475
X0197664Y0470576
X02076Y052015
X0215Y0515
X022Y05125
X0224Y0518
X0227378Y05211
X0224Y0526
X022Y0529
X0215Y05325
X01925Y055
X01956Y0559622
X01925Y0565
X0185326Y0543836
X01775Y055
X0165
X01675Y057
X02Y0601
X024Y0575
X02725Y05975
X0141Y0601
X01375Y05975
X01325Y05425
X01439Y0513809
X015Y04975
X0155Y0625
X0137Y0656
X0141Y067
X01512Y06725
X0168Y0686
X01581Y0632122
X01881Y0630378
X0245Y0625
X0256Y0639
Y0643
X0274
Y0639
X02675Y065
X0262879Y066
X0235378Y06869
X0324622Y06719
X0427878Y06606
X0454111Y0663924
X04725Y0665
T02
X0157Y015
X0265565Y0132735
X0263865Y0108193
X0287865Y0122193
X0289Y014
X0253Y0195
X025Y0228
X02505Y02475
X0274Y0238
X0276Y0256
X013Y0226
X0176Y0313
X01765Y03285
X0198Y0319
X0201Y0337
T03
X02055Y01075
X02145
X029Y0108
X0272Y0146
X0262
X0391Y015
X041Y01425
Y013
X044Y01375
Y01475
X043Y01525
X0491Y0163
Y0231
Y0262
X0452Y0261
X04425Y02175
Y02075
X0429636Y0223949
X041Y02135
Y02
X0390888Y0221095
X0396Y0261
X0323
Y0179
X0312
X0311Y0261
X0249Y0256
X0239
X02175Y02875
X0196Y0296
X0199Y0306
X0196Y0225
X0205Y0202
X0214
X0274Y0225
X0147Y0372
X0109Y0348
X0168Y0338
X0183
X0217Y0348
X0317
X0397Y0448
X04125Y0465
X0329Y0639
T04
X0469429Y0275584
X0477303
X0485177
X0484915Y0296811
X0477041
X0469167
X0469429Y0317989
X0477303
X0485177
X0485177Y0338957
X0477303
X0469429
X0470012Y0362255
X0477886
X048576
X0485177Y0384474
X0477303
X0469429
X0469429Y0406457
X0477303
X0485177
T06
X0274519Y0678847
X0284519
X0294519
X0304519
X0314519
X0324519
T07
X0387283Y0474409
X0405
Y05
X0387283
X0145Y0565
X0127284
Y059059
X0145
T08
X0309Y0455
Y0465
X0359
Y0455
Y0445
Y0435
Y0475
Y0485
Y0495
Y0505
Y0515
X0309Y0495
Y0485
Y0475
T09
X018Y06625
Y06725
X019
Y06625
X02
Y06725
X021
Y06625
X022
Y06725
T10
X037Y016
Y017
X0355Y023
Y024
X044Y02325
X045
Y0163031
X044
X04425Y04375
X04525
X034985Y0410493
X033985
X0221993Y053885
Y054885
Y055885
Y056885
Y057885
X012Y063
Y064
Y065
Y066
Y067
Y068
X0158Y066
Y065
X0437511Y0686993
X0447511
X0463986Y0636087
X0473986
T11
X0456Y0118
Y0138
Y0192225
Y0212225
T12
X0189882Y0170236
Y018874
Y0207244
T13
X0131382Y0137862
Y016824
M30
