G04*
G04 #@! TF.GenerationSoftware,Altium Limited,Altium Designer,22.6.1 (34)*
G04*
G04 Layer_Color=8388736*
%FSLAX25Y25*%
%MOIN*%
G70*
G04*
G04 #@! TF.SameCoordinates,7D94B0EB-34EF-48B3-BABB-182D4114F96C*
G04*
G04*
G04 #@! TF.FilePolarity,Negative*
G04*
G01*
G75*
%ADD16C,0.01000*%
%ADD17C,0.00236*%
%ADD19R,0.05000X0.02402*%
%ADD20R,0.02402X0.05000*%
%ADD24R,0.05709X0.03740*%
%ADD30R,0.03937X0.07087*%
%ADD32R,0.05512X0.03740*%
%ADD33R,0.06127X0.03765*%
%ADD34R,0.04750X0.05938*%
%ADD35R,0.04969X0.03182*%
%ADD37R,0.03740X0.05512*%
%ADD39R,0.03937X0.02756*%
%ADD40R,0.03740X0.05709*%
%ADD42R,0.02362X0.05709*%
%ADD43R,0.05906X0.09449*%
%ADD45R,0.04961X0.02402*%
%ADD46R,0.04940X0.05733*%
%ADD50R,0.04969X0.03378*%
%ADD52R,0.05363X0.04743*%
%ADD54R,0.04343X0.03556*%
%ADD55R,0.06706X0.04343*%
%ADD56R,0.05524X0.05524*%
%ADD57R,0.16548X0.10642*%
%ADD58R,0.15761X0.08792*%
%ADD59R,0.08792X0.15761*%
%ADD60R,0.06509X0.05328*%
%ADD61R,0.04737X0.06115*%
%ADD62R,0.06902X0.06706*%
%ADD63R,0.04737X0.03162*%
G04:AMPARAMS|DCode=64|XSize=33.59mil|YSize=55.24mil|CornerRadius=5.92mil|HoleSize=0mil|Usage=FLASHONLY|Rotation=180.000|XOffset=0mil|YOffset=0mil|HoleType=Round|Shape=RoundedRectangle|*
%AMROUNDEDRECTD64*
21,1,0.03359,0.04341,0,0,180.0*
21,1,0.02175,0.05524,0,0,180.0*
1,1,0.01184,-0.01088,0.02170*
1,1,0.01184,0.01088,0.02170*
1,1,0.01184,0.01088,-0.02170*
1,1,0.01184,-0.01088,-0.02170*
%
%ADD64ROUNDEDRECTD64*%
%ADD65R,0.02362X0.04134*%
%ADD66R,0.06115X0.04737*%
%ADD67R,0.07887X0.18517*%
%ADD68R,0.06509X0.04934*%
%ADD69R,0.05328X0.06115*%
%ADD70R,0.08792X0.14861*%
G04:AMPARAMS|DCode=71|XSize=29.65mil|YSize=39.5mil|CornerRadius=5.95mil|HoleSize=0mil|Usage=FLASHONLY|Rotation=0.000|XOffset=0mil|YOffset=0mil|HoleType=Round|Shape=RoundedRectangle|*
%AMROUNDEDRECTD71*
21,1,0.02965,0.02760,0,0,0.0*
21,1,0.01776,0.03950,0,0,0.0*
1,1,0.01190,0.00888,-0.01380*
1,1,0.01190,-0.00888,-0.01380*
1,1,0.01190,-0.00888,0.01380*
1,1,0.01190,0.00888,0.01380*
%
%ADD71ROUNDEDRECTD71*%
%ADD72R,0.06706X0.06902*%
%ADD73C,0.07099*%
%ADD74R,0.07099X0.07099*%
%ADD75R,0.07099X0.07099*%
G04:AMPARAMS|DCode=76|XSize=145.8mil|YSize=59.18mil|CornerRadius=16.8mil|HoleSize=0mil|Usage=FLASHONLY|Rotation=180.000|XOffset=0mil|YOffset=0mil|HoleType=Round|Shape=RoundedRectangle|*
%AMROUNDEDRECTD76*
21,1,0.14580,0.02559,0,0,180.0*
21,1,0.11221,0.05918,0,0,180.0*
1,1,0.03359,-0.05610,0.01280*
1,1,0.03359,0.05610,0.01280*
1,1,0.03359,0.05610,-0.01280*
1,1,0.03359,-0.05610,-0.01280*
%
%ADD76ROUNDEDRECTD76*%
G04:AMPARAMS|DCode=77|XSize=145.8mil|YSize=59.18mil|CornerRadius=16.8mil|HoleSize=0mil|Usage=FLASHONLY|Rotation=90.000|XOffset=0mil|YOffset=0mil|HoleType=Round|Shape=RoundedRectangle|*
%AMROUNDEDRECTD77*
21,1,0.14580,0.02559,0,0,90.0*
21,1,0.11221,0.05918,0,0,90.0*
1,1,0.03359,0.01280,0.05610*
1,1,0.03359,0.01280,-0.05610*
1,1,0.03359,-0.01280,-0.05610*
1,1,0.03359,-0.01280,0.05610*
%
%ADD77ROUNDEDRECTD77*%
G04:AMPARAMS|DCode=78|XSize=165.48mil|YSize=59.18mil|CornerRadius=16.8mil|HoleSize=0mil|Usage=FLASHONLY|Rotation=90.000|XOffset=0mil|YOffset=0mil|HoleType=Round|Shape=RoundedRectangle|*
%AMROUNDEDRECTD78*
21,1,0.16548,0.02559,0,0,90.0*
21,1,0.13189,0.05918,0,0,90.0*
1,1,0.03359,0.01280,0.06594*
1,1,0.03359,0.01280,-0.06594*
1,1,0.03359,-0.01280,-0.06594*
1,1,0.03359,-0.01280,0.06594*
%
%ADD78ROUNDEDRECTD78*%
%ADD79R,0.20485X0.20485*%
%ADD80C,0.20485*%
%ADD81R,0.11024X0.11024*%
%ADD82C,0.11024*%
%ADD83C,0.06706*%
%ADD84R,0.06706X0.06706*%
%ADD85R,0.06902X0.06902*%
%ADD86C,0.06902*%
%ADD87R,0.06706X0.06706*%
%ADD88R,0.07887X0.07887*%
%ADD89C,0.07887*%
%ADD90C,0.07296*%
%ADD91R,0.07296X0.07296*%
%ADD92R,0.05118X0.05118*%
%ADD93C,0.05118*%
%ADD94C,0.03200*%
%ADD95C,0.05800*%
%ADD96C,0.04000*%
D16*
X100000Y100000D02*
Y700000D01*
X500000D01*
Y100000D02*
Y700000D01*
X100000Y100000D02*
X500000D01*
D17*
X169883Y329614D02*
X172382D01*
X172882Y330114D01*
Y331114D01*
X172382Y331613D01*
X169883D01*
Y332613D02*
Y334613D01*
X170383D01*
X172382Y332613D01*
X172882D01*
X277383Y204614D02*
X279882D01*
X280382Y205114D01*
Y206114D01*
X279882Y206613D01*
X277383D01*
Y209613D02*
X277883Y208613D01*
X278882Y207613D01*
X279882D01*
X280382Y208113D01*
Y209113D01*
X279882Y209613D01*
X279382D01*
X278882Y209113D01*
Y207613D01*
X443720Y656100D02*
X441221D01*
X440722Y655601D01*
Y654601D01*
X441221Y654101D01*
X443720D01*
X440722Y653101D02*
Y652102D01*
Y652601D01*
X443720D01*
X443221Y653101D01*
X440722Y649103D02*
X443720D01*
X442221Y650602D01*
Y648603D01*
D19*
X189925Y456098D02*
D03*
Y459642D02*
D03*
Y463185D02*
D03*
Y466728D02*
D03*
Y470311D02*
D03*
Y473854D02*
D03*
Y477398D02*
D03*
Y480941D02*
D03*
Y484484D02*
D03*
Y488027D02*
D03*
Y491610D02*
D03*
Y495154D02*
D03*
Y498697D02*
D03*
Y502240D02*
D03*
Y505784D02*
D03*
D20*
X138000Y454882D02*
D03*
X141543D02*
D03*
X145087D02*
D03*
X148630D02*
D03*
X152213D02*
D03*
X155756D02*
D03*
X159299D02*
D03*
X162843D02*
D03*
X166386D02*
D03*
X169929D02*
D03*
X173512D02*
D03*
X177055D02*
D03*
X180598D02*
D03*
X184142D02*
D03*
Y507000D02*
D03*
X180598D02*
D03*
X177055D02*
D03*
X173512D02*
D03*
X169929D02*
D03*
X166386D02*
D03*
X162843D02*
D03*
X159299D02*
D03*
X155756D02*
D03*
X152213D02*
D03*
X148630D02*
D03*
X145087D02*
D03*
X141543D02*
D03*
X138000D02*
D03*
D24*
X378000Y231000D02*
D03*
Y223323D02*
D03*
X462500Y436339D02*
D03*
Y428661D02*
D03*
D30*
X147000Y522000D02*
D03*
X156843D02*
D03*
D32*
X208575Y532772D02*
D03*
Y525488D02*
D03*
X446161Y668858D02*
D03*
Y676142D02*
D03*
D33*
X112382Y341240D02*
D03*
Y331988D02*
D03*
X184882Y294488D02*
D03*
Y303740D02*
D03*
X212382Y216240D02*
D03*
Y206988D02*
D03*
D34*
X118137Y319000D02*
D03*
X109863D02*
D03*
D35*
X129882Y317799D02*
D03*
Y324114D02*
D03*
X204882Y280957D02*
D03*
Y287272D02*
D03*
D37*
X133740Y349114D02*
D03*
X141024D02*
D03*
X212165Y311614D02*
D03*
X204882D02*
D03*
X233740Y226240D02*
D03*
X241024D02*
D03*
X406142Y237500D02*
D03*
X398858D02*
D03*
X413858D02*
D03*
X421142D02*
D03*
X406142Y167500D02*
D03*
X398858D02*
D03*
X413858D02*
D03*
X421142D02*
D03*
D39*
X167500Y135000D02*
D03*
Y138740D02*
D03*
Y142480D02*
D03*
X157264D02*
D03*
Y138740D02*
D03*
Y135000D02*
D03*
D40*
X466839Y242000D02*
D03*
X459161D02*
D03*
X246220Y274114D02*
D03*
X238543D02*
D03*
X166043Y316614D02*
D03*
X173721D02*
D03*
X268543Y191614D02*
D03*
X276220D02*
D03*
X341339Y490000D02*
D03*
X333661D02*
D03*
X173839Y632500D02*
D03*
X166161D02*
D03*
X463661Y657500D02*
D03*
X471339D02*
D03*
X477503Y173500D02*
D03*
X469826D02*
D03*
X350161Y148000D02*
D03*
X357839D02*
D03*
D42*
X141850Y337500D02*
D03*
X148150D02*
D03*
D43*
X229784Y297500D02*
D03*
X215216D02*
D03*
D45*
X170217Y187480D02*
D03*
X162382Y183740D02*
D03*
Y191220D02*
D03*
D46*
X148133Y319114D02*
D03*
X141631D02*
D03*
X148133Y329114D02*
D03*
X141631D02*
D03*
X223498Y270000D02*
D03*
X230000D02*
D03*
X223498Y280000D02*
D03*
X230000D02*
D03*
X248133Y186240D02*
D03*
X241631D02*
D03*
X248133Y196240D02*
D03*
X241631D02*
D03*
D50*
X417500Y481941D02*
D03*
Y488059D02*
D03*
X404067Y459146D02*
D03*
Y465264D02*
D03*
D52*
X427500Y669150D02*
D03*
Y675849D02*
D03*
D54*
X431240Y292500D02*
D03*
X423760Y289941D02*
D03*
Y295059D02*
D03*
X431240Y312500D02*
D03*
X423760Y309941D02*
D03*
Y315059D02*
D03*
X431240Y357500D02*
D03*
X423760Y354941D02*
D03*
Y360059D02*
D03*
X431240Y380000D02*
D03*
X423760Y377441D02*
D03*
Y382559D02*
D03*
X431240Y402500D02*
D03*
X423760Y399941D02*
D03*
Y405059D02*
D03*
X431240Y272500D02*
D03*
X423760Y269941D02*
D03*
Y275059D02*
D03*
X431240Y335000D02*
D03*
X423760Y332441D02*
D03*
Y337559D02*
D03*
D55*
X428602Y494715D02*
D03*
Y500285D02*
D03*
X416398Y494715D02*
D03*
Y500295D02*
D03*
D56*
X369000Y240000D02*
D03*
X377268D02*
D03*
X453732Y173000D02*
D03*
X462000D02*
D03*
X448268Y242500D02*
D03*
X440000D02*
D03*
X451634Y427500D02*
D03*
X443366D02*
D03*
X385000Y459000D02*
D03*
X376732D02*
D03*
X255000Y274000D02*
D03*
X263268D02*
D03*
X192000Y317000D02*
D03*
X183732D02*
D03*
X292268Y192000D02*
D03*
X284000D02*
D03*
X333366Y497500D02*
D03*
X341634D02*
D03*
X165866Y640000D02*
D03*
X174134D02*
D03*
X463866Y647000D02*
D03*
X472134D02*
D03*
X357134Y158000D02*
D03*
X348866D02*
D03*
D57*
X180504Y252000D02*
D03*
X212000D02*
D03*
X116634Y291614D02*
D03*
X148130D02*
D03*
X260996Y159500D02*
D03*
X229500D02*
D03*
X394252Y125000D02*
D03*
X425748D02*
D03*
Y200000D02*
D03*
X394252D02*
D03*
D58*
X427500Y247500D02*
D03*
X392500D02*
D03*
X412000Y278000D02*
D03*
X412500Y295000D02*
D03*
Y315000D02*
D03*
Y337500D02*
D03*
Y360000D02*
D03*
Y382500D02*
D03*
Y405000D02*
D03*
X148000Y684000D02*
D03*
X140000Y217500D02*
D03*
X194882Y221240D02*
D03*
X295000Y201000D02*
D03*
X260000Y575000D02*
D03*
Y587500D02*
D03*
Y597500D02*
D03*
X132382Y191240D02*
D03*
Y113740D02*
D03*
X182500Y650000D02*
D03*
X312500Y640000D02*
D03*
X475000Y625000D02*
D03*
X415000Y690000D02*
D03*
X475000Y687500D02*
D03*
X352500Y115000D02*
D03*
X442500Y174000D02*
D03*
X354000Y170000D02*
D03*
X215000Y687000D02*
D03*
X180752Y688000D02*
D03*
X427500Y437500D02*
D03*
X452500Y294065D02*
D03*
Y381016D02*
D03*
Y272500D02*
D03*
Y315000D02*
D03*
Y359295D02*
D03*
Y336134D02*
D03*
Y402500D02*
D03*
X350000Y187500D02*
D03*
X367500D02*
D03*
X370000Y115000D02*
D03*
D59*
X192500Y330000D02*
D03*
X250000Y307500D02*
D03*
X172500Y350000D02*
D03*
X280000Y225000D02*
D03*
X307500Y482500D02*
D03*
X320000D02*
D03*
X265575Y452000D02*
D03*
X245000Y515835D02*
D03*
X235000Y515835D02*
D03*
X130000Y425000D02*
D03*
Y405000D02*
D03*
X262500Y287500D02*
D03*
X162000Y267000D02*
D03*
X302500Y462500D02*
D03*
X317500Y507500D02*
D03*
X245000Y671000D02*
D03*
X324519Y658847D02*
D03*
X284519Y661347D02*
D03*
X294519D02*
D03*
X437500Y637500D02*
D03*
X455000Y195000D02*
D03*
Y137500D02*
D03*
Y117500D02*
D03*
Y215000D02*
D03*
D60*
X312500Y661890D02*
D03*
Y655000D02*
D03*
X194882Y280669D02*
D03*
Y287559D02*
D03*
X224882Y199685D02*
D03*
Y192795D02*
D03*
D61*
X266618Y497000D02*
D03*
X259531D02*
D03*
X266618Y507000D02*
D03*
X259531D02*
D03*
X393543Y507500D02*
D03*
X386457D02*
D03*
D62*
X198075Y524913D02*
D03*
Y532000D02*
D03*
X465000Y676043D02*
D03*
Y668957D02*
D03*
D63*
X121968Y340354D02*
D03*
Y336614D02*
D03*
Y332874D02*
D03*
X132795D02*
D03*
Y336614D02*
D03*
Y340354D02*
D03*
X205295Y302854D02*
D03*
Y299114D02*
D03*
Y295374D02*
D03*
X194468D02*
D03*
Y299114D02*
D03*
Y302854D02*
D03*
X232795Y214980D02*
D03*
Y211240D02*
D03*
Y207500D02*
D03*
X221969D02*
D03*
Y211240D02*
D03*
Y214980D02*
D03*
D64*
X168642Y326496D02*
D03*
X176122D02*
D03*
X172382Y336732D02*
D03*
X276142Y201496D02*
D03*
X283622D02*
D03*
X279882Y211732D02*
D03*
D65*
X251122Y294744D02*
D03*
X254862Y284114D02*
D03*
X247382D02*
D03*
D66*
X437500Y291457D02*
D03*
Y298543D02*
D03*
Y311457D02*
D03*
Y318543D02*
D03*
Y356457D02*
D03*
Y363543D02*
D03*
Y378957D02*
D03*
Y386043D02*
D03*
Y271457D02*
D03*
Y278543D02*
D03*
Y333957D02*
D03*
Y341043D02*
D03*
Y402500D02*
D03*
Y409587D02*
D03*
D67*
X256496Y212500D02*
D03*
X243504D02*
D03*
D68*
X232382Y192598D02*
D03*
Y199882D02*
D03*
D69*
X160575Y534500D02*
D03*
X166284D02*
D03*
X147366D02*
D03*
X153075D02*
D03*
D70*
X320000Y462500D02*
D03*
D71*
X445462Y658620D02*
D03*
X441721D02*
D03*
X437981D02*
D03*
Y648581D02*
D03*
X445462D02*
D03*
D72*
X398957Y227500D02*
D03*
X406043D02*
D03*
X421043D02*
D03*
X413957D02*
D03*
X397913Y157500D02*
D03*
X405000D02*
D03*
X420000D02*
D03*
X412913D02*
D03*
D73*
X158000Y650000D02*
D03*
X355000Y240000D02*
D03*
X331350Y506993D02*
D03*
X440000Y232500D02*
D03*
X442500Y437500D02*
D03*
X447511Y686993D02*
D03*
X221993Y558850D02*
D03*
Y568850D02*
D03*
Y548850D02*
D03*
Y538850D02*
D03*
X473986Y636087D02*
D03*
X440000Y163031D02*
D03*
X370000Y170000D02*
D03*
D74*
X158000Y660000D02*
D03*
X355000Y230000D02*
D03*
X221993Y578850D02*
D03*
X370000Y160000D02*
D03*
D75*
X341350Y506993D02*
D03*
X450000Y232500D02*
D03*
X452500Y437500D02*
D03*
X437511Y686993D02*
D03*
X463986Y636087D02*
D03*
X450000Y163031D02*
D03*
D76*
X141811Y226496D02*
D03*
D77*
X130000Y245000D02*
D03*
D78*
X154409D02*
D03*
D79*
X132382Y168740D02*
D03*
D80*
Y139803D02*
D03*
D81*
X189882Y170236D02*
D03*
D82*
Y188740D02*
D03*
Y207244D02*
D03*
D83*
X145000Y565000D02*
D03*
X127284D02*
D03*
Y590590D02*
D03*
X387283Y500000D02*
D03*
X405000D02*
D03*
Y474409D02*
D03*
X274519Y678847D02*
D03*
X284519D02*
D03*
X294519D02*
D03*
X304519D02*
D03*
X314519D02*
D03*
D84*
X145000Y590590D02*
D03*
X387283Y474409D02*
D03*
D85*
X180000Y672500D02*
D03*
D86*
X220000D02*
D03*
X200000D02*
D03*
X210000Y662500D02*
D03*
X190000Y672500D02*
D03*
X200000Y662500D02*
D03*
X190000D02*
D03*
X180000D02*
D03*
X210000Y672500D02*
D03*
X220000Y662500D02*
D03*
D87*
X324519Y678847D02*
D03*
D88*
X477431Y117316D02*
D03*
X477500Y190000D02*
D03*
D89*
X477431Y137317D02*
D03*
X477500Y210000D02*
D03*
D90*
X120000Y680000D02*
D03*
Y670000D02*
D03*
Y660000D02*
D03*
Y640000D02*
D03*
Y650000D02*
D03*
D91*
Y630000D02*
D03*
D92*
X469429Y338957D02*
D03*
Y275584D02*
D03*
X470012Y362255D02*
D03*
X469167Y296811D02*
D03*
X469429Y384474D02*
D03*
X469429Y317989D02*
D03*
X469429Y406457D02*
D03*
D93*
X477303Y338957D02*
D03*
X485177D02*
D03*
X477303Y275584D02*
D03*
X485177D02*
D03*
X477886Y362255D02*
D03*
X485760D02*
D03*
X477041Y296811D02*
D03*
X484915D02*
D03*
X477303Y384474D02*
D03*
X485177D02*
D03*
X477303Y317989D02*
D03*
X485177D02*
D03*
X477303Y406457D02*
D03*
X485177D02*
D03*
D94*
X284000Y559000D02*
D03*
X259000D02*
D03*
X288000Y370000D02*
D03*
X271000D02*
D03*
X288000Y366000D02*
D03*
X271000D02*
D03*
X274000Y643000D02*
D03*
X256000D02*
D03*
X274000Y639000D02*
D03*
X256000D02*
D03*
X156000Y444000D02*
D03*
X300000Y474000D02*
D03*
X146000Y449000D02*
D03*
X157000D02*
D03*
X162000D02*
D03*
X173000D02*
D03*
X178000D02*
D03*
X184757Y488000D02*
D03*
X182106Y497500D02*
D03*
X207600Y520150D02*
D03*
X143900Y513809D02*
D03*
X197650Y509523D02*
D03*
X182746Y513746D02*
D03*
X185326Y543836D02*
D03*
X192500Y550000D02*
D03*
X336000Y518000D02*
D03*
X141000Y670000D02*
D03*
Y601000D02*
D03*
X200000D02*
D03*
X284000Y554000D02*
D03*
X292294Y544400D02*
D03*
X307500Y447350D02*
D03*
X288000Y450000D02*
D03*
X287650Y492500D02*
D03*
Y355000D02*
D03*
X284000Y318000D02*
D03*
X281039Y485000D02*
D03*
Y442039D02*
D03*
X275150Y522000D02*
D03*
X275450Y489767D02*
D03*
X278389Y563924D02*
D03*
X278924Y298389D02*
D03*
X262879Y660000D02*
D03*
X259850Y465000D02*
D03*
Y537500D02*
D03*
X263000Y416000D02*
D03*
X252000Y522000D02*
D03*
X438000Y526000D02*
D03*
X428000Y529000D02*
D03*
X227378Y521100D02*
D03*
X224000Y526000D02*
D03*
X220000Y529000D02*
D03*
X415000Y532650D02*
D03*
X224000Y518000D02*
D03*
X215000Y515000D02*
D03*
X166704Y448697D02*
D03*
X140000Y449000D02*
D03*
X197000Y434000D02*
D03*
Y444000D02*
D03*
X182000D02*
D03*
X205000Y460000D02*
D03*
X199000Y463000D02*
D03*
X200735Y514487D02*
D03*
X197664Y470576D02*
D03*
X206175Y479878D02*
D03*
X200000Y475000D02*
D03*
X210611Y492076D02*
D03*
X207375Y484980D02*
D03*
X193000Y447000D02*
D03*
X197500Y450000D02*
D03*
X150253Y445093D02*
D03*
X201000Y489000D02*
D03*
X205000Y492500D02*
D03*
X173000Y514000D02*
D03*
X178000D02*
D03*
X168000D02*
D03*
X163000D02*
D03*
X235378Y686900D02*
D03*
X168000Y686000D02*
D03*
X370000Y459000D02*
D03*
X378000Y218500D02*
D03*
X148924Y413389D02*
D03*
X483000Y174000D02*
D03*
X205000Y512000D02*
D03*
X208075Y499500D02*
D03*
Y507000D02*
D03*
X427878Y660600D02*
D03*
X454111Y663924D02*
D03*
X151200Y672500D02*
D03*
X324622Y671900D02*
D03*
X158100Y632122D02*
D03*
X348909Y488256D02*
D03*
X329000Y489000D02*
D03*
X415000Y508000D02*
D03*
X427878Y506900D02*
D03*
X311000Y471000D02*
D03*
X329466Y473809D02*
D03*
X424378Y325100D02*
D03*
Y347100D02*
D03*
X423622Y370100D02*
D03*
X424000Y392000D02*
D03*
X424378Y303100D02*
D03*
X423622Y283100D02*
D03*
X432000Y284000D02*
D03*
X431622Y302400D02*
D03*
X428635Y412939D02*
D03*
X431500Y367674D02*
D03*
X431622Y344900D02*
D03*
Y322400D02*
D03*
X230424Y489389D02*
D03*
X229424Y468389D02*
D03*
X230600Y479622D02*
D03*
X251464Y506277D02*
D03*
X254400Y469622D02*
D03*
X251000Y495000D02*
D03*
Y485000D02*
D03*
Y475000D02*
D03*
Y465000D02*
D03*
X117122Y423100D02*
D03*
X272500Y597500D02*
D03*
X416000Y270000D02*
D03*
X240000Y575000D02*
D03*
X164000Y324000D02*
D03*
X125000Y218000D02*
D03*
X275000Y270000D02*
D03*
X254000Y289000D02*
D03*
X182500Y355000D02*
D03*
X195000Y362500D02*
D03*
X160000Y377500D02*
D03*
X305000Y117500D02*
D03*
X287500Y275000D02*
D03*
X292500Y335000D02*
D03*
X302500Y377500D02*
D03*
X474000Y242000D02*
D03*
X254000Y434000D02*
D03*
X195600Y559622D02*
D03*
X192500Y565000D02*
D03*
X201553Y456022D02*
D03*
X188100Y630378D02*
D03*
X137500Y660000D02*
D03*
Y597500D02*
D03*
X272500Y480000D02*
D03*
X267500Y650000D02*
D03*
Y405000D02*
D03*
X232648Y501870D02*
D03*
X155000Y625000D02*
D03*
X245000D02*
D03*
X167500Y570000D02*
D03*
X177500Y550000D02*
D03*
X437500Y495000D02*
D03*
X220000Y512500D02*
D03*
X215000Y532500D02*
D03*
X362500Y507500D02*
D03*
Y522500D02*
D03*
X370000Y442500D02*
D03*
X302500Y517500D02*
D03*
X360378Y451900D02*
D03*
X355000Y447500D02*
D03*
X347500Y480000D02*
D03*
X340000Y127500D02*
D03*
Y270000D02*
D03*
X275000Y475000D02*
D03*
X360000Y220000D02*
D03*
Y437500D02*
D03*
X257500D02*
D03*
Y457500D02*
D03*
X235000D02*
D03*
X350000Y397500D02*
D03*
X187500D02*
D03*
X165000Y550000D02*
D03*
X172500Y387500D02*
D03*
X167500Y400000D02*
D03*
X252500Y547500D02*
D03*
X165000Y467500D02*
D03*
X150000Y497500D02*
D03*
X132500Y542500D02*
D03*
X165000Y487500D02*
D03*
X160000Y500000D02*
D03*
X177500D02*
D03*
X253075Y449500D02*
D03*
X204175Y466622D02*
D03*
X155000Y400000D02*
D03*
X360000Y480000D02*
D03*
X350903Y475565D02*
D03*
X355482Y486265D02*
D03*
X472500Y665000D02*
D03*
X470000Y437500D02*
D03*
X430878Y391400D02*
D03*
X352500Y122500D02*
D03*
X350000Y195000D02*
D03*
X367500D02*
D03*
X370000Y122500D02*
D03*
X345339Y148000D02*
D03*
D95*
X185106Y280669D02*
D03*
X110000Y326000D02*
D03*
X141169Y311284D02*
D03*
X269000Y220000D02*
D03*
X282000Y261000D02*
D03*
X226000Y252000D02*
D03*
X168000Y288000D02*
D03*
X236000Y260000D02*
D03*
X147000Y648000D02*
D03*
Y615000D02*
D03*
X296000D02*
D03*
Y640000D02*
D03*
X329000Y639000D02*
D03*
X317000Y348000D02*
D03*
X115000Y349000D02*
D03*
Y364000D02*
D03*
X196000Y232000D02*
D03*
X269000Y230000D02*
D03*
Y261000D02*
D03*
X196000Y269000D02*
D03*
X176000D02*
D03*
X159000Y303000D02*
D03*
X175000D02*
D03*
X159000Y364000D02*
D03*
X396000Y261000D02*
D03*
X397000Y448000D02*
D03*
X452000Y261000D02*
D03*
X491000Y262000D02*
D03*
Y231000D02*
D03*
Y163000D02*
D03*
X412500Y465000D02*
D03*
X442500Y207500D02*
D03*
Y217500D02*
D03*
X390888Y221095D02*
D03*
X429636Y223949D02*
D03*
X410000Y213500D02*
D03*
Y200000D02*
D03*
X430000Y152500D02*
D03*
X440000Y137500D02*
D03*
Y147500D02*
D03*
X391000Y150000D02*
D03*
X410000Y142500D02*
D03*
Y130000D02*
D03*
D96*
X277248Y159000D02*
D03*
X157000Y150000D02*
D03*
X217000Y193000D02*
D03*
X270205Y200205D02*
D03*
X213577Y198996D02*
D03*
X234000Y184000D02*
D03*
X130000Y226000D02*
D03*
M02*
