G04*
G04 #@! TF.GenerationSoftware,Altium Limited,Altium Designer,22.6.1 (34)*
G04*
G04 Layer_Color=65535*
%FSLAX25Y25*%
%MOIN*%
G70*
G04*
G04 #@! TF.SameCoordinates,26821394-4C13-4CD4-A4B4-11F4951342BE*
G04*
G04*
G04 #@! TF.FilePolarity,Positive*
G04*
G01*
G75*
%ADD10C,0.00984*%
%ADD11C,0.00787*%
%ADD12C,0.01000*%
%ADD13C,0.01575*%
%ADD14C,0.00500*%
%ADD15C,0.00600*%
%ADD16C,0.00236*%
D10*
X438484Y491000D02*
G03*
X438484Y491000I-492J0D01*
G01*
X210823Y276913D02*
G03*
X210823Y276913I-492J0D01*
G01*
X140823Y358913D02*
G03*
X140823Y358913I-492J0D01*
G01*
X248492Y184653D02*
G03*
X248492Y184653I-492J0D01*
G01*
X159626Y245000D02*
G03*
X159626Y245000I-492J0D01*
G01*
X138551Y511748D02*
G03*
X138551Y511748I-492J0D01*
G01*
X424252Y298602D02*
G03*
X424252Y298602I-492J0D01*
G01*
Y318602D02*
G03*
X424252Y318602I-492J0D01*
G01*
Y363602D02*
G03*
X424252Y363602I-492J0D01*
G01*
Y386102D02*
G03*
X424252Y386102I-492J0D01*
G01*
Y408602D02*
G03*
X424252Y408602I-492J0D01*
G01*
X182079Y327087D02*
G03*
X182079Y327087I-492J0D01*
G01*
X257079Y246087D02*
G03*
X257079Y246087I-492J0D01*
G01*
X172126Y133622D02*
G03*
X172126Y133622I-492J0D01*
G01*
X270944Y130280D02*
G03*
X270944Y130280I-492J0D01*
G01*
X190374Y162165D02*
G03*
X190374Y162165I-492J0D01*
G01*
X424252Y278602D02*
G03*
X424252Y278602I-492J0D01*
G01*
Y341102D02*
G03*
X424252Y341102I-492J0D01*
G01*
X145492Y595709D02*
G03*
X145492Y595709I-492J0D01*
G01*
X387776Y469291D02*
G03*
X387776Y469291I-492J0D01*
G01*
X180492Y680079D02*
G03*
X180492Y680079I-492J0D01*
G01*
X449202Y658620D02*
G03*
X449202Y658620I-492J0D01*
G01*
X463819Y338858D02*
G03*
X463819Y338858I-492J0D01*
G01*
Y275485D02*
G03*
X463819Y275485I-492J0D01*
G01*
X464402Y362156D02*
G03*
X464402Y362156I-492J0D01*
G01*
X463556Y296713D02*
G03*
X463556Y296713I-492J0D01*
G01*
X463819Y384376D02*
G03*
X463819Y384376I-492J0D01*
G01*
X463819Y317891D02*
G03*
X463819Y317891I-492J0D01*
G01*
X463819Y406358D02*
G03*
X463819Y406358I-492J0D01*
G01*
D11*
X100669Y262717D02*
G03*
X99684Y261732I0J-984D01*
G01*
Y228268D02*
G03*
X100669Y227284I984J0D01*
G01*
X440056Y222225D02*
X471945D01*
X440056Y182225D02*
X471945D01*
Y222225D01*
X440056Y182225D02*
Y222225D01*
X429902Y503905D02*
X430098D01*
X429902Y492095D02*
X430098D01*
Y503905D01*
X429902Y492095D02*
Y503905D01*
X260508Y192244D02*
X261492D01*
X260508Y197756D02*
X261492D01*
X202457Y277898D02*
X206394D01*
X202457D02*
Y281244D01*
Y290102D02*
X206394D01*
X202457Y286756D02*
Y290102D01*
X132457Y359898D02*
X136394D01*
X132457D02*
Y363244D01*
Y372102D02*
X136394D01*
X132457Y368756D02*
Y372102D01*
X240126Y185638D02*
X244063D01*
X240126D02*
Y188984D01*
Y197843D02*
X244063D01*
X240126Y194496D02*
Y197843D01*
X447252Y499232D02*
X456748D01*
X447252Y490768D02*
X456748D01*
X419606Y508343D02*
X420394D01*
X419606Y513658D02*
X420394D01*
X100669Y262717D02*
X156693D01*
X99685Y228268D02*
Y261732D01*
X156693Y227284D02*
Y235551D01*
X100669Y227284D02*
X133346D01*
X150276D02*
X156693D01*
X156772Y254449D02*
Y262717D01*
X117331Y342739D02*
Y348054D01*
X126189Y356912D02*
X158669D01*
Y342739D02*
Y356912D01*
Y315574D02*
Y329747D01*
X126189Y315574D02*
X158669D01*
X117331Y324432D02*
X126189Y315574D01*
X117331Y324432D02*
Y329747D01*
Y348054D02*
X126189Y356912D01*
X227232Y316252D02*
Y325748D01*
X218768Y316252D02*
Y325748D01*
X185151Y309452D02*
X188276D01*
X185151Y303325D02*
X188276D01*
X186819Y453087D02*
X191720D01*
Y508461D02*
Y508795D01*
Y453087D02*
Y453421D01*
X186819Y508795D02*
X191720D01*
X430158Y288169D02*
Y289547D01*
X427008Y288169D02*
X430158D01*
Y295453D02*
Y296831D01*
X427008D02*
X430158D01*
Y308169D02*
Y309547D01*
X427008Y308169D02*
X430158D01*
Y315453D02*
Y316831D01*
X427008D02*
X430158D01*
Y353169D02*
Y354547D01*
X427008Y353169D02*
X430158D01*
Y360453D02*
Y361831D01*
X427008D02*
X430158D01*
X152705Y644410D02*
X163295D01*
Y665590D01*
X152705D02*
X163295D01*
X152705Y644410D02*
Y665590D01*
X349705Y245590D02*
X360295D01*
X349705Y224410D02*
Y245590D01*
Y224410D02*
X360295D01*
Y245590D01*
X380756Y226669D02*
Y227654D01*
X375244Y226669D02*
Y227654D01*
X178331Y260656D02*
Y265971D01*
X187189Y274830D02*
X219669D01*
Y260656D02*
Y274830D01*
Y233491D02*
Y247664D01*
X187189Y233491D02*
X219669D01*
X178331Y242349D02*
X187189Y233491D01*
X178331Y242349D02*
Y247664D01*
Y265971D02*
X187189Y274830D01*
X430158Y375669D02*
Y377047D01*
X427008Y375669D02*
X430158D01*
Y382953D02*
Y384331D01*
X427008D02*
X430158D01*
Y398169D02*
Y399547D01*
X427008Y398169D02*
X430158D01*
Y405453D02*
Y406831D01*
X427008D02*
X430158D01*
X334259Y405198D02*
Y415789D01*
Y405198D02*
X355440D01*
Y415789D01*
X334259D02*
X355440D01*
X262681Y494736D02*
X263469D01*
X262681Y499264D02*
X263469D01*
X262681Y504736D02*
X263469D01*
X262681Y509264D02*
X263469D01*
X145622Y527118D02*
X158221D01*
X145622Y516882D02*
X158221D01*
X211429Y528835D02*
Y529425D01*
X205720Y528835D02*
Y529425D01*
X209539Y321714D02*
Y322286D01*
X214461Y321714D02*
Y322286D01*
X185031Y326102D02*
X188969D01*
X185031Y313898D02*
X188969D01*
X185031D02*
Y326102D01*
X188969Y313898D02*
Y326102D01*
X198146Y327705D02*
Y328295D01*
X203854Y327705D02*
Y328295D01*
X260437Y228063D02*
X263563D01*
X260437Y221937D02*
X263563D01*
X278854Y246705D02*
Y247295D01*
X273146Y246705D02*
Y247295D01*
X263968Y232898D02*
Y245102D01*
X260032Y232898D02*
Y245102D01*
Y232898D02*
X263968D01*
X260032Y245102D02*
X263968D01*
X160709Y132835D02*
X164055D01*
X160709Y144646D02*
X164055D01*
X287011Y130898D02*
Y131488D01*
X292720Y130898D02*
Y131488D01*
X277834Y117091D02*
Y129295D01*
X273897Y117091D02*
Y129295D01*
Y117091D02*
X277834D01*
X273897Y129295D02*
X277834D01*
X274303Y106518D02*
X277428D01*
X274303Y112645D02*
X277428D01*
X176890Y163740D02*
Y213740D01*
X196870D02*
X202874D01*
X176890D02*
X182894D01*
X202874Y163740D02*
Y213740D01*
X196870Y163740D02*
X202874D01*
X176890D02*
X182894D01*
X462508Y239244D02*
X463492D01*
X462508Y244756D02*
X463492D01*
X434410Y227205D02*
Y237795D01*
Y227205D02*
X455590D01*
Y237795D01*
X434410D02*
X455590D01*
X435236Y294606D02*
Y295394D01*
X439764Y294606D02*
Y295394D01*
X435236Y314606D02*
Y315394D01*
X439764Y314606D02*
Y315394D01*
X435236Y359606D02*
Y360394D01*
X439764Y359606D02*
Y360394D01*
X435236Y382106D02*
Y382894D01*
X439764Y382106D02*
Y382894D01*
X435236Y274606D02*
Y275394D01*
X439764Y274606D02*
Y275394D01*
X430158Y268169D02*
Y269547D01*
X427008Y268169D02*
X430158D01*
Y275453D02*
Y276831D01*
X427008D02*
X430158D01*
X435236Y337106D02*
Y337894D01*
X439764Y337106D02*
Y337894D01*
X430158Y330669D02*
Y332047D01*
X427008Y330669D02*
X430158D01*
Y337953D02*
Y339331D01*
X427008D02*
X430158D01*
X435236Y405650D02*
Y406437D01*
X439764Y405650D02*
Y406437D01*
X436909Y432205D02*
Y442795D01*
Y432205D02*
X458090D01*
Y442795D01*
X436909D02*
X458090D01*
X465256Y432008D02*
Y432992D01*
X459744Y432008D02*
Y432992D01*
X453102Y681698D02*
Y692288D01*
X431920D02*
X453102D01*
X431920Y681698D02*
Y692288D01*
Y681698D02*
X453102D01*
X227508Y285244D02*
X228492D01*
X227508Y290756D02*
X228492D01*
X156508Y374756D02*
X157492D01*
X156508Y369244D02*
X157492D01*
X290994Y233252D02*
Y242748D01*
X299459Y233252D02*
Y242748D01*
X169508Y319146D02*
X170492D01*
X169508Y324854D02*
X170492D01*
X247252Y230516D02*
Y232799D01*
Y245201D02*
Y247484D01*
X228748D02*
X247252D01*
X228748Y230516D02*
Y232799D01*
Y245201D02*
Y247484D01*
Y230516D02*
X247252D01*
X249487Y132067D02*
X252243D01*
X249487Y116319D02*
X252243D01*
X163150Y186417D02*
Y188543D01*
X166339Y181496D02*
X169449D01*
Y190157D02*
Y193465D01*
Y181496D02*
Y184803D01*
X166339Y193465D02*
X169449D01*
X213196Y168009D02*
X222054Y176867D01*
X213196Y144387D02*
Y149702D01*
Y144387D02*
X222054Y135529D01*
X254534D01*
Y149702D01*
Y162694D02*
Y176867D01*
X222054D02*
X254534D01*
X213196Y162694D02*
Y168009D01*
X174180Y344279D02*
Y355721D01*
X183063Y344279D02*
Y355721D01*
X163509Y344279D02*
Y355721D01*
X172392Y344279D02*
Y355721D01*
X248441Y262279D02*
Y273721D01*
X239559Y262279D02*
Y273721D01*
X236703Y262028D02*
Y273470D01*
X227820Y262028D02*
Y273470D01*
X272424Y157472D02*
Y168914D01*
X281307Y157472D02*
Y168914D01*
X261424Y157472D02*
Y168914D01*
X270306Y157472D02*
Y168914D01*
X311398Y123799D02*
Y124587D01*
X306476Y123799D02*
Y124587D01*
X421811Y104331D02*
X430669Y113189D01*
Y131496D02*
Y136811D01*
X421811Y145669D02*
X430669Y136811D01*
X389331Y145669D02*
X421811D01*
X389331Y131496D02*
Y145669D01*
Y104331D02*
Y118504D01*
Y104331D02*
X421811D01*
X430669Y113189D02*
Y118504D01*
X131697Y589587D02*
X140587D01*
X131811Y566004D02*
X140587D01*
X147933Y569527D02*
Y586079D01*
X124350Y569527D02*
Y586079D01*
X216698Y533259D02*
X227289D01*
Y584440D01*
X216698D02*
X227289D01*
X216698Y533259D02*
Y584440D01*
X370508Y509244D02*
X371492D01*
X370508Y514756D02*
X371492D01*
X389606Y505236D02*
X390394D01*
X389606Y509764D02*
X390394D01*
X391697Y475413D02*
X400587D01*
X391697Y498996D02*
X400472D01*
X384350Y478921D02*
Y495472D01*
X407933Y478921D02*
Y495472D01*
X225984Y657500D02*
Y677500D01*
X174016Y657500D02*
X225984D01*
X174016D02*
Y677500D01*
X225984D01*
X169508Y629744D02*
X170492D01*
X169508Y635256D02*
X170492D01*
X269519Y683847D02*
X329519D01*
X269519Y673847D02*
X329519D01*
Y683847D01*
X269519Y673847D02*
Y683847D01*
X447824Y651632D02*
Y655569D01*
X435619Y651632D02*
Y655569D01*
X447824D01*
X435619Y651632D02*
X447824D01*
X467008Y660256D02*
X467992D01*
X467008Y654744D02*
X467992D01*
X431756Y666779D02*
Y678221D01*
X423244Y666779D02*
Y678221D01*
X458395Y630792D02*
X479576D01*
X458395D02*
Y641383D01*
X479576D01*
Y630792D02*
Y641383D01*
X443307Y672205D02*
Y672795D01*
X449016Y672205D02*
Y672795D01*
X430669Y188189D02*
Y193504D01*
X389331Y179331D02*
X421811D01*
X389331D02*
Y193504D01*
Y206496D02*
Y220669D01*
X421811D01*
X430669Y211811D01*
Y206496D02*
Y211811D01*
X421811Y179331D02*
X430669Y188189D01*
X473172Y170744D02*
X474157D01*
X473172Y176256D02*
X474157D01*
X434410Y157736D02*
Y168327D01*
Y157736D02*
X455590D01*
Y168327D01*
X434410D02*
X455590D01*
X364705Y175591D02*
X375295D01*
X364705Y154409D02*
Y175591D01*
Y154409D02*
X375295D01*
Y175591D01*
X353508Y150756D02*
X354492D01*
X353508Y145244D02*
X354492D01*
X440056Y148000D02*
X471945D01*
X440056Y108000D02*
X471945D01*
Y148000D01*
X440056Y108000D02*
Y148000D01*
X408299Y457456D02*
Y466953D01*
X399834Y457456D02*
Y466953D01*
X81260Y681260D02*
X103799D01*
X81260Y678740D02*
X103799D01*
X80472Y680000D02*
X81260Y681260D01*
X80472Y680000D02*
X81260Y678740D01*
X80472Y670000D02*
X81260Y668740D01*
X80472Y670000D02*
X81260Y671260D01*
Y668740D02*
X103799D01*
X81260Y671260D02*
X103799D01*
X80472Y650000D02*
X81260Y648740D01*
X80472Y650000D02*
X81260Y651260D01*
Y648740D02*
X103799D01*
X81260Y651260D02*
X103799D01*
Y624409D02*
X114390D01*
X103799D02*
Y685591D01*
X114390D01*
Y624409D02*
Y685591D01*
X81260Y631260D02*
X103799D01*
X81260Y628740D02*
X103799D01*
X80472Y630000D02*
X81260Y631260D01*
X80472Y630000D02*
X81260Y628740D01*
Y641260D02*
X103799D01*
X81260Y638740D02*
X103799D01*
X80472Y640000D02*
X81260Y641260D01*
X80472Y640000D02*
X81260Y638740D01*
Y661260D02*
X103799D01*
X81260Y658740D02*
X103799D01*
X80472Y660000D02*
X81260Y661260D01*
X80472Y660000D02*
X81260Y658740D01*
X465098Y343287D02*
X489508D01*
Y334626D02*
Y343287D01*
X465098Y334626D02*
X489508D01*
X465098D02*
Y343287D01*
Y279914D02*
X489508D01*
Y271253D02*
Y279914D01*
X465098Y271253D02*
X489508D01*
X465098D02*
Y279914D01*
X465682Y366585D02*
X490091D01*
Y357924D02*
Y366585D01*
X465682Y357924D02*
X490091D01*
X465682D02*
Y366585D01*
X464836Y301142D02*
X489246D01*
Y292480D02*
Y301142D01*
X464836Y292480D02*
X489246D01*
X464836D02*
Y301142D01*
X465098Y388805D02*
X489508D01*
Y380144D02*
Y388805D01*
X465098Y380144D02*
X489508D01*
X465098D02*
Y388805D01*
X465098Y322320D02*
X489508D01*
Y313658D02*
Y322320D01*
X465098Y313658D02*
X489508D01*
X465098D02*
Y322320D01*
X465098Y410787D02*
X489508D01*
Y402126D02*
Y410787D01*
X465098Y402126D02*
X489508D01*
X465098D02*
Y410787D01*
X402205Y234646D02*
X402795D01*
X402205Y240354D02*
X402795D01*
X417205D02*
X417795D01*
X417205Y234646D02*
X417795D01*
X402205Y164646D02*
X402795D01*
X402205Y170354D02*
X402795D01*
X417205D02*
X417795D01*
X417205Y164646D02*
X417795D01*
D12*
X115634Y184972D02*
X147130D01*
X128429Y121980D02*
X134335D01*
X147130Y133791D02*
Y184972D01*
X115634Y133791D02*
Y184972D01*
Y133728D02*
X128429Y121917D01*
X134335D02*
X147130Y133728D01*
X366999Y485499D02*
X366499Y485999D01*
X365500D01*
X365000Y485499D01*
Y484999D01*
X365500Y484500D01*
X366499D01*
X366999Y484000D01*
Y483500D01*
X366499Y483000D01*
X365500D01*
X365000Y483500D01*
X369998Y485499D02*
X369498Y485999D01*
X368499D01*
X367999Y485499D01*
Y483500D01*
X368499Y483000D01*
X369498D01*
X369998Y483500D01*
X370998Y485999D02*
Y483000D01*
X372997D01*
X366999Y475499D02*
X366499Y475999D01*
X365500D01*
X365000Y475499D01*
Y474999D01*
X365500Y474500D01*
X366499D01*
X366999Y474000D01*
Y473500D01*
X366499Y473000D01*
X365500D01*
X365000Y473500D01*
X367999Y475999D02*
Y473000D01*
X369498D01*
X369998Y473500D01*
Y475499D01*
X369498Y475999D01*
X367999D01*
X370998Y473000D02*
Y474999D01*
X371998Y475999D01*
X372997Y474999D01*
Y473000D01*
Y474500D01*
X370998D01*
X366000Y445999D02*
X367000D01*
X366500D01*
Y443000D01*
X366000D01*
X367000D01*
X368499D02*
Y445999D01*
X370498Y443000D01*
Y445999D01*
X371498D02*
X373498D01*
X372498D01*
Y443000D01*
X296999Y456499D02*
X296499Y456999D01*
X295500D01*
X295000Y456499D01*
Y454500D01*
X295500Y454000D01*
X296499D01*
X296999Y454500D01*
Y455500D01*
X296000D01*
X297999Y454000D02*
Y456999D01*
X299998Y454000D01*
Y456999D01*
X300998D02*
Y454000D01*
X302498D01*
X302997Y454500D01*
Y456499D01*
X302498Y456999D01*
X300998D01*
X354000Y523499D02*
X354500Y523999D01*
X355500D01*
X355999Y523499D01*
Y522999D01*
X355500Y522500D01*
X355000D01*
X355500D01*
X355999Y522000D01*
Y521500D01*
X355500Y521000D01*
X354500D01*
X354000Y521500D01*
X356999Y523999D02*
Y522000D01*
X357999Y521000D01*
X358998Y522000D01*
Y523999D01*
X359998Y523499D02*
X360498Y523999D01*
X361498D01*
X361997Y523499D01*
Y522999D01*
X361498Y522500D01*
X360998D01*
X361498D01*
X361997Y522000D01*
Y521500D01*
X361498Y521000D01*
X360498D01*
X359998Y521500D01*
X151000Y585000D02*
Y589499D01*
X153249D01*
X153999Y588749D01*
Y587249D01*
X153249Y586500D01*
X151000D01*
X152499D02*
X153999Y585000D01*
X158498Y589499D02*
X155499D01*
Y585000D01*
X158498D01*
X155499Y587249D02*
X156998D01*
X162996Y588749D02*
X162246Y589499D01*
X160747D01*
X159997Y588749D01*
Y587999D01*
X160747Y587249D01*
X162246D01*
X162996Y586500D01*
Y585750D01*
X162246Y585000D01*
X160747D01*
X159997Y585750D01*
X167495Y589499D02*
X164496D01*
Y585000D01*
X167495D01*
X164496Y587249D02*
X165995D01*
X168994Y589499D02*
X171993D01*
X170494D01*
Y585000D01*
X188249Y220498D02*
X186750D01*
X186000Y219749D01*
Y216750D01*
X186750Y216000D01*
X188249D01*
X188999Y216750D01*
Y219749D01*
X188249Y220498D01*
X190499Y216000D02*
Y220498D01*
X193498Y216000D01*
Y220498D01*
X186249Y154499D02*
X184750D01*
X184000Y153749D01*
Y150750D01*
X184750Y150000D01*
X186249D01*
X186999Y150750D01*
Y153749D01*
X186249Y154499D01*
X191498D02*
X188499D01*
Y152249D01*
X189998D01*
X188499D01*
Y150000D01*
X195996Y154499D02*
X192997D01*
Y152249D01*
X194497D01*
X192997D01*
Y150000D01*
X100000Y100000D02*
Y700000D01*
X500000D01*
Y100000D02*
Y700000D01*
X100000Y100000D02*
X500000D01*
D13*
X381598Y237539D02*
Y242461D01*
X466331Y170539D02*
Y175461D01*
X452598Y240039D02*
Y244961D01*
X455965Y425039D02*
Y429961D01*
X389331Y456539D02*
Y461461D01*
X236465Y277539D02*
Y282461D01*
X165465Y361539D02*
Y366461D01*
X269465Y185539D02*
Y190461D01*
X379465Y517539D02*
Y522461D01*
X178465Y637539D02*
Y642461D01*
X476465Y644539D02*
Y649461D01*
X361465Y155539D02*
Y160461D01*
D14*
X432500Y184500D02*
Y187499D01*
X433500Y186499D01*
X434499Y187499D01*
Y184500D01*
X437498D02*
X435499D01*
X437498Y186499D01*
Y186999D01*
X436999Y187499D01*
X435999D01*
X435499Y186999D01*
X432500Y107500D02*
Y110499D01*
X433500Y109499D01*
X434499Y110499D01*
Y107500D01*
X435499D02*
X436499D01*
X435999D01*
Y110499D01*
X435499Y109999D01*
X260833Y441833D02*
X259500D01*
Y440833D01*
X260166D01*
X259500D01*
Y439833D01*
X261499Y441833D02*
X262832D01*
X262166D01*
Y439833D01*
X263499Y441833D02*
Y439833D01*
X264498D01*
X264832Y440167D01*
Y441499D01*
X264498Y441833D01*
X263499D01*
X265498D02*
X266164D01*
X265831D01*
Y439833D01*
X265498D01*
X266164D01*
X267164Y439500D02*
X268497D01*
X269163Y439833D02*
Y441833D01*
X270163D01*
X270496Y441499D01*
Y440833D01*
X270163Y440500D01*
X269163D01*
X269830D02*
X270496Y439833D01*
X271163Y441833D02*
X272496Y439833D01*
Y441833D02*
X271163Y439833D01*
X278833Y600833D02*
X277500D01*
Y599833D01*
X278166D01*
X277500D01*
Y598833D01*
X279499Y600833D02*
X280832D01*
X280166D01*
Y598833D01*
X281499Y600833D02*
Y598833D01*
X282498D01*
X282832Y599166D01*
Y600499D01*
X282498Y600833D01*
X281499D01*
X283498D02*
X284165D01*
X283831D01*
Y598833D01*
X283498D01*
X284165D01*
X285164Y598500D02*
X286497D01*
X287163Y600833D02*
X288496D01*
X287830D01*
Y598833D01*
X289163Y600833D02*
X290496Y598833D01*
Y600833D02*
X289163Y598833D01*
X126833Y670833D02*
X125500D01*
Y669833D01*
X126166D01*
X125500D01*
Y668833D01*
X127499Y670833D02*
X128832D01*
X128166D01*
Y668833D01*
X129499Y670833D02*
Y668833D01*
X130498D01*
X130832Y669167D01*
Y670499D01*
X130498Y670833D01*
X129499D01*
X131498D02*
X132165D01*
X131831D01*
Y668833D01*
X131498D01*
X132165D01*
X133164Y668500D02*
X134497D01*
X135163Y668833D02*
Y670833D01*
X136163D01*
X136496Y670499D01*
Y669833D01*
X136163Y669500D01*
X135163D01*
X135830D02*
X136496Y668833D01*
X137163Y670833D02*
X138496Y668833D01*
Y670833D02*
X137163Y668833D01*
X126833Y660833D02*
X125500D01*
Y659833D01*
X126166D01*
X125500D01*
Y658833D01*
X127499Y660833D02*
X128832D01*
X128166D01*
Y658833D01*
X129499Y660833D02*
Y658833D01*
X130498D01*
X130832Y659166D01*
Y660499D01*
X130498Y660833D01*
X129499D01*
X131498D02*
X132165D01*
X131831D01*
Y658833D01*
X131498D01*
X132165D01*
X133164Y658500D02*
X134497D01*
X135163Y660833D02*
X136496D01*
X135830D01*
Y658833D01*
X137163Y660833D02*
X138496Y658833D01*
Y660833D02*
X137163Y658833D01*
X126833Y630166D02*
X126500Y630499D01*
X125833D01*
X125500Y630166D01*
Y628833D01*
X125833Y628500D01*
X126500D01*
X126833Y628833D01*
Y629500D01*
X126166D01*
X127499Y628500D02*
Y630499D01*
X128832Y628500D01*
Y630499D01*
X129499D02*
Y628500D01*
X130498D01*
X130832Y628833D01*
Y630166D01*
X130498Y630499D01*
X129499D01*
X228834Y670833D02*
X228501Y670500D01*
Y669833D01*
X228834Y669500D01*
X230167D01*
X230500Y669833D01*
Y670500D01*
X230167Y670833D01*
X229500D01*
Y670166D01*
X230500Y671499D02*
X228501D01*
X230500Y672832D01*
X228501D01*
Y673499D02*
X230500D01*
Y674498D01*
X230167Y674832D01*
X228834D01*
X228501Y674498D01*
Y673499D01*
X198833Y681166D02*
X198500Y681499D01*
X197833D01*
X197500Y681166D01*
Y680833D01*
X197833Y680500D01*
X198500D01*
X198833Y680166D01*
Y679833D01*
X198500Y679500D01*
X197833D01*
X197500Y679833D01*
X199499Y681499D02*
Y679500D01*
X200499D01*
X200832Y679833D01*
Y681166D01*
X200499Y681499D01*
X199499D01*
X201499Y679500D02*
Y680833D01*
X202165Y681499D01*
X202832Y680833D01*
Y679500D01*
Y680500D01*
X201499D01*
X187500Y681499D02*
X188166D01*
X187833D01*
Y679500D01*
X187500D01*
X188166D01*
X189166D02*
Y681499D01*
X190499Y679500D01*
Y681499D01*
X191165D02*
X192498D01*
X191832D01*
Y679500D01*
X169834Y670833D02*
X169501Y670500D01*
Y669833D01*
X169834Y669500D01*
X170167D01*
X170500Y669833D01*
Y670500D01*
X170834Y670833D01*
X171167D01*
X171500Y670500D01*
Y669833D01*
X171167Y669500D01*
X169834Y672832D02*
X169501Y672499D01*
Y671833D01*
X169834Y671499D01*
X171167D01*
X171500Y671833D01*
Y672499D01*
X171167Y672832D01*
X169501Y673499D02*
X171500D01*
Y674832D01*
X169834Y658500D02*
X169501Y658833D01*
Y659500D01*
X169834Y659833D01*
X170167D01*
X170500Y659500D01*
Y659166D01*
Y659500D01*
X170834Y659833D01*
X171167D01*
X171500Y659500D01*
Y658833D01*
X171167Y658500D01*
X171500Y660499D02*
X171167D01*
Y660833D01*
X171500D01*
Y660499D01*
X169834Y662165D02*
X169501Y662499D01*
Y663165D01*
X169834Y663498D01*
X170167D01*
X170500Y663165D01*
Y662832D01*
Y663165D01*
X170834Y663498D01*
X171167D01*
X171500Y663165D01*
Y662499D01*
X171167Y662165D01*
X169501Y664165D02*
X170834D01*
X171500Y664831D01*
X170834Y665498D01*
X169501D01*
X286167Y685500D02*
X284167D01*
Y686500D01*
X284501Y686833D01*
X285167D01*
X285500Y686500D01*
Y685500D01*
X284167Y687499D02*
Y688166D01*
Y687833D01*
X286167D01*
Y687499D01*
Y688166D01*
X286500Y689165D02*
Y690498D01*
X286167Y691165D02*
X284167D01*
Y692165D01*
X284501Y692498D01*
X285167D01*
X285500Y692165D01*
Y691165D01*
Y691831D02*
X286167Y692498D01*
X284167Y693164D02*
X286167Y694497D01*
X284167D02*
X286167Y693164D01*
X296167Y685500D02*
X294167D01*
Y686500D01*
X294501Y686833D01*
X295167D01*
X295500Y686500D01*
Y685500D01*
X294167Y687499D02*
Y688166D01*
Y687833D01*
X296167D01*
Y687499D01*
Y688166D01*
X296500Y689165D02*
Y690498D01*
X294167Y691165D02*
Y692498D01*
Y691831D01*
X296167D01*
X294167Y693164D02*
X296167Y694497D01*
X294167D02*
X296167Y693164D01*
X323834Y686833D02*
X323501Y686500D01*
Y685833D01*
X323834Y685500D01*
X325167D01*
X325500Y685833D01*
Y686500D01*
X325167Y686833D01*
X324500D01*
Y686166D01*
X325500Y687499D02*
X323501D01*
X325500Y688832D01*
X323501D01*
Y689499D02*
X325500D01*
Y690498D01*
X325167Y690832D01*
X323834D01*
X323501Y690498D01*
Y689499D01*
X313501Y686833D02*
Y685500D01*
X314500D01*
X314167Y686166D01*
Y686500D01*
X314500Y686833D01*
X315167D01*
X315500Y686500D01*
Y685833D01*
X315167Y685500D01*
X313501Y687499D02*
X314834D01*
X315500Y688166D01*
X314834Y688832D01*
X313501D01*
X230833Y539166D02*
X230500Y539499D01*
X229833D01*
X229500Y539166D01*
Y538833D01*
X229833Y538500D01*
X230500D01*
X230833Y538166D01*
Y537833D01*
X230500Y537500D01*
X229833D01*
X229500Y537833D01*
X231499Y539499D02*
Y537500D01*
X232166Y538166D01*
X232832Y537500D01*
Y539499D01*
X233499D02*
Y537500D01*
X234498D01*
X234832Y537833D01*
Y539166D01*
X234498Y539499D01*
X233499D01*
X235498D02*
X236164D01*
X235831D01*
Y537500D01*
X235498D01*
X236164D01*
X238164Y539499D02*
X237497D01*
X237164Y539166D01*
Y537833D01*
X237497Y537500D01*
X238164D01*
X238497Y537833D01*
Y539166D01*
X238164Y539499D01*
X230833Y548166D02*
X230500Y548499D01*
X229833D01*
X229500Y548166D01*
Y547833D01*
X229833Y547500D01*
X230500D01*
X230833Y547166D01*
Y546833D01*
X230500Y546500D01*
X229833D01*
X229500Y546833D01*
X231499Y548499D02*
Y546500D01*
X232166Y547166D01*
X232832Y546500D01*
Y548499D01*
X233499D02*
Y546500D01*
X234498D01*
X234832Y546833D01*
Y548166D01*
X234498Y548499D01*
X233499D01*
X236831Y548166D02*
X236498Y548499D01*
X235831D01*
X235498Y548166D01*
Y546833D01*
X235831Y546500D01*
X236498D01*
X236831Y546833D01*
X237497Y548499D02*
Y546500D01*
X238830D01*
X239497Y548499D02*
Y546500D01*
Y547166D01*
X240830Y548499D01*
X239830Y547500D01*
X240830Y546500D01*
X229500Y557833D02*
Y559833D01*
X230500D01*
X230833Y559499D01*
Y558833D01*
X230500Y558500D01*
X229500D01*
X231499Y557833D02*
Y559833D01*
X232499D01*
X232832Y559499D01*
Y558833D01*
X232499Y558500D01*
X231499D01*
X232166D02*
X232832Y557833D01*
X234832Y559499D02*
X234498Y559833D01*
X233832D01*
X233499Y559499D01*
Y558167D01*
X233832Y557833D01*
X234498D01*
X234832Y558167D01*
Y558833D01*
X234165D01*
X235498Y557500D02*
X236831D01*
X237497Y557833D02*
Y559833D01*
X238497D01*
X238830Y559499D01*
Y558833D01*
X238497Y558500D01*
X237497D01*
X238164D02*
X238830Y557833D01*
X240830Y559833D02*
X239497D01*
Y557833D01*
X240830D01*
X239497Y558833D02*
X240163D01*
X242829Y559499D02*
X242496Y559833D01*
X241829D01*
X241496Y559499D01*
Y559166D01*
X241829Y558833D01*
X242496D01*
X242829Y558500D01*
Y558167D01*
X242496Y557833D01*
X241829D01*
X241496Y558167D01*
X244828Y559833D02*
X243495D01*
Y557833D01*
X244828D01*
X243495Y558833D02*
X244162D01*
X245495Y559833D02*
X246828D01*
X246161D01*
Y557833D01*
X247494Y557500D02*
X248827D01*
X249494Y557833D02*
Y559833D01*
X250826Y557833D01*
Y559833D01*
X230833Y569166D02*
X230500Y569499D01*
X229833D01*
X229500Y569166D01*
Y567833D01*
X229833Y567500D01*
X230500D01*
X230833Y567833D01*
Y568500D01*
X230166D01*
X231499Y567500D02*
Y569499D01*
X232832Y567500D01*
Y569499D01*
X233499D02*
Y567500D01*
X234498D01*
X234832Y567833D01*
Y569166D01*
X234498Y569499D01*
X233499D01*
X229500Y579499D02*
Y578166D01*
X230166Y577500D01*
X230833Y578166D01*
Y579499D01*
X231499D02*
X232832D01*
X232166D01*
Y577500D01*
X233499D02*
Y578833D01*
X234165Y579499D01*
X234832Y578833D01*
Y577500D01*
Y578500D01*
X233499D01*
X235498Y577500D02*
Y579499D01*
X236498D01*
X236831Y579166D01*
Y578500D01*
X236498Y578166D01*
X235498D01*
X236164D02*
X236831Y577500D01*
X238830Y579166D02*
X238497Y579499D01*
X237831D01*
X237497Y579166D01*
Y577833D01*
X237831Y577500D01*
X238497D01*
X238830Y577833D01*
Y578500D01*
X238164D01*
X469833Y284166D02*
X469500Y284499D01*
X468833D01*
X468500Y284166D01*
Y283833D01*
X468833Y283500D01*
X469500D01*
X469833Y283166D01*
Y282833D01*
X469500Y282500D01*
X468833D01*
X468500Y282833D01*
X476500Y283166D02*
X477833D01*
X477166Y283833D02*
Y282500D01*
X484500D02*
X485833D01*
X469833Y305166D02*
X469500Y305499D01*
X468833D01*
X468500Y305166D01*
Y304833D01*
X468833Y304500D01*
X469500D01*
X469833Y304166D01*
Y303833D01*
X469500Y303500D01*
X468833D01*
X468500Y303833D01*
X476500Y304166D02*
X477833D01*
X477166Y304833D02*
Y303500D01*
X484500D02*
X485833D01*
X469833Y326166D02*
X469500Y326499D01*
X468833D01*
X468500Y326166D01*
Y325833D01*
X468833Y325500D01*
X469500D01*
X469833Y325166D01*
Y324833D01*
X469500Y324500D01*
X468833D01*
X468500Y324833D01*
X476500Y325166D02*
X477833D01*
X477166Y325833D02*
Y324500D01*
X484500D02*
X485833D01*
X469833Y347166D02*
X469500Y347499D01*
X468833D01*
X468500Y347166D01*
Y346833D01*
X468833Y346500D01*
X469500D01*
X469833Y346166D01*
Y345833D01*
X469500Y345500D01*
X468833D01*
X468500Y345833D01*
X476500Y346166D02*
X477833D01*
X477166Y346833D02*
Y345500D01*
X484500D02*
X485833D01*
X470833Y370166D02*
X470500Y370499D01*
X469833D01*
X469500Y370166D01*
Y369833D01*
X469833Y369500D01*
X470500D01*
X470833Y369166D01*
Y368833D01*
X470500Y368500D01*
X469833D01*
X469500Y368833D01*
X477500Y369166D02*
X478833D01*
X478166Y369833D02*
Y368500D01*
X485500D02*
X486833D01*
X469833Y392166D02*
X469500Y392499D01*
X468833D01*
X468500Y392166D01*
Y391833D01*
X468833Y391500D01*
X469500D01*
X469833Y391166D01*
Y390833D01*
X469500Y390500D01*
X468833D01*
X468500Y390833D01*
X476500Y391166D02*
X477833D01*
X477166Y391833D02*
Y390500D01*
X484500D02*
X485833D01*
X484500Y412500D02*
X485833D01*
X476500Y413166D02*
X477833D01*
X477166Y413833D02*
Y412500D01*
X469833Y414166D02*
X469500Y414499D01*
X468833D01*
X468500Y414166D01*
Y413833D01*
X468833Y413500D01*
X469500D01*
X469833Y413166D01*
Y412833D01*
X469500Y412500D01*
X468833D01*
X468500Y412833D01*
X106801Y369499D02*
X105468D01*
Y368500D01*
X106135Y368833D01*
X106468D01*
X106801Y368500D01*
Y367833D01*
X106468Y367500D01*
X105802D01*
X105468Y367833D01*
X107468Y369499D02*
Y368166D01*
X108134Y367500D01*
X108801Y368166D01*
Y369499D01*
X419500Y172833D02*
Y174833D01*
X420166Y174166D01*
X420833Y174833D01*
Y172833D01*
X421499D02*
X422166D01*
X421833D01*
Y174833D01*
X421499Y174499D01*
X423166Y172500D02*
X424498D01*
X425165Y172833D02*
Y174833D01*
X426164D01*
X426498Y174499D01*
Y173833D01*
X426164Y173500D01*
X425165D01*
X428164Y174833D02*
X427497D01*
X427164Y174499D01*
Y173167D01*
X427497Y172833D01*
X428164D01*
X428497Y173167D01*
Y174499D01*
X428164Y174833D01*
X429164D02*
Y172833D01*
X429830Y173500D01*
X430496Y172833D01*
Y174833D01*
X349500Y175833D02*
Y177833D01*
X350166Y177166D01*
X350833Y177833D01*
Y175833D01*
X351499D02*
X352166D01*
X351833D01*
Y177833D01*
X351499Y177499D01*
X353166Y175500D02*
X354498D01*
X355165Y177833D02*
Y175833D01*
X356498D01*
X358164Y177833D02*
X357497D01*
X357164Y177499D01*
Y176166D01*
X357497Y175833D01*
X358164D01*
X358497Y176166D01*
Y177499D01*
X358164Y177833D01*
X360496Y177499D02*
X360163Y177833D01*
X359497D01*
X359163Y177499D01*
Y176166D01*
X359497Y175833D01*
X360163D01*
X360496Y176166D01*
Y176833D01*
X359830D01*
X384500Y253833D02*
Y255833D01*
X385166Y255166D01*
X385833Y255833D01*
Y253833D01*
X387832D02*
X386499D01*
X387832Y255166D01*
Y255499D01*
X387499Y255833D01*
X386833D01*
X386499Y255499D01*
X388499Y253500D02*
X389832D01*
X390498Y255833D02*
Y253833D01*
X391831D01*
X393497Y255833D02*
X392831D01*
X392497Y255499D01*
Y254167D01*
X392831Y253833D01*
X393497D01*
X393830Y254167D01*
Y255499D01*
X393497Y255833D01*
X395830Y255499D02*
X395496Y255833D01*
X394830D01*
X394497Y255499D01*
Y254167D01*
X394830Y253833D01*
X395496D01*
X395830Y254167D01*
Y254833D01*
X395163D01*
X419520Y253329D02*
Y255329D01*
X420186Y254662D01*
X420853Y255329D01*
Y253329D01*
X422852D02*
X421519D01*
X422852Y254662D01*
Y254995D01*
X422519Y255329D01*
X421852D01*
X421519Y254995D01*
X423518Y252996D02*
X424851D01*
X425518Y253329D02*
Y255329D01*
X426517D01*
X426851Y254995D01*
Y254329D01*
X426517Y253996D01*
X425518D01*
X428517Y255329D02*
X427850D01*
X427517Y254995D01*
Y253662D01*
X427850Y253329D01*
X428517D01*
X428850Y253662D01*
Y254995D01*
X428517Y255329D01*
X429516D02*
Y253329D01*
X430183Y253996D01*
X430849Y253329D01*
Y255329D01*
X403833Y438833D02*
X403166Y438499D01*
X402500Y437833D01*
Y437167D01*
X402833Y436833D01*
X403500D01*
X403833Y437167D01*
Y437500D01*
X403500Y437833D01*
X402500D01*
X404499Y438833D02*
Y437500D01*
X405166Y436833D01*
X405832Y437500D01*
Y438833D01*
X406499Y436500D02*
X407832D01*
X409831Y438499D02*
X409498Y438833D01*
X408831D01*
X408498Y438499D01*
Y438166D01*
X408831Y437833D01*
X409498D01*
X409831Y437500D01*
Y437167D01*
X409498Y436833D01*
X408831D01*
X408498Y437167D01*
X411830Y438833D02*
X410497D01*
Y436833D01*
X411830D01*
X410497Y437833D02*
X411164D01*
X412497Y436833D02*
Y438833D01*
X413496D01*
X413830Y438499D01*
Y437833D01*
X413496Y437500D01*
X412497D01*
X413163D02*
X413830Y436833D01*
X414496Y438833D02*
Y437500D01*
X415163Y436833D01*
X415829Y437500D01*
Y438833D01*
X417495D02*
X416829D01*
X416495Y438499D01*
Y437167D01*
X416829Y436833D01*
X417495D01*
X417828Y437167D01*
Y438499D01*
X417495Y438833D01*
X205500Y210833D02*
X206166D01*
X205833D01*
Y212833D01*
X205500Y212499D01*
X208499Y212833D02*
X207166D01*
Y211833D01*
X207833Y212166D01*
X208166D01*
X208499Y211833D01*
Y211167D01*
X208166Y210833D01*
X207499D01*
X207166Y211167D01*
X209166Y212833D02*
Y211500D01*
X209832Y210833D01*
X210498Y211500D01*
Y212833D01*
X211165Y210500D02*
X212498D01*
X213164Y212833D02*
Y210833D01*
X214164D01*
X214497Y211167D01*
Y211500D01*
X214164Y211833D01*
X213164D01*
X214164D01*
X214497Y212166D01*
Y212499D01*
X214164Y212833D01*
X213164D01*
X215163Y210833D02*
Y212166D01*
X215830Y212833D01*
X216496Y212166D01*
Y210833D01*
Y211833D01*
X215163D01*
X217163Y212833D02*
X218496D01*
X217829D01*
Y210833D01*
X138833Y212166D02*
X138500Y212499D01*
X137833D01*
X137500Y212166D01*
Y210833D01*
X137833Y210500D01*
X138500D01*
X138833Y210833D01*
Y211500D01*
X138166D01*
X139499Y210500D02*
Y212499D01*
X140832Y210500D01*
Y212499D01*
X141499D02*
Y210500D01*
X142498D01*
X142832Y210833D01*
Y212166D01*
X142498Y212499D01*
X141499D01*
X126500Y280833D02*
Y282166D01*
X127166Y282833D01*
X127833Y282166D01*
Y280833D01*
Y281833D01*
X126500D01*
X128499Y282833D02*
Y281167D01*
X128833Y280833D01*
X129499D01*
X129832Y281167D01*
Y282833D01*
X130499D02*
X131832Y280833D01*
Y282833D02*
X130499Y280833D01*
X132498Y280500D02*
X133831D01*
X134497Y280833D02*
Y282833D01*
X135497D01*
X135830Y282499D01*
Y281833D01*
X135497Y281500D01*
X134497D01*
X137496Y282833D02*
X136830D01*
X136497Y282499D01*
Y281167D01*
X136830Y280833D01*
X137496D01*
X137830Y281167D01*
Y282499D01*
X137496Y282833D01*
X138496D02*
Y280833D01*
X139163Y281500D01*
X139829Y280833D01*
Y282833D01*
X141828D02*
X140496D01*
Y280833D01*
X141828D01*
X140496Y281833D02*
X141162D01*
X142495Y280833D02*
Y282833D01*
X143494D01*
X143828Y282499D01*
Y281833D01*
X143494Y281500D01*
X142495D01*
X143161D02*
X143828Y280833D01*
X261698Y209026D02*
X261032Y208692D01*
X260365Y208026D01*
Y207359D01*
X260698Y207026D01*
X261365D01*
X261698Y207359D01*
Y207693D01*
X261365Y208026D01*
X260365D01*
X262365Y209026D02*
Y207693D01*
X263031Y207026D01*
X263697Y207693D01*
Y209026D01*
X264364Y206693D02*
X265697D01*
X266363Y209026D02*
Y207026D01*
X267696D01*
X269695Y209026D02*
X268362D01*
Y207026D01*
X269695D01*
X268362Y208026D02*
X269029D01*
X270362Y209026D02*
Y207026D01*
X271362D01*
X271695Y207359D01*
Y208692D01*
X271362Y209026D01*
X270362D01*
X222500Y301499D02*
X222833Y301833D01*
X223500D01*
X223833Y301499D01*
Y301166D01*
X223500Y300833D01*
X223166D01*
X223500D01*
X223833Y300500D01*
Y300167D01*
X223500Y299833D01*
X222833D01*
X222500Y300167D01*
X224499Y299833D02*
Y300167D01*
X224833D01*
Y299833D01*
X224499D01*
X226166Y301499D02*
X226499Y301833D01*
X227165D01*
X227498Y301499D01*
Y301166D01*
X227165Y300833D01*
X226832D01*
X227165D01*
X227498Y300500D01*
Y300167D01*
X227165Y299833D01*
X226499D01*
X226166Y300167D01*
X228165Y301833D02*
Y300500D01*
X228831Y299833D01*
X229498Y300500D01*
Y301833D01*
X230164Y299500D02*
X231497D01*
X232164Y301833D02*
Y299833D01*
X233496D01*
X235496Y301833D02*
X234163D01*
Y299833D01*
X235496D01*
X234163Y300833D02*
X234829D01*
X236162Y301833D02*
Y299833D01*
X237162D01*
X237495Y300167D01*
Y301499D01*
X237162Y301833D01*
X236162D01*
X119833Y383833D02*
X118500D01*
Y382833D01*
X119167Y383166D01*
X119500D01*
X119833Y382833D01*
Y382167D01*
X119500Y381833D01*
X118833D01*
X118500Y382167D01*
X120499Y383833D02*
Y382500D01*
X121166Y381833D01*
X121832Y382500D01*
Y383833D01*
X122499Y381500D02*
X123832D01*
X124498Y383833D02*
Y381833D01*
X125831D01*
X127830Y383833D02*
X126497D01*
Y381833D01*
X127830D01*
X126497Y382833D02*
X127164D01*
X128497Y383833D02*
Y381833D01*
X129496D01*
X129830Y382167D01*
Y383499D01*
X129496Y383833D01*
X128497D01*
X172500Y289166D02*
X172833Y289499D01*
X173500D01*
X173833Y289166D01*
Y288833D01*
X173500Y288500D01*
X173167D01*
X173500D01*
X173833Y288166D01*
Y287833D01*
X173500Y287500D01*
X172833D01*
X172500Y287833D01*
X174499Y287500D02*
Y287833D01*
X174833D01*
Y287500D01*
X174499D01*
X176165Y289166D02*
X176499Y289499D01*
X177165D01*
X177498Y289166D01*
Y288833D01*
X177165Y288500D01*
X176832D01*
X177165D01*
X177498Y288166D01*
Y287833D01*
X177165Y287500D01*
X176499D01*
X176165Y287833D01*
X178165Y289499D02*
Y288166D01*
X178831Y287500D01*
X179498Y288166D01*
Y289499D01*
X109500Y194833D02*
Y192833D01*
X110500D01*
X110833Y193166D01*
Y193500D01*
X110500Y193833D01*
X109500D01*
X110500D01*
X110833Y194166D01*
Y194499D01*
X110500Y194833D01*
X109500D01*
X111499Y192833D02*
Y194166D01*
X112166Y194833D01*
X112832Y194166D01*
Y192833D01*
Y193833D01*
X111499D01*
X113499Y194833D02*
X114832D01*
X114165D01*
Y192833D01*
X115498Y192500D02*
X116831D01*
X117497Y192833D02*
Y194833D01*
X118497D01*
X118830Y194499D01*
Y193833D01*
X118497Y193500D01*
X117497D01*
X120496Y194833D02*
X119830D01*
X119497Y194499D01*
Y193166D01*
X119830Y192833D01*
X120496D01*
X120830Y193166D01*
Y194499D01*
X120496Y194833D01*
X122829Y194499D02*
X122496Y194833D01*
X121829D01*
X121496Y194499D01*
Y194166D01*
X121829Y193833D01*
X122496D01*
X122829Y193500D01*
Y193166D01*
X122496Y192833D01*
X121829D01*
X121496Y193166D01*
X109500Y116833D02*
Y114833D01*
X110500D01*
X110833Y115166D01*
Y115500D01*
X110500Y115833D01*
X109500D01*
X110500D01*
X110833Y116166D01*
Y116499D01*
X110500Y116833D01*
X109500D01*
X111499Y114833D02*
Y116166D01*
X112166Y116833D01*
X112832Y116166D01*
Y114833D01*
Y115833D01*
X111499D01*
X113499Y116833D02*
X114832D01*
X114165D01*
Y114833D01*
X115498Y114500D02*
X116831D01*
X117497Y114833D02*
Y116833D01*
X118830Y114833D01*
Y116833D01*
X120830D02*
X119497D01*
Y114833D01*
X120830D01*
X119497Y115833D02*
X120163D01*
X122829Y116499D02*
X122496Y116833D01*
X121829D01*
X121496Y116499D01*
Y115166D01*
X121829Y114833D01*
X122496D01*
X122829Y115166D01*
Y115833D01*
X122163D01*
X213698Y194692D02*
X213032Y194359D01*
X212365Y193693D01*
Y193026D01*
X212698Y192693D01*
X213365D01*
X213698Y193026D01*
Y193359D01*
X213365Y193693D01*
X212365D01*
X214365Y194692D02*
Y193359D01*
X215031Y192693D01*
X215697Y193359D01*
Y194692D01*
X309500Y420833D02*
X310166D01*
X309833D01*
Y418833D01*
X309500D01*
X310166D01*
X311166D02*
Y420833D01*
X311833Y420166D01*
X312499Y420833D01*
Y418833D01*
X313165Y420833D02*
Y419167D01*
X313499Y418833D01*
X314165D01*
X314498Y419167D01*
Y420833D01*
X315165Y418500D02*
X316498D01*
X317164Y418833D02*
Y420833D01*
X318164D01*
X318497Y420499D01*
Y419833D01*
X318164Y419500D01*
X317164D01*
X320163Y420833D02*
X319497D01*
X319163Y420499D01*
Y419167D01*
X319497Y418833D01*
X320163D01*
X320496Y419167D01*
Y420499D01*
X320163Y420833D01*
X321163D02*
Y418833D01*
X321829Y419500D01*
X322496Y418833D01*
Y420833D01*
X324495D02*
X323162D01*
Y418833D01*
X324495D01*
X323162Y419833D02*
X323829D01*
X325162Y418833D02*
Y420833D01*
X326161D01*
X326495Y420499D01*
Y419833D01*
X326161Y419500D01*
X325162D01*
X325828D02*
X326495Y418833D01*
X327161Y418500D02*
X328494D01*
X329160Y420833D02*
Y418833D01*
X330493D01*
X332492Y420833D02*
X331160D01*
Y418833D01*
X332492D01*
X331160Y419833D02*
X331826D01*
X333159Y420833D02*
Y418833D01*
X334159D01*
X334492Y419167D01*
Y420499D01*
X334159Y420833D01*
X333159D01*
X315167Y468500D02*
Y469166D01*
Y468833D01*
X317167D01*
Y468500D01*
Y469166D01*
Y471499D02*
Y470166D01*
X315834Y471499D01*
X315501D01*
X315167Y471166D01*
Y470499D01*
X315501Y470166D01*
Y473498D02*
X315167Y473165D01*
Y472499D01*
X315501Y472165D01*
X316833D01*
X317167Y472499D01*
Y473165D01*
X316833Y473498D01*
X317500Y474165D02*
Y475498D01*
X315501Y477497D02*
X315167Y477164D01*
Y476497D01*
X315501Y476164D01*
X315834D01*
X316167Y476497D01*
Y477164D01*
X316500Y477497D01*
X316833D01*
X317167Y477164D01*
Y476497D01*
X316833Y476164D01*
X315167Y478163D02*
X317167D01*
Y479163D01*
X316833Y479496D01*
X315501D01*
X315167Y479163D01*
Y478163D01*
X317167Y480163D02*
X315834D01*
X315167Y480829D01*
X315834Y481496D01*
X317167D01*
X316167D01*
Y480163D01*
X327167Y439500D02*
Y440166D01*
Y439833D01*
X329167D01*
Y439500D01*
Y440166D01*
Y441166D02*
X327167D01*
X327834Y441833D01*
X327167Y442499D01*
X329167D01*
X327167Y443165D02*
X328834D01*
X329167Y443499D01*
Y444165D01*
X328834Y444498D01*
X327167D01*
X329500Y445165D02*
Y446498D01*
X327167Y447164D02*
Y447831D01*
Y447497D01*
X329167D01*
Y447164D01*
Y447831D01*
Y448830D02*
X327167D01*
X329167Y450163D01*
X327167D01*
Y450830D02*
Y452163D01*
Y451496D01*
X329167D01*
X331167Y481500D02*
Y482166D01*
Y481833D01*
X333167D01*
Y481500D01*
Y482166D01*
Y484499D02*
Y483166D01*
X331834Y484499D01*
X331501D01*
X331167Y484166D01*
Y483499D01*
X331501Y483166D01*
Y486498D02*
X331167Y486165D01*
Y485499D01*
X331501Y485166D01*
X332834D01*
X333167Y485499D01*
Y486165D01*
X332834Y486498D01*
X333500Y487165D02*
Y488498D01*
X331501Y490497D02*
X331167Y490164D01*
Y489497D01*
X331501Y489164D01*
X331834D01*
X332167Y489497D01*
Y490164D01*
X332500Y490497D01*
X332834D01*
X333167Y490164D01*
Y489497D01*
X332834Y489164D01*
X331501Y492496D02*
X331167Y492163D01*
Y491497D01*
X331501Y491163D01*
X332834D01*
X333167Y491497D01*
Y492163D01*
X332834Y492496D01*
X331167Y493163D02*
X333167D01*
Y494496D01*
X109500Y404833D02*
Y406833D01*
X110500D01*
X110833Y406499D01*
Y405833D01*
X110500Y405500D01*
X109500D01*
X111499Y406833D02*
X112166D01*
X111833D01*
Y404833D01*
X111499D01*
X112166D01*
X113165Y404500D02*
X114498D01*
X115165Y404833D02*
Y406833D01*
X116165D01*
X116498Y406499D01*
Y405833D01*
X116165Y405500D01*
X115165D01*
X115831D02*
X116498Y404833D01*
X117164Y406833D02*
X118497Y404833D01*
Y406833D02*
X117164Y404833D01*
X119164Y404500D02*
X120496D01*
X121163Y406833D02*
X122496D01*
X121829D01*
Y404833D01*
X123162Y406833D02*
X124495Y404833D01*
Y406833D02*
X123162Y404833D01*
X109500Y418833D02*
Y420833D01*
X110500D01*
X110833Y420499D01*
Y419833D01*
X110500Y419500D01*
X109500D01*
X111499Y420833D02*
X112166D01*
X111833D01*
Y418833D01*
X111499D01*
X112166D01*
X113165Y418500D02*
X114498D01*
X115165Y420833D02*
X116498D01*
X115831D01*
Y418833D01*
X117164Y420833D02*
X118497Y418833D01*
Y420833D02*
X117164Y418833D01*
X119164Y418500D02*
X120496D01*
X121163Y418833D02*
Y420833D01*
X122163D01*
X122496Y420499D01*
Y419833D01*
X122163Y419500D01*
X121163D01*
X121829D02*
X122496Y418833D01*
X123162Y420833D02*
X124495Y418833D01*
Y420833D02*
X123162Y418833D01*
X246500Y530833D02*
X247166D01*
X246833D01*
Y528833D01*
X246500D01*
X247166D01*
X249499D02*
X248166D01*
X249499Y530166D01*
Y530499D01*
X249166Y530833D01*
X248499D01*
X248166Y530499D01*
X251498D02*
X251165Y530833D01*
X250499D01*
X250166Y530499D01*
Y529167D01*
X250499Y528833D01*
X251165D01*
X251498Y529167D01*
X252165Y528500D02*
X253498D01*
X255497Y530499D02*
X255164Y530833D01*
X254497D01*
X254164Y530499D01*
Y530166D01*
X254497Y529833D01*
X255164D01*
X255497Y529500D01*
Y529167D01*
X255164Y528833D01*
X254497D01*
X254164Y529167D01*
X257496Y530499D02*
X257163Y530833D01*
X256497D01*
X256164Y530499D01*
Y529167D01*
X256497Y528833D01*
X257163D01*
X257496Y529167D01*
X258163Y530833D02*
Y528833D01*
X259496D01*
X229500Y530833D02*
X230166D01*
X229833D01*
Y528833D01*
X229500D01*
X230166D01*
X232499D02*
X231166D01*
X232499Y530166D01*
Y530499D01*
X232166Y530833D01*
X231499D01*
X231166Y530499D01*
X234498D02*
X234165Y530833D01*
X233499D01*
X233166Y530499D01*
Y529167D01*
X233499Y528833D01*
X234165D01*
X234498Y529167D01*
X235165Y528500D02*
X236498D01*
X238497Y530499D02*
X238164Y530833D01*
X237497D01*
X237164Y530499D01*
Y530166D01*
X237497Y529833D01*
X238164D01*
X238497Y529500D01*
Y529167D01*
X238164Y528833D01*
X237497D01*
X237164Y529167D01*
X239163Y530833D02*
Y528833D01*
X240163D01*
X240496Y529167D01*
Y530499D01*
X240163Y530833D01*
X239163D01*
X241163Y528833D02*
Y530166D01*
X241829Y530833D01*
X242496Y530166D01*
Y528833D01*
Y529833D01*
X241163D01*
X277833Y578166D02*
X277500Y578499D01*
X276833D01*
X276500Y578166D01*
Y576833D01*
X276833Y576500D01*
X277500D01*
X277833Y576833D01*
Y577500D01*
X277166D01*
X278499Y576500D02*
Y578499D01*
X279832Y576500D01*
Y578499D01*
X280499D02*
Y576500D01*
X281498D01*
X281832Y576833D01*
Y578166D01*
X281498Y578499D01*
X280499D01*
X277833Y590166D02*
X277500Y590499D01*
X276833D01*
X276500Y590166D01*
Y588833D01*
X276833Y588500D01*
X277500D01*
X277833Y588833D01*
Y589500D01*
X277166D01*
X278499Y588500D02*
Y590499D01*
X279832Y588500D01*
Y590499D01*
X280499D02*
Y588500D01*
X281498D01*
X281832Y588833D01*
Y590166D01*
X281498Y590499D01*
X280499D01*
X323833Y650166D02*
X323500Y650499D01*
X322833D01*
X322500Y650166D01*
Y648833D01*
X322833Y648500D01*
X323500D01*
X323833Y648833D01*
Y649500D01*
X323166D01*
X324499Y648500D02*
Y650499D01*
X325832Y648500D01*
Y650499D01*
X326499D02*
Y648500D01*
X327498D01*
X327832Y648833D01*
Y650166D01*
X327498Y650499D01*
X326499D01*
X309833Y634499D02*
X308500D01*
Y633500D01*
X309166Y633833D01*
X309500D01*
X309833Y633500D01*
Y632833D01*
X309500Y632500D01*
X308833D01*
X308500Y632833D01*
X310499Y634499D02*
Y633166D01*
X311166Y632500D01*
X311832Y633166D01*
Y634499D01*
X290500Y650833D02*
Y652833D01*
X291500D01*
X291833Y652499D01*
Y651833D01*
X291500Y651500D01*
X290500D01*
X292499Y652833D02*
X293166D01*
X292833D01*
Y650833D01*
X292499D01*
X293166D01*
X294165Y650500D02*
X295498D01*
X296165Y650833D02*
Y652833D01*
X297165D01*
X297498Y652499D01*
Y651833D01*
X297165Y651500D01*
X296165D01*
X296831D02*
X297498Y650833D01*
X298164Y652833D02*
X299497Y650833D01*
Y652833D02*
X298164Y650833D01*
X300164Y650500D02*
X301496D01*
X302163Y652833D02*
X303496D01*
X302829D01*
Y650833D01*
X304162Y652833D02*
X305495Y650833D01*
Y652833D02*
X304162Y650833D01*
X273500D02*
Y652833D01*
X274500D01*
X274833Y652499D01*
Y651833D01*
X274500Y651500D01*
X273500D01*
X275499Y652833D02*
X276166D01*
X275833D01*
Y650833D01*
X275499D01*
X276166D01*
X277166Y650500D02*
X278498D01*
X279165Y652833D02*
X280498D01*
X279831D01*
Y650833D01*
X281164Y652833D02*
X282497Y650833D01*
Y652833D02*
X281164Y650833D01*
X283163Y650500D02*
X284496D01*
X285163Y650833D02*
Y652833D01*
X286163D01*
X286496Y652499D01*
Y651833D01*
X286163Y651500D01*
X285163D01*
X285829D02*
X286496Y650833D01*
X287162Y652833D02*
X288495Y650833D01*
Y652833D02*
X287162Y650833D01*
X429500Y626833D02*
Y628833D01*
X430500D01*
X430833Y628499D01*
Y627833D01*
X430500Y627500D01*
X429500D01*
X431499Y626833D02*
Y628833D01*
X432499D01*
X432832Y628499D01*
Y627833D01*
X432499Y627500D01*
X431499D01*
X432166D02*
X432832Y626833D01*
X434832Y628833D02*
X433499D01*
Y626833D01*
X434832D01*
X433499Y627833D02*
X434165D01*
X436831Y628499D02*
X436498Y628833D01*
X435831D01*
X435498Y628499D01*
Y628166D01*
X435831Y627833D01*
X436498D01*
X436831Y627500D01*
Y627167D01*
X436498Y626833D01*
X435831D01*
X435498Y627167D01*
X438830Y628499D02*
X438497Y628833D01*
X437831D01*
X437497Y628499D01*
Y628166D01*
X437831Y627833D01*
X438497D01*
X438830Y627500D01*
Y627167D01*
X438497Y626833D01*
X437831D01*
X437497Y627167D01*
X439497Y626500D02*
X440830D01*
X441496Y626833D02*
Y628166D01*
X442163Y628833D01*
X442829Y628166D01*
Y626833D01*
Y627833D01*
X441496D01*
X443495Y628833D02*
Y626833D01*
X444495D01*
X444828Y627167D01*
Y628499D01*
X444495Y628833D01*
X443495D01*
X446828Y628499D02*
X446494Y628833D01*
X445828D01*
X445495Y628499D01*
Y627167D01*
X445828Y626833D01*
X446494D01*
X446828Y627167D01*
X464500Y617833D02*
Y619833D01*
X465500D01*
X465833Y619499D01*
Y618833D01*
X465500Y618500D01*
X464500D01*
X466499Y617833D02*
Y619833D01*
X467499D01*
X467832Y619499D01*
Y618833D01*
X467499Y618500D01*
X466499D01*
X467166D02*
X467832Y617833D01*
X469832Y619833D02*
X468499D01*
Y617833D01*
X469832D01*
X468499Y618833D02*
X469165D01*
X471831Y619499D02*
X471498Y619833D01*
X470831D01*
X470498Y619499D01*
Y619166D01*
X470831Y618833D01*
X471498D01*
X471831Y618500D01*
Y618166D01*
X471498Y617833D01*
X470831D01*
X470498Y618166D01*
X473830Y619499D02*
X473497Y619833D01*
X472831D01*
X472497Y619499D01*
Y619166D01*
X472831Y618833D01*
X473497D01*
X473830Y618500D01*
Y618166D01*
X473497Y617833D01*
X472831D01*
X472497Y618166D01*
X474497Y617500D02*
X475830D01*
X476496Y617833D02*
Y619833D01*
X477496D01*
X477829Y619499D01*
Y618833D01*
X477496Y618500D01*
X476496D01*
X479495Y619833D02*
X478829D01*
X478495Y619499D01*
Y618166D01*
X478829Y617833D01*
X479495D01*
X479828Y618166D01*
Y619499D01*
X479495Y619833D01*
X480495D02*
Y617833D01*
X481161Y618500D01*
X481828Y617833D01*
Y619833D01*
X482494Y617500D02*
X483827D01*
X484493Y619833D02*
Y617833D01*
X485826D01*
X487826Y619833D02*
X486493D01*
Y617833D01*
X487826D01*
X486493Y618833D02*
X487159D01*
X488492Y619833D02*
Y617833D01*
X489492D01*
X489825Y618166D01*
Y619499D01*
X489492Y619833D01*
X488492D01*
X387500Y691833D02*
Y693833D01*
X388500D01*
X388833Y693499D01*
Y692833D01*
X388500Y692500D01*
X387500D01*
X389499Y691833D02*
Y693833D01*
X390499D01*
X390832Y693499D01*
Y692833D01*
X390499Y692500D01*
X389499D01*
X390166D02*
X390832Y691833D01*
X392832Y693833D02*
X391499D01*
Y691833D01*
X392832D01*
X391499Y692833D02*
X392165D01*
X394831Y693499D02*
X394498Y693833D01*
X393831D01*
X393498Y693499D01*
Y693166D01*
X393831Y692833D01*
X394498D01*
X394831Y692500D01*
Y692167D01*
X394498Y691833D01*
X393831D01*
X393498Y692167D01*
X396830Y693499D02*
X396497Y693833D01*
X395831D01*
X395497Y693499D01*
Y693166D01*
X395831Y692833D01*
X396497D01*
X396830Y692500D01*
Y692167D01*
X396497Y691833D01*
X395831D01*
X395497Y692167D01*
X397497Y691500D02*
X398830D01*
X399496Y691833D02*
Y693833D01*
X400496D01*
X400829Y693499D01*
Y692833D01*
X400496Y692500D01*
X399496D01*
X401495Y693833D02*
Y691833D01*
X402828D01*
X403495Y693833D02*
Y692167D01*
X403828Y691833D01*
X404494D01*
X404828Y692167D01*
Y693833D01*
X406827Y693499D02*
X406494Y693833D01*
X405827D01*
X405494Y693499D01*
Y693166D01*
X405827Y692833D01*
X406494D01*
X406827Y692500D01*
Y692167D01*
X406494Y691833D01*
X405827D01*
X405494Y692167D01*
X475500Y680833D02*
Y682833D01*
X476500D01*
X476833Y682499D01*
Y681833D01*
X476500Y681500D01*
X475500D01*
X477499Y680833D02*
Y682833D01*
X478499D01*
X478832Y682499D01*
Y681833D01*
X478499Y681500D01*
X477499D01*
X478166D02*
X478832Y680833D01*
X480832Y682833D02*
X479499D01*
Y680833D01*
X480832D01*
X479499Y681833D02*
X480165D01*
X482831Y682499D02*
X482498Y682833D01*
X481831D01*
X481498Y682499D01*
Y682166D01*
X481831Y681833D01*
X482498D01*
X482831Y681500D01*
Y681167D01*
X482498Y680833D01*
X481831D01*
X481498Y681167D01*
X484830Y682499D02*
X484497Y682833D01*
X483831D01*
X483497Y682499D01*
Y682166D01*
X483831Y681833D01*
X484497D01*
X484830Y681500D01*
Y681167D01*
X484497Y680833D01*
X483831D01*
X483497Y681167D01*
X485497Y680500D02*
X486830D01*
X487496Y680833D02*
Y682833D01*
X488163Y682166D01*
X488829Y682833D01*
Y680833D01*
X489495Y682833D02*
X490162D01*
X489829D01*
Y680833D01*
X489495D01*
X490162D01*
X491162D02*
Y682833D01*
X492494Y680833D01*
Y682833D01*
X493161D02*
Y681167D01*
X493494Y680833D01*
X494161D01*
X494494Y681167D01*
Y682833D01*
X496493Y682499D02*
X496160Y682833D01*
X495494D01*
X495160Y682499D01*
Y682166D01*
X495494Y681833D01*
X496160D01*
X496493Y681500D01*
Y681167D01*
X496160Y680833D01*
X495494D01*
X495160Y681167D01*
X192500Y652833D02*
Y650833D01*
X193500D01*
X193833Y651166D01*
Y652499D01*
X193500Y652833D01*
X192500D01*
X194499D02*
X195166D01*
X194833D01*
Y650833D01*
X194499D01*
X195166D01*
X197498Y652499D02*
X197165Y652833D01*
X196499D01*
X196166Y652499D01*
Y652166D01*
X196499Y651833D01*
X197165D01*
X197498Y651500D01*
Y651166D01*
X197165Y650833D01*
X196499D01*
X196166Y651166D01*
X198165Y652833D02*
X199498D01*
X198831D01*
Y650833D01*
X200164Y650500D02*
X201497D01*
X202164Y650833D02*
Y652833D01*
X203163D01*
X203496Y652499D01*
Y651833D01*
X203163Y651500D01*
X202164D01*
X205163Y652833D02*
X204496D01*
X204163Y652499D01*
Y651166D01*
X204496Y650833D01*
X205163D01*
X205496Y651166D01*
Y652499D01*
X205163Y652833D01*
X206162D02*
Y650833D01*
X206829Y651500D01*
X207495Y650833D01*
Y652833D01*
X208162Y650500D02*
X209494D01*
X210161Y652833D02*
Y650833D01*
X211494D01*
X213493Y652833D02*
X212160D01*
Y650833D01*
X213493D01*
X212160Y651833D02*
X212827D01*
X214160Y652833D02*
Y650833D01*
X215159D01*
X215493Y651166D01*
Y652499D01*
X215159Y652833D01*
X214160D01*
X243833Y662166D02*
X243500Y662499D01*
X242833D01*
X242500Y662166D01*
Y660833D01*
X242833Y660500D01*
X243500D01*
X243833Y660833D01*
Y661500D01*
X243166D01*
X244499Y660500D02*
Y662499D01*
X245832Y660500D01*
Y662499D01*
X246499D02*
Y660500D01*
X247498D01*
X247832Y660833D01*
Y662166D01*
X247498Y662499D01*
X246499D01*
X223500Y695833D02*
X224166D01*
X223833D01*
Y693833D01*
X223500D01*
X224166D01*
X226499D02*
X225166D01*
X226499Y695166D01*
Y695499D01*
X226166Y695833D01*
X225499D01*
X225166Y695499D01*
X228498D02*
X228165Y695833D01*
X227499D01*
X227166Y695499D01*
Y694167D01*
X227499Y693833D01*
X228165D01*
X228498Y694167D01*
X229165Y693500D02*
X230498D01*
X232497Y695499D02*
X232164Y695833D01*
X231497D01*
X231164Y695499D01*
Y695166D01*
X231497Y694833D01*
X232164D01*
X232497Y694500D01*
Y694167D01*
X232164Y693833D01*
X231497D01*
X231164Y694167D01*
X233163Y695833D02*
Y693833D01*
X234163D01*
X234496Y694167D01*
Y695499D01*
X234163Y695833D01*
X233163D01*
X235163Y693833D02*
Y695166D01*
X235829Y695833D01*
X236496Y695166D01*
Y693833D01*
Y694833D01*
X235163D01*
X190500Y695833D02*
Y693833D01*
X191500D01*
X191833Y694167D01*
Y695499D01*
X191500Y695833D01*
X190500D01*
X192499D02*
X193166D01*
X192833D01*
Y693833D01*
X192499D01*
X193166D01*
X195498Y695499D02*
X195165Y695833D01*
X194499D01*
X194166Y695499D01*
Y695166D01*
X194499Y694833D01*
X195165D01*
X195498Y694500D01*
Y694167D01*
X195165Y693833D01*
X194499D01*
X194166Y694167D01*
X196165Y695833D02*
X197498D01*
X196831D01*
Y693833D01*
X198164Y693500D02*
X199497D01*
X200164Y695833D02*
X200830D01*
X200497D01*
Y693833D01*
X200164D01*
X200830D01*
X201830D02*
Y695833D01*
X203163Y693833D01*
Y695833D01*
X203829D02*
X205162D01*
X204496D01*
Y693833D01*
X157500Y683833D02*
X158167D01*
X157833D01*
Y681833D01*
X157500D01*
X158167D01*
X160499D02*
X159166D01*
X160499Y683166D01*
Y683499D01*
X160166Y683833D01*
X159499D01*
X159166Y683499D01*
X162498D02*
X162165Y683833D01*
X161499D01*
X161165Y683499D01*
Y682166D01*
X161499Y681833D01*
X162165D01*
X162498Y682166D01*
X163165Y681500D02*
X164498D01*
X166497Y683499D02*
X166164Y683833D01*
X165497D01*
X165164Y683499D01*
Y683166D01*
X165497Y682833D01*
X166164D01*
X166497Y682500D01*
Y682166D01*
X166164Y681833D01*
X165497D01*
X165164Y682166D01*
X168496Y683499D02*
X168163Y683833D01*
X167497D01*
X167164Y683499D01*
Y682166D01*
X167497Y681833D01*
X168163D01*
X168496Y682166D01*
X169163Y683833D02*
Y681833D01*
X170496D01*
X358000Y198333D02*
Y200333D01*
X358666Y199666D01*
X359333Y200333D01*
Y198333D01*
X361332D02*
X359999D01*
X361332Y199666D01*
Y199999D01*
X360999Y200333D01*
X360333D01*
X359999Y199999D01*
X361999Y198000D02*
X363332D01*
X363998Y200333D02*
Y198333D01*
X364998D01*
X365331Y198667D01*
Y199000D01*
X364998Y199333D01*
X363998D01*
X364998D01*
X365331Y199666D01*
Y199999D01*
X364998Y200333D01*
X363998D01*
X340500Y198333D02*
Y200333D01*
X341166Y199666D01*
X341833Y200333D01*
Y198333D01*
X343832D02*
X342499D01*
X343832Y199666D01*
Y199999D01*
X343499Y200333D01*
X342833D01*
X342499Y199999D01*
X344499Y198000D02*
X345832D01*
X347831Y200333D02*
X346498D01*
Y199333D01*
X347165D01*
X346498D01*
Y198333D01*
X476500Y117500D02*
X478499D01*
X477500Y118499D02*
Y116500D01*
X476500Y137500D02*
Y139499D01*
X444833Y388499D02*
X444500Y388833D01*
X443833D01*
X443500Y388499D01*
Y388166D01*
X443833Y387833D01*
X444500D01*
X444833Y387500D01*
Y387167D01*
X444500Y386833D01*
X443833D01*
X443500Y387167D01*
X446832Y386833D02*
X445499D01*
X446832Y388166D01*
Y388499D01*
X446499Y388833D01*
X445833D01*
X445499Y388499D01*
X447499Y386500D02*
X448832D01*
X450498Y388833D02*
X449831D01*
X449498Y388499D01*
Y387167D01*
X449831Y386833D01*
X450498D01*
X450831Y387167D01*
Y388499D01*
X450498Y388833D01*
X451497D02*
Y387167D01*
X451831Y386833D01*
X452497D01*
X452830Y387167D01*
Y388833D01*
X453497D02*
X454830D01*
X454163D01*
Y386833D01*
X444333Y367499D02*
X444000Y367833D01*
X443333D01*
X443000Y367499D01*
Y367166D01*
X443333Y366833D01*
X444000D01*
X444333Y366500D01*
Y366166D01*
X444000Y365833D01*
X443333D01*
X443000Y366166D01*
X444999Y367499D02*
X445333Y367833D01*
X445999D01*
X446332Y367499D01*
Y367166D01*
X445999Y366833D01*
X445666D01*
X445999D01*
X446332Y366500D01*
Y366166D01*
X445999Y365833D01*
X445333D01*
X444999Y366166D01*
X446999Y365500D02*
X448332D01*
X449998Y367833D02*
X449331D01*
X448998Y367499D01*
Y366166D01*
X449331Y365833D01*
X449998D01*
X450331Y366166D01*
Y367499D01*
X449998Y367833D01*
X450997D02*
Y366166D01*
X451331Y365833D01*
X451997D01*
X452330Y366166D01*
Y367833D01*
X452997D02*
X454330D01*
X453663D01*
Y365833D01*
X444333Y344999D02*
X444000Y345333D01*
X443333D01*
X443000Y344999D01*
Y344666D01*
X443333Y344333D01*
X444000D01*
X444333Y344000D01*
Y343667D01*
X444000Y343333D01*
X443333D01*
X443000Y343667D01*
X445999Y343333D02*
Y345333D01*
X444999Y344333D01*
X446332D01*
X446999Y343000D02*
X448332D01*
X449998Y345333D02*
X449331D01*
X448998Y344999D01*
Y343667D01*
X449331Y343333D01*
X449998D01*
X450331Y343667D01*
Y344999D01*
X449998Y345333D01*
X450997D02*
Y343667D01*
X451331Y343333D01*
X451997D01*
X452330Y343667D01*
Y345333D01*
X452997D02*
X454330D01*
X453663D01*
Y343333D01*
X444333Y322499D02*
X444000Y322833D01*
X443333D01*
X443000Y322499D01*
Y322166D01*
X443333Y321833D01*
X444000D01*
X444333Y321500D01*
Y321166D01*
X444000Y320833D01*
X443333D01*
X443000Y321166D01*
X446332Y322833D02*
X444999D01*
Y321833D01*
X445666Y322166D01*
X445999D01*
X446332Y321833D01*
Y321166D01*
X445999Y320833D01*
X445333D01*
X444999Y321166D01*
X446999Y320500D02*
X448332D01*
X449998Y322833D02*
X449331D01*
X448998Y322499D01*
Y321166D01*
X449331Y320833D01*
X449998D01*
X450331Y321166D01*
Y322499D01*
X449998Y322833D01*
X450997D02*
Y321166D01*
X451331Y320833D01*
X451997D01*
X452330Y321166D01*
Y322833D01*
X452997D02*
X454330D01*
X453663D01*
Y320833D01*
X444333Y302499D02*
X444000Y302833D01*
X443333D01*
X443000Y302499D01*
Y302166D01*
X443333Y301833D01*
X444000D01*
X444333Y301500D01*
Y301167D01*
X444000Y300833D01*
X443333D01*
X443000Y301167D01*
X446332Y302833D02*
X445666Y302499D01*
X444999Y301833D01*
Y301167D01*
X445333Y300833D01*
X445999D01*
X446332Y301167D01*
Y301500D01*
X445999Y301833D01*
X444999D01*
X446999Y300500D02*
X448332D01*
X449998Y302833D02*
X449331D01*
X448998Y302499D01*
Y301167D01*
X449331Y300833D01*
X449998D01*
X450331Y301167D01*
Y302499D01*
X449998Y302833D01*
X450997D02*
Y301167D01*
X451331Y300833D01*
X451997D01*
X452330Y301167D01*
Y302833D01*
X452997D02*
X454330D01*
X453663D01*
Y300833D01*
X444333Y279999D02*
X444000Y280333D01*
X443333D01*
X443000Y279999D01*
Y279666D01*
X443333Y279333D01*
X444000D01*
X444333Y279000D01*
Y278666D01*
X444000Y278333D01*
X443333D01*
X443000Y278666D01*
X444999Y280333D02*
X446332D01*
Y279999D01*
X444999Y278666D01*
Y278333D01*
X446999Y278000D02*
X448332D01*
X449998Y280333D02*
X449331D01*
X448998Y279999D01*
Y278666D01*
X449331Y278333D01*
X449998D01*
X450331Y278666D01*
Y279999D01*
X449998Y280333D01*
X450997D02*
Y278666D01*
X451331Y278333D01*
X451997D01*
X452330Y278666D01*
Y280333D01*
X452997D02*
X454330D01*
X453663D01*
Y278333D01*
X444333Y409999D02*
X444000Y410333D01*
X443333D01*
X443000Y409999D01*
Y409666D01*
X443333Y409333D01*
X444000D01*
X444333Y409000D01*
Y408667D01*
X444000Y408333D01*
X443333D01*
X443000Y408667D01*
X444999Y408333D02*
X445666D01*
X445333D01*
Y410333D01*
X444999Y409999D01*
X446665Y408000D02*
X447998D01*
X449664Y410333D02*
X448998D01*
X448665Y409999D01*
Y408667D01*
X448998Y408333D01*
X449664D01*
X449998Y408667D01*
Y409999D01*
X449664Y410333D01*
X450664D02*
Y408667D01*
X450997Y408333D01*
X451664D01*
X451997Y408667D01*
Y410333D01*
X452664D02*
X453996D01*
X453330D01*
Y408333D01*
X389333Y294999D02*
X389000Y295333D01*
X388333D01*
X388000Y294999D01*
Y294666D01*
X388333Y294333D01*
X389000D01*
X389333Y294000D01*
Y293667D01*
X389000Y293333D01*
X388333D01*
X388000Y293667D01*
X391332Y295333D02*
X390666Y294999D01*
X389999Y294333D01*
Y293667D01*
X390333Y293333D01*
X390999D01*
X391332Y293667D01*
Y294000D01*
X390999Y294333D01*
X389999D01*
X391999Y293000D02*
X393332D01*
X393998Y295333D02*
X394665D01*
X394331D01*
Y293333D01*
X393998D01*
X394665D01*
X395664D02*
Y295333D01*
X396997Y293333D01*
Y295333D01*
X389333Y317499D02*
X389000Y317833D01*
X388333D01*
X388000Y317499D01*
Y317166D01*
X388333Y316833D01*
X389000D01*
X389333Y316500D01*
Y316166D01*
X389000Y315833D01*
X388333D01*
X388000Y316166D01*
X391332Y317833D02*
X389999D01*
Y316833D01*
X390666Y317166D01*
X390999D01*
X391332Y316833D01*
Y316166D01*
X390999Y315833D01*
X390333D01*
X389999Y316166D01*
X391999Y315500D02*
X393332D01*
X393998Y317833D02*
X394665D01*
X394331D01*
Y315833D01*
X393998D01*
X394665D01*
X395664D02*
Y317833D01*
X396997Y315833D01*
Y317833D01*
X389333Y274999D02*
X389000Y275333D01*
X388333D01*
X388000Y274999D01*
Y274666D01*
X388333Y274333D01*
X389000D01*
X389333Y274000D01*
Y273667D01*
X389000Y273333D01*
X388333D01*
X388000Y273667D01*
X389999Y275333D02*
X391332D01*
Y274999D01*
X389999Y273667D01*
Y273333D01*
X391999Y273000D02*
X393332D01*
X393998Y275333D02*
X394665D01*
X394331D01*
Y273333D01*
X393998D01*
X394665D01*
X395664D02*
Y275333D01*
X396997Y273333D01*
Y275333D01*
X389333Y337499D02*
X389000Y337833D01*
X388333D01*
X388000Y337499D01*
Y337166D01*
X388333Y336833D01*
X389000D01*
X389333Y336500D01*
Y336167D01*
X389000Y335833D01*
X388333D01*
X388000Y336167D01*
X390999Y335833D02*
Y337833D01*
X389999Y336833D01*
X391332D01*
X391999Y335500D02*
X393332D01*
X393998Y337833D02*
X394665D01*
X394331D01*
Y335833D01*
X393998D01*
X394665D01*
X395664D02*
Y337833D01*
X396997Y335833D01*
Y337833D01*
X389333Y359999D02*
X389000Y360333D01*
X388333D01*
X388000Y359999D01*
Y359666D01*
X388333Y359333D01*
X389000D01*
X389333Y359000D01*
Y358666D01*
X389000Y358333D01*
X388333D01*
X388000Y358666D01*
X389999Y359999D02*
X390333Y360333D01*
X390999D01*
X391332Y359999D01*
Y359666D01*
X390999Y359333D01*
X390666D01*
X390999D01*
X391332Y359000D01*
Y358666D01*
X390999Y358333D01*
X390333D01*
X389999Y358666D01*
X391999Y358000D02*
X393332D01*
X393998Y360333D02*
X394665D01*
X394331D01*
Y358333D01*
X393998D01*
X394665D01*
X395664D02*
Y360333D01*
X396997Y358333D01*
Y360333D01*
X389333Y382499D02*
X389000Y382833D01*
X388333D01*
X388000Y382499D01*
Y382166D01*
X388333Y381833D01*
X389000D01*
X389333Y381500D01*
Y381167D01*
X389000Y380833D01*
X388333D01*
X388000Y381167D01*
X391332Y380833D02*
X389999D01*
X391332Y382166D01*
Y382499D01*
X390999Y382833D01*
X390333D01*
X389999Y382499D01*
X391999Y380500D02*
X393332D01*
X393998Y382833D02*
X394665D01*
X394331D01*
Y380833D01*
X393998D01*
X394665D01*
X395664D02*
Y382833D01*
X396997Y380833D01*
Y382833D01*
X389333Y404999D02*
X389000Y405333D01*
X388333D01*
X388000Y404999D01*
Y404666D01*
X388333Y404333D01*
X389000D01*
X389333Y404000D01*
Y403666D01*
X389000Y403333D01*
X388333D01*
X388000Y403666D01*
X389999Y403333D02*
X390666D01*
X390333D01*
Y405333D01*
X389999Y404999D01*
X391666Y403000D02*
X392998D01*
X393665Y405333D02*
X394331D01*
X393998D01*
Y403333D01*
X393665D01*
X394331D01*
X395331D02*
Y405333D01*
X396664Y403333D01*
Y405333D01*
X363000Y125833D02*
Y127833D01*
X363666Y127166D01*
X364333Y127833D01*
Y125833D01*
X364999D02*
X365666D01*
X365333D01*
Y127833D01*
X364999Y127499D01*
X366666Y125500D02*
X367998D01*
X368665Y127833D02*
Y125833D01*
X369665D01*
X369998Y126166D01*
Y126500D01*
X369665Y126833D01*
X368665D01*
X369665D01*
X369998Y127166D01*
Y127499D01*
X369665Y127833D01*
X368665D01*
X345500Y125833D02*
Y127833D01*
X346166Y127166D01*
X346833Y127833D01*
Y125833D01*
X347499D02*
X348166D01*
X347833D01*
Y127833D01*
X347499Y127499D01*
X349166Y125500D02*
X350498D01*
X352498Y127833D02*
X351165D01*
Y126833D01*
X351831D01*
X351165D01*
Y125833D01*
X479500Y209500D02*
Y211499D01*
Y189500D02*
X481499D01*
X480500Y190499D02*
Y188500D01*
X319000Y487499D02*
X320333D01*
X319666D01*
Y485500D01*
X320999D02*
Y487499D01*
X321999D01*
X322332Y487166D01*
Y486500D01*
X321999Y486166D01*
X320999D01*
X323998Y485500D02*
Y487499D01*
X322999Y486500D01*
X324332D01*
X326331Y487499D02*
X325664Y487166D01*
X324998Y486500D01*
Y485833D01*
X325331Y485500D01*
X325998D01*
X326331Y485833D01*
Y486166D01*
X325998Y486500D01*
X324998D01*
X331000Y457499D02*
X332333D01*
X331666D01*
Y455500D01*
X332999D02*
Y457499D01*
X333999D01*
X334332Y457166D01*
Y456500D01*
X333999Y456166D01*
X332999D01*
X335998Y455500D02*
Y457499D01*
X334999Y456500D01*
X336332D01*
X338331Y457499D02*
X336998D01*
Y456500D01*
X337665Y456833D01*
X337998D01*
X338331Y456500D01*
Y455833D01*
X337998Y455500D01*
X337331D01*
X336998Y455833D01*
X335000Y497499D02*
X336333D01*
X335666D01*
Y495500D01*
X336999D02*
Y497499D01*
X337999D01*
X338332Y497166D01*
Y496500D01*
X337999Y496166D01*
X336999D01*
X339998Y495500D02*
Y497499D01*
X338999Y496500D01*
X340332D01*
X340998Y497166D02*
X341331Y497499D01*
X341998D01*
X342331Y497166D01*
Y496833D01*
X341998Y496500D01*
X341665D01*
X341998D01*
X342331Y496166D01*
Y495833D01*
X341998Y495500D01*
X341331D01*
X340998Y495833D01*
X110334Y182000D02*
Y180334D01*
X110667Y180000D01*
X111334D01*
X111667Y180334D01*
Y182000D01*
X112333Y180334D02*
X112666Y180000D01*
X113333D01*
X113666Y180334D01*
Y181667D01*
X113333Y182000D01*
X112666D01*
X112333Y181667D01*
Y181333D01*
X112666Y181000D01*
X113666D01*
X237000Y202799D02*
Y201133D01*
X237333Y200800D01*
X238000D01*
X238333Y201133D01*
Y202799D01*
X240332D02*
X239666Y202466D01*
X238999Y201800D01*
Y201133D01*
X239333Y200800D01*
X239999D01*
X240332Y201133D01*
Y201466D01*
X239999Y201800D01*
X238999D01*
X199300Y295099D02*
Y293433D01*
X199633Y293100D01*
X200300D01*
X200633Y293433D01*
Y295099D01*
X201299Y294766D02*
X201633Y295099D01*
X202299D01*
X202632Y294766D01*
Y294433D01*
X202299Y294100D01*
X202632Y293766D01*
Y293433D01*
X202299Y293100D01*
X201633D01*
X201299Y293433D01*
Y293766D01*
X201633Y294100D01*
X201299Y294433D01*
Y294766D01*
X201633Y294100D02*
X202299D01*
X129300Y377099D02*
Y375433D01*
X129633Y375100D01*
X130300D01*
X130633Y375433D01*
Y377099D01*
X131299D02*
X132632D01*
Y376766D01*
X131299Y375433D01*
Y375100D01*
X411900Y518700D02*
Y520699D01*
X412900D01*
X413233Y520366D01*
Y519700D01*
X412900Y519366D01*
X411900D01*
X412566D02*
X413233Y518700D01*
X415232D02*
X413899D01*
X415232Y520033D01*
Y520366D01*
X414899Y520699D01*
X414233D01*
X413899Y520366D01*
X417232Y518700D02*
X415899D01*
X417232Y520033D01*
Y520366D01*
X416898Y520699D01*
X416232D01*
X415899Y520366D01*
X443900Y515700D02*
Y517699D01*
X444900D01*
X445233Y517366D01*
Y516700D01*
X444900Y516366D01*
X443900D01*
X444566D02*
X445233Y515700D01*
X445899D02*
X446566D01*
X446233D01*
Y517699D01*
X445899Y517366D01*
X447566Y517699D02*
X448898D01*
Y517366D01*
X447566Y516033D01*
Y515700D01*
X447000Y502100D02*
Y504099D01*
X448000D01*
X448333Y503766D01*
Y503100D01*
X448000Y502766D01*
X447000D01*
X447666D02*
X448333Y502100D01*
X450332D02*
X448999D01*
X450332Y503433D01*
Y503766D01*
X449999Y504099D01*
X449333D01*
X448999Y503766D01*
X450999D02*
X451332Y504099D01*
X451998D01*
X452332Y503766D01*
Y502433D01*
X451998Y502100D01*
X451332D01*
X450999Y502433D01*
Y503766D01*
X272501Y506000D02*
Y508000D01*
X273500D01*
X273834Y507666D01*
Y507000D01*
X273500Y506667D01*
X272501D01*
X273167D02*
X273834Y506000D01*
X274500D02*
X275167D01*
X274833D01*
Y508000D01*
X274500Y507666D01*
X277499Y508000D02*
X276166D01*
Y507000D01*
X276833Y507333D01*
X277166D01*
X277499Y507000D01*
Y506334D01*
X277166Y506000D01*
X276500D01*
X276166Y506334D01*
X272501Y496000D02*
Y498000D01*
X273500D01*
X273834Y497667D01*
Y497000D01*
X273500Y496667D01*
X272501D01*
X273167D02*
X273834Y496000D01*
X274500D02*
X275167D01*
X274833D01*
Y498000D01*
X274500Y497667D01*
X277166Y496000D02*
Y498000D01*
X276166Y497000D01*
X277499D01*
X378334Y465000D02*
Y463000D01*
X379334D01*
X379667Y463334D01*
Y464667D01*
X379334Y465000D01*
X378334D01*
X381666Y464667D02*
X381333Y465000D01*
X380667D01*
X380334Y464667D01*
Y464333D01*
X380667Y464000D01*
X381333D01*
X381666Y463667D01*
Y463334D01*
X381333Y463000D01*
X380667D01*
X380334Y463334D01*
X382333Y464667D02*
X382666Y465000D01*
X383333D01*
X383666Y464667D01*
Y464333D01*
X383333Y464000D01*
X383666Y463667D01*
Y463334D01*
X383333Y463000D01*
X382666D01*
X382333Y463334D01*
Y463667D01*
X382666Y464000D01*
X382333Y464333D01*
Y464667D01*
X382666Y464000D02*
X383333D01*
X441335Y484000D02*
Y486000D01*
X442335D01*
X442668Y485667D01*
Y485000D01*
X442335Y484667D01*
X441335D01*
X442002D02*
X442668Y484000D01*
X444668Y485667D02*
X444335Y486000D01*
X443668D01*
X443335Y485667D01*
Y484334D01*
X443668Y484000D01*
X444335D01*
X444668Y484334D01*
Y485000D01*
X444001D01*
X445334Y486000D02*
Y484000D01*
X446334D01*
X446667Y484334D01*
Y484667D01*
X446334Y485000D01*
X445334D01*
X446334D01*
X446667Y485333D01*
Y485667D01*
X446334Y486000D01*
X445334D01*
X447334D02*
Y484000D01*
X448666D01*
X450666Y486000D02*
X449333D01*
Y484000D01*
X450666D01*
X449333Y485000D02*
X449999D01*
X451332Y486000D02*
Y484000D01*
X452332D01*
X452665Y484334D01*
Y485667D01*
X452332Y486000D01*
X451332D01*
X453332Y485667D02*
X453665Y486000D01*
X454331D01*
X454665Y485667D01*
Y484334D01*
X454331Y484000D01*
X453665D01*
X453332Y484334D01*
Y485667D01*
X80100Y690300D02*
Y692299D01*
X81100D01*
X81433Y691966D01*
Y691300D01*
X81100Y690966D01*
X80100D01*
X82099Y692299D02*
X83432D01*
Y691966D01*
X82099Y690633D01*
Y690300D01*
X140592Y525000D02*
Y524667D01*
X141259Y524000D01*
X141925Y524667D01*
Y525000D01*
X141259Y524000D02*
Y523000D01*
X142592D02*
X143258D01*
X142925D01*
Y525000D01*
X142592Y524667D01*
X427501Y658500D02*
Y656834D01*
X427834Y656500D01*
X428501D01*
X428834Y656834D01*
Y658500D01*
X429500Y656500D02*
X430167D01*
X429833D01*
Y658500D01*
X429500Y658167D01*
X432166Y656500D02*
Y658500D01*
X431166Y657500D01*
X432499D01*
X185334Y330000D02*
Y328334D01*
X185667Y328000D01*
X186334D01*
X186667Y328334D01*
Y330000D01*
X188666D02*
X187333D01*
Y329000D01*
X188000Y329333D01*
X188333D01*
X188666Y329000D01*
Y328334D01*
X188333Y328000D01*
X187666D01*
X187333Y328334D01*
X260334Y250000D02*
Y248334D01*
X260667Y248000D01*
X261334D01*
X261667Y248334D01*
Y250000D01*
X263333Y248000D02*
Y250000D01*
X262333Y249000D01*
X263666D01*
X274334Y134000D02*
Y132334D01*
X274667Y132000D01*
X275334D01*
X275667Y132334D01*
Y134000D01*
X276333Y133667D02*
X276666Y134000D01*
X277333D01*
X277666Y133667D01*
Y133333D01*
X277333Y133000D01*
X277000D01*
X277333D01*
X277666Y132667D01*
Y132334D01*
X277333Y132000D01*
X276666D01*
X276333Y132334D01*
X471668Y615000D02*
X473001D01*
X472334D01*
Y613000D01*
X473667D02*
Y615000D01*
X474667D01*
X475000Y614667D01*
Y614000D01*
X474667Y613667D01*
X473667D01*
X475666Y615000D02*
X476999D01*
Y614667D01*
X475666Y613334D01*
Y613000D01*
X477666D02*
X478332D01*
X477999D01*
Y615000D01*
X477666Y614667D01*
X311500Y406835D02*
Y408167D01*
Y407501D01*
X313500D01*
Y408834D02*
X311500D01*
Y409834D01*
X311834Y410167D01*
X312500D01*
X312833Y409834D01*
Y408834D01*
X311500Y410833D02*
Y412166D01*
X311834D01*
X313166Y410833D01*
X313500D01*
X311834Y412833D02*
X311500Y413166D01*
Y413832D01*
X311834Y414165D01*
X313166D01*
X313500Y413832D01*
Y413166D01*
X313166Y412833D01*
X311834D01*
X194334Y648000D02*
X195667D01*
X195001D01*
Y646000D01*
X196334D02*
Y648000D01*
X197334D01*
X197667Y647667D01*
Y647000D01*
X197334Y646667D01*
X196334D01*
X199666Y648000D02*
X199000Y647667D01*
X198333Y647000D01*
Y646334D01*
X198667Y646000D01*
X199333D01*
X199666Y646334D01*
Y646667D01*
X199333Y647000D01*
X198333D01*
X200333Y646334D02*
X200666Y646000D01*
X201332D01*
X201665Y646334D01*
Y647667D01*
X201332Y648000D01*
X200666D01*
X200333Y647667D01*
Y647333D01*
X200666Y647000D01*
X201665D01*
X420000Y446499D02*
X421333D01*
X420666D01*
Y444500D01*
X421999D02*
Y446499D01*
X422999D01*
X423332Y446166D01*
Y445500D01*
X422999Y445166D01*
X421999D01*
X425332Y446499D02*
X424665Y446166D01*
X423999Y445500D01*
Y444833D01*
X424332Y444500D01*
X424998D01*
X425332Y444833D01*
Y445166D01*
X424998Y445500D01*
X423999D01*
X425998Y446166D02*
X426331Y446499D01*
X426998D01*
X427331Y446166D01*
Y445833D01*
X426998Y445500D01*
X427331Y445166D01*
Y444833D01*
X426998Y444500D01*
X426331D01*
X425998Y444833D01*
Y445166D01*
X426331Y445500D01*
X425998Y445833D01*
Y446166D01*
X426331Y445500D02*
X426998D01*
X411335Y250000D02*
X412667D01*
X412001D01*
Y248000D01*
X413334D02*
Y250000D01*
X414334D01*
X414667Y249667D01*
Y249000D01*
X414334Y248667D01*
X413334D01*
X416666Y250000D02*
X416000Y249667D01*
X415333Y249000D01*
Y248334D01*
X415666Y248000D01*
X416333D01*
X416666Y248334D01*
Y248667D01*
X416333Y249000D01*
X415333D01*
X418666Y250000D02*
X417999Y249667D01*
X417333Y249000D01*
Y248334D01*
X417666Y248000D01*
X418332D01*
X418666Y248334D01*
Y248667D01*
X418332Y249000D01*
X417333D01*
X424299Y178857D02*
X425631Y178909D01*
X424965Y178883D01*
X425042Y176885D01*
X426374Y176937D02*
X426297Y178935D01*
X427295Y178973D01*
X427641Y178653D01*
X427667Y177987D01*
X427347Y177641D01*
X426348Y177603D01*
X429626Y179063D02*
X428973Y178705D01*
X428333Y178013D01*
X428359Y177347D01*
X428705Y177027D01*
X429371Y177053D01*
X429691Y177398D01*
X429678Y177731D01*
X429332Y178051D01*
X428333Y178013D01*
X431624Y179141D02*
X430292Y179089D01*
X430331Y178090D01*
X430984Y178449D01*
X431317Y178462D01*
X431663Y178142D01*
X431688Y177476D01*
X431368Y177130D01*
X430702Y177104D01*
X430357Y177424D01*
X401334Y250000D02*
X402667D01*
X402001D01*
Y248000D01*
X403334D02*
Y250000D01*
X404334D01*
X404667Y249667D01*
Y249000D01*
X404334Y248667D01*
X403334D01*
X406666Y250000D02*
X406000Y249667D01*
X405333Y249000D01*
Y248334D01*
X405666Y248000D01*
X406333D01*
X406666Y248334D01*
Y248667D01*
X406333Y249000D01*
X405333D01*
X408332Y248000D02*
Y250000D01*
X407333Y249000D01*
X408666D01*
X350376Y165141D02*
X351708Y165089D01*
X351042Y165115D01*
X350965Y163117D01*
X352296Y163066D02*
X352374Y165063D01*
X353373Y165025D01*
X353693Y164679D01*
X353667Y164013D01*
X353321Y163693D01*
X352322Y163731D01*
X355703Y164935D02*
X355025Y164627D01*
X354333Y163987D01*
X354307Y163321D01*
X354627Y162975D01*
X355293Y162950D01*
X355639Y163270D01*
X355652Y163603D01*
X355332Y163949D01*
X354333Y163987D01*
X356357Y164576D02*
X356702Y164896D01*
X357368Y164870D01*
X357688Y164524D01*
X357676Y164191D01*
X357330Y163871D01*
X356997Y163884D01*
X357330Y163871D01*
X357650Y163525D01*
X357637Y163192D01*
X357291Y162872D01*
X356625Y162898D01*
X356305Y163244D01*
X322335Y646000D02*
X323667D01*
X323001D01*
Y644000D01*
X324334D02*
Y646000D01*
X325334D01*
X325667Y645667D01*
Y645000D01*
X325334Y644667D01*
X324334D01*
X327666Y646000D02*
X327000Y645667D01*
X326333Y645000D01*
Y644334D01*
X326666Y644000D01*
X327333D01*
X327666Y644334D01*
Y644667D01*
X327333Y645000D01*
X326333D01*
X329665Y644000D02*
X328333D01*
X329665Y645333D01*
Y645667D01*
X329332Y646000D01*
X328666D01*
X328333Y645667D01*
X280668Y648000D02*
X282001D01*
X281334D01*
Y646000D01*
X282667D02*
Y648000D01*
X283667D01*
X284000Y647667D01*
Y647000D01*
X283667Y646667D01*
X282667D01*
X285999Y648000D02*
X285333Y647667D01*
X284666Y647000D01*
Y646334D01*
X285000Y646000D01*
X285666D01*
X285999Y646334D01*
Y646667D01*
X285666Y647000D01*
X284666D01*
X286666Y646000D02*
X287332D01*
X286999D01*
Y648000D01*
X286666Y647667D01*
X130334Y279000D02*
X131667D01*
X131001D01*
Y277000D01*
X132334D02*
Y279000D01*
X133334D01*
X133667Y278666D01*
Y278000D01*
X133334Y277667D01*
X132334D01*
X135666Y279000D02*
X135000Y278666D01*
X134333Y278000D01*
Y277334D01*
X134667Y277000D01*
X135333D01*
X135666Y277334D01*
Y277667D01*
X135333Y278000D01*
X134333D01*
X136333Y278666D02*
X136666Y279000D01*
X137332D01*
X137665Y278666D01*
Y277334D01*
X137332Y277000D01*
X136666D01*
X136333Y277334D01*
Y278666D01*
X292335Y648000D02*
X293667D01*
X293001D01*
Y646000D01*
X294334D02*
Y648000D01*
X295334D01*
X295667Y647667D01*
Y647000D01*
X295334Y646667D01*
X294334D01*
X297666Y648000D02*
X296333D01*
Y647000D01*
X297000Y647333D01*
X297333D01*
X297666Y647000D01*
Y646334D01*
X297333Y646000D01*
X296667D01*
X296333Y646334D01*
X298333D02*
X298666Y646000D01*
X299332D01*
X299665Y646334D01*
Y647667D01*
X299332Y648000D01*
X298666D01*
X298333Y647667D01*
Y647333D01*
X298666Y647000D01*
X299665D01*
X248335Y527000D02*
X249667D01*
X249001D01*
Y525000D01*
X250334D02*
Y527000D01*
X251334D01*
X251667Y526666D01*
Y526000D01*
X251334Y525667D01*
X250334D01*
X253666Y527000D02*
X252333D01*
Y526000D01*
X253000Y526333D01*
X253333D01*
X253666Y526000D01*
Y525334D01*
X253333Y525000D01*
X252666D01*
X252333Y525334D01*
X255332Y525000D02*
Y527000D01*
X254333Y526000D01*
X255665D01*
X278334Y574000D02*
X279667D01*
X279001D01*
Y572000D01*
X280334D02*
Y574000D01*
X281334D01*
X281667Y573666D01*
Y573000D01*
X281334Y572667D01*
X280334D01*
X283666Y574000D02*
X282333D01*
Y573000D01*
X283000Y573333D01*
X283333D01*
X283666Y573000D01*
Y572334D01*
X283333Y572000D01*
X282666D01*
X282333Y572334D01*
X284333Y573666D02*
X284666Y574000D01*
X285332D01*
X285665Y573666D01*
Y573333D01*
X285332Y573000D01*
X284999D01*
X285332D01*
X285665Y572667D01*
Y572334D01*
X285332Y572000D01*
X284666D01*
X284333Y572334D01*
X278334Y586000D02*
X279667D01*
X279001D01*
Y584000D01*
X280334D02*
Y586000D01*
X281334D01*
X281667Y585667D01*
Y585000D01*
X281334Y584667D01*
X280334D01*
X283666Y586000D02*
X282333D01*
Y585000D01*
X283000Y585333D01*
X283333D01*
X283666Y585000D01*
Y584334D01*
X283333Y584000D01*
X282666D01*
X282333Y584334D01*
X285665Y584000D02*
X284333D01*
X285665Y585333D01*
Y585667D01*
X285332Y586000D01*
X284666D01*
X284333Y585667D01*
X231668Y527000D02*
X233001D01*
X232334D01*
Y525000D01*
X233667D02*
Y527000D01*
X234667D01*
X235000Y526666D01*
Y526000D01*
X234667Y525667D01*
X233667D01*
X236999Y527000D02*
X235666D01*
Y526000D01*
X236333Y526333D01*
X236666D01*
X236999Y526000D01*
Y525334D01*
X236666Y525000D01*
X236000D01*
X235666Y525334D01*
X237666Y525000D02*
X238332D01*
X237999D01*
Y527000D01*
X237666Y526666D01*
X115334Y403000D02*
X116667D01*
X116001D01*
Y401000D01*
X117334D02*
Y403000D01*
X118334D01*
X118667Y402667D01*
Y402000D01*
X118334Y401667D01*
X117334D01*
X120666Y403000D02*
X119333D01*
Y402000D01*
X120000Y402333D01*
X120333D01*
X120666Y402000D01*
Y401334D01*
X120333Y401000D01*
X119667D01*
X119333Y401334D01*
X121333Y402667D02*
X121666Y403000D01*
X122332D01*
X122666Y402667D01*
Y401334D01*
X122332Y401000D01*
X121666D01*
X121333Y401334D01*
Y402667D01*
X115334Y417000D02*
X116667D01*
X116001D01*
Y415000D01*
X117334D02*
Y417000D01*
X118334D01*
X118667Y416667D01*
Y416000D01*
X118334Y415667D01*
X117334D01*
X120333Y415000D02*
Y417000D01*
X119333Y416000D01*
X120666D01*
X121333Y415334D02*
X121666Y415000D01*
X122332D01*
X122666Y415334D01*
Y416667D01*
X122332Y417000D01*
X121666D01*
X121333Y416667D01*
Y416333D01*
X121666Y416000D01*
X122666D01*
X262334Y438000D02*
X263667D01*
X263001D01*
Y436000D01*
X264334D02*
Y438000D01*
X265334D01*
X265667Y437667D01*
Y437000D01*
X265334Y436667D01*
X264334D01*
X267333Y436000D02*
Y438000D01*
X266333Y437000D01*
X267666D01*
X268333Y437667D02*
X268666Y438000D01*
X269332D01*
X269666Y437667D01*
Y437333D01*
X269332Y437000D01*
X269666Y436667D01*
Y436334D01*
X269332Y436000D01*
X268666D01*
X268333Y436334D01*
Y436667D01*
X268666Y437000D01*
X268333Y437333D01*
Y437667D01*
X268666Y437000D02*
X269332D01*
X277334Y597000D02*
X278667D01*
X278001D01*
Y595000D01*
X279334D02*
Y597000D01*
X280334D01*
X280667Y596666D01*
Y596000D01*
X280334Y595667D01*
X279334D01*
X282333Y595000D02*
Y597000D01*
X281333Y596000D01*
X282666D01*
X283333Y597000D02*
X284665D01*
Y596666D01*
X283333Y595334D01*
Y595000D01*
X434335Y624000D02*
X435667D01*
X435001D01*
Y622000D01*
X436334D02*
Y624000D01*
X437334D01*
X437667Y623666D01*
Y623000D01*
X437334Y622667D01*
X436334D01*
X439333Y622000D02*
Y624000D01*
X438333Y623000D01*
X439666D01*
X441666Y622000D02*
X440333D01*
X441666Y623333D01*
Y623666D01*
X441332Y624000D01*
X440666D01*
X440333Y623666D01*
X397668Y689000D02*
X399001D01*
X398334D01*
Y687000D01*
X399667D02*
Y689000D01*
X400667D01*
X401000Y688666D01*
Y688000D01*
X400667Y687667D01*
X399667D01*
X402666Y687000D02*
Y689000D01*
X401666Y688000D01*
X402999D01*
X403666Y687000D02*
X404332D01*
X403999D01*
Y689000D01*
X403666Y688666D01*
X477334Y679000D02*
X478667D01*
X478001D01*
Y677000D01*
X479334D02*
Y679000D01*
X480334D01*
X480667Y678666D01*
Y678000D01*
X480334Y677667D01*
X479334D01*
X482333Y677000D02*
Y679000D01*
X481333Y678000D01*
X482666D01*
X483333Y678666D02*
X483666Y679000D01*
X484332D01*
X484665Y678666D01*
Y677334D01*
X484332Y677000D01*
X483666D01*
X483333Y677334D01*
Y678666D01*
X241335Y658000D02*
X242667D01*
X242001D01*
Y656000D01*
X243334D02*
Y658000D01*
X244334D01*
X244667Y657666D01*
Y657000D01*
X244334Y656667D01*
X243334D01*
X245333Y657666D02*
X245667Y658000D01*
X246333D01*
X246666Y657666D01*
Y657333D01*
X246333Y657000D01*
X246000D01*
X246333D01*
X246666Y656667D01*
Y656334D01*
X246333Y656000D01*
X245667D01*
X245333Y656334D01*
X247333Y658000D02*
X248665D01*
Y657666D01*
X247333Y656334D01*
Y656000D01*
X223335Y692000D02*
X224667D01*
X224001D01*
Y690000D01*
X225334D02*
Y692000D01*
X226334D01*
X226667Y691667D01*
Y691000D01*
X226334Y690667D01*
X225334D01*
X227333Y691667D02*
X227666Y692000D01*
X228333D01*
X228666Y691667D01*
Y691333D01*
X228333Y691000D01*
X228000D01*
X228333D01*
X228666Y690667D01*
Y690334D01*
X228333Y690000D01*
X227666D01*
X227333Y690334D01*
X230665Y692000D02*
X229999Y691667D01*
X229333Y691000D01*
Y690334D01*
X229666Y690000D01*
X230332D01*
X230665Y690334D01*
Y690667D01*
X230332Y691000D01*
X229333D01*
X190334Y692000D02*
X191667D01*
X191001D01*
Y690000D01*
X192334D02*
Y692000D01*
X193334D01*
X193667Y691667D01*
Y691000D01*
X193334Y690667D01*
X192334D01*
X194333Y691667D02*
X194667Y692000D01*
X195333D01*
X195666Y691667D01*
Y691333D01*
X195333Y691000D01*
X195000D01*
X195333D01*
X195666Y690667D01*
Y690334D01*
X195333Y690000D01*
X194667D01*
X194333Y690334D01*
X197666Y692000D02*
X196333D01*
Y691000D01*
X196999Y691333D01*
X197332D01*
X197666Y691000D01*
Y690334D01*
X197332Y690000D01*
X196666D01*
X196333Y690334D01*
X143334Y691500D02*
X144667D01*
X144001D01*
Y689500D01*
X145334D02*
Y691500D01*
X146334D01*
X146667Y691166D01*
Y690500D01*
X146334Y690167D01*
X145334D01*
X147333Y691166D02*
X147667Y691500D01*
X148333D01*
X148666Y691166D01*
Y690833D01*
X148333Y690500D01*
X148000D01*
X148333D01*
X148666Y690167D01*
Y689834D01*
X148333Y689500D01*
X147667D01*
X147333Y689834D01*
X150332Y689500D02*
Y691500D01*
X149333Y690500D01*
X150665D01*
X136335Y209000D02*
X137667D01*
X137001D01*
Y207000D01*
X138334D02*
Y209000D01*
X139334D01*
X139667Y208666D01*
Y208000D01*
X139334Y207667D01*
X138334D01*
X140333Y208666D02*
X140666Y209000D01*
X141333D01*
X141666Y208666D01*
Y208333D01*
X141333Y208000D01*
X141000D01*
X141333D01*
X141666Y207667D01*
Y207334D01*
X141333Y207000D01*
X140666D01*
X140333Y207334D01*
X142333Y208666D02*
X142666Y209000D01*
X143332D01*
X143666Y208666D01*
Y208333D01*
X143332Y208000D01*
X142999D01*
X143332D01*
X143666Y207667D01*
Y207334D01*
X143332Y207000D01*
X142666D01*
X142333Y207334D01*
X211334Y217000D02*
X212667D01*
X212001D01*
Y215000D01*
X213334D02*
Y217000D01*
X214334D01*
X214667Y216667D01*
Y216000D01*
X214334Y215667D01*
X213334D01*
X215333Y216667D02*
X215667Y217000D01*
X216333D01*
X216666Y216667D01*
Y216333D01*
X216333Y216000D01*
X216000D01*
X216333D01*
X216666Y215667D01*
Y215334D01*
X216333Y215000D01*
X215667D01*
X215333Y215334D01*
X218666Y215000D02*
X217333D01*
X218666Y216333D01*
Y216667D01*
X218332Y217000D01*
X217666D01*
X217333Y216667D01*
X309668Y630000D02*
X311001D01*
X310334D01*
Y628000D01*
X311667D02*
Y630000D01*
X312667D01*
X313000Y629667D01*
Y629000D01*
X312667Y628667D01*
X311667D01*
X313666Y629667D02*
X314000Y630000D01*
X314666D01*
X314999Y629667D01*
Y629333D01*
X314666Y629000D01*
X314333D01*
X314666D01*
X314999Y628667D01*
Y628334D01*
X314666Y628000D01*
X314000D01*
X313666Y628334D01*
X315666Y628000D02*
X316332D01*
X315999D01*
Y630000D01*
X315666Y629667D01*
X115334Y190000D02*
X116667D01*
X116001D01*
Y188000D01*
X117334D02*
Y190000D01*
X118334D01*
X118667Y189666D01*
Y189000D01*
X118334Y188667D01*
X117334D01*
X119333Y189666D02*
X119667Y190000D01*
X120333D01*
X120666Y189666D01*
Y189333D01*
X120333Y189000D01*
X120000D01*
X120333D01*
X120666Y188667D01*
Y188334D01*
X120333Y188000D01*
X119667D01*
X119333Y188334D01*
X121333Y189666D02*
X121666Y190000D01*
X122332D01*
X122666Y189666D01*
Y188334D01*
X122332Y188000D01*
X121666D01*
X121333Y188334D01*
Y189666D01*
X115334Y113000D02*
X116667D01*
X116001D01*
Y111000D01*
X117334D02*
Y113000D01*
X118334D01*
X118667Y112666D01*
Y112000D01*
X118334Y111667D01*
X117334D01*
X120666Y111000D02*
X119333D01*
X120666Y112333D01*
Y112666D01*
X120333Y113000D01*
X119667D01*
X119333Y112666D01*
X121333Y111334D02*
X121666Y111000D01*
X122332D01*
X122666Y111334D01*
Y112666D01*
X122332Y113000D01*
X121666D01*
X121333Y112666D01*
Y112333D01*
X121666Y112000D01*
X122666D01*
X222335Y298000D02*
X223667D01*
X223001D01*
Y296000D01*
X224334D02*
Y298000D01*
X225334D01*
X225667Y297667D01*
Y297000D01*
X225334Y296667D01*
X224334D01*
X227666Y296000D02*
X226333D01*
X227666Y297333D01*
Y297667D01*
X227333Y298000D01*
X226666D01*
X226333Y297667D01*
X228333D02*
X228666Y298000D01*
X229332D01*
X229665Y297667D01*
Y297333D01*
X229332Y297000D01*
X229665Y296667D01*
Y296334D01*
X229332Y296000D01*
X228666D01*
X228333Y296334D01*
Y296667D01*
X228666Y297000D01*
X228333Y297333D01*
Y297667D01*
X228666Y297000D02*
X229332D01*
X120803Y380000D02*
X122136D01*
X121469D01*
Y378000D01*
X122802D02*
Y380000D01*
X123802D01*
X124135Y379666D01*
Y379000D01*
X123802Y378667D01*
X122802D01*
X126135Y378000D02*
X124802D01*
X126135Y379333D01*
Y379666D01*
X125801Y380000D01*
X125135D01*
X124802Y379666D01*
X126801Y380000D02*
X128134D01*
Y379666D01*
X126801Y378334D01*
Y378000D01*
X259200Y205193D02*
X260533D01*
X259866D01*
Y203193D01*
X261199D02*
Y205193D01*
X262199D01*
X262532Y204859D01*
Y204193D01*
X262199Y203860D01*
X261199D01*
X264531Y203193D02*
X263198D01*
X264531Y204526D01*
Y204859D01*
X264198Y205193D01*
X263532D01*
X263198Y204859D01*
X266531Y205193D02*
X265864Y204859D01*
X265198Y204193D01*
Y203526D01*
X265531Y203193D01*
X266197D01*
X266531Y203526D01*
Y203860D01*
X266197Y204193D01*
X265198D01*
X103803Y366000D02*
X105136D01*
X104470D01*
Y364000D01*
X105802D02*
Y366000D01*
X106802D01*
X107135Y365667D01*
Y365000D01*
X106802Y364667D01*
X105802D01*
X109135Y364000D02*
X107802D01*
X109135Y365333D01*
Y365667D01*
X108801Y366000D01*
X108135D01*
X107802Y365667D01*
X111134Y366000D02*
X109801D01*
Y365000D01*
X110468Y365333D01*
X110801D01*
X111134Y365000D01*
Y364334D01*
X110801Y364000D01*
X110134D01*
X109801Y364334D01*
X172335Y286000D02*
X173667D01*
X173001D01*
Y284000D01*
X174334D02*
Y286000D01*
X175334D01*
X175667Y285666D01*
Y285000D01*
X175334Y284667D01*
X174334D01*
X177666Y284000D02*
X176333D01*
X177666Y285333D01*
Y285666D01*
X177333Y286000D01*
X176666D01*
X176333Y285666D01*
X179332Y284000D02*
Y286000D01*
X178333Y285000D01*
X179666D01*
X209200Y191193D02*
X210533D01*
X209866D01*
Y189193D01*
X211199D02*
Y191193D01*
X212199D01*
X212532Y190859D01*
Y190193D01*
X212199Y189860D01*
X211199D01*
X214531Y189193D02*
X213198D01*
X214531Y190526D01*
Y190859D01*
X214198Y191193D01*
X213532D01*
X213198Y190859D01*
X215198D02*
X215531Y191193D01*
X216197D01*
X216531Y190859D01*
Y190526D01*
X216197Y190193D01*
X215864D01*
X216197D01*
X216531Y189860D01*
Y189526D01*
X216197Y189193D01*
X215531D01*
X215198Y189526D01*
X180667Y159667D02*
X180334Y160000D01*
X179667D01*
X179334Y159667D01*
Y159333D01*
X179667Y159000D01*
X180334D01*
X180667Y158667D01*
Y158334D01*
X180334Y158000D01*
X179667D01*
X179334Y158334D01*
X181333Y160000D02*
Y158000D01*
X182000Y158667D01*
X182667Y158000D01*
Y160000D01*
X183333Y159667D02*
X183666Y160000D01*
X184333D01*
X184666Y159667D01*
Y159333D01*
X184333Y159000D01*
X183999D01*
X184333D01*
X184666Y158667D01*
Y158334D01*
X184333Y158000D01*
X183666D01*
X183333Y158334D01*
X379333Y488667D02*
X379000Y488334D01*
Y487667D01*
X379333Y487334D01*
X379667D01*
X380000Y487667D01*
Y488334D01*
X380333Y488667D01*
X380666D01*
X381000Y488334D01*
Y487667D01*
X380666Y487334D01*
X379000Y489334D02*
X381000D01*
X380333Y490000D01*
X381000Y490666D01*
X379000D01*
X381000Y492666D02*
Y491333D01*
X379667Y492666D01*
X379333D01*
X379000Y492333D01*
Y491666D01*
X379333Y491333D01*
X125633Y600866D02*
X125300Y601199D01*
X124633D01*
X124300Y600866D01*
Y600533D01*
X124633Y600200D01*
X125300D01*
X125633Y599866D01*
Y599533D01*
X125300Y599200D01*
X124633D01*
X124300Y599533D01*
X126299Y601199D02*
Y599200D01*
X126966Y599866D01*
X127632Y599200D01*
Y601199D01*
X128299Y599200D02*
X128965D01*
X128632D01*
Y601199D01*
X128299Y600866D01*
X310334Y668000D02*
Y670000D01*
X311334D01*
X311667Y669666D01*
Y669000D01*
X311334Y668667D01*
X310334D01*
X311001D02*
X311667Y668000D01*
X312334Y670000D02*
X313666D01*
Y669666D01*
X312334Y668334D01*
Y668000D01*
X314333Y669666D02*
X314666Y670000D01*
X315333D01*
X315666Y669666D01*
Y668334D01*
X315333Y668000D01*
X314666D01*
X314333Y668334D01*
Y669666D01*
X477334Y656000D02*
Y658000D01*
X478334D01*
X478667Y657666D01*
Y657000D01*
X478334Y656667D01*
X477334D01*
X478001D02*
X478667Y656000D01*
X480666Y658000D02*
X480000Y657666D01*
X479334Y657000D01*
Y656334D01*
X479667Y656000D01*
X480333D01*
X480666Y656334D01*
Y656667D01*
X480333Y657000D01*
X479334D01*
X481333Y656334D02*
X481666Y656000D01*
X482333D01*
X482666Y656334D01*
Y657666D01*
X482333Y658000D01*
X481666D01*
X481333Y657666D01*
Y657333D01*
X481666Y657000D01*
X482666D01*
X371334Y505000D02*
Y507000D01*
X372334D01*
X372667Y506667D01*
Y506000D01*
X372334Y505667D01*
X371334D01*
X372001D02*
X372667Y505000D01*
X374666Y507000D02*
X374000Y506667D01*
X373334Y506000D01*
Y505334D01*
X373667Y505000D01*
X374333D01*
X374666Y505334D01*
Y505667D01*
X374333Y506000D01*
X373334D01*
X375333Y507000D02*
X376666D01*
Y506667D01*
X375333Y505334D01*
Y505000D01*
X179334Y631000D02*
Y633000D01*
X180334D01*
X180667Y632666D01*
Y632000D01*
X180334Y631667D01*
X179334D01*
X180001D02*
X180667Y631000D01*
X182667Y633000D02*
X182000Y632666D01*
X181333Y632000D01*
Y631334D01*
X181667Y631000D01*
X182333D01*
X182667Y631334D01*
Y631667D01*
X182333Y632000D01*
X181333D01*
X184666Y633000D02*
X183999Y632666D01*
X183333Y632000D01*
Y631334D01*
X183666Y631000D01*
X184333D01*
X184666Y631334D01*
Y631667D01*
X184333Y632000D01*
X183333D01*
X469334Y431000D02*
Y433000D01*
X470334D01*
X470667Y432666D01*
Y432000D01*
X470334Y431667D01*
X469334D01*
X470001D02*
X470667Y431000D01*
X472666Y433000D02*
X472000Y432666D01*
X471334Y432000D01*
Y431334D01*
X471667Y431000D01*
X472333D01*
X472666Y431334D01*
Y431667D01*
X472333Y432000D01*
X471334D01*
X474666Y433000D02*
X473333D01*
Y432000D01*
X473999Y432333D01*
X474333D01*
X474666Y432000D01*
Y431334D01*
X474333Y431000D01*
X473666D01*
X473333Y431334D01*
X368667Y226000D02*
Y228000D01*
X369667D01*
X370000Y227666D01*
Y227000D01*
X369667Y226667D01*
X368667D01*
X369334D02*
X370000Y226000D01*
X372000Y228000D02*
X371333Y227666D01*
X370667Y227000D01*
Y226334D01*
X371000Y226000D01*
X371667D01*
X372000Y226334D01*
Y226667D01*
X371667Y227000D01*
X370667D01*
X372666Y226000D02*
X373333D01*
X372999D01*
Y228000D01*
X372666Y227666D01*
X398334Y507000D02*
Y509000D01*
X399334D01*
X399667Y508667D01*
Y508000D01*
X399334Y507667D01*
X398334D01*
X399001D02*
X399667Y507000D01*
X401666Y509000D02*
X400334D01*
Y508000D01*
X401000Y508333D01*
X401333D01*
X401666Y508000D01*
Y507334D01*
X401333Y507000D01*
X400667D01*
X400334Y507334D01*
X402333Y508667D02*
X402666Y509000D01*
X403333D01*
X403666Y508667D01*
Y508333D01*
X403333Y508000D01*
X403666Y507667D01*
Y507334D01*
X403333Y507000D01*
X402666D01*
X402333Y507334D01*
Y507667D01*
X402666Y508000D01*
X402333Y508333D01*
Y508667D01*
X402666Y508000D02*
X403333D01*
X412334Y459000D02*
Y461000D01*
X413334D01*
X413667Y460667D01*
Y460000D01*
X413334Y459667D01*
X412334D01*
X413001D02*
X413667Y459000D01*
X415666Y461000D02*
X414334D01*
Y460000D01*
X415000Y460333D01*
X415333D01*
X415666Y460000D01*
Y459334D01*
X415333Y459000D01*
X414667D01*
X414334Y459334D01*
X416333Y461000D02*
X417666D01*
Y460667D01*
X416333Y459334D01*
Y459000D01*
X434334Y669000D02*
Y671000D01*
X435334D01*
X435667Y670667D01*
Y670000D01*
X435334Y669667D01*
X434334D01*
X435001D02*
X435667Y669000D01*
X437333D02*
Y671000D01*
X436334Y670000D01*
X437666D01*
X438333Y670667D02*
X438666Y671000D01*
X439333D01*
X439666Y670667D01*
Y669334D01*
X439333Y669000D01*
X438666D01*
X438333Y669334D01*
Y670667D01*
X350334Y141000D02*
Y143000D01*
X351334D01*
X351667Y142666D01*
Y142000D01*
X351334Y141667D01*
X350334D01*
X351001D02*
X351667Y141000D01*
X353666D02*
X352334D01*
X353666Y142333D01*
Y142666D01*
X353333Y143000D01*
X352667D01*
X352334Y142666D01*
X354333Y141334D02*
X354666Y141000D01*
X355333D01*
X355666Y141334D01*
Y142666D01*
X355333Y143000D01*
X354666D01*
X354333Y142666D01*
Y142333D01*
X354666Y142000D01*
X355666D01*
X236334Y286628D02*
Y288628D01*
X237334D01*
X237667Y288294D01*
Y287628D01*
X237334Y287295D01*
X236334D01*
X237001D02*
X237667Y286628D01*
X239666D02*
X238334D01*
X239666Y287961D01*
Y288294D01*
X239333Y288628D01*
X238667D01*
X238334Y288294D01*
X241666Y288628D02*
X240333D01*
Y287628D01*
X240999Y287961D01*
X241333D01*
X241666Y287628D01*
Y286962D01*
X241333Y286628D01*
X240666D01*
X240333Y286962D01*
X164334Y371000D02*
Y373000D01*
X165334D01*
X165667Y372667D01*
Y372000D01*
X165334Y371667D01*
X164334D01*
X165001D02*
X165667Y371000D01*
X167666D02*
X166333D01*
X167666Y372333D01*
Y372667D01*
X167333Y373000D01*
X166667D01*
X166333Y372667D01*
X169333Y371000D02*
Y373000D01*
X168333Y372000D01*
X169666D01*
X268469Y193807D02*
Y195807D01*
X269469D01*
X269802Y195474D01*
Y194807D01*
X269469Y194474D01*
X268469D01*
X269135D02*
X269802Y193807D01*
X271801D02*
X270468D01*
X271801Y195140D01*
Y195474D01*
X271468Y195807D01*
X270802D01*
X270468Y195474D01*
X272468D02*
X272801Y195807D01*
X273467D01*
X273801Y195474D01*
Y195140D01*
X273467Y194807D01*
X273134D01*
X273467D01*
X273801Y194474D01*
Y194141D01*
X273467Y193807D01*
X272801D01*
X272468Y194141D01*
X209667Y330000D02*
Y332000D01*
X210667D01*
X211000Y331666D01*
Y331000D01*
X210667Y330667D01*
X209667D01*
X210334D02*
X211000Y330000D01*
X213000D02*
X211667D01*
X213000Y331333D01*
Y331666D01*
X212667Y332000D01*
X212000D01*
X211667Y331666D01*
X213666Y330000D02*
X214333D01*
X213999D01*
Y332000D01*
X213666Y331666D01*
X220304Y328000D02*
Y330000D01*
X221304D01*
X221637Y329666D01*
Y329000D01*
X221304Y328667D01*
X220304D01*
X220971D02*
X221637Y328000D01*
X222304D02*
X222970D01*
X222637D01*
Y330000D01*
X222304Y329666D01*
X223970Y328334D02*
X224303Y328000D01*
X224970D01*
X225303Y328334D01*
Y329666D01*
X224970Y330000D01*
X224303D01*
X223970Y329666D01*
Y329333D01*
X224303Y329000D01*
X225303D01*
X281501Y246000D02*
Y248000D01*
X282501D01*
X282834Y247667D01*
Y247000D01*
X282501Y246667D01*
X281501D01*
X282167D02*
X282834Y246000D01*
X283500D02*
X284167D01*
X283833D01*
Y248000D01*
X283500Y247667D01*
X285166D02*
X285500Y248000D01*
X286166D01*
X286499Y247667D01*
Y247333D01*
X286166Y247000D01*
X286499Y246667D01*
Y246334D01*
X286166Y246000D01*
X285500D01*
X285166Y246334D01*
Y246667D01*
X285500Y247000D01*
X285166Y247333D01*
Y247667D01*
X285500Y247000D02*
X286166D01*
X291501Y246000D02*
Y248000D01*
X292500D01*
X292834Y247667D01*
Y247000D01*
X292500Y246667D01*
X291501D01*
X292167D02*
X292834Y246000D01*
X293500D02*
X294167D01*
X293833D01*
Y248000D01*
X293500Y247667D01*
X296499Y248000D02*
X295833Y247667D01*
X295166Y247000D01*
Y246334D01*
X295499Y246000D01*
X296166D01*
X296499Y246334D01*
Y246667D01*
X296166Y247000D01*
X295166D01*
X163667Y148334D02*
Y149667D01*
X163334Y150000D01*
X162667D01*
X162334Y149667D01*
Y148334D01*
X162667Y148000D01*
X163334D01*
X163000Y148667D02*
X163667Y148000D01*
X163334D02*
X163667Y148334D01*
X164333Y149667D02*
X164666Y150000D01*
X165333D01*
X165666Y149667D01*
Y149333D01*
X165333Y149000D01*
X165666Y148667D01*
Y148334D01*
X165333Y148000D01*
X164666D01*
X164333Y148334D01*
Y148667D01*
X164666Y149000D01*
X164333Y149333D01*
Y149667D01*
X164666Y149000D02*
X165333D01*
X481673Y636500D02*
Y638500D01*
X482672D01*
X483006Y638167D01*
Y637500D01*
X482672Y637167D01*
X481673D01*
X483672Y636500D02*
X484338D01*
X484005D01*
Y638500D01*
X483672Y638167D01*
X485338Y636500D02*
X486005D01*
X485671D01*
Y638500D01*
X485338Y638167D01*
X352001Y417500D02*
Y419500D01*
X353000D01*
X353334Y419167D01*
Y418500D01*
X353000Y418167D01*
X352001D01*
X354000Y417500D02*
X354667D01*
X354333D01*
Y419500D01*
X354000Y419167D01*
X355666D02*
X355999Y419500D01*
X356666D01*
X356999Y419167D01*
Y417834D01*
X356666Y417500D01*
X355999D01*
X355666Y417834D01*
Y419167D01*
X146334Y657000D02*
Y659000D01*
X147334D01*
X147667Y658667D01*
Y658000D01*
X147334Y657667D01*
X146334D01*
X148333Y657334D02*
X148667Y657000D01*
X149333D01*
X149666Y657334D01*
Y658667D01*
X149333Y659000D01*
X148667D01*
X148333Y658667D01*
Y658333D01*
X148667Y658000D01*
X149666D01*
X442334Y445000D02*
Y447000D01*
X443334D01*
X443667Y446666D01*
Y446000D01*
X443334Y445667D01*
X442334D01*
X444333Y446666D02*
X444666Y447000D01*
X445333D01*
X445666Y446666D01*
Y446333D01*
X445333Y446000D01*
X445666Y445667D01*
Y445334D01*
X445333Y445000D01*
X444666D01*
X444333Y445334D01*
Y445667D01*
X444666Y446000D01*
X444333Y446333D01*
Y446666D01*
X444666Y446000D02*
X445333D01*
X458334Y232000D02*
Y234000D01*
X459334D01*
X459667Y233666D01*
Y233000D01*
X459334Y232667D01*
X458334D01*
X461666Y234000D02*
X461000Y233666D01*
X460333Y233000D01*
Y232334D01*
X460667Y232000D01*
X461333D01*
X461666Y232334D01*
Y232667D01*
X461333Y233000D01*
X460333D01*
X450334Y154000D02*
Y156000D01*
X451334D01*
X451667Y155666D01*
Y155000D01*
X451334Y154667D01*
X450334D01*
X453666Y156000D02*
X452333D01*
Y155000D01*
X453000Y155333D01*
X453333D01*
X453666Y155000D01*
Y154334D01*
X453333Y154000D01*
X452667D01*
X452333Y154334D01*
X352334Y248000D02*
Y250000D01*
X353334D01*
X353667Y249667D01*
Y249000D01*
X353334Y248667D01*
X352334D01*
X355333Y248000D02*
Y250000D01*
X354333Y249000D01*
X355666D01*
X365834Y179000D02*
Y181000D01*
X366834D01*
X367167Y180666D01*
Y180000D01*
X366834Y179667D01*
X365834D01*
X367833Y180666D02*
X368166Y181000D01*
X368833D01*
X369166Y180666D01*
Y180333D01*
X368833Y180000D01*
X368500D01*
X368833D01*
X369166Y179667D01*
Y179334D01*
X368833Y179000D01*
X368166D01*
X367833Y179334D01*
X216300Y587800D02*
Y589799D01*
X217300D01*
X217633Y589466D01*
Y588800D01*
X217300Y588466D01*
X216300D01*
X219632Y587800D02*
X218299D01*
X219632Y589133D01*
Y589466D01*
X219299Y589799D01*
X218633D01*
X218299Y589466D01*
X441667Y694000D02*
Y696000D01*
X442667D01*
X443000Y695667D01*
Y695000D01*
X442667Y694667D01*
X441667D01*
X443666Y694000D02*
X444333D01*
X444000D01*
Y696000D01*
X443666Y695667D01*
X102900Y527100D02*
Y529099D01*
X103567Y528433D01*
X104233Y529099D01*
Y527100D01*
X104899Y529099D02*
Y527100D01*
X105899D01*
X106232Y527433D01*
Y528766D01*
X105899Y529099D01*
X104899D01*
X106899Y527100D02*
X107565D01*
X107232D01*
Y529099D01*
X106899Y528766D01*
X163334Y317000D02*
Y315000D01*
X164667D01*
X165333Y316667D02*
X165666Y317000D01*
X166333D01*
X166666Y316667D01*
Y316333D01*
X166333Y316000D01*
X166000D01*
X166333D01*
X166666Y315667D01*
Y315334D01*
X166333Y315000D01*
X165666D01*
X165333Y315334D01*
X236334Y227500D02*
Y225500D01*
X237667D01*
X239666D02*
X238333D01*
X239666Y226833D01*
Y227167D01*
X239333Y227500D01*
X238667D01*
X238333Y227167D01*
X249532Y112319D02*
Y110319D01*
X250865D01*
X251532D02*
X252198D01*
X251865D01*
Y112319D01*
X251532Y111985D01*
X270933Y688699D02*
X270266D01*
X270600D01*
Y687033D01*
X270266Y686700D01*
X269933D01*
X269600Y687033D01*
X272932Y686700D02*
X271599D01*
X272932Y688033D01*
Y688366D01*
X272599Y688699D01*
X271933D01*
X271599Y688366D01*
X273599D02*
X273932Y688699D01*
X274598D01*
X274932Y688366D01*
Y687033D01*
X274598Y686700D01*
X273932D01*
X273599Y687033D01*
Y688366D01*
X275598Y686700D02*
X276265D01*
X275931D01*
Y688699D01*
X275598Y688366D01*
X224167Y655000D02*
X223500D01*
X223834D01*
Y653334D01*
X223500Y653000D01*
X223167D01*
X222834Y653334D01*
X224833Y653000D02*
X225500D01*
X225167D01*
Y655000D01*
X224833Y654667D01*
X226500Y653000D02*
X227166D01*
X226833D01*
Y655000D01*
X226500Y654667D01*
X107834Y268000D02*
X107167D01*
X107501D01*
Y266334D01*
X107167Y266000D01*
X106834D01*
X106501Y266334D01*
X108500Y266000D02*
X109167D01*
X108833D01*
Y268000D01*
X108500Y267667D01*
X110166D02*
X110500Y268000D01*
X111166D01*
X111499Y267667D01*
Y266334D01*
X111166Y266000D01*
X110500D01*
X110166Y266334D01*
Y267667D01*
X479501Y648000D02*
Y646000D01*
X480501D01*
X480834Y646334D01*
Y647667D01*
X480501Y648000D01*
X479501D01*
X482833Y647667D02*
X482500Y648000D01*
X481834D01*
X481500Y647667D01*
Y647333D01*
X481834Y647000D01*
X482500D01*
X482833Y646667D01*
Y646334D01*
X482500Y646000D01*
X481834D01*
X481500Y646334D01*
X483500Y646000D02*
X484166D01*
X483833D01*
Y648000D01*
X483500Y647667D01*
X486499Y646000D02*
X485166D01*
X486499Y647333D01*
Y647667D01*
X486166Y648000D01*
X485499D01*
X485166Y647667D01*
X381834Y521000D02*
Y519000D01*
X382834D01*
X383167Y519334D01*
Y520667D01*
X382834Y521000D01*
X381834D01*
X385167Y520667D02*
X384833Y521000D01*
X384167D01*
X383834Y520667D01*
Y520333D01*
X384167Y520000D01*
X384833D01*
X385167Y519667D01*
Y519334D01*
X384833Y519000D01*
X384167D01*
X383834Y519334D01*
X385833Y519000D02*
X386500D01*
X386166D01*
Y521000D01*
X385833Y520667D01*
X387499Y519000D02*
X388166D01*
X387832D01*
Y521000D01*
X387499Y520667D01*
X185501Y641000D02*
Y639000D01*
X186501D01*
X186834Y639334D01*
Y640666D01*
X186501Y641000D01*
X185501D01*
X188833Y640666D02*
X188500Y641000D01*
X187834D01*
X187501Y640666D01*
Y640333D01*
X187834Y640000D01*
X188500D01*
X188833Y639667D01*
Y639334D01*
X188500Y639000D01*
X187834D01*
X187501Y639334D01*
X189500Y639000D02*
X190166D01*
X189833D01*
Y641000D01*
X189500Y640666D01*
X191166D02*
X191499Y641000D01*
X192166D01*
X192499Y640666D01*
Y639334D01*
X192166Y639000D01*
X191499D01*
X191166Y639334D01*
Y640666D01*
X445334Y423000D02*
Y421000D01*
X446334D01*
X446667Y421334D01*
Y422667D01*
X446334Y423000D01*
X445334D01*
X448666Y422667D02*
X448333Y423000D01*
X447667D01*
X447334Y422667D01*
Y422333D01*
X447667Y422000D01*
X448333D01*
X448666Y421667D01*
Y421334D01*
X448333Y421000D01*
X447667D01*
X447334Y421334D01*
X449333D02*
X449666Y421000D01*
X450333D01*
X450666Y421334D01*
Y422667D01*
X450333Y423000D01*
X449666D01*
X449333Y422667D01*
Y422333D01*
X449666Y422000D01*
X450666D01*
X442334Y250000D02*
Y248000D01*
X443334D01*
X443667Y248334D01*
Y249667D01*
X443334Y250000D01*
X442334D01*
X445666Y249667D02*
X445333Y250000D01*
X444667D01*
X444334Y249667D01*
Y249333D01*
X444667Y249000D01*
X445333D01*
X445666Y248667D01*
Y248334D01*
X445333Y248000D01*
X444667D01*
X444334Y248334D01*
X446333Y250000D02*
X447666D01*
Y249667D01*
X446333Y248334D01*
Y248000D01*
X453334Y180000D02*
Y178000D01*
X454334D01*
X454667Y178334D01*
Y179666D01*
X454334Y180000D01*
X453334D01*
X456666Y179666D02*
X456333Y180000D01*
X455667D01*
X455334Y179666D01*
Y179333D01*
X455667Y179000D01*
X456333D01*
X456666Y178667D01*
Y178334D01*
X456333Y178000D01*
X455667D01*
X455334Y178334D01*
X458666Y180000D02*
X457999Y179666D01*
X457333Y179000D01*
Y178334D01*
X457666Y178000D01*
X458333D01*
X458666Y178334D01*
Y178667D01*
X458333Y179000D01*
X457333D01*
X374334Y248000D02*
Y246000D01*
X375334D01*
X375667Y246334D01*
Y247667D01*
X375334Y248000D01*
X374334D01*
X377666Y247667D02*
X377333Y248000D01*
X376667D01*
X376334Y247667D01*
Y247333D01*
X376667Y247000D01*
X377333D01*
X377666Y246667D01*
Y246334D01*
X377333Y246000D01*
X376667D01*
X376334Y246334D01*
X379666Y248000D02*
X378333D01*
Y247000D01*
X378999Y247333D01*
X379333D01*
X379666Y247000D01*
Y246334D01*
X379333Y246000D01*
X378666D01*
X378333Y246334D01*
X342300Y157000D02*
Y159000D01*
X341300D01*
X340967Y158666D01*
Y157334D01*
X341300Y157000D01*
X342300D01*
X338967Y157334D02*
X339301Y157000D01*
X339967D01*
X340300Y157334D01*
Y157667D01*
X339967Y158000D01*
X339301D01*
X338967Y158333D01*
Y158666D01*
X339301Y159000D01*
X339967D01*
X340300Y158666D01*
X337301Y159000D02*
Y157000D01*
X338301Y158000D01*
X336968D01*
X239334Y281737D02*
Y279737D01*
X240334D01*
X240667Y280071D01*
Y281404D01*
X240334Y281737D01*
X239334D01*
X242666Y281404D02*
X242333Y281737D01*
X241667D01*
X241334Y281404D01*
Y281070D01*
X241667Y280737D01*
X242333D01*
X242666Y280404D01*
Y280071D01*
X242333Y279737D01*
X241667D01*
X241334Y280071D01*
X243333Y281404D02*
X243666Y281737D01*
X244333D01*
X244666Y281404D01*
Y281070D01*
X244333Y280737D01*
X243999D01*
X244333D01*
X244666Y280404D01*
Y280071D01*
X244333Y279737D01*
X243666D01*
X243333Y280071D01*
X167896Y364255D02*
Y362255D01*
X168896D01*
X169229Y362589D01*
Y363921D01*
X168896Y364255D01*
X167896D01*
X171229Y363921D02*
X170895Y364255D01*
X170229D01*
X169896Y363921D01*
Y363588D01*
X170229Y363255D01*
X170895D01*
X171229Y362922D01*
Y362589D01*
X170895Y362255D01*
X170229D01*
X169896Y362589D01*
X173228Y362255D02*
X171895D01*
X173228Y363588D01*
Y363921D01*
X172895Y364255D01*
X172228D01*
X171895Y363921D01*
X272802Y188807D02*
Y186807D01*
X273802D01*
X274135Y187141D01*
Y188474D01*
X273802Y188807D01*
X272802D01*
X276134Y188474D02*
X275801Y188807D01*
X275135D01*
X274802Y188474D01*
Y188140D01*
X275135Y187807D01*
X275801D01*
X276134Y187474D01*
Y187141D01*
X275801Y186807D01*
X275135D01*
X274802Y187141D01*
X276801Y186807D02*
X277467D01*
X277134D01*
Y188807D01*
X276801Y188474D01*
X159600Y198799D02*
Y196800D01*
X160600D01*
X160933Y197133D01*
Y198466D01*
X160600Y198799D01*
X159600D01*
X161599Y196800D02*
X162266D01*
X161933D01*
Y198799D01*
X161599Y198466D01*
X473000Y670667D02*
X472667Y671000D01*
X472001D01*
X471667Y670667D01*
Y669334D01*
X472001Y669000D01*
X472667D01*
X473000Y669334D01*
X474667Y669000D02*
Y671000D01*
X473667Y670000D01*
X475000D01*
X475666Y669000D02*
X476333D01*
X475999D01*
Y671000D01*
X475666Y670667D01*
X453667D02*
X453334Y671000D01*
X452667D01*
X452334Y670667D01*
Y669334D01*
X452667Y669000D01*
X453334D01*
X453667Y669334D01*
X455333Y669000D02*
Y671000D01*
X454334Y670000D01*
X455666D01*
X456333Y670667D02*
X456666Y671000D01*
X457333D01*
X457666Y670667D01*
Y669334D01*
X457333Y669000D01*
X456666D01*
X456333Y669334D01*
Y670667D01*
X381167Y213166D02*
X380834Y213500D01*
X380167D01*
X379834Y213166D01*
Y211834D01*
X380167Y211500D01*
X380834D01*
X381167Y211834D01*
X381834Y213166D02*
X382167Y213500D01*
X382833D01*
X383166Y213166D01*
Y212833D01*
X382833Y212500D01*
X382500D01*
X382833D01*
X383166Y212167D01*
Y211834D01*
X382833Y211500D01*
X382167D01*
X381834Y211834D01*
X383833Y213166D02*
X384166Y213500D01*
X384833D01*
X385166Y213166D01*
Y211834D01*
X384833Y211500D01*
X384166D01*
X383833Y211834D01*
Y213166D01*
X381167Y138166D02*
X380834Y138500D01*
X380167D01*
X379834Y138166D01*
Y136834D01*
X380167Y136500D01*
X380834D01*
X381167Y136834D01*
X383166Y136500D02*
X381834D01*
X383166Y137833D01*
Y138166D01*
X382833Y138500D01*
X382167D01*
X381834Y138166D01*
X383833Y136834D02*
X384166Y136500D01*
X384833D01*
X385166Y136834D01*
Y138166D01*
X384833Y138500D01*
X384166D01*
X383833Y138166D01*
Y137833D01*
X384166Y137500D01*
X385166D01*
X159633Y542066D02*
X159300Y542399D01*
X158633D01*
X158300Y542066D01*
Y540733D01*
X158633Y540400D01*
X159300D01*
X159633Y540733D01*
X161632Y540400D02*
X160299D01*
X161632Y541733D01*
Y542066D01*
X161299Y542399D01*
X160633D01*
X160299Y542066D01*
X162299D02*
X162632Y542399D01*
X163298D01*
X163632Y542066D01*
Y541733D01*
X163298Y541400D01*
X163632Y541066D01*
Y540733D01*
X163298Y540400D01*
X162632D01*
X162299Y540733D01*
Y541066D01*
X162632Y541400D01*
X162299Y541733D01*
Y542066D01*
X162632Y541400D02*
X163298D01*
X146433Y542066D02*
X146100Y542399D01*
X145433D01*
X145100Y542066D01*
Y540733D01*
X145433Y540400D01*
X146100D01*
X146433Y540733D01*
X148432Y540400D02*
X147099D01*
X148432Y541733D01*
Y542066D01*
X148099Y542399D01*
X147433D01*
X147099Y542066D01*
X149099Y542399D02*
X150432D01*
Y542066D01*
X149099Y540733D01*
Y540400D01*
X196667Y539667D02*
X196334Y540000D01*
X195667D01*
X195334Y539667D01*
Y538334D01*
X195667Y538000D01*
X196334D01*
X196667Y538334D01*
X198667Y538000D02*
X197334D01*
X198667Y539333D01*
Y539667D01*
X198333Y540000D01*
X197667D01*
X197334Y539667D01*
X200666Y540000D02*
X199999Y539667D01*
X199333Y539000D01*
Y538334D01*
X199666Y538000D01*
X200333D01*
X200666Y538334D01*
Y538667D01*
X200333Y539000D01*
X199333D01*
X205667Y538666D02*
X205334Y539000D01*
X204667D01*
X204334Y538666D01*
Y537334D01*
X204667Y537000D01*
X205334D01*
X205667Y537334D01*
X207666Y537000D02*
X206334D01*
X207666Y538333D01*
Y538666D01*
X207333Y539000D01*
X206667D01*
X206334Y538666D01*
X209666Y539000D02*
X208333D01*
Y538000D01*
X208999Y538333D01*
X209333D01*
X209666Y538000D01*
Y537334D01*
X209333Y537000D01*
X208666D01*
X208333Y537334D01*
X112667Y354666D02*
X112334Y355000D01*
X111667D01*
X111334Y354666D01*
Y353334D01*
X111667Y353000D01*
X112334D01*
X112667Y353334D01*
X114666Y353000D02*
X113333D01*
X114666Y354333D01*
Y354666D01*
X114333Y355000D01*
X113667D01*
X113333Y354666D01*
X115333D02*
X115666Y355000D01*
X116333D01*
X116666Y354666D01*
Y354333D01*
X116333Y354000D01*
X115999D01*
X116333D01*
X116666Y353667D01*
Y353334D01*
X116333Y353000D01*
X115666D01*
X115333Y353334D01*
X170415Y254827D02*
X170082Y255160D01*
X169415D01*
X169082Y254827D01*
Y253494D01*
X169415Y253161D01*
X170082D01*
X170415Y253494D01*
X172415Y253161D02*
X171082D01*
X172415Y254494D01*
Y254827D01*
X172081Y255160D01*
X171415D01*
X171082Y254827D01*
X174414Y253161D02*
X173081D01*
X174414Y254494D01*
Y254827D01*
X174081Y255160D01*
X173414D01*
X173081Y254827D01*
X207000Y168667D02*
X206667Y169000D01*
X206001D01*
X205667Y168667D01*
Y167334D01*
X206001Y167000D01*
X206667D01*
X207000Y167334D01*
X209000Y167000D02*
X207667D01*
X209000Y168333D01*
Y168667D01*
X208666Y169000D01*
X208000D01*
X207667Y168667D01*
X209666Y167000D02*
X210333D01*
X209999D01*
Y169000D01*
X209666Y168667D01*
X177667Y359666D02*
X177334Y360000D01*
X176667D01*
X176334Y359666D01*
Y358334D01*
X176667Y358000D01*
X177334D01*
X177667Y358334D01*
X179666Y358000D02*
X178333D01*
X179666Y359333D01*
Y359666D01*
X179333Y360000D01*
X178667D01*
X178333Y359666D01*
X180333D02*
X180666Y360000D01*
X181333D01*
X181666Y359666D01*
Y358334D01*
X181333Y358000D01*
X180666D01*
X180333Y358334D01*
Y359666D01*
X168834D02*
X168500Y360000D01*
X167834D01*
X167501Y359666D01*
Y358334D01*
X167834Y358000D01*
X168500D01*
X168834Y358334D01*
X169500Y358000D02*
X170167D01*
X169833D01*
Y360000D01*
X169500Y359666D01*
X171166Y358334D02*
X171500Y358000D01*
X172166D01*
X172499Y358334D01*
Y359666D01*
X172166Y360000D01*
X171500D01*
X171166Y359666D01*
Y359333D01*
X171500Y359000D01*
X172499D01*
X173834Y305666D02*
X173501Y306000D01*
X172834D01*
X172501Y305666D01*
Y304334D01*
X172834Y304000D01*
X173501D01*
X173834Y304334D01*
X174500Y304000D02*
X175167D01*
X174833D01*
Y306000D01*
X174500Y305666D01*
X176166D02*
X176499Y306000D01*
X177166D01*
X177499Y305666D01*
Y305333D01*
X177166Y305000D01*
X177499Y304667D01*
Y304334D01*
X177166Y304000D01*
X176499D01*
X176166Y304334D01*
Y304667D01*
X176499Y305000D01*
X176166Y305333D01*
Y305666D01*
X176499Y305000D02*
X177166D01*
X202834Y320667D02*
X202501Y321000D01*
X201834D01*
X201501Y320667D01*
Y319334D01*
X201834Y319000D01*
X202501D01*
X202834Y319334D01*
X203500Y319000D02*
X204167D01*
X203833D01*
Y321000D01*
X203500Y320667D01*
X205166Y321000D02*
X206499D01*
Y320667D01*
X205166Y319334D01*
Y319000D01*
X251834Y269667D02*
X251501Y270000D01*
X250834D01*
X250501Y269667D01*
Y268334D01*
X250834Y268000D01*
X251501D01*
X251834Y268334D01*
X252500Y268000D02*
X253167D01*
X252833D01*
Y270000D01*
X252500Y269667D01*
X255499Y270000D02*
X254833Y269667D01*
X254166Y269000D01*
Y268334D01*
X254500Y268000D01*
X255166D01*
X255499Y268334D01*
Y268667D01*
X255166Y269000D01*
X254166D01*
X230834Y258666D02*
X230501Y259000D01*
X229834D01*
X229501Y258666D01*
Y257334D01*
X229834Y257000D01*
X230501D01*
X230834Y257334D01*
X231500Y257000D02*
X232167D01*
X231833D01*
Y259000D01*
X231500Y258666D01*
X234499Y259000D02*
X233166D01*
Y258000D01*
X233833Y258333D01*
X234166D01*
X234499Y258000D01*
Y257334D01*
X234166Y257000D01*
X233500D01*
X233166Y257334D01*
X275834Y173667D02*
X275500Y174000D01*
X274834D01*
X274501Y173667D01*
Y172334D01*
X274834Y172000D01*
X275500D01*
X275834Y172334D01*
X276500Y172000D02*
X277167D01*
X276833D01*
Y174000D01*
X276500Y173667D01*
X279166Y172000D02*
Y174000D01*
X278166Y173000D01*
X279499D01*
X264834Y173667D02*
X264500Y174000D01*
X263834D01*
X263501Y173667D01*
Y172334D01*
X263834Y172000D01*
X264500D01*
X264834Y172334D01*
X265500Y172000D02*
X266167D01*
X265833D01*
Y174000D01*
X265500Y173667D01*
X267166D02*
X267499Y174000D01*
X268166D01*
X268499Y173667D01*
Y173333D01*
X268166Y173000D01*
X267833D01*
X268166D01*
X268499Y172667D01*
Y172334D01*
X268166Y172000D01*
X267499D01*
X267166Y172334D01*
X249834Y223667D02*
X249500Y224000D01*
X248834D01*
X248501Y223667D01*
Y222334D01*
X248834Y222000D01*
X249500D01*
X249834Y222334D01*
X250500Y222000D02*
X251167D01*
X250833D01*
Y224000D01*
X250500Y223667D01*
X253499Y222000D02*
X252166D01*
X253499Y223333D01*
Y223667D01*
X253166Y224000D01*
X252500D01*
X252166Y223667D01*
X286167Y110667D02*
X285834Y111000D01*
X285167D01*
X284834Y110667D01*
Y109334D01*
X285167Y109000D01*
X285834D01*
X286167Y109334D01*
X286833Y109000D02*
X287500D01*
X287167D01*
Y111000D01*
X286833Y110667D01*
X288499Y109000D02*
X289166D01*
X288833D01*
Y111000D01*
X288499Y110667D01*
X267834Y252666D02*
X267500Y253000D01*
X266834D01*
X266501Y252666D01*
Y251334D01*
X266834Y251000D01*
X267500D01*
X267834Y251334D01*
X268500Y251000D02*
X269167D01*
X268833D01*
Y253000D01*
X268500Y252666D01*
X270166D02*
X270499Y253000D01*
X271166D01*
X271499Y252666D01*
Y251334D01*
X271166Y251000D01*
X270499D01*
X270166Y251334D01*
Y252666D01*
X282667Y136667D02*
X282334Y137000D01*
X281667D01*
X281334Y136667D01*
Y135334D01*
X281667Y135000D01*
X282334D01*
X282667Y135334D01*
X283333D02*
X283666Y135000D01*
X284333D01*
X284666Y135334D01*
Y136667D01*
X284333Y137000D01*
X283666D01*
X283333Y136667D01*
Y136333D01*
X283666Y136000D01*
X284666D01*
X412334Y413000D02*
X413667D01*
X413001D01*
Y411000D01*
X414334D02*
Y413000D01*
X415333D01*
X415666Y412667D01*
Y412000D01*
X415333Y411667D01*
X414334D01*
X416333Y411334D02*
X416666Y411000D01*
X417333D01*
X417666Y411334D01*
Y412667D01*
X417333Y413000D01*
X416666D01*
X416333Y412667D01*
Y412333D01*
X416666Y412000D01*
X417666D01*
X464001Y377016D02*
X465334D01*
X464668D01*
Y375017D01*
X466001D02*
Y377016D01*
X467000D01*
X467333Y376683D01*
Y376016D01*
X467000Y375683D01*
X466001D01*
X468000Y375017D02*
X468666D01*
X468333D01*
Y377016D01*
X468000Y376683D01*
X470666Y375017D02*
Y377016D01*
X469666Y376016D01*
X470999D01*
X410501Y286000D02*
X411834D01*
X411168D01*
Y284000D01*
X412500D02*
Y286000D01*
X413500D01*
X413833Y285666D01*
Y285000D01*
X413500Y284667D01*
X412500D01*
X414500Y284000D02*
X415166D01*
X414833D01*
Y286000D01*
X414500Y285666D01*
X416166Y284334D02*
X416499Y284000D01*
X417166D01*
X417499Y284334D01*
Y285666D01*
X417166Y286000D01*
X416499D01*
X416166Y285666D01*
Y285333D01*
X416499Y285000D01*
X417499D01*
X410501Y390000D02*
X411834D01*
X411168D01*
Y388000D01*
X412500D02*
Y390000D01*
X413500D01*
X413833Y389667D01*
Y389000D01*
X413500Y388667D01*
X412500D01*
X414500Y388000D02*
X415166D01*
X414833D01*
Y390000D01*
X414500Y389667D01*
X416166D02*
X416499Y390000D01*
X417166D01*
X417499Y389667D01*
Y389333D01*
X417166Y389000D01*
X416832D01*
X417166D01*
X417499Y388667D01*
Y388334D01*
X417166Y388000D01*
X416499D01*
X416166Y388334D01*
X463834Y268500D02*
X465167D01*
X464501D01*
Y266500D01*
X465834D02*
Y268500D01*
X466834D01*
X467167Y268166D01*
Y267500D01*
X466834Y267167D01*
X465834D01*
X469166Y266500D02*
X467833D01*
X469166Y267833D01*
Y268166D01*
X468833Y268500D01*
X468166D01*
X467833Y268166D01*
X469833D02*
X470166Y268500D01*
X470832D01*
X471166Y268166D01*
Y266834D01*
X470832Y266500D01*
X470166D01*
X469833Y266834D01*
Y268166D01*
X410501Y368000D02*
X411834D01*
X411168D01*
Y366000D01*
X412500D02*
Y368000D01*
X413500D01*
X413833Y367667D01*
Y367000D01*
X413500Y366667D01*
X412500D01*
X414500Y366000D02*
X415166D01*
X414833D01*
Y368000D01*
X414500Y367667D01*
X416166Y368000D02*
X417499D01*
Y367667D01*
X416166Y366334D01*
Y366000D01*
X464356Y289710D02*
X465688D01*
X465022D01*
Y287711D01*
X466355D02*
Y289710D01*
X467355D01*
X467688Y289377D01*
Y288711D01*
X467355Y288378D01*
X466355D01*
X468354Y287711D02*
X469021D01*
X468687D01*
Y289710D01*
X468354Y289377D01*
X471353Y289710D02*
X470687Y289377D01*
X470020Y288711D01*
Y288044D01*
X470354Y287711D01*
X471020D01*
X471353Y288044D01*
Y288378D01*
X471020Y288711D01*
X470020D01*
X464001Y311000D02*
X465334D01*
X464668D01*
Y309000D01*
X466001D02*
Y311000D01*
X467000D01*
X467333Y310666D01*
Y310000D01*
X467000Y309667D01*
X466001D01*
X468000Y309000D02*
X468666D01*
X468333D01*
Y311000D01*
X468000Y310666D01*
X470999Y309000D02*
X469666D01*
X470999Y310333D01*
Y310666D01*
X470666Y311000D01*
X469999D01*
X469666Y310666D01*
X464001Y355295D02*
X465334D01*
X464668D01*
Y353295D01*
X466001D02*
Y355295D01*
X467000D01*
X467333Y354961D01*
Y354295D01*
X467000Y353962D01*
X466001D01*
X468000Y353295D02*
X468666D01*
X468333D01*
Y355295D01*
X468000Y354961D01*
X469666D02*
X469999Y355295D01*
X470666D01*
X470999Y354961D01*
Y354628D01*
X470666Y354295D01*
X470999Y353962D01*
Y353628D01*
X470666Y353295D01*
X469999D01*
X469666Y353628D01*
Y353962D01*
X469999Y354295D01*
X469666Y354628D01*
Y354961D01*
X469999Y354295D02*
X470666D01*
X410501Y303000D02*
X411834D01*
X411168D01*
Y301000D01*
X412500D02*
Y303000D01*
X413500D01*
X413833Y302666D01*
Y302000D01*
X413500Y301667D01*
X412500D01*
X414500Y301000D02*
X415166D01*
X414833D01*
Y303000D01*
X414500Y302666D01*
X417499Y303000D02*
X416166D01*
Y302000D01*
X416832Y302333D01*
X417166D01*
X417499Y302000D01*
Y301334D01*
X417166Y301000D01*
X416499D01*
X416166Y301334D01*
X463834Y332134D02*
X465167D01*
X464501D01*
Y330135D01*
X465834D02*
Y332134D01*
X466834D01*
X467167Y331801D01*
Y331134D01*
X466834Y330801D01*
X465834D01*
X469166Y330135D02*
X467833D01*
X469166Y331467D01*
Y331801D01*
X468833Y332134D01*
X468166D01*
X467833Y331801D01*
X471166Y330135D02*
X469833D01*
X471166Y331467D01*
Y331801D01*
X470832Y332134D01*
X470166D01*
X469833Y331801D01*
X411834Y323000D02*
X413167D01*
X412501D01*
Y321000D01*
X413834D02*
Y323000D01*
X414833D01*
X415167Y322667D01*
Y322000D01*
X414833Y321667D01*
X413834D01*
X415833Y321000D02*
X416500D01*
X416166D01*
Y323000D01*
X415833Y322667D01*
X417499Y321000D02*
X418166D01*
X417832D01*
Y323000D01*
X417499Y322667D01*
X411668Y345000D02*
X413001D01*
X412334D01*
Y343000D01*
X413667D02*
Y345000D01*
X414667D01*
X415000Y344667D01*
Y344000D01*
X414667Y343667D01*
X413667D01*
X416999Y343000D02*
X415666D01*
X416999Y344333D01*
Y344667D01*
X416666Y345000D01*
X416000D01*
X415666Y344667D01*
X417666Y343000D02*
X418332D01*
X417999D01*
Y345000D01*
X417666Y344667D01*
X464001Y398500D02*
X465334D01*
X464668D01*
Y396500D01*
X466001D02*
Y398500D01*
X467000D01*
X467333Y398166D01*
Y397500D01*
X467000Y397167D01*
X466001D01*
X468000Y396500D02*
X468666D01*
X468333D01*
Y398500D01*
X468000Y398166D01*
X469666D02*
X469999Y398500D01*
X470666D01*
X470999Y398166D01*
Y396834D01*
X470666Y396500D01*
X469999D01*
X469666Y396834D01*
Y398166D01*
X461501Y248000D02*
Y250000D01*
X462500D01*
X462834Y249667D01*
Y249000D01*
X462500Y248667D01*
X461501D01*
X462167D02*
X462834Y248000D01*
X463500D02*
X464167D01*
X463833D01*
Y250000D01*
X463500Y249667D01*
X465166D02*
X465499Y250000D01*
X466166D01*
X466499Y249667D01*
Y249333D01*
X466166Y249000D01*
X465833D01*
X466166D01*
X466499Y248667D01*
Y248334D01*
X466166Y248000D01*
X465499D01*
X465166Y248334D01*
X481506Y167987D02*
X481496Y169987D01*
X482495Y169992D01*
X482830Y169660D01*
X482834Y168994D01*
X482502Y168659D01*
X481503Y168654D01*
X482169Y168657D02*
X482839Y167994D01*
X483505Y167998D02*
X484172Y168001D01*
X483839Y167999D01*
X483828Y169999D01*
X483497Y169664D01*
X486504Y168013D02*
X485172Y168006D01*
X486497Y169346D01*
X486496Y169679D01*
X486161Y170011D01*
X485494Y170008D01*
X485163Y169673D01*
X297834Y132000D02*
Y134000D01*
X298834D01*
X299167Y133667D01*
Y133000D01*
X298834Y132667D01*
X297834D01*
X298500D02*
X299167Y132000D01*
X299833D02*
X300500D01*
X300167D01*
Y134000D01*
X299833Y133667D01*
X301500Y132000D02*
X302166D01*
X301833D01*
Y134000D01*
X301500Y133667D01*
X306501Y132000D02*
Y134000D01*
X307501D01*
X307834Y133667D01*
Y133000D01*
X307501Y132667D01*
X306501D01*
X307167D02*
X307834Y132000D01*
X308500D02*
X309167D01*
X308833D01*
Y134000D01*
X308500Y133667D01*
X310166D02*
X310500Y134000D01*
X311166D01*
X311499Y133667D01*
Y132334D01*
X311166Y132000D01*
X310500D01*
X310166Y132334D01*
Y133667D01*
X436334Y345000D02*
Y347000D01*
X437334D01*
X437667Y346667D01*
Y346000D01*
X437334Y345667D01*
X436334D01*
X437000D02*
X437667Y345000D01*
X438333Y345334D02*
X438666Y345000D01*
X439333D01*
X439666Y345334D01*
Y346667D01*
X439333Y347000D01*
X438666D01*
X438333Y346667D01*
Y346333D01*
X438666Y346000D01*
X439666D01*
X436334Y282000D02*
Y284000D01*
X437334D01*
X437667Y283666D01*
Y283000D01*
X437334Y282667D01*
X436334D01*
X437000D02*
X437667Y282000D01*
X438333Y283666D02*
X438666Y284000D01*
X439333D01*
X439666Y283666D01*
Y283333D01*
X439333Y283000D01*
X439666Y282667D01*
Y282334D01*
X439333Y282000D01*
X438666D01*
X438333Y282334D01*
Y282667D01*
X438666Y283000D01*
X438333Y283333D01*
Y283666D01*
X438666Y283000D02*
X439333D01*
X436334Y368000D02*
Y370000D01*
X437334D01*
X437667Y369667D01*
Y369000D01*
X437334Y368667D01*
X436334D01*
X437000D02*
X437667Y368000D01*
X438333Y370000D02*
X439666D01*
Y369667D01*
X438333Y368334D01*
Y368000D01*
X436334Y302000D02*
Y304000D01*
X437334D01*
X437667Y303666D01*
Y303000D01*
X437334Y302667D01*
X436334D01*
X437000D02*
X437667Y302000D01*
X439666Y304000D02*
X439000Y303666D01*
X438333Y303000D01*
Y302334D01*
X438666Y302000D01*
X439333D01*
X439666Y302334D01*
Y302667D01*
X439333Y303000D01*
X438333D01*
X436334Y391000D02*
Y393000D01*
X437334D01*
X437667Y392667D01*
Y392000D01*
X437334Y391667D01*
X436334D01*
X437000D02*
X437667Y391000D01*
X439666Y393000D02*
X438333D01*
Y392000D01*
X439000Y392333D01*
X439333D01*
X439666Y392000D01*
Y391334D01*
X439333Y391000D01*
X438666D01*
X438333Y391334D01*
X435334Y323000D02*
Y325000D01*
X436334D01*
X436667Y324667D01*
Y324000D01*
X436334Y323667D01*
X435334D01*
X436000D02*
X436667Y323000D01*
X438333D02*
Y325000D01*
X437333Y324000D01*
X438666D01*
X436334Y414000D02*
Y416000D01*
X437334D01*
X437667Y415666D01*
Y415000D01*
X437334Y414667D01*
X436334D01*
X437000D02*
X437667Y414000D01*
X439666D02*
X438333D01*
X439666Y415333D01*
Y415666D01*
X439333Y416000D01*
X438666D01*
X438333Y415666D01*
X427667Y341334D02*
Y342667D01*
X427334Y343000D01*
X426667D01*
X426334Y342667D01*
Y341334D01*
X426667Y341000D01*
X427334D01*
X427000Y341667D02*
X427667Y341000D01*
X427334D02*
X427667Y341334D01*
X428333Y343000D02*
X429666D01*
Y342667D01*
X428333Y341334D01*
Y341000D01*
X427667Y280334D02*
Y281666D01*
X427334Y282000D01*
X426667D01*
X426334Y281666D01*
Y280334D01*
X426667Y280000D01*
X427334D01*
X427000Y280667D02*
X427667Y280000D01*
X427334D02*
X427667Y280334D01*
X429666Y282000D02*
X429000Y281666D01*
X428333Y281000D01*
Y280334D01*
X428666Y280000D01*
X429333D01*
X429666Y280334D01*
Y280667D01*
X429333Y281000D01*
X428333D01*
X427667Y364334D02*
Y365667D01*
X427334Y366000D01*
X426667D01*
X426334Y365667D01*
Y364334D01*
X426667Y364000D01*
X427334D01*
X427000Y364667D02*
X427667Y364000D01*
X427334D02*
X427667Y364334D01*
X429666Y366000D02*
X428333D01*
Y365000D01*
X429000Y365333D01*
X429333D01*
X429666Y365000D01*
Y364334D01*
X429333Y364000D01*
X428666D01*
X428333Y364334D01*
X427667Y299334D02*
Y300666D01*
X427334Y301000D01*
X426667D01*
X426334Y300666D01*
Y299334D01*
X426667Y299000D01*
X427334D01*
X427000Y299667D02*
X427667Y299000D01*
X427334D02*
X427667Y299334D01*
X429333Y299000D02*
Y301000D01*
X428333Y300000D01*
X429666D01*
X427667Y387334D02*
Y388667D01*
X427334Y389000D01*
X426667D01*
X426334Y388667D01*
Y387334D01*
X426667Y387000D01*
X427334D01*
X427000Y387667D02*
X427667Y387000D01*
X427334D02*
X427667Y387334D01*
X428333Y388667D02*
X428666Y389000D01*
X429333D01*
X429666Y388667D01*
Y388333D01*
X429333Y388000D01*
X429000D01*
X429333D01*
X429666Y387667D01*
Y387334D01*
X429333Y387000D01*
X428666D01*
X428333Y387334D01*
X426667Y320334D02*
Y321667D01*
X426334Y322000D01*
X425667D01*
X425334Y321667D01*
Y320334D01*
X425667Y320000D01*
X426334D01*
X426000Y320667D02*
X426667Y320000D01*
X426334D02*
X426667Y320334D01*
X428666Y320000D02*
X427333D01*
X428666Y321333D01*
Y321667D01*
X428333Y322000D01*
X427667D01*
X427333Y321667D01*
X428000Y409334D02*
Y410667D01*
X427667Y411000D01*
X427000D01*
X426667Y410667D01*
Y409334D01*
X427000Y409000D01*
X427667D01*
X427334Y409667D02*
X428000Y409000D01*
X427667D02*
X428000Y409334D01*
X428666Y409000D02*
X429333D01*
X429000D01*
Y411000D01*
X428666Y410667D01*
X493167Y340500D02*
X492500D01*
X492834D01*
Y338834D01*
X492500Y338500D01*
X492167D01*
X491834Y338834D01*
X493833D02*
X494167Y338500D01*
X494833D01*
X495166Y338834D01*
Y340166D01*
X494833Y340500D01*
X494167D01*
X493833Y340166D01*
Y339833D01*
X494167Y339500D01*
X495166D01*
X493167Y277127D02*
X492500D01*
X492834D01*
Y275461D01*
X492500Y275127D01*
X492167D01*
X491834Y275461D01*
X493833Y276794D02*
X494167Y277127D01*
X494833D01*
X495166Y276794D01*
Y276460D01*
X494833Y276127D01*
X495166Y275794D01*
Y275461D01*
X494833Y275127D01*
X494167D01*
X493833Y275461D01*
Y275794D01*
X494167Y276127D01*
X493833Y276460D01*
Y276794D01*
X494167Y276127D02*
X494833D01*
X493750Y363798D02*
X493084D01*
X493417D01*
Y362131D01*
X493084Y361798D01*
X492750D01*
X492417Y362131D01*
X494417Y363798D02*
X495749D01*
Y363464D01*
X494417Y362131D01*
Y361798D01*
X492904Y298354D02*
X492238D01*
X492571D01*
Y296688D01*
X492238Y296355D01*
X491905D01*
X491572Y296688D01*
X494904Y298354D02*
X494237Y298021D01*
X493571Y297354D01*
Y296688D01*
X493904Y296355D01*
X494570D01*
X494904Y296688D01*
Y297021D01*
X494570Y297354D01*
X493571D01*
X493167Y386017D02*
X492500D01*
X492834D01*
Y384351D01*
X492500Y384018D01*
X492167D01*
X491834Y384351D01*
X495166Y386017D02*
X493833D01*
Y385018D01*
X494500Y385351D01*
X494833D01*
X495166Y385018D01*
Y384351D01*
X494833Y384018D01*
X494166D01*
X493833Y384351D01*
X493167Y319532D02*
X492500D01*
X492834D01*
Y317866D01*
X492500Y317533D01*
X492167D01*
X491834Y317866D01*
X494833Y317533D02*
Y319532D01*
X493833Y318532D01*
X495166D01*
X492667Y407000D02*
X492000D01*
X492334D01*
Y405334D01*
X492000Y405000D01*
X491667D01*
X491334Y405334D01*
X493333Y406667D02*
X493667Y407000D01*
X494333D01*
X494666Y406667D01*
Y406333D01*
X494333Y406000D01*
X494000D01*
X494333D01*
X494666Y405667D01*
Y405334D01*
X494333Y405000D01*
X493667D01*
X493333Y405334D01*
X435667Y225000D02*
X435000D01*
X435334D01*
Y223334D01*
X435000Y223000D01*
X434667D01*
X434334Y223334D01*
X437666Y223000D02*
X436333D01*
X437666Y224333D01*
Y224667D01*
X437333Y225000D01*
X436666D01*
X436333Y224667D01*
X441433Y152999D02*
X440766D01*
X441100D01*
Y151333D01*
X440766Y151000D01*
X440433D01*
X440100Y151333D01*
X442099Y151000D02*
X442766D01*
X442433D01*
Y152999D01*
X442099Y152666D01*
X376500Y189834D02*
Y191167D01*
Y190501D01*
X378500D01*
Y191834D02*
X376500D01*
Y192833D01*
X376834Y193166D01*
X377500D01*
X377833Y192833D01*
Y191834D01*
X376834Y193833D02*
X376500Y194166D01*
Y194833D01*
X376834Y195166D01*
X377167D01*
X377500Y194833D01*
X377833Y195166D01*
X378166D01*
X378500Y194833D01*
Y194166D01*
X378166Y193833D01*
X377833D01*
X377500Y194166D01*
X377167Y193833D01*
X376834D01*
X377500Y194166D02*
Y194833D01*
X486334Y224000D02*
X487667D01*
X487001D01*
Y222000D01*
X488334D02*
Y224000D01*
X489333D01*
X489666Y223667D01*
Y223000D01*
X489333Y222667D01*
X488334D01*
X490333Y224000D02*
X491666D01*
Y223667D01*
X490333Y222334D01*
Y222000D01*
X336500Y184834D02*
Y186167D01*
Y185501D01*
X338500D01*
Y186834D02*
X336500D01*
Y187833D01*
X336834Y188166D01*
X337500D01*
X337833Y187833D01*
Y186834D01*
X336500Y190166D02*
X336834Y189499D01*
X337500Y188833D01*
X338166D01*
X338500Y189166D01*
Y189833D01*
X338166Y190166D01*
X337833D01*
X337500Y189833D01*
Y188833D01*
X486334Y179000D02*
X487667D01*
X487001D01*
Y177000D01*
X488334D02*
Y179000D01*
X489333D01*
X489666Y178666D01*
Y178000D01*
X489333Y177667D01*
X488334D01*
X491666Y179000D02*
X490333D01*
Y178000D01*
X490999Y178333D01*
X491333D01*
X491666Y178000D01*
Y177334D01*
X491333Y177000D01*
X490666D01*
X490333Y177334D01*
X347334Y108500D02*
X348667D01*
X348001D01*
Y106500D01*
X349334D02*
Y108500D01*
X350333D01*
X350666Y108167D01*
Y107500D01*
X350333Y107167D01*
X349334D01*
X352333Y106500D02*
Y108500D01*
X351333Y107500D01*
X352666D01*
X482648Y151365D02*
X483981D01*
X483314D01*
Y149366D01*
X484647D02*
Y151365D01*
X485647D01*
X485980Y151032D01*
Y150365D01*
X485647Y150032D01*
X484647D01*
X486646Y151032D02*
X486980Y151365D01*
X487646D01*
X487979Y151032D01*
Y150699D01*
X487646Y150365D01*
X487313D01*
X487646D01*
X487979Y150032D01*
Y149699D01*
X487646Y149366D01*
X486980D01*
X486646Y149699D01*
X364834Y108500D02*
X366167D01*
X365501D01*
Y106500D01*
X366834D02*
Y108500D01*
X367833D01*
X368166Y108167D01*
Y107500D01*
X367833Y107167D01*
X366834D01*
X370166Y106500D02*
X368833D01*
X370166Y107833D01*
Y108167D01*
X369833Y108500D01*
X369166D01*
X368833Y108167D01*
X482667Y108000D02*
X484000D01*
X483334D01*
Y106000D01*
X484667D02*
Y108000D01*
X485667D01*
X486000Y107667D01*
Y107000D01*
X485667Y106667D01*
X484667D01*
X486666Y106000D02*
X487333D01*
X486999D01*
Y108000D01*
X486666Y107667D01*
X389667Y228167D02*
X389334Y228500D01*
X388667D01*
X388334Y228167D01*
Y226834D01*
X388667Y226500D01*
X389334D01*
X389667Y226834D01*
X390333Y228167D02*
X390667Y228500D01*
X391333D01*
X391666Y228167D01*
Y227833D01*
X391333Y227500D01*
X391666Y227167D01*
Y226834D01*
X391333Y226500D01*
X390667D01*
X390333Y226834D01*
Y227167D01*
X390667Y227500D01*
X390333Y227833D01*
Y228167D01*
X390667Y227500D02*
X391333D01*
X428667Y228666D02*
X428334Y229000D01*
X427667D01*
X427334Y228666D01*
Y227334D01*
X427667Y227000D01*
X428334D01*
X428667Y227334D01*
X429333Y229000D02*
X430666D01*
Y228666D01*
X429333Y227334D01*
Y227000D01*
X390809Y238166D02*
X390475Y238500D01*
X389809D01*
X389476Y238166D01*
Y236834D01*
X389809Y236500D01*
X390475D01*
X390809Y236834D01*
X392808Y238500D02*
X392141Y238166D01*
X391475Y237500D01*
Y236834D01*
X391808Y236500D01*
X392475D01*
X392808Y236834D01*
Y237167D01*
X392475Y237500D01*
X391475D01*
X427667Y238667D02*
X427334Y239000D01*
X426667D01*
X426334Y238667D01*
Y237334D01*
X426667Y237000D01*
X427334D01*
X427667Y237334D01*
X429666Y239000D02*
X428333D01*
Y238000D01*
X429000Y238333D01*
X429333D01*
X429666Y238000D01*
Y237334D01*
X429333Y237000D01*
X428666D01*
X428333Y237334D01*
X391667Y157667D02*
X391334Y158000D01*
X390667D01*
X390334Y157667D01*
Y156334D01*
X390667Y156000D01*
X391334D01*
X391667Y156334D01*
X393333Y156000D02*
Y158000D01*
X392333Y157000D01*
X393666D01*
X427167Y158167D02*
X426834Y158500D01*
X426167D01*
X425834Y158167D01*
Y156834D01*
X426167Y156500D01*
X426834D01*
X427167Y156834D01*
X427833Y158167D02*
X428166Y158500D01*
X428833D01*
X429166Y158167D01*
Y157833D01*
X428833Y157500D01*
X428500D01*
X428833D01*
X429166Y157167D01*
Y156834D01*
X428833Y156500D01*
X428166D01*
X427833Y156834D01*
X393667Y166666D02*
X393334Y167000D01*
X392667D01*
X392334Y166666D01*
Y165334D01*
X392667Y165000D01*
X393334D01*
X393667Y165334D01*
X395666Y165000D02*
X394333D01*
X395666Y166333D01*
Y166666D01*
X395333Y167000D01*
X394667D01*
X394333Y166666D01*
X426000Y167666D02*
X425667Y168000D01*
X425000D01*
X424667Y167666D01*
Y166334D01*
X425000Y166000D01*
X425667D01*
X426000Y166334D01*
X426666Y166000D02*
X427333D01*
X427000D01*
Y168000D01*
X426666Y167666D01*
D15*
X214999Y539999D02*
X213000D01*
Y538499D01*
X214000Y538999D01*
X214499D01*
X214999Y538499D01*
Y537500D01*
X214499Y537000D01*
X213500D01*
X213000Y537500D01*
Y578000D02*
X214000D01*
X213500D01*
Y580999D01*
X213000Y580499D01*
X119999Y689999D02*
X119000Y689499D01*
X118000Y688499D01*
Y687500D01*
X118500Y687000D01*
X119500D01*
X119999Y687500D01*
Y688000D01*
X119500Y688499D01*
X118000D01*
D16*
X443720Y656100D02*
X441221D01*
X440722Y655601D01*
Y654601D01*
X441221Y654101D01*
X443720D01*
X440722Y653101D02*
Y652102D01*
Y652601D01*
X443720D01*
X443221Y653101D01*
X440722Y649103D02*
X443720D01*
X442221Y650602D01*
Y648603D01*
M02*
