G04*
G04 #@! TF.GenerationSoftware,Altium Limited,Altium Designer,22.6.1 (34)*
G04*
G04 Layer_Color=16711935*
%FSLAX25Y25*%
%MOIN*%
G70*
G04*
G04 #@! TF.SameCoordinates,26821394-4C13-4CD4-A4B4-11F4951342BE*
G04*
G04*
G04 #@! TF.FilePolarity,Negative*
G04*
G01*
G75*
%ADD12C,0.01000*%
%ADD16C,0.00236*%
%ADD22R,0.03378X0.04969*%
%ADD67R,0.06115X0.04737*%
%ADD73R,0.07887X0.07887*%
%ADD74C,0.07887*%
%ADD75C,0.07800*%
%ADD76C,0.21685*%
%ADD77R,0.21685X0.21685*%
G04:AMPARAMS|DCode=78|XSize=165.48mil|YSize=59.18mil|CornerRadius=16.8mil|HoleSize=0mil|Usage=FLASHONLY|Rotation=90.000|XOffset=0mil|YOffset=0mil|HoleType=Round|Shape=RoundedRectangle|*
%AMROUNDEDRECTD78*
21,1,0.16548,0.02559,0,0,90.0*
21,1,0.13189,0.05918,0,0,90.0*
1,1,0.03359,0.01280,0.06594*
1,1,0.03359,0.01280,-0.06594*
1,1,0.03359,-0.01280,-0.06594*
1,1,0.03359,-0.01280,0.06594*
%
%ADD78ROUNDEDRECTD78*%
G04:AMPARAMS|DCode=79|XSize=145.8mil|YSize=59.18mil|CornerRadius=16.8mil|HoleSize=0mil|Usage=FLASHONLY|Rotation=90.000|XOffset=0mil|YOffset=0mil|HoleType=Round|Shape=RoundedRectangle|*
%AMROUNDEDRECTD79*
21,1,0.14580,0.02559,0,0,90.0*
21,1,0.11221,0.05918,0,0,90.0*
1,1,0.03359,0.01280,0.05610*
1,1,0.03359,0.01280,-0.05610*
1,1,0.03359,-0.01280,-0.05610*
1,1,0.03359,-0.01280,0.05610*
%
%ADD79ROUNDEDRECTD79*%
G04:AMPARAMS|DCode=80|XSize=145.8mil|YSize=59.18mil|CornerRadius=16.8mil|HoleSize=0mil|Usage=FLASHONLY|Rotation=180.000|XOffset=0mil|YOffset=0mil|HoleType=Round|Shape=RoundedRectangle|*
%AMROUNDEDRECTD80*
21,1,0.14580,0.02559,0,0,180.0*
21,1,0.11221,0.05918,0,0,180.0*
1,1,0.03359,-0.05610,0.01280*
1,1,0.03359,0.05610,0.01280*
1,1,0.03359,0.05610,-0.01280*
1,1,0.03359,-0.05610,-0.01280*
%
%ADD80ROUNDEDRECTD80*%
%ADD81C,0.07099*%
%ADD82R,0.07099X0.07099*%
%ADD83R,0.07099X0.07099*%
%ADD84R,0.11024X0.11024*%
%ADD85C,0.11024*%
%ADD86C,0.06706*%
%ADD87R,0.06706X0.06706*%
%ADD88R,0.06902X0.06902*%
%ADD89C,0.06902*%
%ADD90R,0.06706X0.06706*%
%ADD91C,0.07296*%
%ADD92R,0.07296X0.07296*%
%ADD93R,0.05118X0.05118*%
%ADD94C,0.05118*%
%ADD95C,0.05800*%
%ADD96C,0.03200*%
%ADD97C,0.04000*%
%ADD120R,0.02095X0.04745*%
G04:AMPARAMS|DCode=121|XSize=47.45mil|YSize=20.95mil|CornerRadius=10.48mil|HoleSize=0mil|Usage=FLASHONLY|Rotation=90.000|XOffset=0mil|YOffset=0mil|HoleType=Round|Shape=RoundedRectangle|*
%AMROUNDEDRECTD121*
21,1,0.04745,0.00000,0,0,90.0*
21,1,0.02650,0.02095,0,0,90.0*
1,1,0.02095,0.00000,0.01325*
1,1,0.02095,0.00000,-0.01325*
1,1,0.02095,0.00000,-0.01325*
1,1,0.02095,0.00000,0.01325*
%
%ADD121ROUNDEDRECTD121*%
%ADD122R,0.04745X0.02095*%
G04:AMPARAMS|DCode=123|XSize=47.45mil|YSize=20.95mil|CornerRadius=10.48mil|HoleSize=0mil|Usage=FLASHONLY|Rotation=180.000|XOffset=0mil|YOffset=0mil|HoleType=Round|Shape=RoundedRectangle|*
%AMROUNDEDRECTD123*
21,1,0.04745,0.00000,0,0,180.0*
21,1,0.02650,0.02095,0,0,180.0*
1,1,0.02095,-0.01325,0.00000*
1,1,0.02095,0.01325,0.00000*
1,1,0.02095,0.01325,0.00000*
1,1,0.02095,-0.01325,0.00000*
%
%ADD123ROUNDEDRECTD123*%
%ADD129R,0.04969X0.03955*%
%ADD130R,0.06509X0.05524*%
%ADD131R,0.05328X0.06509*%
%ADD132R,0.05524X0.06509*%
%ADD133O,0.06509X0.03162*%
%ADD134R,0.11469X0.14186*%
D12*
X100000Y100000D02*
Y700000D01*
X500000D01*
Y100000D02*
Y700000D01*
X100000Y100000D02*
X500000D01*
D16*
X443720Y656100D02*
X441221D01*
X440722Y655601D01*
Y654601D01*
X441221Y654101D01*
X443720D01*
X440722Y653101D02*
Y652102D01*
Y652601D01*
X443720D01*
X443221Y653101D01*
X440722Y649103D02*
X443720D01*
X442221Y650602D01*
Y648603D01*
D22*
X116941Y430000D02*
D03*
X123059D02*
D03*
D67*
X160000Y572087D02*
D03*
Y565000D02*
D03*
X157500Y473543D02*
D03*
Y466457D02*
D03*
D73*
X456000Y192225D02*
D03*
Y118000D02*
D03*
D74*
Y212225D02*
D03*
Y138000D02*
D03*
D75*
X359000Y515000D02*
D03*
Y505000D02*
D03*
Y495000D02*
D03*
Y485000D02*
D03*
Y475000D02*
D03*
Y465000D02*
D03*
Y455000D02*
D03*
Y445000D02*
D03*
Y435000D02*
D03*
X309000Y495000D02*
D03*
Y485000D02*
D03*
Y475000D02*
D03*
Y465000D02*
D03*
Y455000D02*
D03*
D76*
X131382Y137862D02*
D03*
D77*
Y168240D02*
D03*
D78*
X154409Y245000D02*
D03*
D79*
X130000D02*
D03*
D80*
X141811Y226496D02*
D03*
D81*
X158000Y650000D02*
D03*
X355000Y240000D02*
D03*
X339850Y410493D02*
D03*
X440000Y232500D02*
D03*
X442500Y437500D02*
D03*
X447511Y686993D02*
D03*
X221993Y558850D02*
D03*
Y568850D02*
D03*
Y548850D02*
D03*
Y538850D02*
D03*
X473986Y636087D02*
D03*
X440000Y163031D02*
D03*
X370000Y170000D02*
D03*
D82*
X158000Y660000D02*
D03*
X355000Y230000D02*
D03*
X221993Y578850D02*
D03*
X370000Y160000D02*
D03*
D83*
X349850Y410493D02*
D03*
X450000Y232500D02*
D03*
X452500Y437500D02*
D03*
X437511Y686993D02*
D03*
X463986Y636087D02*
D03*
X450000Y163031D02*
D03*
D84*
X189882Y170236D02*
D03*
D85*
Y188740D02*
D03*
Y207244D02*
D03*
D86*
X145000Y565000D02*
D03*
X127284D02*
D03*
Y590590D02*
D03*
X387283Y500000D02*
D03*
X405000D02*
D03*
Y474409D02*
D03*
X274519Y678847D02*
D03*
X284519D02*
D03*
X294519D02*
D03*
X304519D02*
D03*
X314519D02*
D03*
D87*
X145000Y590590D02*
D03*
X387283Y474409D02*
D03*
D88*
X180000Y672500D02*
D03*
D89*
X220000D02*
D03*
X200000D02*
D03*
X210000Y662500D02*
D03*
X190000Y672500D02*
D03*
X200000Y662500D02*
D03*
X190000D02*
D03*
X180000D02*
D03*
X210000Y672500D02*
D03*
X220000Y662500D02*
D03*
D90*
X324519Y678847D02*
D03*
D91*
X120000Y680000D02*
D03*
Y670000D02*
D03*
Y660000D02*
D03*
Y640000D02*
D03*
Y650000D02*
D03*
D92*
Y630000D02*
D03*
D93*
X469429Y338957D02*
D03*
Y275584D02*
D03*
X470012Y362255D02*
D03*
X469167Y296811D02*
D03*
X469429Y384474D02*
D03*
X469429Y317989D02*
D03*
X469429Y406457D02*
D03*
D94*
X477303Y338957D02*
D03*
X485177D02*
D03*
X477303Y275584D02*
D03*
X485177D02*
D03*
X477886Y362255D02*
D03*
X485760D02*
D03*
X477041Y296811D02*
D03*
X484915D02*
D03*
X477303Y384474D02*
D03*
X485177D02*
D03*
X477303Y317989D02*
D03*
X485177D02*
D03*
X477303Y406457D02*
D03*
X485177D02*
D03*
D95*
X217500Y287500D02*
D03*
X147000Y372000D02*
D03*
X290000Y108000D02*
D03*
X272000Y146000D02*
D03*
X262000D02*
D03*
X205500Y107500D02*
D03*
X205000Y202000D02*
D03*
X323000Y261000D02*
D03*
X311000D02*
D03*
X323000Y179000D02*
D03*
X312000D02*
D03*
X214500Y107500D02*
D03*
X214000Y202000D02*
D03*
X274000Y225000D02*
D03*
X249000Y256000D02*
D03*
X239000D02*
D03*
X217000Y348000D02*
D03*
X109000D02*
D03*
X183000Y338000D02*
D03*
X168000D02*
D03*
X199000Y306000D02*
D03*
X329000Y639000D02*
D03*
X317000Y348000D02*
D03*
X196000Y225000D02*
D03*
Y296000D02*
D03*
X396000Y261000D02*
D03*
X397000Y448000D02*
D03*
X452000Y261000D02*
D03*
X491000Y262000D02*
D03*
Y231000D02*
D03*
Y163000D02*
D03*
X412500Y465000D02*
D03*
X442500Y207500D02*
D03*
Y217500D02*
D03*
X390888Y221095D02*
D03*
X429636Y223949D02*
D03*
X410000Y213500D02*
D03*
Y200000D02*
D03*
X430000Y152500D02*
D03*
X440000Y137500D02*
D03*
Y147500D02*
D03*
X391000Y150000D02*
D03*
X410000Y142500D02*
D03*
Y130000D02*
D03*
D96*
X368000Y506000D02*
D03*
X340000Y475000D02*
D03*
Y501000D02*
D03*
X349000Y485000D02*
D03*
X344000Y445000D02*
D03*
Y511000D02*
D03*
X288000D02*
D03*
X348000Y518000D02*
D03*
X370000Y425000D02*
D03*
X281039D02*
D03*
X260000Y421000D02*
D03*
X360000D02*
D03*
X381000Y506000D02*
D03*
Y537000D02*
D03*
X275000D02*
D03*
X284000Y559000D02*
D03*
X454000Y501000D02*
D03*
Y526000D02*
D03*
X457000Y514000D02*
D03*
Y529000D02*
D03*
X224000Y526000D02*
D03*
X415000Y517000D02*
D03*
X160378Y379400D02*
D03*
X137000Y656000D02*
D03*
X199000Y355000D02*
D03*
X187500Y397500D02*
D03*
X305000Y113000D02*
D03*
X254000Y296000D02*
D03*
X259000Y559000D02*
D03*
X288000Y370000D02*
D03*
X271000D02*
D03*
X288000Y366000D02*
D03*
X271000D02*
D03*
X274000Y643000D02*
D03*
X256000D02*
D03*
X274000Y639000D02*
D03*
X256000D02*
D03*
X156000Y444000D02*
D03*
X146000Y449000D02*
D03*
X157000D02*
D03*
X162000D02*
D03*
X173000D02*
D03*
X178000D02*
D03*
X184757Y488000D02*
D03*
X182106Y497500D02*
D03*
X207600Y520150D02*
D03*
X143900Y513809D02*
D03*
X197650Y509523D02*
D03*
X182746Y513746D02*
D03*
X185326Y543836D02*
D03*
X192500Y550000D02*
D03*
X141000Y670000D02*
D03*
Y601000D02*
D03*
X200000D02*
D03*
X284000Y554000D02*
D03*
X292294Y544400D02*
D03*
X287650Y492500D02*
D03*
Y355000D02*
D03*
X284000Y318000D02*
D03*
X281039Y485000D02*
D03*
X275450Y489767D02*
D03*
X278389Y563924D02*
D03*
X278924Y298389D02*
D03*
X262879Y660000D02*
D03*
X259850Y465000D02*
D03*
Y537500D02*
D03*
X263000Y416000D02*
D03*
X252000Y522000D02*
D03*
X227378Y521100D02*
D03*
X220000Y529000D02*
D03*
X415000Y532650D02*
D03*
X224000Y518000D02*
D03*
X215000Y515000D02*
D03*
X166704Y448697D02*
D03*
X140000Y449000D02*
D03*
X197000Y434000D02*
D03*
Y444000D02*
D03*
X182000D02*
D03*
X205000Y460000D02*
D03*
X199000Y463000D02*
D03*
X200735Y514487D02*
D03*
X197664Y470576D02*
D03*
X206175Y479878D02*
D03*
X200000Y475000D02*
D03*
X210611Y492076D02*
D03*
X207375Y484980D02*
D03*
X193000Y447000D02*
D03*
X197500Y450000D02*
D03*
X150253Y445093D02*
D03*
X201000Y489000D02*
D03*
X205000Y492500D02*
D03*
X173000Y514000D02*
D03*
X178000D02*
D03*
X168000D02*
D03*
X163000D02*
D03*
X235378Y686900D02*
D03*
X168000Y686000D02*
D03*
X370000Y459000D02*
D03*
X378000Y218500D02*
D03*
X148924Y413389D02*
D03*
X483000Y174000D02*
D03*
X205000Y512000D02*
D03*
X208075Y499500D02*
D03*
Y507000D02*
D03*
X427878Y660600D02*
D03*
X454111Y663924D02*
D03*
X151200Y672500D02*
D03*
X324622Y671900D02*
D03*
X158100Y632122D02*
D03*
X424378Y325100D02*
D03*
Y347100D02*
D03*
X423622Y370100D02*
D03*
X424000Y392000D02*
D03*
X424378Y303100D02*
D03*
X423622Y283100D02*
D03*
X432000Y284000D02*
D03*
X431622Y302400D02*
D03*
X428635Y412939D02*
D03*
X431500Y367674D02*
D03*
X431622Y344900D02*
D03*
Y322400D02*
D03*
X230424Y489389D02*
D03*
X229424Y468389D02*
D03*
X230600Y479622D02*
D03*
X251464Y506277D02*
D03*
X254400Y469622D02*
D03*
X251000Y495000D02*
D03*
Y485000D02*
D03*
Y475000D02*
D03*
Y465000D02*
D03*
X117122Y423100D02*
D03*
X272500Y597500D02*
D03*
X416000Y270000D02*
D03*
X240000Y575000D02*
D03*
X125000Y218000D02*
D03*
X275000Y270000D02*
D03*
X195000Y362500D02*
D03*
X287500Y275000D02*
D03*
X292500Y335000D02*
D03*
X302500Y377500D02*
D03*
X474000Y242000D02*
D03*
X254000Y434000D02*
D03*
X195600Y559622D02*
D03*
X192500Y565000D02*
D03*
X201553Y456022D02*
D03*
X188100Y630378D02*
D03*
X137500Y597500D02*
D03*
X272500Y480000D02*
D03*
X267500Y650000D02*
D03*
Y405000D02*
D03*
X232648Y501870D02*
D03*
X155000Y625000D02*
D03*
X245000D02*
D03*
X167500Y570000D02*
D03*
X177500Y550000D02*
D03*
X220000Y512500D02*
D03*
X215000Y532500D02*
D03*
X340000Y127500D02*
D03*
Y270000D02*
D03*
X275000Y475000D02*
D03*
X360000Y220000D02*
D03*
X257500Y457500D02*
D03*
X235000D02*
D03*
X350000Y397500D02*
D03*
X165000Y550000D02*
D03*
X172500Y387500D02*
D03*
X167500Y400000D02*
D03*
X252500Y547500D02*
D03*
X165000Y467500D02*
D03*
X150000Y497500D02*
D03*
X132500Y542500D02*
D03*
X165000Y487500D02*
D03*
X160000Y500000D02*
D03*
X177500D02*
D03*
X253075Y449500D02*
D03*
X204175Y466622D02*
D03*
X155000Y400000D02*
D03*
X472500Y665000D02*
D03*
X470000Y437500D02*
D03*
X430878Y391400D02*
D03*
X352500Y122500D02*
D03*
X350000Y195000D02*
D03*
X367500D02*
D03*
X370000Y122500D02*
D03*
X345339Y148000D02*
D03*
D97*
X253000Y195000D02*
D03*
X289000Y140000D02*
D03*
X201000Y337000D02*
D03*
X263865Y108193D02*
D03*
X287865Y122193D02*
D03*
X265565Y132735D02*
D03*
X250000Y228000D02*
D03*
X274000Y238000D02*
D03*
X250500Y247500D02*
D03*
X276000Y256000D02*
D03*
X198000Y319000D02*
D03*
X176000Y313000D02*
D03*
X176500Y328500D02*
D03*
X157000Y150000D02*
D03*
X130000Y226000D02*
D03*
D120*
X181240Y483364D02*
D03*
D121*
X177500D02*
D03*
X173760D02*
D03*
Y491636D02*
D03*
X181240D02*
D03*
D122*
X158272Y492500D02*
D03*
D123*
Y488760D02*
D03*
Y485020D02*
D03*
X150000D02*
D03*
Y492500D02*
D03*
D129*
X400000Y194544D02*
D03*
Y200456D02*
D03*
Y124544D02*
D03*
Y130456D02*
D03*
D130*
X189000Y529937D02*
D03*
Y522063D02*
D03*
X165575Y521626D02*
D03*
Y529500D02*
D03*
X175575Y521626D02*
D03*
Y529500D02*
D03*
X180575Y536626D02*
D03*
Y544500D02*
D03*
X155575Y405563D02*
D03*
Y413437D02*
D03*
X160575Y421626D02*
D03*
Y429500D02*
D03*
X179129Y405751D02*
D03*
Y413625D02*
D03*
X193075Y413437D02*
D03*
Y405563D02*
D03*
X150575Y421626D02*
D03*
Y429500D02*
D03*
X185575Y428437D02*
D03*
Y420563D02*
D03*
X173075D02*
D03*
Y428437D02*
D03*
X168075Y405563D02*
D03*
Y413437D02*
D03*
X170575Y544500D02*
D03*
Y536626D02*
D03*
D131*
X139020Y532000D02*
D03*
X132130D02*
D03*
D132*
X218063Y502000D02*
D03*
X225937D02*
D03*
X217063Y492000D02*
D03*
X224937D02*
D03*
Y479000D02*
D03*
X217063D02*
D03*
X222937Y467000D02*
D03*
X215063D02*
D03*
X227012Y457000D02*
D03*
X219138D02*
D03*
X236638Y484500D02*
D03*
X244512D02*
D03*
X236638Y494500D02*
D03*
X244512D02*
D03*
X243937Y510000D02*
D03*
X236063D02*
D03*
X244512Y464500D02*
D03*
X236638D02*
D03*
X244512Y449500D02*
D03*
X236638D02*
D03*
X131063Y430000D02*
D03*
X138937D02*
D03*
X236638Y474500D02*
D03*
X244512D02*
D03*
D133*
X398772Y205500D02*
D03*
Y210500D02*
D03*
Y215500D02*
D03*
Y220500D02*
D03*
X420228Y205500D02*
D03*
Y210500D02*
D03*
Y215500D02*
D03*
Y220500D02*
D03*
X420728Y150000D02*
D03*
Y145000D02*
D03*
Y140000D02*
D03*
Y135000D02*
D03*
X399272Y150000D02*
D03*
Y145000D02*
D03*
Y140000D02*
D03*
Y135000D02*
D03*
D134*
X409500Y213000D02*
D03*
X410000Y142500D02*
D03*
M02*
