G04*
G04 #@! TF.GenerationSoftware,Altium Limited,Altium Designer,22.6.1 (34)*
G04*
G04 Layer_Color=8388736*
%FSLAX25Y25*%
%MOIN*%
G70*
G04*
G04 #@! TF.SameCoordinates,26821394-4C13-4CD4-A4B4-11F4951342BE*
G04*
G04*
G04 #@! TF.FilePolarity,Negative*
G04*
G01*
G75*
%ADD12C,0.01000*%
%ADD16C,0.00236*%
%ADD19R,0.03740X0.05709*%
%ADD22R,0.03378X0.04969*%
%ADD26R,0.04969X0.03182*%
%ADD27R,0.03765X0.06127*%
%ADD28R,0.05000X0.02402*%
%ADD29R,0.02402X0.05000*%
%ADD32R,0.05709X0.03740*%
%ADD35R,0.03937X0.07087*%
%ADD37R,0.05512X0.03740*%
%ADD38R,0.05938X0.04750*%
%ADD40R,0.03937X0.02756*%
%ADD42R,0.02362X0.05709*%
%ADD43R,0.05906X0.09449*%
%ADD45R,0.04961X0.02402*%
%ADD46R,0.05733X0.04940*%
%ADD50R,0.05363X0.04743*%
%ADD51R,0.04969X0.03378*%
%ADD53R,0.03740X0.05512*%
%ADD54R,0.08792X0.15761*%
%ADD55R,0.06706X0.04343*%
%ADD56R,0.05524X0.03162*%
%ADD57R,0.06115X0.06902*%
%ADD58R,0.05721X0.06902*%
%ADD59R,0.15761X0.08792*%
%ADD60R,0.16548X0.10642*%
%ADD61R,0.04343X0.03556*%
%ADD62R,0.05524X0.05524*%
%ADD63R,0.06509X0.05328*%
%ADD64R,0.04737X0.06115*%
%ADD65R,0.06902X0.06706*%
%ADD66R,0.04737X0.03162*%
%ADD67R,0.06115X0.04737*%
%ADD68R,0.07887X0.18517*%
%ADD69R,0.06509X0.04934*%
%ADD70R,0.05328X0.06115*%
G04:AMPARAMS|DCode=71|XSize=29.65mil|YSize=39.5mil|CornerRadius=5.95mil|HoleSize=0mil|Usage=FLASHONLY|Rotation=0.000|XOffset=0mil|YOffset=0mil|HoleType=Round|Shape=RoundedRectangle|*
%AMROUNDEDRECTD71*
21,1,0.02965,0.02760,0,0,0.0*
21,1,0.01776,0.03950,0,0,0.0*
1,1,0.01190,0.00888,-0.01380*
1,1,0.01190,-0.00888,-0.01380*
1,1,0.01190,-0.00888,0.01380*
1,1,0.01190,0.00888,0.01380*
%
%ADD71ROUNDEDRECTD71*%
%ADD72R,0.06706X0.06902*%
%ADD73R,0.07887X0.07887*%
%ADD74C,0.07887*%
%ADD75C,0.07800*%
%ADD76C,0.21685*%
%ADD77R,0.21685X0.21685*%
G04:AMPARAMS|DCode=78|XSize=165.48mil|YSize=59.18mil|CornerRadius=16.8mil|HoleSize=0mil|Usage=FLASHONLY|Rotation=90.000|XOffset=0mil|YOffset=0mil|HoleType=Round|Shape=RoundedRectangle|*
%AMROUNDEDRECTD78*
21,1,0.16548,0.02559,0,0,90.0*
21,1,0.13189,0.05918,0,0,90.0*
1,1,0.03359,0.01280,0.06594*
1,1,0.03359,0.01280,-0.06594*
1,1,0.03359,-0.01280,-0.06594*
1,1,0.03359,-0.01280,0.06594*
%
%ADD78ROUNDEDRECTD78*%
G04:AMPARAMS|DCode=79|XSize=145.8mil|YSize=59.18mil|CornerRadius=16.8mil|HoleSize=0mil|Usage=FLASHONLY|Rotation=90.000|XOffset=0mil|YOffset=0mil|HoleType=Round|Shape=RoundedRectangle|*
%AMROUNDEDRECTD79*
21,1,0.14580,0.02559,0,0,90.0*
21,1,0.11221,0.05918,0,0,90.0*
1,1,0.03359,0.01280,0.05610*
1,1,0.03359,0.01280,-0.05610*
1,1,0.03359,-0.01280,-0.05610*
1,1,0.03359,-0.01280,0.05610*
%
%ADD79ROUNDEDRECTD79*%
G04:AMPARAMS|DCode=80|XSize=145.8mil|YSize=59.18mil|CornerRadius=16.8mil|HoleSize=0mil|Usage=FLASHONLY|Rotation=180.000|XOffset=0mil|YOffset=0mil|HoleType=Round|Shape=RoundedRectangle|*
%AMROUNDEDRECTD80*
21,1,0.14580,0.02559,0,0,180.0*
21,1,0.11221,0.05918,0,0,180.0*
1,1,0.03359,-0.05610,0.01280*
1,1,0.03359,0.05610,0.01280*
1,1,0.03359,0.05610,-0.01280*
1,1,0.03359,-0.05610,-0.01280*
%
%ADD80ROUNDEDRECTD80*%
%ADD81C,0.07099*%
%ADD82R,0.07099X0.07099*%
%ADD83R,0.07099X0.07099*%
%ADD84R,0.11024X0.11024*%
%ADD85C,0.11024*%
%ADD86C,0.06706*%
%ADD87R,0.06706X0.06706*%
%ADD88R,0.06902X0.06902*%
%ADD89C,0.06902*%
%ADD90R,0.06706X0.06706*%
%ADD91C,0.07296*%
%ADD92R,0.07296X0.07296*%
%ADD93R,0.05118X0.05118*%
%ADD94C,0.05118*%
%ADD95C,0.05800*%
%ADD96C,0.03200*%
%ADD97C,0.04000*%
D12*
X100000Y100000D02*
Y700000D01*
X500000D01*
Y100000D02*
Y700000D01*
X100000Y100000D02*
X500000D01*
D16*
X443720Y656100D02*
X441221D01*
X440722Y655601D01*
Y654601D01*
X441221Y654101D01*
X443720D01*
X440722Y653101D02*
Y652102D01*
Y652601D01*
X443720D01*
X443221Y653101D01*
X440722Y649103D02*
X443720D01*
X442221Y650602D01*
Y648603D01*
D19*
X264839Y195000D02*
D03*
X257161D02*
D03*
X466839Y242000D02*
D03*
X459161D02*
D03*
X231839Y288000D02*
D03*
X224161D02*
D03*
X153161Y372000D02*
D03*
X160839D02*
D03*
X374839Y512000D02*
D03*
X367161D02*
D03*
X173839Y632500D02*
D03*
X166161D02*
D03*
X463661Y657500D02*
D03*
X471339D02*
D03*
X477503Y173500D02*
D03*
X469826D02*
D03*
X350161Y148000D02*
D03*
X357839D02*
D03*
D22*
X455059Y495000D02*
D03*
X448941D02*
D03*
D26*
X223000Y317843D02*
D03*
Y324158D02*
D03*
X295226Y241158D02*
D03*
Y234842D02*
D03*
D27*
X191340Y306388D02*
D03*
X182088D02*
D03*
X266626Y225000D02*
D03*
X257374D02*
D03*
X271239Y109581D02*
D03*
X280491D02*
D03*
D28*
X189925Y456098D02*
D03*
Y459642D02*
D03*
Y463185D02*
D03*
Y466728D02*
D03*
Y470311D02*
D03*
Y473854D02*
D03*
Y477398D02*
D03*
Y480941D02*
D03*
Y484484D02*
D03*
Y488027D02*
D03*
Y491610D02*
D03*
Y495154D02*
D03*
Y498697D02*
D03*
Y502240D02*
D03*
Y505784D02*
D03*
D29*
X138000Y454882D02*
D03*
X141543D02*
D03*
X145087D02*
D03*
X148630D02*
D03*
X152213D02*
D03*
X155756D02*
D03*
X159299D02*
D03*
X162843D02*
D03*
X166386D02*
D03*
X169929D02*
D03*
X173512D02*
D03*
X177055D02*
D03*
X180598D02*
D03*
X184142D02*
D03*
Y507000D02*
D03*
X180598D02*
D03*
X177055D02*
D03*
X173512D02*
D03*
X169929D02*
D03*
X166386D02*
D03*
X162843D02*
D03*
X159299D02*
D03*
X155756D02*
D03*
X152213D02*
D03*
X148630D02*
D03*
X145087D02*
D03*
X141543D02*
D03*
X138000D02*
D03*
D32*
X378000Y231000D02*
D03*
Y223323D02*
D03*
X462500Y436339D02*
D03*
Y428661D02*
D03*
D35*
X147000Y522000D02*
D03*
X156843D02*
D03*
D37*
X208575Y532772D02*
D03*
Y525488D02*
D03*
X201000Y324358D02*
D03*
Y331642D02*
D03*
X276000Y250642D02*
D03*
Y243358D02*
D03*
X289865Y127551D02*
D03*
Y134835D02*
D03*
X446161Y668858D02*
D03*
Y676142D02*
D03*
D38*
X212000Y317863D02*
D03*
Y326137D02*
D03*
D40*
X167500Y135000D02*
D03*
Y138740D02*
D03*
Y142480D02*
D03*
X157264D02*
D03*
Y138740D02*
D03*
Y135000D02*
D03*
D42*
X173150Y322000D02*
D03*
X166850D02*
D03*
D43*
X230716Y239000D02*
D03*
X245284D02*
D03*
D45*
X170217Y187480D02*
D03*
X162382Y183740D02*
D03*
Y191220D02*
D03*
D46*
X178621Y353251D02*
D03*
Y346749D02*
D03*
X167950Y353251D02*
D03*
Y346749D02*
D03*
X244000Y264749D02*
D03*
Y271251D02*
D03*
X232262Y264498D02*
D03*
Y271000D02*
D03*
X276865Y166444D02*
D03*
Y159942D02*
D03*
X265865Y166444D02*
D03*
Y159942D02*
D03*
D50*
X427500Y669150D02*
D03*
Y675849D02*
D03*
D51*
X404067Y459146D02*
D03*
Y465264D02*
D03*
D53*
X406142Y237500D02*
D03*
X398858D02*
D03*
X413858D02*
D03*
X421142D02*
D03*
X406142Y167500D02*
D03*
X398858D02*
D03*
X413858D02*
D03*
X421142D02*
D03*
D54*
X339000Y485000D02*
D03*
X323000Y475000D02*
D03*
X335000Y445000D02*
D03*
X265575Y452000D02*
D03*
X245000Y515835D02*
D03*
X235000Y515835D02*
D03*
X130000Y425000D02*
D03*
Y405000D02*
D03*
X245000Y671000D02*
D03*
X324519Y658847D02*
D03*
X284519Y661347D02*
D03*
X294519D02*
D03*
X437500Y637500D02*
D03*
X489000Y190000D02*
D03*
X485314Y137865D02*
D03*
X485000Y117000D02*
D03*
X489000Y210000D02*
D03*
D55*
X423898Y500795D02*
D03*
Y495215D02*
D03*
X436102Y500785D02*
D03*
Y495215D02*
D03*
D56*
X210331Y280260D02*
D03*
Y287740D02*
D03*
X201669Y284000D02*
D03*
X140331Y362260D02*
D03*
Y369740D02*
D03*
X131669Y366000D02*
D03*
X248000Y188000D02*
D03*
Y195480D02*
D03*
X239339Y191740D02*
D03*
D57*
X448161Y508000D02*
D03*
X455839D02*
D03*
D58*
X424035Y511000D02*
D03*
X415965D02*
D03*
D59*
X440500Y174000D02*
D03*
X211500Y223500D02*
D03*
X212000Y297000D02*
D03*
X189000Y284000D02*
D03*
X249865Y206193D02*
D03*
X120000Y365968D02*
D03*
X427500Y247500D02*
D03*
X392500D02*
D03*
X139000Y379969D02*
D03*
X225443Y191193D02*
D03*
X412000Y278000D02*
D03*
X412500Y295000D02*
D03*
Y315000D02*
D03*
Y337500D02*
D03*
Y360000D02*
D03*
Y382500D02*
D03*
Y405000D02*
D03*
X148000Y684000D02*
D03*
X134000Y270000D02*
D03*
X140000Y217500D02*
D03*
X260000Y575000D02*
D03*
Y587500D02*
D03*
Y597500D02*
D03*
X132382Y191240D02*
D03*
Y113740D02*
D03*
X323000Y411000D02*
D03*
X182500Y650000D02*
D03*
X312500Y640000D02*
D03*
X475000Y625000D02*
D03*
X415000Y690000D02*
D03*
X475000Y687500D02*
D03*
X352500Y115000D02*
D03*
X354000Y170000D02*
D03*
X215000Y687000D02*
D03*
X180752Y688000D02*
D03*
X427500Y437500D02*
D03*
X452500Y294065D02*
D03*
Y381016D02*
D03*
Y272500D02*
D03*
Y315000D02*
D03*
Y359295D02*
D03*
Y336134D02*
D03*
Y402500D02*
D03*
X350000Y187500D02*
D03*
X367500D02*
D03*
X370000Y115000D02*
D03*
D60*
X122252Y336243D02*
D03*
X153748D02*
D03*
X183252Y254160D02*
D03*
X214748D02*
D03*
X249613Y156198D02*
D03*
X218117D02*
D03*
X394252Y125000D02*
D03*
X425748D02*
D03*
Y200000D02*
D03*
X394252D02*
D03*
D61*
X431240Y292500D02*
D03*
X423760Y289941D02*
D03*
Y295059D02*
D03*
X431240Y312500D02*
D03*
X423760Y309941D02*
D03*
Y315059D02*
D03*
X431240Y357500D02*
D03*
X423760Y354941D02*
D03*
Y360059D02*
D03*
X431240Y380000D02*
D03*
X423760Y377441D02*
D03*
Y382559D02*
D03*
X431240Y402500D02*
D03*
X423760Y399941D02*
D03*
Y405059D02*
D03*
X431240Y272500D02*
D03*
X423760Y269941D02*
D03*
Y275059D02*
D03*
X431240Y335000D02*
D03*
X423760Y332441D02*
D03*
Y337559D02*
D03*
D62*
X369000Y240000D02*
D03*
X377268D02*
D03*
X453732Y173000D02*
D03*
X462000D02*
D03*
X448268Y242500D02*
D03*
X440000D02*
D03*
X451634Y427500D02*
D03*
X443366D02*
D03*
X385000Y459000D02*
D03*
X376732D02*
D03*
X223866Y280000D02*
D03*
X232134D02*
D03*
X161134Y364000D02*
D03*
X152866D02*
D03*
X265134Y188000D02*
D03*
X256866D02*
D03*
X366866Y520000D02*
D03*
X375134D02*
D03*
X165866Y640000D02*
D03*
X174134D02*
D03*
X463866Y647000D02*
D03*
X472134D02*
D03*
X357134Y158000D02*
D03*
X348866D02*
D03*
D63*
X312500Y661890D02*
D03*
Y655000D02*
D03*
X285564Y241926D02*
D03*
Y235036D02*
D03*
X299865Y120748D02*
D03*
Y127638D02*
D03*
D64*
X266618Y497000D02*
D03*
X259531D02*
D03*
X266618Y507000D02*
D03*
X259531D02*
D03*
X393543Y507500D02*
D03*
X386457D02*
D03*
D65*
X198075Y524913D02*
D03*
Y532000D02*
D03*
X465000Y676043D02*
D03*
Y668957D02*
D03*
D66*
X181587Y323740D02*
D03*
Y320000D02*
D03*
Y316260D02*
D03*
X192413D02*
D03*
Y320000D02*
D03*
Y323740D02*
D03*
X267413Y242740D02*
D03*
Y239000D02*
D03*
Y235260D02*
D03*
X256587D02*
D03*
Y239000D02*
D03*
Y242740D02*
D03*
X281278Y126933D02*
D03*
Y123193D02*
D03*
Y119453D02*
D03*
X270452D02*
D03*
Y123193D02*
D03*
Y126933D02*
D03*
D67*
X437500Y291457D02*
D03*
Y298543D02*
D03*
Y311457D02*
D03*
Y318543D02*
D03*
Y356457D02*
D03*
Y363543D02*
D03*
Y378957D02*
D03*
Y386043D02*
D03*
Y271457D02*
D03*
Y278543D02*
D03*
Y333957D02*
D03*
Y341043D02*
D03*
Y402500D02*
D03*
Y409587D02*
D03*
D68*
X244369Y124193D02*
D03*
X257361D02*
D03*
D69*
X308937Y127835D02*
D03*
Y120551D02*
D03*
D70*
X160575Y534500D02*
D03*
X166284D02*
D03*
X147366D02*
D03*
X153075D02*
D03*
D71*
X445462Y658620D02*
D03*
X441721D02*
D03*
X437981D02*
D03*
Y648581D02*
D03*
X445462D02*
D03*
D72*
X398957Y227500D02*
D03*
X406043D02*
D03*
X421043D02*
D03*
X413957D02*
D03*
X397913Y157500D02*
D03*
X405000D02*
D03*
X420000D02*
D03*
X412913D02*
D03*
D73*
X456000Y192225D02*
D03*
Y118000D02*
D03*
D74*
Y212225D02*
D03*
Y138000D02*
D03*
D75*
X359000Y515000D02*
D03*
Y505000D02*
D03*
Y495000D02*
D03*
Y485000D02*
D03*
Y475000D02*
D03*
Y465000D02*
D03*
Y455000D02*
D03*
Y445000D02*
D03*
Y435000D02*
D03*
X309000Y495000D02*
D03*
Y485000D02*
D03*
Y475000D02*
D03*
Y465000D02*
D03*
Y455000D02*
D03*
D76*
X131382Y137862D02*
D03*
D77*
Y168240D02*
D03*
D78*
X154409Y245000D02*
D03*
D79*
X130000D02*
D03*
D80*
X141811Y226496D02*
D03*
D81*
X158000Y650000D02*
D03*
X355000Y240000D02*
D03*
X339850Y410493D02*
D03*
X440000Y232500D02*
D03*
X442500Y437500D02*
D03*
X447511Y686993D02*
D03*
X221993Y558850D02*
D03*
Y568850D02*
D03*
Y548850D02*
D03*
Y538850D02*
D03*
X473986Y636087D02*
D03*
X440000Y163031D02*
D03*
X370000Y170000D02*
D03*
D82*
X158000Y660000D02*
D03*
X355000Y230000D02*
D03*
X221993Y578850D02*
D03*
X370000Y160000D02*
D03*
D83*
X349850Y410493D02*
D03*
X450000Y232500D02*
D03*
X452500Y437500D02*
D03*
X437511Y686993D02*
D03*
X463986Y636087D02*
D03*
X450000Y163031D02*
D03*
D84*
X189882Y170236D02*
D03*
D85*
Y188740D02*
D03*
Y207244D02*
D03*
D86*
X145000Y565000D02*
D03*
X127284D02*
D03*
Y590590D02*
D03*
X387283Y500000D02*
D03*
X405000D02*
D03*
Y474409D02*
D03*
X274519Y678847D02*
D03*
X284519D02*
D03*
X294519D02*
D03*
X304519D02*
D03*
X314519D02*
D03*
D87*
X145000Y590590D02*
D03*
X387283Y474409D02*
D03*
D88*
X180000Y672500D02*
D03*
D89*
X220000D02*
D03*
X200000D02*
D03*
X210000Y662500D02*
D03*
X190000Y672500D02*
D03*
X200000Y662500D02*
D03*
X190000D02*
D03*
X180000D02*
D03*
X210000Y672500D02*
D03*
X220000Y662500D02*
D03*
D90*
X324519Y678847D02*
D03*
D91*
X120000Y680000D02*
D03*
Y670000D02*
D03*
Y660000D02*
D03*
Y640000D02*
D03*
Y650000D02*
D03*
D92*
Y630000D02*
D03*
D93*
X469429Y338957D02*
D03*
Y275584D02*
D03*
X470012Y362255D02*
D03*
X469167Y296811D02*
D03*
X469429Y384474D02*
D03*
X469429Y317989D02*
D03*
X469429Y406457D02*
D03*
D94*
X477303Y338957D02*
D03*
X485177D02*
D03*
X477303Y275584D02*
D03*
X485177D02*
D03*
X477886Y362255D02*
D03*
X485760D02*
D03*
X477041Y296811D02*
D03*
X484915D02*
D03*
X477303Y384474D02*
D03*
X485177D02*
D03*
X477303Y317989D02*
D03*
X485177D02*
D03*
X477303Y406457D02*
D03*
X485177D02*
D03*
D95*
X217500Y287500D02*
D03*
X147000Y372000D02*
D03*
X290000Y108000D02*
D03*
X272000Y146000D02*
D03*
X262000D02*
D03*
X205500Y107500D02*
D03*
X205000Y202000D02*
D03*
X323000Y261000D02*
D03*
X311000D02*
D03*
X323000Y179000D02*
D03*
X312000D02*
D03*
X214500Y107500D02*
D03*
X214000Y202000D02*
D03*
X274000Y225000D02*
D03*
X249000Y256000D02*
D03*
X239000D02*
D03*
X217000Y348000D02*
D03*
X109000D02*
D03*
X183000Y338000D02*
D03*
X168000D02*
D03*
X199000Y306000D02*
D03*
X329000Y639000D02*
D03*
X317000Y348000D02*
D03*
X196000Y225000D02*
D03*
Y296000D02*
D03*
X396000Y261000D02*
D03*
X397000Y448000D02*
D03*
X452000Y261000D02*
D03*
X491000Y262000D02*
D03*
Y231000D02*
D03*
Y163000D02*
D03*
X412500Y465000D02*
D03*
X442500Y207500D02*
D03*
Y217500D02*
D03*
X390888Y221095D02*
D03*
X429636Y223949D02*
D03*
X410000Y213500D02*
D03*
Y200000D02*
D03*
X430000Y152500D02*
D03*
X440000Y137500D02*
D03*
Y147500D02*
D03*
X391000Y150000D02*
D03*
X410000Y142500D02*
D03*
Y130000D02*
D03*
D96*
X368000Y506000D02*
D03*
X340000Y475000D02*
D03*
Y501000D02*
D03*
X349000Y485000D02*
D03*
X344000Y445000D02*
D03*
Y511000D02*
D03*
X288000D02*
D03*
X348000Y518000D02*
D03*
X370000Y425000D02*
D03*
X281039D02*
D03*
X260000Y421000D02*
D03*
X360000D02*
D03*
X381000Y506000D02*
D03*
Y537000D02*
D03*
X275000D02*
D03*
X284000Y559000D02*
D03*
X454000Y501000D02*
D03*
Y526000D02*
D03*
X457000Y514000D02*
D03*
Y529000D02*
D03*
X224000Y526000D02*
D03*
X415000Y517000D02*
D03*
X160378Y379400D02*
D03*
X137000Y656000D02*
D03*
X199000Y355000D02*
D03*
X187500Y397500D02*
D03*
X305000Y113000D02*
D03*
X254000Y296000D02*
D03*
X259000Y559000D02*
D03*
X288000Y370000D02*
D03*
X271000D02*
D03*
X288000Y366000D02*
D03*
X271000D02*
D03*
X274000Y643000D02*
D03*
X256000D02*
D03*
X274000Y639000D02*
D03*
X256000D02*
D03*
X156000Y444000D02*
D03*
X146000Y449000D02*
D03*
X157000D02*
D03*
X162000D02*
D03*
X173000D02*
D03*
X178000D02*
D03*
X184757Y488000D02*
D03*
X182106Y497500D02*
D03*
X207600Y520150D02*
D03*
X143900Y513809D02*
D03*
X197650Y509523D02*
D03*
X182746Y513746D02*
D03*
X185326Y543836D02*
D03*
X192500Y550000D02*
D03*
X141000Y670000D02*
D03*
Y601000D02*
D03*
X200000D02*
D03*
X284000Y554000D02*
D03*
X292294Y544400D02*
D03*
X287650Y492500D02*
D03*
Y355000D02*
D03*
X284000Y318000D02*
D03*
X281039Y485000D02*
D03*
X275450Y489767D02*
D03*
X278389Y563924D02*
D03*
X278924Y298389D02*
D03*
X262879Y660000D02*
D03*
X259850Y465000D02*
D03*
Y537500D02*
D03*
X263000Y416000D02*
D03*
X252000Y522000D02*
D03*
X227378Y521100D02*
D03*
X220000Y529000D02*
D03*
X415000Y532650D02*
D03*
X224000Y518000D02*
D03*
X215000Y515000D02*
D03*
X166704Y448697D02*
D03*
X140000Y449000D02*
D03*
X197000Y434000D02*
D03*
Y444000D02*
D03*
X182000D02*
D03*
X205000Y460000D02*
D03*
X199000Y463000D02*
D03*
X200735Y514487D02*
D03*
X197664Y470576D02*
D03*
X206175Y479878D02*
D03*
X200000Y475000D02*
D03*
X210611Y492076D02*
D03*
X207375Y484980D02*
D03*
X193000Y447000D02*
D03*
X197500Y450000D02*
D03*
X150253Y445093D02*
D03*
X201000Y489000D02*
D03*
X205000Y492500D02*
D03*
X173000Y514000D02*
D03*
X178000D02*
D03*
X168000D02*
D03*
X163000D02*
D03*
X235378Y686900D02*
D03*
X168000Y686000D02*
D03*
X370000Y459000D02*
D03*
X378000Y218500D02*
D03*
X148924Y413389D02*
D03*
X483000Y174000D02*
D03*
X205000Y512000D02*
D03*
X208075Y499500D02*
D03*
Y507000D02*
D03*
X427878Y660600D02*
D03*
X454111Y663924D02*
D03*
X151200Y672500D02*
D03*
X324622Y671900D02*
D03*
X158100Y632122D02*
D03*
X424378Y325100D02*
D03*
Y347100D02*
D03*
X423622Y370100D02*
D03*
X424000Y392000D02*
D03*
X424378Y303100D02*
D03*
X423622Y283100D02*
D03*
X432000Y284000D02*
D03*
X431622Y302400D02*
D03*
X428635Y412939D02*
D03*
X431500Y367674D02*
D03*
X431622Y344900D02*
D03*
Y322400D02*
D03*
X230424Y489389D02*
D03*
X229424Y468389D02*
D03*
X230600Y479622D02*
D03*
X251464Y506277D02*
D03*
X254400Y469622D02*
D03*
X251000Y495000D02*
D03*
Y485000D02*
D03*
Y475000D02*
D03*
Y465000D02*
D03*
X117122Y423100D02*
D03*
X272500Y597500D02*
D03*
X416000Y270000D02*
D03*
X240000Y575000D02*
D03*
X125000Y218000D02*
D03*
X275000Y270000D02*
D03*
X195000Y362500D02*
D03*
X287500Y275000D02*
D03*
X292500Y335000D02*
D03*
X302500Y377500D02*
D03*
X474000Y242000D02*
D03*
X254000Y434000D02*
D03*
X195600Y559622D02*
D03*
X192500Y565000D02*
D03*
X201553Y456022D02*
D03*
X188100Y630378D02*
D03*
X137500Y597500D02*
D03*
X272500Y480000D02*
D03*
X267500Y650000D02*
D03*
Y405000D02*
D03*
X232648Y501870D02*
D03*
X155000Y625000D02*
D03*
X245000D02*
D03*
X167500Y570000D02*
D03*
X177500Y550000D02*
D03*
X220000Y512500D02*
D03*
X215000Y532500D02*
D03*
X340000Y127500D02*
D03*
Y270000D02*
D03*
X275000Y475000D02*
D03*
X360000Y220000D02*
D03*
X257500Y457500D02*
D03*
X235000D02*
D03*
X350000Y397500D02*
D03*
X165000Y550000D02*
D03*
X172500Y387500D02*
D03*
X167500Y400000D02*
D03*
X252500Y547500D02*
D03*
X165000Y467500D02*
D03*
X150000Y497500D02*
D03*
X132500Y542500D02*
D03*
X165000Y487500D02*
D03*
X160000Y500000D02*
D03*
X177500D02*
D03*
X253075Y449500D02*
D03*
X204175Y466622D02*
D03*
X155000Y400000D02*
D03*
X472500Y665000D02*
D03*
X470000Y437500D02*
D03*
X430878Y391400D02*
D03*
X352500Y122500D02*
D03*
X350000Y195000D02*
D03*
X367500D02*
D03*
X370000Y122500D02*
D03*
X345339Y148000D02*
D03*
D97*
X253000Y195000D02*
D03*
X289000Y140000D02*
D03*
X201000Y337000D02*
D03*
X263865Y108193D02*
D03*
X287865Y122193D02*
D03*
X265565Y132735D02*
D03*
X250000Y228000D02*
D03*
X274000Y238000D02*
D03*
X250500Y247500D02*
D03*
X276000Y256000D02*
D03*
X198000Y319000D02*
D03*
X176000Y313000D02*
D03*
X176500Y328500D02*
D03*
X157000Y150000D02*
D03*
X130000Y226000D02*
D03*
M02*
